<svg height="24" viewBox="0 0 24 24" width="24" xmlns="http://www.w3.org/2000/svg" xmlns:xlink="http://www.w3.org/1999/xlink"><defs><path id="a" d="m19 5h-10c-.55228475 0-1 .44771525-1 1s.44771525 1 1 1h10v13.25c0 .4142136-.3134007.75-.7.75h-10.85c-1.35309764 0-2.45-1.1752525-2.45-2.625v-12.75c0-1.44974747 1.09690236-2.625 2.45-2.625h10.85c.3865993 0 .7.33578644.7.75z"/><mask id="b" fill="#fff"><use fill="#fff" fill-rule="evenodd" xlink:href="#a"/></mask></defs><g fill="none" fill-rule="evenodd"><path d="m0 0h24v24h-24z"/><g fill="#335eea"><use opacity=".3" xlink:href="#a"/><path d="m10.8333333 19c-1.01252201 0-1.8333333-.6840094-1.8333333-1.5277778 0-.8437683.82081129-1.5277778 1.8333333-1.5277778.2142772 0 .4199685.0306341.6111111.0869335v-4.2397768c0-.3133603.1954218-.5903607.482436-.6838282l3.5138889-1.074661c.4427023-.14416814.892564.2004886.892564.6838283v1.0746609c0 .3582204-.3354001.5869998-.6111111.6528433-.3966925.0947356-1.415211.2984393-3.0555555.6111112v4.4479658c0 .0548648-.0044493.1056623-.0131263.1524655-.1089167.757122-.8823164 1.3440131-1.8202071 1.3440131z" mask="url(#b)"/></g></g></svg>