<svg height="24" viewBox="0 0 24 24" width="24" xmlns="http://www.w3.org/2000/svg"><g fill="none" fill-rule="evenodd"><path d="m0 0h24v24h-24z"/><path d="m8 17.0400072v-9.0400072c0-.43738497.28424981-.82401898.70172501-.95447998l8.99999999-2.5c.6439306-.20122831 1.298275.27983974 1.298275.95447998v11.5c-.0003873 1.1048793-1.119527 2-2.5 2-1.3807119 0-2.5-.8954305-2.5-2s1.1192881-2 2.5-2c.1712329 0 .338445.0137721.5.0400072v-7.0400072l-7 1.875v9.125c-.00038728 1.1048793-1.11952699 2-2.5 2-1.38071187 0-2.5-.8954305-2.5-2s1.11928813-2 2.5-2c.17123292 0 .33844503.0137721.5.0400072z" fill="#335eea"/></g></svg>