<svg viewBox="0 0 1000 1000" xmlns="http://www.w3.org/2000/svg" xmlns:xlink="http://www.w3.org/1999/xlink"><linearGradient id="a" x1="80.814265%" x2="43.696499%" y1="15.800799%" y2="97.437836%"><stop offset="0" stop-color="#0052cc"/><stop offset=".923" stop-color="#2684ff"/></linearGradient><g fill="none" transform="translate(171 171)"><path d="m196.327984 303.035568c-9.812979-10.482781-25.103219-9.888601-31.772443 3.449847l-160.92203827 321.851279c-2.98330733 5.963541-2.66555424 13.046685.83974936 18.719143 3.5053036 5.672459 9.69814381 9.125085 16.36627251 9.124507h224.1068144c7.335595.170055 14.081981-4.000028 17.209623-10.637628 48.323065-99.912323 19.04618-251.824426-65.827978-342.507148z" fill="url(#a)"/><path d="m314.400617 10.3063279c-90.005715 142.6032791-84.067513 300.5400111-24.782721 419.1131971l108.061596 216.123191c3.258568 6.517187 9.919596 10.633976 17.206022 10.634027h224.103213c6.668128.000578 12.860969-3.452048 16.366272-9.124507 3.505304-5.672458 3.823057-12.755602.83975-18.719143 0 0-301.487099-603.0606231-309.071-618.1492023-6.780858-13.50769944-24.004886-13.69135518-32.723132.1224372z" fill="#2681ff"/></g></svg>