<svg viewBox="0 0 1000 1000" xmlns="http://www.w3.org/2000/svg"><g fill="none" transform="translate(98.995298 83)"><path d="m779.595222 452.504239-327.10893 327.114501c-29.841172 29.84168-78.24728 29.84168-108.088452 0-29.873857-29.841681-29.841172-78.248613 0-108.090294l327.141615-327.147186c29.841172-29.84168 78.247279-29.84168 108.088452 0 29.841172 29.874366 29.841172 78.248613-.032685 108.122979z" fill="#fbbc04"/><circle cx="398.417237" cy="725.659769" fill="#34a853" r="76.424076" transform="matrix(.70710678 -.70710678 .70710678 .70710678 -396.425237 494.264356)"/><path d="m510.560431 183.401712-163.555729 163.527594 108.067691 108.070694 163.555729-163.527594c29.83544-29.83627 29.83544-78.234425 0-108.070694-29.868119-29.868949-78.232251-29.868949-108.067691 0z" fill="#fbbc04"/><path d="m291.463474 618.620932 163.541228-163.541228-108.079704-108.079704-163.541228 163.541228c-29.838757 29.838757-29.838757 78.240947 0 108.079704s78.240947 29.838757 108.079704 0z" fill="#3b80ef"/><circle cx="401.254432" cy="400.682156" fill="#34a853" r="76.424076" transform="matrix(.70710678 -.70710678 .70710678 .70710678 -165.800367 401.086816)"/><path d="m457.623442 130.471554-327.147186 327.147186c-29.841681 29.84168-78.2486128 29.84168-108.0902934 0-29.84168055-29.841681-29.84168055-78.248613 0-108.090294l327.1471864-327.1471856c29.84168-29.84168054 78.248612-29.84168054 108.090293 0 29.84168 29.8416806 29.84168 78.2486126 0 108.0902936z" fill="#3b80ef"/><circle cx="403.504702" cy="76.5" fill="#34a853" r="76.5"/></g></svg>