<svg viewBox="0 0 1000 1000" xmlns="http://www.w3.org/2000/svg"><g fill="none" transform="translate(145 92.5)"><path d="m683.448714 728.266495c-2.540609 2.541943-5.716369 3.812914-9.527282 3.812914-3.810912 0-6.986673-1.270971-9.527281-3.812914-2.540608-2.541942-3.810912-5.71937-3.810912-9.532284 0-3.812913 1.270304-7.308084 4.128488-9.850026 2.540608-2.541943 5.716369-3.495171 9.209705-3.495171 3.810913 0 6.986673 1.270971 9.527282 3.812913 2.540608 2.541943 3.810912 5.719371 3.810912 9.532284.317576 3.812914-.952728 6.990342-3.810912 9.532284m-17.149107-17.475854c-2.223032 2.2242-3.17576 4.766142-3.17576 7.625828 0 3.177428.952728 5.71937 3.17576 7.94357 2.223033 2.224199 4.763641 3.177428 7.939401 3.177428 3.175761 0 5.716369-.953229 7.939401-3.177428 2.223033-2.2242 3.175761-4.766142 3.175761-7.94357 0-2.859686-.952728-5.719371-3.175761-7.625828-2.223032-2.224199-4.76364-3.49517-7.939401-3.49517-3.17576.317742-5.716368 1.270971-7.939401 3.49517m12.06789 14.616169c-1.270304.953229-2.540608 1.270971-3.810913 1.270971-1.905456 0-3.810912-.635485-5.398792-2.224199s-2.223033-3.495171-2.223033-5.719371c0-2.224199.635153-4.130656 1.905457-5.71937s3.17576-2.2242 5.398792-2.2242c1.270305 0 2.540609.317743 3.810913.953229 1.58788.953228 2.858184 2.541942 3.17576 5.083885h-3.493336c-.317576-.953229-.635152-1.906457-1.270304-2.2242s-1.270304-.635486-1.905457-.635486c-.952728 0-1.905456.317743-2.540608 1.270972-.635152.953228-.952728 2.224199-.952728 3.812913s.317576 2.859685.952728 3.495171 1.58788 1.270971 2.540608 1.270971c.952729 0 1.587881-.317743 2.223033-.635485l.952728-1.906457h3.17576c-.317576 1.906457-1.270304 3.177428-2.540608 4.130656m33.66306-141.077803c0-1.270971-.317576-2.541942-.317576-3.812913 0-.953229-.317576-1.588714-.317576-2.2242-.317576-1.906457-.635152-3.495171-1.270304-5.401627-1.270304-3.495171-3.17576-6.990342-5.716369-9.850027-2.540608-2.859685-5.398792-5.083885-8.256977-6.672599-3.17576-1.588714-6.351521-2.541942-8.892129-3.177428-.952728 0-1.58788-.317743-2.223032-.317743 3.493336-15.251654-.952728-27.008138-3.810913-32.409765l.635152-.635486c3.810913-3.812913 6.986673-7.308084 9.844858-10.803255l.635152-.635486c2.223032-3.177428 3.493336-6.354856 4.446064-9.214541.635152-2.541942 1.270305-4.766142 1.270305-6.990341v-1.906457-1.270971-2.859686c-.317577-4.766141-.952729-10.803255-4.128489-17.475853-1.58788-3.177428-3.810913-6.672599-6.669097-9.850027s-6.351521-6.037113-10.480009-8.261313c-.317576-.317743-.635152-.317743-.952728-.635486-8.574554-12.391969-18.101835-22.241996-26.676388-29.55008-4.446064-3.812913-8.574553-6.990341-12.06789-9.532284-3.493336-2.541942-6.35152-4.448399-7.939401-5.71937-3.810912-2.859685-6.669096-4.448399-7.939401-5.083885-3.17576-1.906457-5.398792-3.495171-6.669096-4.448399-.952729-.953229-1.587881-1.270971-1.905457-1.588714 0 0 0-.317743-.317576-.953229-.317576-.953228-.317576-2.224199-.317576-4.448399 0-3.177428 0-7.94357.317576-14.298426.635152-10.167769 1.58788-23.83071 2.858185-42.577535.317576-6.037113.317576-11.756483.317576-16.840368-.317576-8.579056-1.587881-16.204883-3.175761-23.195225-.317576-1.588713-.952728-3.177427-1.270304-4.766141-.317576-1.270972-.635152-1.906457-.952728-2.541943-.317576-.953228-.635152-1.906457-1.270304-3.177428-.317576-.635485-.317576-1.270971-.952728-1.906457-.635152-1.588714-1.270305-3.177428-2.223033-4.766142l-.317576-.317742-.317576-.953229-.317576-.635485c-1.58788-2.859686-3.493336-5.401628-5.398792-7.625828-.952729-4.448399-2.540609-10.803255-5.398793-18.111339-2.540609-6.354856-5.716369-13.345198-10.48001-20.335539-1.58788-2.541943-3.493336-4.766142-5.398792-6.990342l.635152-.635485c.952728-.953229 23.183051-24.466196 40.967309-54.969505 32.710333-56.875961 21.912747-91.5099258 6.986673-110.5744938l-.317576-.6354856-.317576-.6354856c-14.290922-15.8871399-33.980636-25.4194239-57.79884-28.5968519-49.859438-6.354856-106.387974 18.4290824-121.314047 25.4194239l-27.31154-29.8678231c-2.540608-2.5419424-5.081217-5.0838847-7.939401-6.9903415-2.858185-1.9064568-6.033945-3.81291363-9.209705-5.40162762-6.351521-2.85968519-13.338194-4.76614199-20.960019-5.71937038-14.926074-1.9064568-32.07518 0-50.494591 4.76614198-27.629115 6.99034162-58.433991 20.97102472-90.826748 40.35333552-32.392756 19.3823107-66.055816 44.4839918-98.766149 74.3518151-40.014581 36.222679-73.0424892 74.669558-97.1782684 111.527722-12.0678896 18.11134-21.9127469 35.904937-29.2169958 53.063048-7.30424901 16.840368-12.06788963 33.045251-13.97334588 47.66142-1.27030417 10.803255-1.27030417 20.971024.95272812 30.185565.95272813 4.130657 2.2230323 7.94357 4.12848855 11.756484 2.22303229 4.766142 5.08121671 9.214541 8.57455311 13.027455l28.2642677 29.55008 3.1757604 3.177428-.317576.317743-.9527281 1.906457c-.6351521.953228-.9527281 1.906456-1.5878802 2.541942l-.9527282 1.906457c-.317576.953228-.9527281 1.906457-1.2703041 2.859685l-.9527281 1.906457c-.3175761.953228-.9527282 1.906457-1.2703042 2.859685-.3175761.635486-.6351521 1.270971-.6351521 1.906457l-.9527281 2.859685c-.3175761.635486-.3175761 1.270971-.6351521 1.906457-.3175761.953228-.6351521 1.906457-.9527281 3.177428 0 .317743-.3175761.635485-.3175761.953228s-.317576.635486-.317576.953229c-.3175761.953228-.6351521 2.224199-.9527281 3.177428 0 .635485-.3175761 1.270971-.3175761 1.906456 0 .317743-.317576.953229-.317576 1.270972 0 .635485-.3175761 1.270971-.3175761 1.906456 0 .635486-.317576 1.270972-.317576 1.906457-.3175761 1.270971-.3175761 2.541943-.6351521 4.130657 0 .317742 0 .635485-.317576 1.270971v.317743c0 .953228-.3175761 1.906456-.3175761 2.541942 0 1.270971-.317576 2.859685-.317576 4.130656v15.88714c0 .635486 0 1.270971.317576 1.906457 0 .635486 0 1.588714.3175761 2.541942v.953229c0 .635485.317576 1.588714.317576 2.224199 0 .635486.317576 1.270972.317576 2.2242 0 .317743 0 .635486.3175761.953228 0 .317743.317576.953229.317576 1.270972v.635485c0 .635486.3175761 1.270971.6351521 2.541943 0 .317742 0 .317742.3175761.635485.317576.635486.317576 1.270971.317576 1.588714l.317576.635486c0 .317743 0 .317743.3175761.635485l.317576.635486v.953228c0 .317743 0 .317743.3175761.635486l.317576.635486c0 .635485.317576.953228.317576 1.588714.3175761.635485.3175761 1.270971.6351521 2.541942v-.317743.317743c0 .317743 0 .317743.3175761.635486.317576.953228.6351521 1.588714.6351521 1.906456.317576.635486.635152 1.270972.9527281 2.541943l.317576.317743c.3175761.635485.3175761 1.270971.6351521 1.588714l.3175761.635485c0 .317743.317576.635486.317576.953229 0 .317742.317576.953228.6351521 1.270971l.317576.635485c.3175761.317743.3175761.953229.6351521 1.270972.317576.317742.317576.635485.317576.953228.3175761.635486.6351521 1.270971.9527282 2.2242l.317576.317742c.3175761.317743.3175761.635486.6351521.953229s.317576.953228.6351521 1.270971c.317576.317743.6351521.953228.9527281 1.906457l.317576.317743c.3175761.317742.3175761.635485.6351521.953228.3175761.635486.6351521.953228.6351521 1.270971.3175761.317743.6351521.953229.9527281 1.588714v.317743c.3175761.317743.3175761.635486.6351521.953228.3175761.635486.6351521.953229.9527281 1.270972.3175761.317742.6351521.953228 1.2703042 1.906456.3175761.317743.6351521.635486.6351521.953229.317576.635485.6351521.953228.9527281 1.270971.3175761.317743.6351521.953228.9527281 1.588714.3175761.317743.6351521.953228.9527282 1.270971.317576.635486.6351521.953229 1.2703041 1.270971l.9527282.953229.317576.317743c.6351521.635485.9527281 1.270971 1.5878802 1.906456l.6351521.635486.9527281.953228 1.9054563 1.906457.6351521.635486.9527281.953228.317576.317743c.6351521.635485 1.5878802 1.270971 2.2230323 2.224199l.3175761.317743c.317576.317743.635152.317743.9527281.953229.9527281.953228 1.9054562 1.588714 2.8581844 2.541942l.635152.317743.3175761.317743.6351521.317742c.9527281.635486 1.5878802 1.270972 2.5406083 1.906457l.317576.317743c.3175761.317743.6351521.317743.6351521.317743l.6351521.635485c.6351521.635486 1.2703042.953229 1.9054563 1.588714l.635152.317743.6351521.635486.3175761.317743c.635152.317742 1.5878802.953228 2.2230323 1.270971.317576.317743.635152.635485 1.2703041.635485l.6351521.317743.3175761.317743h.317576c1.2703042.635486 2.2230323 1.270971 3.1757604 1.906457l.6351521.317743 3.8109125 1.906456h.317576l.6351521.317743 1.9054563.953229c.317576 0 .6351521.317742.9527281.317742.317576.317743.6351521.317743 1.2703042.635486h.317576c.6351521.317743 1.2703042.635486 1.9054563.635486h.317576c.6351521.317742 1.2703041.635485 2.2230321.953228h.317576l.635152.317743c.317576 0 .635152.317743.952728.317743h.317576c.952729.317742 1.905457.635485 3.175761.953228h.317576c1.58788.635486 3.17576.953228 4.763641 1.270971h.317576c1.270304.317743 2.858184.635486 4.128488.953229h1.270304c1.270304.317742 2.540609.635485 3.810913.635485h1.270304c.952728 0 1.58788.317743 2.540608.317743 0 .317743.317576.635486.317576.953228 2.223033 6.037114 4.446065 12.074227 6.986673 17.793597 37.473973 103.901895 141.321339 184.608566 259.777202 199.542478 118.455864 14.616169 245.168705-64.184045 296.616023-170.627883 2.223033-4.130657 4.128489-7.94357 6.033945-12.074227 5.081217-5.401627 9.209705-10.803255 11.750314-16.522625 4.128488-3.495171 5.081216-10.485512 4.76364-16.522626m-657.6999821-41.306563h.3175761z" fill="#664f44" transform="translate(0 .5)"/><path d="m611.513752 65.0957771c-5.719359-6.3686477-12.391945-11.1451336-19.700016-14.6478898-1.270968-.6368648-2.541937-.9552972-4.130648-1.2737296-.635485-.3184324-1.270969-.9552972-1.906453-1.2737295-6.354844-2.5474591-13.02743-4.1396211-20.017758-5.0949182-34.316157-4.4580535-73.716189 8.279242-95.958142 17.1953489-1.270969.6368648-2.541938.9552972-3.812907 1.5921619-1.906453.9552972-3.812906 1.592162-5.719359 2.5474592-3.177422 1.2737295-6.354844 2.8658914-9.850008 4.4580534-.635484.3184324-.953226.3184324-1.588711.6368648l-6.037101-7.0055126-2.85968-3.1843239-2.541938-2.8658914-.953226-1.2737296-23.19518-26.7483206-1.906453-2.2290267-2.541938-2.8658915h-.317742l-6.672586 1.5921619-7.625813 1.592162c-4.130648-1.9105944-9.214523-3.1843239-14.933883-4.1396211-11.438719-1.5921619-26.05486 0-42.577453 4.1396211-16.522594 4.139621-35.269384 11.4635659-54.9694 21.33497-39.717774 19.742808-83.566196 49.9938849-126.14365 88.8426362-14.933883 13.37416-28.596797 27.385185-41.306485 41.077778-12.391945 13.37416-23.5129218 27.066753-33.6806719 40.122481-20.6532424 27.066753-36.2226098 53.178209-46.39036 76.742206-6.672586 15.603187-10.8032345 29.932644-12.3919454 42.351507-1.2709688 8.916107-.9532266 16.876917.6354843 23.245565.6354844 2.229026 1.2709688 3.821188 1.9064532 5.731782 1.588711 3.821189 3.4951641 7.005513 6.0371016 9.871405l25.7371176 27.066753 2.8596797 2.865891.3177422-.318432c.6354844-.955298 1.5887109-1.910595 2.5419375-2.547459l.3177422-.318433.9532266-.955297c.6354844-.955297 1.5887109-1.592162 2.2241953-2.547459.6354844-.636865.9532266-.955297 1.588711-1.27373.6354844-.318432.9532265-.955297 1.5887109-1.273729l.6354844-.636865c.6354844-.318432.9532266-.955297 1.588711-1.27373.6354844-.636864 1.5887109-1.273729 2.2241953-1.910594.3177422-.318432.9532266-.636865 1.2709688-.955297h.3177422c.9532265-.636865 1.5887109-1.27373 2.5419375-1.910594.6354844-.318433.9532266-.636865 1.588711-1.27373.9532265-.636865 1.5887109-1.27373 2.5419375-1.910594.6354844-.318433.9532266-.636865 1.5887109-.955297.9532266-.636865 1.9064532-1.27373 2.8596798-1.592162.6354844-.318433.9532265-.636865 1.5887109-.955298.9532266-.636864 1.9064532-.955297 2.8596798-1.592161.6354843-.318433.9532265-.636865 1.5887109-.955298l.6354844-.318432c.9532266-.318432 1.588711-.955297 2.5419375-1.27373.3177422-.318432.9532266-.318432 1.2709688-.636864.6354844-.318433 1.2709688-.636865 2.2241953-.955298l1.9064532-.955297.635484-.318432 4.766133-1.910594c.635485-.318433.953227-.318433 1.588711-.636865.635485-.318433.953227-.318433 1.588711-.636865l.635485-.318432c.317742 0 .635484-.318433.953226-.318433.635484-.318432 1.270969-.318432 2.224195-.636865h.635485c.953226-.318432 1.588711-.318432 2.541937-.636864.635485-.318433 1.588711-.318433 2.224196-.636865.953226-.318432 1.906453-.318432 2.859679-.636865.317743 0 .635485-.318432 1.270969-.318432.317742 0 .953227 0 1.270969-.318433.953227-.318432 1.906453-.318432 2.85968-.318432.953226 0 1.588711-.318432 2.541937-.318432.635485 0 1.270969-.318433 1.906453-.318433h2.541938c3.177422 0 6.990328 0 10.803234.318433h.635485c3.812906.318432 8.261297.955297 12.709687 1.910594.953227.318432 2.224196.318432 3.177422.636865.317743-.318433.317743-.955297.635485-1.27373 2.541937-4.139621 4.766133-8.597674 7.30807-12.737295 14.298399-23.882429 29.550024-44.898967 45.119391-63.368046 5.401618-6.368647 10.803235-12.10043 16.204852-17.832213 22.559696-23.563997 45.119391-41.714643 65.454892-55.725668 4.44839-3.184324 9.214523-6.050216 13.345172-8.916107 6.037101-3.821189 11.756461-7.005513 17.158078-10.189837 4.448391-2.547459 8.579039-4.776485 12.709688-6.68708 6.672586-3.502756 12.709687-6.368647 18.111305-8.597674l4.766132-1.910595c2.224196-.955297 4.448391-1.910594 6.354844-2.547459-1.588711-.318432-3.495164-.318432-5.083875-.318432h-6.354844c-1.588711 0-3.495164 0-5.083875.318432-3.177422.318433-6.672586.636865-10.16775.955298-1.270969.318432-2.224195.318432-3.495164.636864 8.579039-4.458053 17.158078-7.642377 25.101633-10.189836 5.401617-1.592162 10.803235-2.865892 15.88711-3.821189 6.990328-1.273729 13.662914-2.229026 19.700016-2.547459 4.130648-.318432 7.943554-.318432 11.438719-.318432 3.495164 0 6.990328.318432 9.850008.318432 10.485492.636865 16.840336 2.229027 16.840336 2.229027-1.588711-2.229027-3.495164-3.821189-5.401618-5.413351-3.812906-2.865891-7.943554-4.776486-11.756461-6.368647-1.588711-.636865-2.859679-.955298-4.130648-1.592162-.953227-.318433-1.906453-.636865-2.541938-.636865 1.906453-.318433 3.495164-.636865 5.083875-.636865 1.906454-.318432 3.495164-.318432 5.401618-.636865 14.933883-1.273729 28.279055 0 38.129063 1.592162 11.756461 2.229027 19.064531 5.094918 19.064531 5.094918-1.588711-3.184323-4.130648-6.050215-6.990328-8.597674-1.906453-1.592162-4.130649-3.184324-6.037102-4.458054 4.130649.955298 7.625813 1.910595 11.438719 3.184324 9.532266 2.865892 17.475821 6.368648 23.830665 9.23454l5.719359 2.865891c.635484.318432.953227.636865 1.270969.636865 5.719359 3.184324 8.896781 5.41335 8.896781 5.41335-.953226-3.502756-2.85968-6.68708-5.401617-9.552971-.635485-.636865-1.270969-1.592162-1.906453-2.229027h.317742c.317742 0 .635484.318433 1.270969.318433.317742 0 .953226.318432 1.588711.636864 2.541937.955297 6.354843 2.547459 10.803234 4.776486.317742 0 .317742.318432.635485.318432l1.906453.955298c1.588711.955297 3.177422 1.592162 4.766133 2.865891l4.766132 2.865892c.953227.636864 1.588711.955297 2.541938 1.592162 1.588711 1.273729 3.495164 2.547459 5.083875 4.139621 1.906453 1.592162 3.495164 3.184324 5.083875 4.776485l.953227.955298c1.270968 1.273729 2.541937 2.547459 3.495164 3.821188 2.224195 2.547459 4.130648 5.413351 6.037101 8.279242 2.224196 3.502757 3.812907 7.642378 5.401618 11.781999 0 .318432 0 .636864.317742.636864.953226-.955297 2.85968-2.865891 5.083875-5.41335 18.429047-21.653402 73.716188-91.708528 40.353258-134.3784679" fill="#132134"/><path d="m643.030723 385.274779s.635075-4.764211-1.905227-9.210809c0-.317614-.317538-.635228-.317538-.635228l-.317538-.317614-.952613-.952842c-.635076-.635228-1.270151-1.270457-2.222765-1.905685-.317538-.317614-.952613-.635228-1.587689-.952842-1.587689-.635228-3.175378-1.270456-5.398142-1.588071-1.58769-.317614-3.175379-.317614-5.080605-.317614h-2.540303v.635229c0 .317614.317538.635228.317538 1.270456 0 .317614 0 .635228.317538.635228.317538.952842.635075 2.540913.952613 3.811369 0 0 0 .317614-.317538.952843v.317614c-.952613 2.223298-3.492916 7.305124-9.208596 13.657406-.952613 1.270456-1.905227 2.223298-3.175378 3.493755-15.87689 16.515932-50.170974 39.701761-122.569594 52.723939-24.450411 3.493755-47.313133 3.811369-66.365401 1.270456-28.578403-3.493755-49.853436-12.704563-60.014646-25.091513-.952613-.952842-1.587689-2.223299-2.540302-3.176141-.635076-.952842-.952614-1.58807-1.587689-2.540913-.317538-.317614-.317538-.635228-.635076-.952842-4.127991-7.622738-6.033218-15.880705-6.033218-23.821057 0-9.846037 3.175378-19.056845 8.255983-26.044355 4.127991-5.717054 9.526134-10.163651 16.194428-12.069336 3.175378-.952842 6.668294-1.58807 10.16121-1.270456.635075 0 1.587689 0 2.85784.317614 2.222765.317614 5.715681.635228 9.843672 1.270456.317538 0 .952614 0 1.270151.317614 13.654126 1.588071 35.246697 3.811369 61.284797 2.223299 47.630671-2.858527 110.185619-17.786389 167.024886-69.239872v-.317615c.317538-4.446597-.317537-12.069335-5.71568-18.104003-.952613-.952842-1.905227-1.905684-3.175378-2.858527-.635076-.635228-1.587689-.952842-2.222765-1.58807-.952613-.317614-1.587689-.952842-2.222764-1.270456l-2.857841-1.905685v-.317614c-.317537-.635228-.635075-1.270456-1.270151-1.905685-14.606739-22.232986-34.929159-35.255164-43.185142-41.289832-3.810453-2.858527-6.350756-4.128983-6.350756-4.128983-17.464579-10.798879-20.004882-14.292634-18.417193-43.195517.635076-10.481265 1.587689-24.138671 2.857841-42.877902 0-2.540913.317537-4.764212.317537-6.98751v-1.588071-7.622738c0-1.58807-.317537-3.176141-.317537-4.446597 0-.635228 0-1.270457-.317538-1.905685-.317538-1.58807-.317538-3.176141-.635076-4.764211 0-.635228-.317538-1.5880706-.317538-2.2232988 0-.9528423-.317537-1.5880705-.635075-2.5409127-.317538-.6352282-.317538-1.5880705-.635076-2.2232987-.317538-.9528423-.635075-1.9056845-.635075-2.8585268 0-.3176141-.317538-.6352282-.317538-.9528423s-.317538-.6352282-.317538-.9528423v-.3176141l-.317538-.9528423c-.317538-.6352281-.635075-1.2704563-.635075-1.9056845v-.3176141l-.317538-.6352282-.317538-.6352282c-.635076-1.2704563-.952613-2.5409127-1.587689-3.493755l-.317538-.9528423c-.635075-.9528423-1.270151-2.2232986-1.905227-3.1761409l-.317538-.3176141-.317537-.3176141c-.635076-.6352282-.952614-1.2704564-1.587689-1.9056845l-.635076-.9528423c-.635076-.9528423-1.270151-1.5880705-1.905227-2.2232987v-2.5409127c-.317538-1.2704564-.635075-2.8585269-.952613-4.4465973 0-.3176141-.317538-.9528423-.317538-1.2704564v-.3176141c0-.6352282-.317538-.9528423-.317538-1.5880704-.317538-1.2704564-.635075-2.5409128-1.270151-3.8113692 0-.3176141-.317538-.9528422-.317538-1.2704563l-.952613-2.8585269c-.317538-.6352282-.317538-1.2704563-.635076-1.5880704-.317538-.9528423-.635076-1.9056846-1.270151-2.8585269l-.952614-1.9056845c-.317537-.9528423-.952613-1.9056846-1.270151-2.8585269l-.952613-1.9056845c-.635076-.9528423-.952614-1.9056846-1.587689-2.8585269l-.952614-1.9056845c-.635075-.9528423-1.270151-1.9056846-1.905227-3.1761409-.317537-.6352282-.635075-.9528423-.952613-1.5880705-.317538-.3176141-.635076-.9528423-.952613-1.2704564-.952614-.9528423-1.587689-1.9056845-2.540303-2.8585268l-.635075-.3176141c-1.270152-1.2704564-2.222765-2.5409128-3.492916-3.493755l-.317538-.3176141c-.635076-.3176141-1.270151-.9528423-1.587689-1.2704564h-.317538c-.635076-.3176141-.952613-.6352282-1.587689-.9528423l-.317538-.3176141c-.635075-.3176141-1.587689-.9528422-2.85784-1.5880704-.317538-.3176141-.952613-.3176141-1.587689-.6352282-2.85784-.9528423-6.350756-2.2232987-10.796286-3.493755-.317537 0-.635075 0-.952613-.3176141-3.492916-.9528423-7.620907-1.9056846-12.066437-2.5409128-1.587689-.3176141-2.85784-.3176141-4.445529-.6352282-.635076 0-1.270151 0-2.222765-.3176141h-.952613c-3.492916-.3176141-6.668294-.6352281-10.16121-.6352281h-.317538c-4.445529 0-8.891058.317614-13.01905 1.2704563.952614-1.5880704 3.810454-3.49375499 6.350756-5.08182546 3.492916-1.90568456 6.668294-3.17614093 6.668294-3.17614093-1.905226 0-3.810453.31761409-5.71568.63522819-.635076 0-1.270151.31761409-1.905227.31761409-.317538 0-.952613 0-1.270151.31761409h-.317538c-.317538 0-.635076 0-.952613.3176141-9.843672 2.22329865-19.369807 5.71705362-24.767949 7.94035232l-1.905227.9528423h-.317538c-.635076 0-.952613 0-1.587689.3176141 3.810454-7.30512417 9.526134-11.11649328 13.971663-13.02217784.635076-.31761409 1.587689-.63522819 2.222765-.95284228.317538 0 .317538 0 .635076-.31761409.635075-.31761409 1.270151-.31761409 1.587689-.63522819.952613-.31761409 1.587689-.31761409 1.587689-.31761409h-5.080605c-10.796286 1.27045637-20.639958 4.76421139-28.895941 9.52842279-5.71568 3.1761409-10.796285 6.6698959-15.241814 10.163651-1.270152.3176141-2.222765.6352282-3.492916.6352282-12.066437 2.5409127-25.720563 5.7170536-40.009764 10.1636509-5.398143 1.5880705-10.796285 3.4937551-16.194428 5.3994396-4.127991 1.5880705-8.573521 3.1761409-12.701512 4.7642114-3.175378 1.2704564-6.033219 2.5409127-9.208597 3.8113691-21.910108 9.8460369-43.820217 22.8682147-61.919872 40.3369898l-1.905227 1.9056846-4.763067 4.7642114-1.905227 1.9056845c-.635075.9528423-1.587689 1.9056846-2.222764 2.5409128-3.492916 3.8113691-6.668294 7.9403526-9.843672 12.3869496-2.222765 3.176141-4.44553 6.669896-6.350757 10.163651l-.317537.317614c-4.127992 7.305124-7.938446 14.927862-10.796286 23.503443-1.587689 4.128983-2.85784 8.57558-4.127991 13.022178-.317538 1.270456-.635076 2.223298-.952614 3.493755l-.317538.635228c-1.270151 4.764211-2.222764 9.846037-2.85784 14.927862 0 .952843-.317538 1.905685-.317538 3.176141-.317537 2.540913-.635075 5.081826-.635075 7.940353-.317538 2.540912-.317538 4.764211-.317538 7.305124v9.846037c0 2.858526 0 5.717053.317538 8.57558v.317614c0 2.858527.317538 5.717054.635075 8.893195 0 1.270456.317538 2.540913.317538 3.811369v.952842c0 .635228 0 1.270457.317538 2.223299.317538 3.176141.952613 6.669896 1.270151 10.163651 0 .952842.317538 1.905684.317538 2.858527.635076 2.858526.952613 6.034667 1.587689 8.893194 0 0-.635076-3.811369-.317538-9.528423 0-1.270456.317538-2.858526.317538-4.128983.317538-3.176141.952613-6.98751 2.222765-10.481265l.952613-2.858527c0-.317614.317538-.635228.635076-1.270456.635075-1.58807 1.587689-3.493755 2.540302-5.081826.317538 1.270457.317538 2.540913.635076 3.493756v16.833546c.317538 10.79888 1.270151 23.821057 3.492916 34.937551 0 0 .317537-20.009688 3.810453-22.550601 0 0 6.033219 37.478463 11.431361 51.453483.635076 1.905685 1.587689 3.176141 2.222765 4.128983v-3.811369l-.635076-20.644916v-2.223298c4.127992 8.57558 8.891059 17.151161 14.289202 26.361969 1.587689 2.540913 2.85784 5.081826 4.445529 7.622738-10.16121 8.893195-19.687344 21.915373-26.673176 37.160849-.952613 2.540913-2.222764 5.081826-3.175378 7.622739-.635075 1.58807-.952613 2.858526-1.587689 4.446597 0 .317614-.317538.952842-.317538 1.270456-.317537.952843-.635075 2.223299-.952613 3.176141 0 .635228-.317538.952842-.317538 1.588071-.317538.952842-.635075 2.223298-.952613 3.176141 0 .635228-.317538.952842-.317538 1.58807l-.952614 4.764211c-.317537 1.588071-.635075 3.176141-.635075 4.764212 0 .635228 0 .952842-.317538 1.58807 0 1.270457-.317538 2.223299-.317538 3.493755 0 .635228 0 1.270457-.317538 1.905685 0 1.270456-.317537 2.223299-.317537 3.493755v11.116493c0 1.270457 0 2.540913.317537 4.128983v.952843c0 1.58807.317538 3.176141.635076 5.081825 0 .635228 0 .952842.317538 1.588071 0 1.270456.317538 2.223298.635075 3.493755 0 .635228.317538 1.270456.317538 1.905684.317538.952842.317538 2.223299.635076 3.176141 0 .635228.317538 1.270456.317538 1.905685.317538.952842.635075 1.905684.635075 3.176141.317538.635228.317538 1.270456.635076 2.223298s.635076 2.223299.952613 3.176141c.317538.635228.317538 1.270457.635076 1.905685.317538.952842.635076 2.223298.952613 3.176141.317538.635228.317538 1.270456.635076 1.905684.317538 1.270457.952613 2.540913 1.270151 3.493755.317538.635228.317538.952842.635076 1.588071l4.763067 10.481265c.317538.635228.635076.952842.952613 1.58807l1.905227 3.811369c.317538.635229.635076 1.270457 1.270151 1.905685.635076.952842 1.270152 2.223299 1.905227 3.176141.317538.635228.952614 1.270456 1.270152 1.905684.635075.952843 1.270151 2.223299 2.222764 3.176141.635076.635228.952614 1.270457 1.587689 2.223299.635076.952842 1.587689 2.223299 2.222765 3.176141.635075.635228.952613 1.270456 1.587689 2.223299.952613.952842 1.587689 2.223298 2.540302 3.17614.635076.635229.952614 1.270457 1.587689 1.905685.952614 1.270456 1.905227 2.223299 3.175378 3.493755l1.587689 1.588071c1.58769 1.58807 3.175379 3.493755 4.763068 5.081825 0 0-.952614-1.270456-2.222765-3.811369-.317538-.317614-.635076-.952842-.635076-1.588071l-.952613-1.905684c-.317538-.635228-.635076-1.270457-.952614-2.223299-2.540302-5.717053-4.763067-13.97502-4.445529-22.868214l2.85784 3.811369c.952614 2.223298 2.540303 5.081825 4.127992 8.257966.635076.952842 1.270151 2.223299 1.587689 3.176141 2.540302 4.446597 5.080605 9.528423 8.255983 14.292634 3.810454 6.034668 7.620907 11.751722 11.748899 17.151161 0 0-4.763067-10.163651-6.350756-16.833547-.317538-1.905684-.635076-3.493755-.317538-4.446597.317538.317614.635075.952842 1.270151 1.270456.317538.317614.635076.952843 1.270151 1.270457.635076.952842 1.587689 2.223298 2.857841 3.811369l.635075.635228c.635076.635228.952614 1.58807 1.587689 2.223299.635076.952842 1.270151 1.905684 2.222765 2.858526 6.668294 8.575581 15.87689 20.009688 22.227646 26.044356 2.222765 1.905685 4.127992 3.493755 5.398143 4.128983l-9.208596-16.515933c20.957495 17.151161 107.962854 39.066534 193.380524 14.610249 10.478748-2.858527 20.639958-6.669896 30.801167-11.116494 6.033219-2.540912 12.066437-5.717053 18.099655-8.893194l.952614-.635228c4.127991-2.223299 8.255983-4.764212 12.383974-7.305124 3.175378-1.905685 6.350756-4.128984 9.208597-6.034668 5.080605-3.493755 10.161209-7.305124 15.241814-11.434108.317538-.317614.635076-.635228.952614-.635228 4.763067-4.128983 9.526134-8.57558 13.654125-13.022178 5.715681-6.034667 10.796286-12.069335 15.241815-18.104003l.317538-.317614c1.270151-1.58807 2.222765-2.858527 3.175378-4.446597l.317538-.317614c.317538-.635229.635076-.952843.952613-1.588071 1.587689-2.223298 2.857841-4.128983 4.44553-6.352282.317537-.635228.635075-.952842.952613-1.58807.635076-1.270456 1.270151-2.223299 2.222765-3.493755.635075-.952842.952613-1.588071 1.587689-2.540913.635075-.952842 1.270151-1.905684 1.587689-2.858527.952613-1.58807 1.905227-3.493755 2.85784-5.081825l.952613-1.905685 1.905227-3.811369.952614-1.905684.317538-.635229c.635075-1.58807 1.587689-3.176141 2.222764-4.764211v-.317614c2.85784-2.540913 4.763067-5.081826 6.668294-7.305124.317538-.317614.635076-.635228.635076-.952843 1.905227-6.034667 3.175378-10.798879 3.175378-15.245476m-510.918332-61.617134c0-.317614 0-.635228-.317537-1.270456-.952614-5.39944-1.905227-11.116494-2.222765-16.833547v-1.270457c-.952613.317614-1.905227 1.588071-3.175378 3.176141-.317538.635228-.952613 1.270457-1.270151 2.223299-2.857841 5.399439-5.398143 13.022178-5.398143 13.022178.317538-2.540913.635076-5.081826.635076-7.622739v-.952842c.317537-2.540913.635075-5.399439.952613-7.940352v-.952842c.317538-3.176141.952613-6.034668 1.587689-8.893195 0-.317614 0-.635228.317538-1.270456v-.317614c0-.317615 0-.635229.317538-.952843 0-.635228.317537-.952842.317537-1.58807.317538-2.223299.952614-4.446598 1.270152-6.669896.317538-1.905685.635075-3.811369.952613-5.39944v-.635228c0-.317614 0-.635228.317538-.635228v-.635228c0-.317614.317538-.952843.317538-1.270457s0-.635228.317538-.952842c0-.635228.317537-1.270456.317537-1.58807s.317538-.952843.317538-1.270457c0-.635228.317538-1.270456.317538-1.58807s0-.635228.317538-.952843c0-.317614 0-.635228.317538-.635228 0-.635228.317537-.952842.317537-1.270456v-.952842l-.635075.635228c-.635076.317614-.952614.952842-1.587689 1.270456l-.635076.635228c-.635075.635229-1.270151 1.270457-1.587689 1.905685l-.317538.317614-1.905227 2.858527-.317537.317614c0 .317614-.317538.317614-.317538.635228l-.952614 1.905685v.635228c-.317537.952842-.952613 1.905684-1.270151 2.858527-.952613 2.540912-1.905227 5.081825-2.540302 7.305124-.317538.635228-.317538 1.58807-.635076 1.905684-.317538 1.270457-.635075 2.540913-.635075 2.858527v.317614-.317614c0-.952842 0-1.58807.317537-2.540912 0-1.588071.317538-3.493756.317538-5.081826 0-1.270456.317538-2.858527.635076-4.128983 0-.317614 0-.952842.317538-1.270457 0-.635228.317537-1.270456.317537-1.905684s.317538-1.270456.317538-1.905685v-.952842c0-.635228.317538-1.58807.317538-2.223299v-1.58807-.635228c0-.317614 0-.635228.317538-.952843.317538-.952842.635075-2.223298.635075-3.17614v-.317615c.317538-.635228.317538-1.58807.635076-2.223298v-.317614c.317538-1.588071.952613-3.176141 1.270151-4.764212v-.635228c0-.317614 0-.635228.317538-.952842.635076-2.540913 1.587689-5.081826 2.222765-7.305124v-.317614c.635075-1.905685 1.587689-4.128984 2.222764-6.034668v-.317614c.317538-.952843.635076-1.588071.952614-2.540913.635075-1.270456.952613-2.540913 1.587689-3.811369 0-.317614.317538-.952842.952613-2.223299.317538-.317614.317538-.952842.635076-1.270456.317538-.635228.635075-1.270456.952613-2.223299l.317538-.635228 5.398143-9.846037c.317538-.317614.317538-.952842.635075-1.270456v-.317614l.317538-.635228c.635076-.952843 1.270151-2.223299 1.905227-3.176141.952613-1.588071 1.587689-3.176141 2.540302-4.446598 1.58769-2.858527 2.857841-5.399439 3.810454-6.669896.317538-.952842.635076-1.270456.952614-1.58807-.317538 0-1.905227-1.270456-4.44553-2.858527-3.175378-1.905685-7.620907-4.446597-13.01905-6.98751-1.905227-.952842-3.492916-1.58807-5.398143-2.540913-2.222764-.952842-4.763067-1.905684-7.303369-2.858527-.635076-.317614-1.270151-.317614-1.905227-.635228-2.222765-.635228-4.127991-1.270456-6.350756-1.905684-1.587689-.317614-3.175378-.635229-4.445529-.952843-1.270152-.317614-2.540303-.317614-3.810454-.635228-.6350756 0-1.2701513 0-1.9052269-.317614-.6350756 0-1.2701512 0-1.9052268-.317614-1.587689 0-3.4929159-.317614-5.0806049-.317614h-2.5403025c-3.8104537 0-7.3033695.317614-10.7962854.952842h-.6350756c-6.3507562.952842-12.3839745 2.540913-18.4171928 4.764212-1.9052269.635228-3.8104537 1.58807-6.0332184 2.540912-.6350756.317614-.9526134.635229-1.587689.635229l-1.9052268.952842c-5.7156806 2.858527-11.1138233 6.669896-16.1944282 10.798879h-.3175378c-4.4455293 3.493755-8.255983 7.622738-11.7488989 11.751721l-2.8578402 3.81137c-1.2701512 1.58807-2.2227647 3.17614-3.1753781 4.764211-1.9052268 2.858527-3.8104537 6.034668-5.3981427 9.210809-.63507561 1.270456-1.27015123 2.223298-1.58768904 3.493755 0 .317614-.3175378.317614-.3175378.635228-3.17537807 7.622738-5.71568053 15.56309-6.66829395 24.138671-.3175378 1.58807-.3175378 3.176141-.63507561 5.081825v.635229c0 1.270456-.31753781 2.540912-.31753781 4.128983v5.717053c0 1.270457 0 2.540913.31753781 3.81137v1.58807c0 .952842.31753781 1.905685.31753781 2.858527v.317614c0 .635228 0 .952842.3175378 1.58807 0 .952843.31753781 1.905685.31753781 2.540913s.31753781 1.270457.31753781 1.905685c.3175378.952842.3175378 1.58807.63507561 2.540912 0 .635229.31753781 1.270457.63507561 1.905685v.317614l.31753781.635228v.635228l.31753781.635229c.3175378.635228.3175378 1.270456.63507561 1.905684s.31753781 1.588071.63507562 2.223299c.3175378.635228.63507561 1.270456.63507561 2.223299l.31753781.635228c.3175378.635228.3175378.952842.63507561 1.58807s.63507561 1.270457.95261342 2.223299l.95261342 1.905684c.31753781.317614.31753781.635229.63507562.952843.3175378.317614.3175378.635228.63507561.952842l.9526134 1.905684c.3175378.635229.6350756 1.588071 1.2701512 2.223299.3175379.635228.6350757 1.270457.9526135 1.588071.3175378.635228.9526134 1.58807 1.2701512 2.223298s.6350756.952843.9526134 1.588071.9526134 1.58807 1.5876891 2.223298c.3175378.635229.6350756.952843.9526134 1.270457.6350756.635228.9526134 1.58807 1.587689 2.223298.3175378.317614.6350756.952843.9526134 1.270457.6350756.635228 1.2701513 1.58807 1.9052269 2.223298.3175378.317615.6350756.635229.9526134 1.270457.6350756.635228 1.2701512 1.58807 1.9052268 2.223298l.9526135.952843c.6350756.635228 1.2701512 1.58807 2.2227646 2.223298l.9526134.952843 2.2227647 2.223298c.3175378.317614.6350756.635228.9526134.635228.6350756.635229 1.587689 1.270457 2.5403024 2.223299.3175379.317614.6350757.317614.9526135.635228.9526134.635229 1.587689 1.270457 2.5403024 1.905685.3175378.317614.6350756.317614.6350756.635228l2.8578403 1.905685.6350756.317614 2.8578403 1.905684.6350756.317614c.9526134.635229 2.2227646 1.270457 3.1753781 1.905685l.6350756.317614c.9526134.635228 2.2227646 1.270456 3.175378 1.58807l.6350757.317615c1.2701512.635228 2.2227646.952842 3.4929158 1.58807l.3175378.317614c1.2701513.635228 2.5403025.952842 3.4929159 1.588071h.3175378c1.2701512.317614 2.5403025.952842 3.8104537 1.270456h.3175378c.6350756.317614 1.2701512.317614 1.9052268.635228.6350757.317614 1.2701513.317614 2.2227647.635228h.3175378c1.2701512.317614 2.8578403.635229 4.1279915.952843s2.8578403.635228 4.1279915.635228c4.4455293.635228 8.8910586.952842 13.3365879 1.270456h3.175378c1.5876891 0 2.8578403 0 4.4455293-.317614 1.9052273-.317614 4.1279913-.317614 6.3507563-.635228 1.905227-.317614 3.810454-.635228 5.398143-.952842 2.85784-.635229 5.71568-1.270457 8.255983-2.223299 8.255983-2.223299 15.241814-5.39944 19.687344-8.893195 0 0-2.857841-12.704563-5.080605-25.409127-.635076-.635228-.952614-1.905685-1.270152-3.176141" fill="#90694c" transform="translate(50 202.5)"/><path d="m386.060236 53.6322111-.952772-12.7372955 6.351812-14.0110251 2.540724-.6368647c-4.128677-1.9105944-9.210126-3.1843239-14.926756-4.1396211-11.43326-1.5921619-26.042426 0-42.557134 4.1396211-16.514709 4.139621-35.252552 11.4635659-54.943166 21.33497-39.698819 19.742808-83.526316 49.9938849-126.08345 88.8426362-14.926756 13.37416-28.58315 27.385185-41.286772 41.077778-12.386032 13.37416-23.5017013 27.066753-33.6645991 40.122481-20.643386 27.066753-36.2053232 53.178209-46.3682209 76.742206-6.6694016 15.603187-10.7980788 29.932644-12.3860316 42.351507-1.2703622 8.916107-.9527717 16.876917.6351811 23.245565.6351811 2.229026 1.2703622 3.821188 1.9055433 5.731782 1.5879528 3.821189 3.4934961 7.005513 6.0342206 9.871405l25.7248349 27.066753 2.8583149 2.865891.3175906-.318432c.6351811-.955298 1.5879528-1.910595 2.5407244-2.547459l.3175906-.318433.9527717-.955297c.6351811-.955297 1.5879527-1.592162 2.2231338-2.547459.6351811-.636865.9527717-.955297 1.5879528-1.27373.6351811-.318432.9527717-.955297 1.5879528-1.273729l.6351811-.636865c.6351811-.318432.9527716-.955297 1.5879528-1.27373.6351811-.636864 1.5879527-1.273729 2.2231338-1.910594.3175906-.318432.9527717-.636865 1.2703623-.955297h.3175905c.9527717-.636865 1.5879528-1.27373 2.5407244-1.910594.6351811-.318433.9527717-.636865 1.5879528-1.27373.9527717-.636865 1.5879528-1.27373 2.5407244-1.910594.6351812-.318433.9527717-.636865 1.5879528-.955297.9527717-.636865 1.9055433-1.27373 2.858315-1.592162.6351811-.318433.9527717-.636865 1.5879528-.955298.9527716-.636864 1.9055433-.955297 2.858315-1.592161.6351811-.318433.9527716-.636865 1.5879527-.955298l.6351811-.318432c6.0342206-16.876917 15.2443466-35.664428 27.3127876-54.770371 14.609166-23.563997 33.347008-48.401723 55.578347-73.239449 13.973984-15.603187 29.218331-31.206374 45.73304-46.172696 21.278567-19.424376 43.192315-36.938157 64.788473-52.222912 14.609165-10.189836 28.90074-19.424376 42.874725-27.385185 1.270362-.636865 2.540724-1.592162 4.128677-2.229027 3.811087-2.229027 7.304583-4.139621 11.115669-6.050215 7.939764-4.139622 15.879528-7.96081 23.501701-11.145134l-3.811086-4.458053-.635181-.636865-4.763859-5.4133508-26.360016-31.8432389.317591-22.9271319-.317591-.3184324 18.737843-5.731783z" fill="#2f83c1"/><path d="m588.030347 321.431534s.634994-4.759476-1.904983-9.201654c0-.317298-.317497-.634597-.317497-.634597l-.317497-.317298-.952491-.951896c-.634994-.634596-1.269989-1.269193-2.22248-1.90379-.317497-.317299-.952491-.634597-1.587485-.951895-1.587486-.634597-3.174971-1.269194-5.397451-1.586492-1.587485-.317299-3.174971-.317299-5.079953-.317299h-2.539977v.634597c0 .317298.317497.634597.317497 1.269194 0 .317298 0 .634596.317497.634596.317497.951896.634995 2.538388.952492 3.807582 0 0 0 .317298-.317497.951895v.317298c-.952492 2.221089-3.492468 7.297864-9.207416 13.643832-.952491 1.269194-1.904982 2.221089-3.174971 3.490283-15.874854 16.499518-50.164539 39.662303-122.553875 52.671538-24.447276 3.490283-47.307066 3.807581-66.356891 1.269194-28.574738-3.490283-49.847043-12.691937-60.006949-25.066576-.952492-.951895-1.587486-2.221089-2.539977-3.172984-.634994-.951895-.952491-1.586492-1.587486-2.538387-.317497-.317299-.317497-.634597-.634994-.951896-4.127462-7.615162-6.032444-15.864921-6.032444-23.797381 0-9.836251 3.174971-19.037905 8.254924-26.018471 4.127462-5.711371 9.524912-10.153549 16.192351-12.05734 3.174971-.951895 6.667439-1.586492 10.159907-1.269193.634994 0 1.587485 0 2.857474.317298 2.222479.317298 5.714947.634597 9.842409 1.269194.317498 0 .952492 0 1.269989.317298 13.652375 1.586492 35.242176 3.807581 61.276937 2.221089 47.624563-2.855686 110.171489-17.768712 167.003468-69.171056v-.317298c.317497-4.442178-.317497-12.05734-5.714948-18.08601-.952491-.951895-1.904982-1.903791-3.174971-2.855686-.634994-.634597-1.587485-.951895-2.222479-1.586492-.952491-.317299-1.587486-.951895-2.22248-1.269194l-2.857474-1.90379v-.317299c-.317497-.634597-.634994-1.269193-1.269988-1.90379-14.604866-22.21089-34.924679-35.220125-43.179604-41.248795-3.809965-2.855686-6.349941-4.12488-6.349941-4.12488-17.46234-10.788146-20.002317-14.278429-18.414831-43.152585.634994-10.4708478 1.587485-24.1146799 2.857473-42.8352867 0-2.5383874.317498-4.7594764.317498-6.9805653v-1.5864921-7.6151621c0-1.5864921-.317498-3.1729842-.317498-4.4421779 0-.6345969 0-1.2691937-.317497-1.9037906-.317497-1.5864921-.317497-3.1729842-.634994-4.7594763 0-.6345968-.317497-1.5864921-.317497-2.2210889 0-.9518953-.317497-1.5864921-.634994-2.5383874-.317497-.6345968-.317497-1.5864921-.634994-2.221089-.317497-.9518952-.634994-1.9037905-.634994-2.8556857 0-.3172985-.317498-.6345969-.317498-.9518953s-.317497-.6345969-.317497-.9518953v-.3172984l-.317497-.9518953c-.317497-.6345968-.634994-1.2691936-.634994-1.9037905v-.3172984l-.317497-.6345969-.317497-.6345968c-.634994-1.2691937-.952491-2.5383874-1.587485-3.4902826l-.317498-.9518953c-.634994-.9518953-1.269988-2.2210889-1.904982-3.1729842l-.317497-.3172984-.317497-.3172985c-.634994-.6345968-.952492-1.2691936-1.587486-1.9037905l-.634994-.95189524c-.634994-.95189527-1.269988-1.58649211-1.904982-2.22108895l-2.539977-2.53838738c-.952491-.63459684-1.904983-1.26919368-2.857474-1.5864921-.317497-.31729842-.634994-.31729842-.952491-.31729842l-1.904983-.95189527c-.317497 0-.634994-.31729842-.952491-.31729842-.634994-.31729842-1.269988-.31729842-1.587485-.63459684-.317497 0-.634994-.31729842-1.269989-.31729842-.634994 0-.952491-.31729842-1.587485-.31729842h-6.984936c-.317497 0-.634994 0-.952491.31729842-.317497 0-.634994 0-.952491.31729842-.634995 0-1.269989.31729842-2.22248.63459684h-.634994c-1.904983.63459684-3.492468 1.26919369-5.397451 1.90379053l-.634994.31729842c-.634994.31729842-1.269988.63459684-2.22248.95189526l-.952491.31729843-1.904982.95189526-.952492.63459684-1.904982.95189527-.952491.63459684c-.634994.31729842-1.269989.95189526-1.904983 1.26919369l-.634994.31729844c-.634994.6345968-1.587485.9518952-2.22248 1.5864921l-.317497.3172984c-.952491.6345968-1.587485 1.2691937-2.539976 1.5864921-1.587486.9518953-3.174971 2.221089-4.762457 3.1729842-1.269988.9518953-2.539976 1.9037906-4.127462 2.8556858l-.634994.3172984c-1.269988.9518953-2.857474 1.9037906-4.127462 2.5383874l-.634994.3172984c-1.269989.9518953-2.857474 1.5864921-4.127462 2.5383874l-.634995.3172984c-1.269988.9518953-2.857473 1.5864921-4.444959 2.221089l-.634994.3172984c-1.587485.6345968-2.857474 1.2691937-4.444959 1.9037905l-.634994.3172984c-1.587486.6345969-3.174971.9518953-4.762457 1.5864922h-.317497c-1.587485.3172984-3.492468.6345968-5.079953.9518952-2.857474.3172984-6.032445.6345969-8.889918.6345969-4.762457 0-9.524913-.3172985-14.604866-.9518953l-4.762457-.9518953c-.634994 0-1.269988-.3172984-1.587485-.3172984-4.127462-.9518953-8.572422-1.9037905-12.699884-2.8556858-1.904982-.3172984-3.492468-.9518952-5.39745-1.2691937-2.857474-.6345968-5.714948-1.2691937-8.889919-1.9037905-.634994 0-1.269988-.3172984-1.587485-.3172984s-.952491-.3172984-1.269988-.3172984c-.634994 0-1.269989-.3172985-1.904983-.3172985s-1.269988-.3172984-1.904982-.3172984h-.634995c-.634994 0-1.269988-.3172984-1.587485-.3172984-1.269988-.3172984-2.539977-.6345968-4.127462-.6345968-.317497 0-.952491 0-1.269988-.3172985-.952492 0-1.904983-.3172984-2.857474-.3172984-.634994 0-.952491 0-1.587486-.3172984-.952491 0-1.587485-.3172984-2.539976-.3172984h-14.604866c-1.587486 0-2.857474.3172984-4.444959.3172984h-1.269989c-.952491 0-1.904982.3172984-2.857474.3172984h-.317497c-.634994 0-.952491.3172984-1.587485.3172984-.952491.3172985-1.904983.3172985-2.857474.6345969-.634994 0-1.269988.3172984-1.587485.3172984-.952492.3172984-1.904983.6345968-2.857474.6345968-.634994 0-.952491.3172985-1.587486.6345969-.952491.3172984-2.222479.6345968-3.17497.9518952-.634995.3172985-.952492.3172985-1.269989.6345969-1.587485.6345968-3.174971 1.2691937-4.444959 1.9037905-12.064889 6.9805653-22.542293 16.4995179-30.47972 27.2876643-2.857474 3.807581-5.397451 7.6151621-7.61993 11.4227431-2.539977 4.1248795-4.444959 8.5670574-6.349942 13.0092353-.634994 1.2691937-.952491 2.5383874-1.587485 3.8075811-.634995 2.2210889-1.587486 4.4421779-2.22248 6.6632668 0 .3172984 0 .6345969-.317497.6345969-.634994 2.5383873-1.269988 5.0767747-1.904983 7.9324605-.634994 2.8556858-.952491 5.3940728-1.269988 8.2497588-.317497 1.586492-.317497 2.855686-.317497 4.442178-.317497 4.12488-.317497 7.932461 0 12.05734v.951895c0 .951896 0 1.903791.317497 3.172985.317497 2.855685.634994 5.711371 1.269988 8.567057.317497.951895.634995 1.90379.634995 3.172984.317497.951895.317497 1.903791.634994 2.855686 1.904982 7.297864 4.762456 13.96113 8.254924 19.672502 13.01738 22.528188 34.607182 36.17202 50.482037 43.469884 6.032444 2.538387 12.382386 5.076775 19.049825 7.297863l-.634994.634597c-1.269989.317299-2.539977.634597-4.127462.951896-2.22248.634596-5.079954 1.586492-7.937428 2.538387-3.17497.951895-6.984936 2.538387-10.794901 4.124879-10.159906 4.12488-21.589801 10.15355-31.749708 18.403309-1.269989.951895-2.539977 2.221089-3.809965 3.172984-2.22248 1.903791-4.127462 3.807581-6.032445 6.02867l-.634994.634597-.952491.951895c-.634994.951895-1.587486 1.586492-2.22248 2.538388l-.952491.951895c-.952491 1.269194-1.904983 2.538387-2.539977 3.807581-.952491 1.269194-1.587485 2.538387-2.539977 3.807581-6.032444 10.470848-9.524912 23.162785-8.572421 38.393109v-.634597c0-.317298 0-.634597.317497-.951895v-.317299c0-.317298.317497-.634596.317497-1.269193v-.317299c0-.317298.317497-.951895.317497-1.586492s.317497-.951895.634995-1.586492v-.317298c.317497-.634597.317497-1.269194.634994-1.903791v-.317298c.317497-.634597.317497-1.269194.634994-1.903791v-.317298c.317497-.634597.634994-1.269194.952491-2.221089l.317497-.317299c.317497-.634596.634994-1.586492 1.269989-2.221089.634994-1.269193 1.269988-2.221089 1.904982-3.490282.317497-.317299.634994-.951895.952491-1.269194l.317497-.317298 1.904983-2.855686c.634994-.634597 1.269988-1.586492 1.904983-2.221089l.634994-.634597c.634994-.634597.952491-1.269194 1.587485-1.586492l.634994-.634597c.634994-.634597 1.587486-1.269194 2.22248-2.221089 0 0-13.652375 31.095246-7.61993 55.527224v-.317298-.634597-.951896-1.269193-1.586492c0-.634597 0-1.269194.317497-1.903791 0-.634597 0-1.269194.317497-1.90379v-.317299c0-.634597.317497-1.586492.317497-2.221089v-.634597c.317497-.951895.317497-1.586492.634994-2.538387v-.317298c.317497-.951896.634994-1.903791.634994-2.538388 0-.317298.317498-.634597.317498-.951895l.317497-.634597c.317497-.634597.634994-1.586492.952491-2.221089.317497-.951895.952491-1.90379 1.587485-2.855686 0-.317298.317497-.634596.317497-.634596l1.904983-2.855686s-.634994 7.615162-.634994 16.816816c0 1.586492 0 2.855686.317497 4.442178 0 .951895 0 1.90379.317497 2.855686.634994-9.836251 2.539977-19.037906 5.079953-27.604963-2.539976 8.567057-4.444959 17.768712-5.079953 27.604963-.317497 6.345968-.317497 12.691937.317497 19.355203.952491 11.105445 3.809965 23.162785 8.572421 35.537424 0 0-4.444959-14.278429 1.904983-28.556858l1.904982 3.807581c.634995 4.124879 1.269989 10.153549 2.539977 16.816816 1.269988 11.105445 6.349942 44.421779 29.209732 67.584564 0 0-8.572421-11.105445-7.302433-25.383874.952491 1.903791 1.904982 3.490283 2.539977 5.076775 3.809965 7.297864 11.429895 20.624397 20.002316 30.14335 0 0-6.667439-13.009235-5.079953-15.864921 0 0 22.224796 27.604963 29.209732 30.14335l-9.207416-15.230324-.317497-.317299c32.067206 23.480083 76.516798 32.047141 131.126297 16.816817 9.524912-2.538388 19.049825-6.02867 29.209732-10.15355 6.032444-2.538387 12.064889-5.711371 18.097334-8.884356l.952491-.634597c4.127462-2.221088 8.254924-4.759476 12.382386-7.297863 3.174971-1.903791 6.349942-4.12488 9.207416-6.02867 5.079953-3.490283 10.159906-7.297864 15.23986-11.422743.317497-.317299.634994-.634597.952491-.634597 4.762456-4.12488 9.524913-8.567058 13.652375-13.009236 5.714947-6.02867 10.794901-12.05734 15.23986-18.08601l.317497-.317298c1.269988-1.586492 2.22248-2.855686 3.174971-4.442178l.317497-.317298c.317497-.634597.634994-.951896.952491-1.586492 1.587486-2.221089 2.857474-4.12488 4.444959-6.345969.317497-.634597.634995-.951895.952492-1.586492.634994-1.269194 1.269988-2.221089 2.222479-3.490283.634994-.951895.952492-1.586492 1.587486-2.538387s1.269988-1.90379 1.587485-2.855686c.952491-1.586492 1.904983-3.490282 2.857474-5.076774l.952491-1.903791 1.904983-3.807581.952491-1.903791.317497-.634596c.634994-1.586493 1.587485-3.172985 2.22248-4.759477v-.317298c2.857473-2.538388 4.762456-5.076775 6.667438-7.297864.317498-.317298.634995-.634597.634995-.951895 2.857473-4.12488 4.127462-8.884356 4.127462-13.326534m-513.3927887-80.911097c-.9524913.317298-1.9049825 1.586492-3.1749709 3.172984-.3174971.634597-.9524912 1.269194-1.2699883 2.221089-2.8574738 5.394073-5.3974505 13.009235-5.3974505 13.009235.3174971-2.538387.6349942-5.076775.6349942-7.615162v-.951895c.3174971-2.538388.6349941-5.394073.9524912-7.932461v-.951895c.3174971-3.172984.9524913-6.02867 1.5874855-8.884356 0-.317298 0-.634597.3174971-1.269194v-.317298c0-.317298 0-.634597.317497-.951895 0-.634597.3174971-.951895.3174971-1.586492.3174971-2.221089.9524913-4.442178 1.2699884-6.663267.3174971-1.903791.6349941-3.807581.9524912-5.394073v-.634597c0-.317299 0-.634597.3174971-.634597v-.634597c0-.317298.3174971-.951895.3174971-1.269194 0-.317298 0-.634596.3174971-.951895 0-.634597.3174971-1.269193.3174971-1.586492 0-.317298.3174971-.951895.3174971-1.269194 0-.634596.317497-1.269193.317497-1.586492 0-.317298 0-.634597.3174971-.951895 0-.317298 0-.634597.3174971-.634597 0-.634597.3174971-.951895.3174971-1.269193v-.951896l-.6349942.634597c-.6349941.317299-.9524912.951895-1.5874854 1.269194l-.6349942.634597c-.6349941.634596-1.2699883 1.269193-1.5874854 1.90379l-.3174971.317299-1.9049825 2.855685-.3174971.317299c0 .317298-.3174971.317298-.3174971.634597l-.9524912 1.90379v.634597c-.3174971.951895-.9524913 1.903791-1.2699884 2.855686-.9524912 2.538387-1.9049825 5.076775-2.5399767 7.297863-.3174971.634597-.3174971 1.586493-.6349941 1.903791-.3174971 1.269194-.6349942 2.538387-.6349942 2.855686v.317298-.317298c0-.951895 0-1.586492.3174971-2.538388 0-1.586492.3174971-3.490282.3174971-5.076774 0-1.269194.317497-2.855686.6349941-4.12488 0-.317298 0-.951895.3174971-1.269193 0-.634597.3174971-1.269194.3174971-1.903791s.3174971-1.269194.3174971-1.903791v-.951895c0-.634597.3174971-1.586492.3174971-2.221089v-1.586492-.634597c0-.317298 0-.634597.3174971-.951895.317497-.951895.6349941-2.221089.6349941-3.172984v-.317299c.3174971-.634596.3174971-1.586492.6349942-2.221089v-.317298c.3174971-1.586492.9524913-3.172984 1.2699883-4.759476v-.634597c0-.317299 0-.634597.3174971-.951895.6349942-2.538388 1.5874855-5.076775 2.2224796-7.297864v-.317299c.6349942-1.90379 1.5874855-4.124879 2.2224796-6.02867v-.317298c.3174971-.951895.6349942-1.586492.9524913-2.538387.6349942-1.269194.9524913-2.538388 1.5874854-3.807581 0-.317299.3174971-.951896.9524913-2.221089.3174971-.317299.3174971-.951896.6349942-1.269194.317497-.634597.6349941-1.269194.9524912-2.221089l.3174971-.634597c-.3174971-.317298-.9524913-.317298-1.2699883-.634597h-.3174971l-.6349942-.317298c-2.8574738-1.269194-6.0324446-2.538387-9.2074155-3.490283h-.6349942c-2.2224796-.634597-4.1274621-.951895-6.3499417-1.269193-1.2699883 0-2.5399767-.317299-3.809965-.317299h-3.1749709c-1.5874854 0-3.1749709.317299-4.7624563.317299-.6349942 0-.9524912 0-1.5874854.317298-.6349942 0-1.5874854.317298-2.2224796.317298-.3174971 0-.6349942 0-.9524913.317299-.6349942 0-.9524912.317298-1.5874854.317298-.9524913.317299-2.2224796.634597-3.1749709.951896-.3174971 0-.9524912.317298-1.2699883.317298-1.2699884.634597-2.8574738.951895-4.1274621 1.586492-.6349942.317299-.9524913.634597-1.5874855.634597l-1.9049825.951895-.6349942.317299c-.6349941.317298-1.2699883.634596-1.9049825 1.269193-.6349942.317299-1.2699883.634597-1.9049825 1.269194-.6349942.317298-1.2699883.951895-1.9049825 1.269194-.3174971.317298-.9524913.634597-1.2699884.951895-.9524912.951895-2.2224796 1.90379-3.1749708 2.855686l-1.5874855 1.586492c-.9524912.951895-1.5874854 1.90379-2.5399766 2.855686l-.3174971.317298c-.3174971.634597-.9524913.951895-1.2699884 1.586492l-.9524912.951895c-1.58748546 2.221089-3.1749709 4.759477-4.44495924 7.297864-.31749709.317299-.31749709.634597-.63499417.951895-.63499418 1.269194-.95249126 2.538388-1.58748543 3.807581-.31749709.634597-.31749709.951896-.63499418 1.586493-.31749708 1.269193-.95249126 2.538387-1.26998834 4.124879v1.269194c-.31749709.951895-.31749709 1.90379-.63499417 2.855686 0 .634596 0 .951895-.31749709 1.586492 0 .634596 0 .951895-.31749709 1.586492v1.269193c0 1.586493-.31749708 3.172985 0 4.759477 0 1.269193 0 2.538387.31749709 3.807581v.634597c0 .634596.31749709 1.269193.31749709 1.90379.31749708 2.538388.95249125 4.759476 1.58748543 7.297864.63499417 1.90379 1.26998834 3.490282 1.90498251 5.076775 1.26998835 3.172984 2.85747378 6.02867 4.7624563 8.884355 3.80996499 5.711372 8.88991839 10.788147 14.92236309 14.595728 3.1749708 2.221089 6.9849359 3.807581 10.7949009 5.076775 3.4924679 1.269193 7.302433 2.221088 11.4298951 2.538387.9524913 0 1.9049825.317298 2.5399767.317298h4.1274621c1.2699884 0 2.5399767-.317298 3.809965-.317298.6349942 0 1.5874855 0 2.2224796-.317299 1.9049826-.317298 3.492468-.634596 5.3974505-.951895h.3174971c.6349942-.317298 1.2699883-.317298 2.2224796-.634597 2.2224796-.634596 4.4449592-1.586492 6.3499417-2.538387l.3174971-.317298c.6349942-.317299 1.2699884-.634597 1.5874854-.634597-.9524912-5.394073-1.9049825-11.105445-2.2224796-16.816817 1.5874855-.634596 1.5874855-.951895 1.5874855-1.269193" fill="#fce9cd" transform="translate(105 265.5)"/><path d="m394.05 57.7.9.6z" fill="#4d9ed7"/><path d="m672.683269 574.851462c0-.318112 0-.636223-.31673-.636223-.316731-.636224-.316731-.954336-.316731-1.272448-1.583652-5.089789-3.484035-8.907132-5.384418-11.770138-2.217114-3.499231-4.117497-5.407902-4.117497-5.407902l.950191-3.817342c.316731-1.590559.633461-3.181119.633461-4.771678 1.266922-11.452027-1.583652-20.359158-4.117496-25.448948-.316731-.954336-.633462-1.590559-.950192-2.226783-1.900383 1.272447-3.484036 2.544895-5.384419 3.817342-34.206896 23.222165-72.53129 38.173422-114.022988 44.53566-28.505748 4.453565-58.595147 4.771677-89.951469.954335l.633461.318112s-19.003832 2.544895-24.07152 20.67727l.316731.318112-1.583653 12.088251c.633461 16.541816 7.918263 26.721395 16.469987 32.129297 8.868455 3.49923 19.637293 6.044125 31.673053 7.634684 20.587484 2.544895 44.659003 1.908671 68.730523-1.908671 32.306514-4.453566 77.915709-21.631606 110.538953-43.899436 7.284802-5.089789 14.252874-10.497691 19.954023-15.905592l.31673-.318112.316731-.318112c0-2.226783-.316731-3.49923-.316731-4.771678" fill="#fff"/><g fill="#f2d2ac" transform="translate(108 277.5)"><path d="m503.466553 140.31238c-17.458569-10.817734-19.997998-14.31759-18.410855-43.270938.634857-10.4995658 1.587143-24.1808183 2.856857-42.9527694 0-2.5453493.317429-4.7725299.317429-6.9997106v-1.5908433-7.6360479c0-1.5908433-.317429-3.1816866-.317429-4.4543612 0-.6363374 0-1.2726747-.317429-1.909012-.317428-1.5908433-.317428-3.1816866-.634857-4.77253 0-.6363373-.317428-1.5908433-.317428-2.2271806 0-.954506-.317429-1.5908433-.634857-2.5453493-.317429-.6363373-.317429-1.5908433-.634857-2.2271806-2.539429-3.818024-5.396285-6.9997106-8.887999-9.86322856l-.634857-.63633733-.634857-.31816866h-.317429c-.634857-.31816866-.952286-.63633733-1.587143-.95450599s-1.269714-.63633732-1.587142-.95450599c-5.078857-3.18168662-11.109999-5.0906986-17.141141-6.04520458-3.491714-.63633733-6.983428-.63633733-10.475142-.63633733-1.587143 0-3.491714.31816866-5.078856.31816866-4.444.63633733-8.887999 1.59084332-13.649427 2.86351797-1.587143.95450598-3.174286 2.22718063-4.761428 3.18168662-1.269715.95450599-2.539429 1.90901198-4.126571 2.86351796l-.634858.31816867c-1.269714.95450596-2.856856 1.90901196-4.12657 2.54534926l-.634858.3181687c-1.269714.954506-2.856856 1.5908433-4.12657 2.5453493l-.634858.3181687c-1.269714.9545059-2.856856 1.5908433-4.443999 2.2271806l-.634857.3181687c-1.587143.6363373-2.856857 1.2726746-4.444 1.9090119l-.634857.3181687c-1.587142.6363373-3.174285.954506-4.761428 1.5908433h-.317428c-1.587143.3181687-3.491714.6363373-5.078857.954506-2.856857.3181687-6.031142.6363373-8.887999.6363373-4.761428 0-9.522856-.3181686-14.601712-.954506l-4.761428-.954506c-.634858 0-1.269715-.3181686-1.587143-.3181686-4.126571-.954506-8.570571-1.909012-12.697142-2.863518-1.904571-.3181686-3.491713-.954506-5.396285-1.2726746-2.856856-.6363374-5.713713-1.2726747-8.887999-1.909012-.634857 0-1.269714-.3181687-1.587142-.3181687-2.539429 0-5.078857.3181687-7.300857.6363374h-.634857c-7.300856.9545059-14.284284 2.5453493-21.58514 5.0906986-.317429 0-.634857.3181686-1.269714.3181686-1.269714.3181687-2.222.954506-3.491714 1.2726747-1.587143.6363373-2.856857 1.2726746-4.444 1.9090119-10.475141 4.4543613-20.315426 10.8177346-29.838282 18.7719511-3.809142 3.1816867-7.300856 6.6815419-10.79257 10.1813972-5.078857 5.4088673-9.522856 11.1359032-13.649427 17.1811078-.317429.3181687-.317429.6363373-.634857.954506-2.222 3.1816866-4.126571 6.6815419-5.713714 9.8632285-.634857 1.2726747-1.269714 2.5453493-1.904571 3.4998553v.3181687c-1.904571 4.1361926-3.491714 7.9542165-4.761428 12.0904091 0 .3181687 0 .6363374-.317429.6363374-.317428.6363373-.317428 1.2726746-.634857 1.9090119-.634857 1.9090117-1.269714 3.8180237-1.587142 5.7270357-.634857 1.909012-.952286 3.818024-1.269714 6.045205 0 .318169-.317429.954506-.317429 1.272675-.317429 1.272674-.317429 2.545349-.634857 3.499855-.634857 4.454361-.952286 8.908722-1.269714 13.363084v3.181686c1.904571 7.317879 4.761428 13.999421 8.253142 19.726457 13.01457 22.589975 34.59971 36.271228 50.471137 43.589107 6.031142 2.545349 12.379713 5.090699 19.045712 7.317879l.317428.318169.317429-.318169c.952286-.636337 1.587143-1.272674 2.539428-1.909012.317429-.318168.634857-.318168.952286-.636337l2.856857-1.909012c.317428-.318169.634857-.318169.952285-.636337l2.856857-1.909012c.317429-.318169.634857-.318169.952286-.636338.952285-.636337 1.904571-1.272674 3.174285-1.909012.317429-.318168.634857-.318168.952286-.636337.952285-.636337 2.221999-1.272675 3.174285-1.909012.317429-.318169.634857-.318169.952286-.636337.952285-.636338 2.221999-1.272675 3.174285-1.909012.317429-.318169.952286-.318169 1.269714-.636337.952286-.636338 2.222-1.272675 3.174285-1.909012.317429-.318169.952286-.636338 1.269715-.636338.952285-.636337 2.221999-1.272674 3.491713-1.909012.634858-.318168.952286-.636337 1.587143-.636337 1.269714-.636337 2.222-1.272675 3.491714-1.590843.634857-.318169.952286-.636338 1.587143-.636338 1.269714-.636337 2.221999-.954506 3.491714-1.590843l1.904571-.954506c1.269714-.636337 2.222-.954506 3.491714-1.590843.634857-.318169 1.269714-.636338 2.221999-.954506 1.269715-.318169 2.222-.954506 3.491714-1.272675.634857-.318169 1.587143-.636337 2.222-.954506 1.269714-.318169 2.222-.954506 3.491714-1.272675.952286-.318168 1.587143-.636337 2.539428-.954506 1.269714-.318168 2.222-.954506 3.491714-1.272674l2.856857-.954506c.952286-.318169 2.222-.636338 3.174285-1.272675.952286-.318169 2.222-.636337 3.174286-.954506.952285-.318169 2.221999-.636337 3.174285-.954506 1.269714-.318169 2.539428-.636337 3.491714-.954506s1.904571-.636337 3.174285-.954506 2.539429-.636337 4.126571-1.272674c.634857-.318169 1.269714-.318169 1.904571-.636338 5.078857-13.044915 20.632855-45.498119 46.979424-48.997974 2.856856-.318168 5.396285-.636337 7.935713-.636337h1.904571c-.317428-1.909012-.634857-3.818024-.634857-6.045205-.952285-13.9994209 3.491714-25.7716614 9.522856-26.0898301 4.761428-.3181686 8.570571 6.6815419 9.205428 8.9087226 1.904571 4.1361926 3.174285 9.5450599 3.491714 15.5902645.317428 5.408867-.317429 10.499566-1.269715 14.953927.634858.636337.952286 1.272675 1.587143 1.590843 6.031142 7.636048 6.983428 17.817445 6.665999 25.453493 2.222-.318168 4.761428-.318168 7.300857-.636337.634857 0 1.269714 0 1.904571-.318169h1.269714c2.856857-.318168 6.031142-.636337 9.205428-.636337 6.983427-.636337 13.966855-.954506 21.267711-1.272675-4.126571-2.22718-6.665999-3.499855-6.665999-3.499855m66.342564 195.991896c-11.427427 10.181397-23.489712 18.453783-35.551996 25.135325-6.031142 3.181686-12.062284 6.045204-17.775998 8.590553-13.01457 5.727036-25.394283 9.54506-36.504281 12.408578-24.441998 6.045205-41.26571 6.045205-41.26571 6.045205 13.331999 7.317879 30.155711 7.317879 41.583138 6.363373 7.935714-.636337 13.331999-2.227181 13.331999-2.227181-.317429 4.77253-.952286 9.226892-1.587143 13.681253-.952286 4.77253-2.222 8.908722-3.809142 12.726746v.318169c-1.904572 4.77253-4.444 8.908723-6.983428 12.726747-.317429.318168-.634857.954506-.952286 1.272674l.952286-.636337c4.126571-2.227181 8.253142-4.77253 12.379713-7.317879 3.174285-1.909012 6.34857-4.136193 9.205427-6.045205 5.078857-3.499855 10.157713-7.317879 15.23657-11.454072.317428-.318168.634857-.636337.952285-.636337 4.761428-4.136193 9.522856-8.590554 13.649427-13.044915 5.713714-6.045205 10.792571-12.090409 15.23657-18.135614l.317429-.318169c1.269714-1.590843 2.221999-2.863518 3.174285-4.454361l.317429-.318169c.317428-.636337.634857-.954506.952285-1.590843 1.587143-2.227181 2.856857-4.136193 4.444-6.363373.317428-.636337.634857-.954506.952285-1.590843.634857-1.272675 1.269714-2.227181 2.222-3.499856.634857-.954506.952286-1.590843 1.587143-2.545349s1.269714-1.909012 1.587142-2.863518c.952286-1.590843 1.904572-3.499855 2.856857-5.090699l.952286-1.909012 1.904571-3.818024.952286-1.909012.317428-.636337c.634857-1.590843 1.587143-3.181686 2.222-4.77253-1.269714.318169-1.904571.954506-2.856857 1.909012m-289.494824-128.221971c-3.174285.954506-6.983428 2.54535-10.79257 4.136193-10.157713 4.136192-21.585141 10.181397-31.742854 18.453782-1.269714.954506-2.539428 2.227181-3.809142 3.181687-2.222 1.909012-4.126571 3.818024-6.031142 6.045204l-.634857.636338-.952286.954506c-.634857.954506-1.587143 1.590843-2.222 2.545349l-.952285.954506c-.952286 1.272675-1.904572 2.545349-2.539429 3.818024-.952285 1.272675-1.587142 2.545349-2.539428 3.818024-6.031142 10.499566-9.522856 23.226312-8.57057 38.498408v-.636337c0-.318169 0-.636338.317428-.954506v-.318169c0-.318169.317429-.636337.317429-1.272674v-.318169c0-.318169.317428-.954506.317428-1.590843 0-.636338.317429-.954506.634857-1.590844v-.318168c.317429-.636338.317429-1.272675.634857-1.909012v-.318169c.317429-.636337.317429-1.272675.634857-1.909012v-.318169c.317429-.636337.634857-1.272674.952286-2.22718l.317429-.318169c.317428-.636337.634857-1.590843 1.269714-2.227181.634857-1.272674 1.269714-2.22718 1.904571-3.499855.317428-.318169.634857-.954506.952286-1.272675l.317428-.318168 1.904571-2.863518c.634857-.636338 1.269714-1.590844 1.904571-2.227181l.634858-.636337c.634857-.636338.952285-1.272675 1.587142-1.590843l.634857-.636338c.634857-.636337 1.587143-1.272674 2.222-2.22718 0 0-13.649427 31.180528-7.618285 55.679515v-.318168-.636338-.954505-1.272675-1.590843c0-.636338 0-1.272675.317429-1.909012 0-.636338 0-1.272675.317428-1.909012v-.318169c0-.636337.317429-1.590843.317429-2.227181v-.636337c.317428-.954506.317428-1.590843.634857-2.545349v-.318169c.317428-.954506.634857-1.909012.634857-2.545349 0-.318169.317428-.636338.317428-.954506l.317429-.636338c.317429-.636337.634857-1.590843.952286-2.22718.317428-.954506.952285-1.909012 1.587142-2.863518 0-.318169.317429-.636338.317429-.636338l1.904571-2.863517s-.634857 7.636047-.634857 16.862939c0 1.590843 0 2.863518.317429 4.454361 0 .954506 0 1.909012.317428 2.863518.634857-9.863229 2.539428-19.09012 5.078857-27.680674.634857-2.22718 1.587142-4.77253 2.221999-6.99971 0-.318169.317429-.636338.317429-.954506.952285-2.227181 1.587143-4.136193 2.539428-6.363374.317429-.318168.317429-.636337.634857-1.272674.952286-1.909012 1.904571-4.136193 2.856857-6.045205.317429-.318168.317429-.636337.317429-.954506 2.221999-4.136192 4.443999-7.954216 6.665999-11.454072.317428-.318168.317428-.636337.634857-.954506.952286-1.272674 1.904571-2.545349 2.856857-4.136192.317428-.318169.317428-.636338.634857-.954506.317428-.318169.317428-.636338.634857-.954506 1.269714-1.590844 2.222-3.181687 3.491714-4.77253.317428-.318169.317428-.636337.634857-.636337 1.269714-1.590844 2.539428-3.181687 3.809142-4.454362 1.587143-1.909012 3.174286-3.499855 4.761428-5.408867 1.269714-1.272675 2.222-2.545349 3.491714-3.499855l1.269714-1.272675c2.539429-2.545349 5.078857-5.090699 7.618285-7.317879 6.983428-6.363373 12.697142-10.499566 14.601713-11.772241-1.269714.318169-2.539429.636338-4.126571.954506-1.904571.954506-4.444 1.909012-7.618285 2.863518"/><path d="m463.153129 139.039705s0-.636337-.317428-1.909011c-1.269714-4.454362-5.713714-15.272096-23.172283-13.681253-18.410855 1.909012-24.759426 16.862939-26.346569 21.953638-.317428.954506-.317428 1.590843-.317428 1.590843l.634857.318169c2.221999-1.909012 6.665999-1.909012 10.79257.954506 1.904571 1.272674 3.174285 2.545349 4.443999 4.136192 1.587143 2.54535 1.904572 5.090699.952286 6.999711l-.952286.954506s.634858.318169 1.904572.636337c5.078856 1.590844 19.36314 4.454361 26.981425-5.408867.317429-.636337.634857-.954506.952286-1.590843-1.587143-.636338-2.222-2.863518-2.222-5.727036 0-1.272675.317429-2.54535.634857-4.136193.952286-3.818024 3.809142-6.045205 6.031142-5.090699m-91.736846 136.176188c-12.062285 2.545349-22.537426 4.454361-30.47314 5.727036.317429 0 .952286 0 1.269714.318169 13.649427 1.590843 35.234568 3.818024 61.263708 2.22718 47.61428-2.863518 110.147701-17.817445 166.967409-69.360768v-.318169c.317429-4.454361-.317428-12.090409-5.713713-18.135614-.952286-.954506-1.904572-1.909012-3.174286-2.863518-.317428 0-.317428-.318168-.634857-.318168-1.587143-.954506-2.856857-1.590844-4.126571-2.54535l-2.856857-1.909011v-.318169c-3.491714 5.090698-7.618285 9.863228-12.062284 14.31759-1.587143 1.590843-3.174285 3.181686-5.078857 4.77253-15.553998 13.999421-35.869424 26.08983-57.771993 35.63489-36.186853 15.908433-76.817706 26.407999-107.608273 32.771372m-300.9222518-83.042021c-.6348571.318169-.9522856.954506-1.5871427 1.272675l-.6348571.636337c-.634857.636337-1.2697141 1.272675-1.5871426 1.909012l-.3174286.318169-1.9045712 2.863518-.3174285.318168c0 .318169-.3174286.318169-.3174286.636338l-.9522856 1.909012v.636337c-.3174285.954506-.9522856 1.909012-1.2697141 2.863518-.9522856 2.545349-1.9045712 5.090699-2.5394283 7.317879-.3174285.636337-.3174285 1.590843-.6348571 1.909012-.3174285 1.272675-.634857 2.545349-.634857 2.863518v.318169-.318169c0-.954506 0-1.590843.3174285-2.545349 0-1.590844.3174285-3.499855.3174285-5.090699 0-1.272674.3174286-2.863518.6348571-4.136192 0-.318169 0-.954506.3174285-1.272675 0-.636337.3174286-1.272675.3174286-1.909012s.3174285-1.272675.3174285-1.909012v-.954506c0-.636337.3174285-1.590843.3174285-2.227181v-1.590843-.636337c0-.318169 0-.636338.3174286-.954506.3174285-.954506.6348571-2.227181.6348571-3.181687v-.318169c.3174285-.636337.3174285-1.590843.634857-2.22718v-.318169c.3174286-1.590843.9522856-3.181686 1.2697142-4.77253v-.636337c0-.318169 0-.636337.3174285-.954506.6348571-2.545349 1.5871427-5.090699 2.2219997-7.317879v-.318169c.6348571-1.909012 1.5871427-4.136193 2.2219998-6.045205v-.318168c.3174285-.954506.6348571-1.590844.9522856-2.54535.6348571-1.272674.9522856-2.545349 1.5871427-3.818023 0-.318169.3174285-.954506.9522856-2.227181.3174285-.318169.3174285-.954506.6348571-1.272675.3174285-.636337.634857-1.272674.9522856-2.22718l.3174285-.636338c-.3174285-.318168-.9522856-.318168-1.2697141-.636337h-.3174286l-.6348571-.318169c-2.8568568-1.272674-6.0311421-2.545349-9.2054275-3.499855h-.634857c-2.2219998-.636337-4.126571-.954506-6.3485708-1.272675-1.2697141 0-2.5394282-.318168-3.8091424-.318168h-3.1742853c-1.5871427 0-3.1742854.318168-4.7614281.318168-.634857 0-.9522856 0-1.5871426.318169-.6348571 0-1.5871427.318169-2.2219998.318169-.3174285 0-.634857 0-.9522856.318168-.6348571 0-.9522856.318169-1.5871427.318169-.9522856.318169-2.2219997.636337-3.1742853.954506-.3174285 0-.9522856.318169-1.2697142.318169-1.2697141.636337-2.8568568.954506-4.1265709 1.590843-.6348571.318169-.9522856.636337-1.5871427.636337l-1.9045712.954506-.6348571.318169c-.634857.318169-1.2697141.636337-1.9045712 1.272675-.634857.318168-1.2697141.636337-1.9045712 1.272674-.6348571.318169-1.2697141.954506-1.9045712 1.272675-.3174285.318169-.9522856.636337-1.2697141.954506-.9522856.954506-2.2219998 1.909012-3.1742854 2.863518l-1.5871427 1.590843c-.9522856.954506-1.5871426 1.909012-2.53942825 2.863518l-.31742854.318169c-.31742853.636337-.9522856.954506-1.26971414 1.590843l-.9522856.954506c-1.58714268 2.227181-3.17428536 4.77253-4.4439995 7.317879-.31742853.318169-.31742853.636338-.63485707.954506-.63485707 1.272675-.9522856 2.54535-1.58714267 3.818024-.31742854.636338-.31742854.954506-.63485707 1.590844 0 .318168.31742853.636337.31742853.954506.31742854 1.272674.63485707 2.22718.95228561 3.499855v.636337c.31742853.954506.9522856 2.227181 1.26971414 3.181687 1.26971414 3.181686 2.53942828 6.045204 4.12657096 8.590554.31742853.318168.31742853.636337.63485707.954506v.318168l.31742853.318169c.95228561 1.909012 1.90457121 3.499855 2.8568568 4.77253 1.5871427 2.227181 2.8568568 3.818024 3.8091424 5.090699l.6348571.636337c0 .318168.3174285.318168.3174285.318168l.6348571.636338c0-.636338-.3174285-1.272675-.3174285-1.590843-.9522856-4.136193-1.2697142-7.954217-1.2697142-12.09041v-.636337c0-2.545349 0-5.090699.3174286-7.317879l.9522856 2.863518c.3174285 1.272674.9522856 2.545349 1.2697141 3.818024v.636337c1.9045712 5.408867 4.126571 9.863229 6.3485707 13.363084 2.5394283 4.454361 4.7614281 7.317879 6.3485707 9.226891.3174286.318169.6348571.636337.6348571.954506l.6348571.636337c-.9522856-4.454361-1.5871427-8.590554-1.5871427-12.726746v-4.136193c0-1.909012 0-3.499855.3174285-5.090698.6348571 2.863518 1.5871427 5.727036 2.5394283 8.272385v.318169c3.4917139 9.226891 7.6182849 15.908433 10.4751417 20.044625l.3174285.318169c.6348571.636337.9522856 1.272675 1.2697142 1.909012.3174285.318169.634857.636337.634857.954506l.6348571.636337.3174285.318169v-.636337c0-.636338-.3174285-1.272675-.3174285-1.909012-.3174285-2.227181-.6348571-4.454362-.9522856-6.363374 0-1.272674-.3174285-2.863518-.3174285-4.136192v-3.818024-.636338-2.545349c0-1.590843.3174285-3.499855.3174285-5.090698.3174285.954506.6348571 2.22718.9522856 3.181686.3174285.636337.6348571 1.590843.9522856 2.227181v.318168l.3174285.318169c.3174286.954506.6348571 1.909012.9522856 2.545349.6348571 1.590844 1.2697142 3.181687 2.2219998 4.454362.9522856 1.909012 1.5871427 3.499855 2.5394283 4.77253.634857.954506.9522856 1.590843 1.2697141 2.22718.6348571.954506 1.2697141 1.909012 1.5871427 2.54535.6348571.636337.9522856 1.272674 1.2697141 1.909012l.3174286.318168c.3174285.636338.9522856.954506 1.2697141 1.590844.3174285.318168.6348571.636337.6348571.954506.634857.636337.9522856 1.272674 1.2697141 1.272674l.3174285.318169v-.954506c.3174286-2.545349.6348571-5.408867.9522857-7.954217v-.954506c.3174285-3.181686.9522856-6.045204 1.5871426-8.908722 0-.318169 0-.636338.3174286-1.272675v-.318169c0-.318168 0-.636337.3174285-.954506 0-.636337.3174285-.954506.3174285-1.590843.3174286-2.227181.9522856-4.454361 1.2697142-6.681542.3174285-1.909012.634857-3.818024.9522856-5.408867v-.636337c0-.318169 0-.636338.3174285-.636338v-.636337c0-.318169.3174286-.954506.3174286-1.272675 0-.318168 0-.636337.3174285-.954506 0-.636337.3174285-1.272674.3174285-1.590843s.3174286-.954506.3174286-1.272675c0-.636337.3174285-1.272674.3174285-1.590843s0-.636337.3174285-.954506c0-.318169 0-.636337.3174286-.636337 0-.636338.3174285-.954506.3174285-1.272675v-.954506zm384.7233848 132.994501c4.443999-1.590843 8.253142-2.863518 11.427427-4.136193 6.031142-2.545349 9.205428-4.454361 9.205428-5.090698-.317429-.636338-3.809143-.318169-10.157713 1.272674-3.174286.636338-6.983428 1.272675-11.744856 2.54535-2.222.636337-4.761428.954506-7.300857 1.272674-2.539428.318169-5.396285.954506-8.253142 1.272675-5.713713.954506-12.062284 1.590843-19.045712 2.227181l-10.475141.954506c-3.491714.318168-7.300857.318168-11.109999.636337-15.23657.318169-32.060282-.318169-49.201423-3.499855-8.887999-1.590844-21.267712-5.727036-29.838282-10.499566l-.317429-.318169c5.078857-18.135614 24.124569-20.680963 24.124569-20.680963l-.634857-.318169h-.952286c-2.856857-.318168-5.078856-.636337-7.300856-.954506-1.587143-.318168-2.856857-.318168-3.809143-.636337-.952285 0-1.904571-.318169-2.221999-.318169-11.427428-.636337-17.775998 8.908723-19.680569 13.044916l-.952286 1.909012c-1.587143 3.818024-2.856857 7.954216-3.174285 12.726746-.634858 8.590554 1.587142 17.817445 8.253141 25.771662 4.444 5.408867 12.062285 10.181397 21.902569 13.999421-8.57057-5.408867-16.188855-15.908433-16.506283-32.135035 9.840284 4.136193 20.950283 6.681542 29.520853 8.272385 18.093427 3.499856 35.869425 3.818024 51.423423 2.863518 3.809142-.318168 7.935713-.636337 11.427427-.954506 3.809143-.636337 7.300857-.954506 10.792571-1.272674 6.983427-1.272675 13.014569-2.227181 19.045712-3.499856 2.856856-.636337 5.713713-1.272674 8.253142-2.22718 2.856856-.636338 5.078856-1.272675 7.300856-2.227181"/></g><path d="m147.269511 32.1171368c9.541744.3179118 15.902907 3.1791177 20.355721 7.6298824.954174-4.1328529 1.590291-9.2194412 1.272232-14.941853-.318058-6.0403236-1.59029-11.4448236-3.498639-15.57767657-.636116-2.54329413-4.452814-9.21944123-9.223686-8.90152946-6.043104.31791176-10.495918 12.08064713-9.541744 26.06876483 0 1.9074706.318058 3.8149412.636116 5.7224118m15.902907 35.9240297c0 2.5432941.954174 4.7686765 2.226407 5.7224118 2.226407 1.271647 5.08893-1.2716471 6.361163-5.4045001 0-.3179117.318058-.6358235.318058-.9537353.954174-3.8149412 0-7.6298824-2.226407-8.5836177-2.226407-1.271647-5.08893 1.2716471-6.361163 5.4045001 0 1.271647-.318058 2.5432941-.318058 3.8149412m-43.255906 6.9940588c.954174 1.5895589 2.544465 3.1791177 4.452814 4.4507648 4.134756 2.5432941 8.587569 2.8612059 11.132035.6358235l.954174-.9537353c.954174-1.9074706.636116-4.4507647-.954174-6.9940589-.954175-1.5895588-2.544466-3.1791176-4.452814-4.1328529-4.134756-2.5432942-8.58757-2.8612059-10.813977-.9537353-.318058.3179117-.636116.6358235-.954174 1.271647-.954175 1.5895589-.636116 4.132853.636116 6.6761471m152.985962 146.2394127c-6.043105 5.722412-12.722326 11.126912-20.355721 16.2135-32.759987 22.253824-78.560358 39.738971-111.002288 43.871824-24.490476 3.814941-48.3448361 4.450765-69.0186147 1.907471-12.086209-1.589559-22.5821274-4.132853-31.8058132-7.629883-9.8598021-3.814941-17.4931973-8.583618-21.9460111-13.988118-6.6792208-7.947794-8.5875696-17.485147-8.2695115-25.750853.3180582-4.450764 1.2722326-8.901529 3.1805814-12.71647l.9541744-1.907471c2.2264069-4.132853 8.2695114-13.988118 19.7196042-13.034382.3180581 0 1.2722325 0 2.2264069.317911.9541744 0 2.544465.317912 3.8166976.635824 2.2264069.317912 4.4528138.635823 7.315337.953735h.9541744c31.4877551 3.814941 61.7032776 3.49703 90.3285096-.953735 41.665615-6.358235 80.150649-21.300088 114.500928-44.507647 1.908348-1.271648 3.498639-2.543295 5.406988-3.814942l18.76543-27.976235c-56.932406 51.819618-119.589858 66.761471-167.298578 69.622677-26.0807668 1.589559-47.7087198-.317912-61.3852195-2.225383-.6361162 0-.9541744 0-1.2722325-.317911-4.1347557-.635824-7.315337-.953736-9.8598021-1.271647-1.2722325 0-2.2264069-.317912-2.8625232-.317912-3.4986394-.317912-6.9972789.317912-10.1778602 1.271647-6.3611627 1.90747-12.086209 6.358235-16.22096476 12.080647-5.08893012 6.994059-8.26951144 16.531412-8.26951144 26.068765 0 7.947794 1.90834879 16.2135 6.04310451 23.843382.31805813.317912.31805813.635824.63611627.953736.63611626.953735.95417439 1.589559 1.59029066 2.543294.63611626.953735 1.59029066 2.225382 2.54446506 3.179117 9.8598021 12.398559 31.4877551 21.300089 60.112987 25.11503 19.4015461 2.543294 41.9836732 2.225382 66.4741492-1.271647 72.517255-13.034382 106.867533-36.559853 122.77044-52.773353 1.272232-1.271647 2.226406-2.225383 3.180581-3.49703 5.725046-6.676147 8.269511-11.762735 9.223686-13.670206v-.317911c.318058-.635824.318058-.953736.318058-.953736z" fill="#664f44" transform="translate(401 357.5)"/><path d="m72.016404 25.1467078c-2.2200114-1.273251-4.7571672-2.2281893-7.2943231-2.8648148-1.5857224-.3183128-3.1714449-.6366255-5.0743118-.9549383-.6342889 0-1.2685779 0-1.9028669-.3183127-8.5629011-.6366255-15.8572242.6366255-15.8572242.6366255-1.5857224.3183127-3.1714449.6366255-4.4400228 1.273251-11.4172014 3.5014403-19.3458135 9.5493827-25.0544143 16.5522634-4.44002275 5.7296296-7.61146759 11.777572-9.19719002 17.8255144-.31714448.6366255-.31714448.9549383-.31714448 1.5915638-.31714449 1.5915638-.95143346 3.1831276-1.26857794 4.4563786-.95143345 5.0930041-1.58572242 9.5493827-1.58572242 13.3691358 0 5.0930041.31714448 8.2761317.31714448 8.2761317 1.90286691-4.4563786 4.1228783-8.2761317 6.34288969-12.0958848 5.39145619-9.23107 11.10005699-16.8705761 17.12580219-22.9185185 11.4172014-11.777572 23.1515473-18.1438272 32.0315929-21.3269548 9.5143346-3.1831275 16.1743687-3.5014403 16.1743687-3.5014403m137.323562-16.2339506-.317145-.63662551c-1.268578-1.59156379-2.8543-3.18312757-4.757167-4.4563786-4.440023-2.86481482-10.465768-4.4563786-18.711525-2.86481482 0 0-9.831479 2.2281893-15.540079 8.9127572 0 0 17.125802-7.32119341 35.520182 5.72962963 1.585722 1.273251 3.488589 2.5465021 5.074312 4.1380658 1.585722 1.5915638 3.488589 3.1831276 5.074312 5.4113169 0 0-.634289-7.9578189-5.391457-14.9606996-.317144-.63662548-.634289-.95493824-.951433-1.273251" fill="#e9b784" transform="translate(371 302.5)"/><path d="m445.687265 438.5c6.531073-1.912049 13.373148-3.824098 21.148234-5.736147 1.244014-6.054821 1.555018-13.384342.622007-21.351212-2.177024-18.483139-10.263113-32.823505-18.349203-31.867481-8.086089.956024-12.751141 16.889765-10.574117 35.372904 1.244014 9.560244 3.732041 17.845789 7.153079 23.581936" fill="#664f44"/><path d="m408.924528 22.5-17.175202 3.7795276 3.498652 30.8661417-45.482479-22.992126-18.765499 5.6692913.318059.3149607 55.342318 62.3622047.636119-.314961.636119-.31496c1.590296-.944882 3.498652-2.2047247 5.088948-3.1496066.636119-.3149606 1.272238-.6299212 1.908356-1.2598425 2.544475-1.5748031 5.088949-3.1496063 7.633423-4.4094488l-23.536388-26.7716535 37.849057 18.2677165c1.272237-.6299213 2.226415-1.2598425 3.498652-1.8897638l-3.498652-26.7716535 17.175202 19.8425197h.318059c1.590297-.6299213 2.862534-1.5748032 4.45283-2.2047245l.636119-.3149606.636119-.3149606c.318059 0 .636118-.3149606.636118-.3149606l1.908356-.9448819s.318059 0 .318059-.3149607c1.908356-.9448819 4.134771-1.8897637 6.043127-2.8346456z" fill="#ffd250"/><path d="m277.149472 6.66169951v-.95070813zm0-.95070813 2.533803-.63380542c-4.117429-1.90141626-9.185034-3.16902709-14.88609-4.11973522-11.402111-1.58451355-25.971475 0-42.441191 4.11973522-16.469715 4.11973522-35.156509 11.40849754-54.793477 21.23248154-39.590664 19.647968-83.2987558 49.7537254-125.7399467 88.4158555-14.8860894 13.309914-28.5052775 27.253633-41.17428974 40.88045l51.30949944 63.380542c13.9359135-15.21133 28.8220028-30.42266 45.2917187-45.317088 21.8540463-19.96487 44.0248173-37.711422 65.8788633-52.922752 21.220596-14.894427 42.441191-27.5705358 62.394885-37.7114225l-8.868308-40.5635468.316725-22.8169951-.316725-.3169027 18.686793-5.7042488 36.42341 18.6972599-.950176-12.6761084z" fill="#4d9ed7" transform="translate(114 20.5)"/><path d="m13.1879473.31767677-6.43314504 13.97777773.96497175 13.0247475 9.00640299 4.4474748zm-13.1879473 40.34494953 38.5988701 18.7429293-14.7962336 8.2595959zm38.5988701-10.4833334 3.5382297 27.0025253 13.8312618-6.9888889z" fill="#132134" transform="translate(378 26.5)"/><path d="m559.377672 46.9116322h6.984957c6.34996 0 12.382422.9530827 18.097387 2.2238596.317498 0 .634996 0 .952494.3176942h.317498l.634996.3176943h.634996c-.634996-.3176943-1.269992-.9530827-1.904988-1.270777-6.349961-2.5415538-13.017419-4.130025-20.002375-5.0831077-34.289787-4.4477192-73.659541 8.2600501-95.884403 17.1554885-1.269992.6353885-2.539984.9530827-3.809976 1.5884712-1.904988.9530827-3.809976 1.5884711-5.714964 2.5415538-3.17498 1.270777-6.349961 2.8592481-9.842439 4.4477193-.634996.3176942-.952494.3176942-1.58749.6353884-1.904988.9530827-4.127474 1.9061654-6.032462 2.8592481 0 0-.317498 0-.317498.3176943l-1.904989.9530827c-.317498 0-.634996.3176942-.634996.3176942h-1.269992l-.317498.3176942c-1.58749.6353885-2.857482 1.2707769-4.444972 2.2238596h-.317498c-.317498.3176943-.634996.3176943-.952494.6353885h-.317498c-.317498 0-.634996.3176942-.634996.3176942-2.222486 1.270777-4.444972 2.2238597-6.667459 3.4946366-1.58749.9530827-3.17498 1.5884711-4.76247 2.5415538h-.317498c-1.269992.6353885-2.222486 1.270777-3.492478 1.9061654-3.809976 1.9061654-7.302455 4.130025-11.112431 6.3538846-.317498.3176943-.634996.3176943-1.269992.6353885-.317498.3176942-.634996.3176942-.952494.6353885-.317498.3176942-.634996.3176942-.952494.6353884l-.317498.3176943c-2.539984 1.5884711-5.079968 2.859248-7.619953 4.4477192-.634996.3176942-1.269992.6353885-1.904988 1.2707769-1.58749.9530832-3.492478 2.2238592-5.079968 3.1769422l-.634996.317694-.634996.317695-14.287411 9.530827c-7.937451 5.400801-15.557403 10.801603-23.177356 16.5201-.952494.635388-1.904988 1.588471-2.857482 2.223859-20.002375 14.931629-39.052256 31.134035-57.467141 47.654135-19.36738 17.790877-38.099763 35.899448-55.562154 54.325714-9.524941 9.530826-17.779889 18.108571-24.12985 25.097844-13.334916 14.29624-20.637371 23.191679-20.319873 23.509373 0 0 1.269992-.953083 3.492478-3.176942-1.58749 1.906165-3.492478 4.130025-5.079968 6.03619 29.209818-31.134035 61.277118-62.903458 95.884402-92.766716 20.95487-18.108571 42.862233-35.581754 65.404592-51.784159 9.842439-6.989273 20.002376-13.978546 30.162312-20.650125 3.174981-2.22386 6.667459-4.130025 9.842439-6.353885 1.58749-.953083 3.17498-1.906165 5.079968-2.859248.952494-.635389 1.904989-1.270777 2.857483-1.588471 1.904988-.953083 3.492478-2.22386 5.397466-3.176943 1.58749-.953082 3.492478-1.906165 5.079968-3.176942.952494-.635388 1.904988-.953083 2.857482-1.588471l6.667459-3.8123308c1.269992-.6353885 2.539984-1.5884711 3.809976-2.2238596 4.127474-2.2238596 8.254949-4.4477192 12.699921-6.6715789.317498-.3176942.634996-.3176942.952494-.6353884l1.904988-.9530827c.952494-.3176943 1.58749-.9530827 2.539984-1.270777.317498-.3176942.634996-.3176942.952494-.6353884l1.904988-.9530827s.317498 0 .317498-.3176942h.317499c1.904988-.9530827 3.809976-1.9061654 5.397466-2.5415539.317498 0 .634996-.3176942.952494-.6353885l1.904988-.9530826c2.222486-.9530827 4.127474-1.9061654 6.34996-2.8592481.634996-.3176943 1.269993-.6353885 1.587491-.9530827.317498 0 .634996-.3176943.952494-.3176943.634996-.3176942 1.269992-.6353884 1.904988-.6353884 2.539984-.9530827 4.76247-2.2238596 7.302454-3.1769423 2.222486-.9530827 4.127474-1.9061654 6.349961-2.8592481 12.064924-5.0831077 23.177355-9.2131327 33.65479-12.7077693 19.684877-5.4008019 37.147268-8.8954385 52.387173-9.5308269" fill="#fff"/></g></svg>