<svg viewBox="0 0 1000 1000" xmlns="http://www.w3.org/2000/svg"><g fill="none" transform="translate(128 126)"><path d="m273.39158 0c-41.218932.03049367-74.577935 33.5125382-74.54747 74.7704675-.030465 41.2579295 33.359003 74.7399735 74.577935 74.7704675h74.577955l-.000021-74.7399739c.030465-41.2579292-33.359002-74.73997377-74.608399-74.8009611.030465 0 .030465 0 0 0zm0 199.428571h-198.8135623c-41.2189319.030494-74.60839929 33.512539-74.57793444 74.770468-.06092969 41.257929 33.32853774 74.739974 74.54746964 74.800961h198.8440271c41.218932-.030494 74.608399-33.512538 74.577934-74.770467.030465-41.288423-33.359002-74.770468-74.577934-74.800962z" fill="#36c5f0"/><path d="m744.999979 274.199039c.030468-41.257929-33.361923-74.739974-74.584464-74.770468-41.22254.030494-74.614931 33.512539-74.584463 74.770468l-.000021 74.800961h74.584484c41.222541-.030494 74.614932-33.512538 74.584464-74.800961zm-198.861436 0v-199.4285715c.030468-41.2274356-33.331455-74.70948017-74.553996-74.7704675-41.222541.03049367-74.614931 33.5125382-74.584464 74.7704675v199.4285715c-.060935 41.257929 33.331456 74.739974 74.553997 74.800961 41.22254-.030494 74.614931-33.512538 74.584463-74.800961z" fill="#2eb67d"/><path d="m471.577955 748c41.218932-.030491 74.6084-33.50961 74.577935-74.763935.030465-41.254325-33.359003-74.733444-74.577935-74.763935h-74.577955l.000021 74.763935c-.030465 41.223834 33.359002 74.702953 74.577934 74.763935zm0-199.441639h198.844027c41.218932-.030491 74.6084-33.50961 74.577935-74.763935.060929-41.254325-33.328538-74.733444-74.54747-74.794426h-198.844027c-41.218932.030491-74.608399 33.50961-74.577934 74.763935-.030465 41.284816 33.328537 74.763935 74.547469 74.794426z" fill="#ecb22e"/><path d="m.00002083 473.770467c-.03046751 41.25793 33.36192317 74.739974 74.58446377 74.770468 41.2225404-.030494 74.6149314-33.512538 74.5844634-74.770468l.000021-74.770467h-74.5844844c-41.2225406.030494-74.61493128 33.512538-74.58446377 74.770467zm198.86143617 0v199.428572c-.060935 41.257929 33.331455 74.739974 74.553996 74.800961 41.222541-.030494 74.614931-33.512538 74.584464-74.770467v-199.398078c.060935-41.257929-33.331456-74.739974-74.553997-74.800961-41.253008 0-74.614931 33.482044-74.584463 74.739973 0 0 0 .030494 0 0z" fill="#e01e5a"/></g></svg>