<svg height="24" viewBox="0 0 24 24" width="24" xmlns="http://www.w3.org/2000/svg"><g fill="none" fill-rule="evenodd"><path d="m0 0h24v24h-24z"/><g fill="#335eea"><path d="m6 2h12c.5522847 0 1 .44771525 1 1v10c0 .5522847-.4477153 1-1 1h-12c-.55228475 0-1-.4477153-1-1v-10c0-.55228475.44771525-1 1-1zm7.8 2c-.6438 0-1.3967.72985286-1.8 1.2-.4033-.47014714-1.1562-1.2-1.8-1.2-1.1396 0-1.8.88887193-1.8 2.02016349 0 1.25322434 1.2 2.57983651 3.6 3.97983651 2.4-1.4 3.6-2.7 3.6-3.9 0-1.13129155-.6604-2.1-1.8-2.1z" opacity=".3"/><path d="m3.79274528 6.57253826 8.20725472 5.92746174 8.2072547-5.92746174c.2238629-.16167876.5364062-.11126855.6980849.11259433.0615383.08520692.0946604.18763969.0946604.29274528v10.02212213c0 1.1045695-.8954305 2-2 2h-14c-1.1045695 0-2-.8954305-2-2v-10.02212213c0-.27614238.22385763-.5.5-.5.10510559 0 .20753836.03312206.29274528.09466039z"/></g></g></svg>