<svg height="24" viewBox="0 0 24 24" width="24" xmlns="http://www.w3.org/2000/svg"><g fill="none" fill-rule="evenodd"><path d="m0 0h24v24h-24z"/><g fill="#335eea"><path d="m4.875 20.75c-.23958333 0-.47916667-.0958333-.67083333-.2875l-1.91666667-1.9166667c-.38333333-.3833333-.38333333-.9583333 0-1.3416666.38333333-.3833334 1.00625-.3833334 1.34166667 0l1.24583333 1.2458333 3.1625-3.1625c.38333333-.3833333.95833333-.3833333 1.34166667 0 .38333333.3833333.38333333.9583333 0 1.3416667l-3.83333334 3.8333333c-.19166666.1916667-.43125.2875-.67083333.2875z" opacity=".3"/><path d="m12.9835977 18c-.257293-3.9090159-3.50947635-7-7.4835977-7-.51369876 0-1.01533509.0516454-1.5.1500272v-4.1500272c0-1.1045695.8954305-2 2-2h14c1.1045695 0 2 .8954305 2 2v9c0 1.1045695-.8954305 2-2 2zm6.1608274-11.16035332-6.1444251 3.30853662-6.14442513-3.30853662c-.36470307-.19637858-.81954962-.05992462-1.01592819.30477845-.19637858.36470307-.05992462.81954962.30477845 1.01592819l6.49999997 3.49999998c.2219823.1195289.4891675.1195289.7111498 0l6.5-3.49999998c.364703-.19637857.501157-.65122512.3047784-1.01592819s-.6512251-.50115703-1.0159282-.30477845z"/></g></g></svg>