<svg height="24" viewBox="0 0 24 24" width="24" xmlns="http://www.w3.org/2000/svg"><g fill="none" fill-rule="evenodd"><path d="m0 0h24v24h-24z"/><g fill="#335eea"><path d="m10.9 2c.5522847 0 1 .44771525 1 1s-.4477153 1-1 1h-4.9c-1.1045695 0-2 .8954305-2 2v12c0 1.1045695.8954305 2 2 2h12c1.1045695 0 2-.8954305 2-2v-2c0-.5522847.4477153-1 1-1s1 .4477153 1 1v2c0 2.209139-1.790861 4-4 4h-12c-2.209139 0-4-1.790861-4-4v-12c0-2.209139 1.790861-4 4-4z" opacity=".3"/><path d="m24.0690576 13.8973499c0-.7627168.1634393-3.772724-2.2109707-6.16075394-1.5980732-1.6071532-3.9897351-1.88590802-6.849923-2.01302749v-3.88565292c0-.41421356-.3357864-.75-.75-.75-.1863102 0-.3659509.06934488-.5039373.19452978l-6.50815842 5.90437418c-.30677773.27831691-.32984978.75262983-.05153288 1.05940756.01460809.01610192.02990942.03156104.04586062.04633355l6.50815838 6.02724958c.3039062.2814496.7784309.2632449 1.0598805-.0406613.1283981-.1386429.1997291-.3206442.1997291-.5096096v-3.86192453c1.8159923.04993979 3.1095557.16545173 4.2848339.53934973 1.6848627.5360151 2.9886207 2.0524723 3.911274 4.5493715l.0000314-.0000116c.1088158.2944792.389534.4900188.7034749.4900188h.1658195c0-.4585381-.00454-1.184935-.00454-1.5889933z" transform="matrix(-1 0 0 1 31.073598 0)"/></g></g></svg>