<svg height="24" viewBox="0 0 24 24" width="24" xmlns="http://www.w3.org/2000/svg"><g fill="none" fill-rule="evenodd"><path d="m0 0h24v24h-24z"/><g fill="#335eea"><path d="m4 4 7.6314229-1.4308918c.2435956-.04567417.4935586-.04567417.7371542 0l7.6314229 1.4308918v9.2830094c0 2.9343767-1.5116536 5.6617741-4 7.2169906l-3.4700011 2.1687507c-.3242702.2026689-.7357276.2026689-1.0599978 0l-3.4700011-2.1687507c-2.48834642-1.5552165-4-4.2826139-4-7.2169906z" opacity=".3"/><path d="m12 11c-1.1045695 0-2-.8954305-2-2s.8954305-2 2-2 2 .8954305 2 2-.8954305 2-2 2z" opacity=".3"/><path d="m7.00036205 16.4995035c.21533713-2.9829311 2.36736703-4.4995035 4.99038315-4.4995035 2.6599306 0 4.8453013 1.4332455 5.0080961 4.5.0064853.1221713 0 .5-.4173413.5-2.0586534 0-5.117764 0-9.1773321 0-.13932781 0-.41553554-.3380125-.40380585-.5004965z" opacity=".3"/></g></g></svg>