<svg height="24" viewBox="0 0 24 24" width="24" xmlns="http://www.w3.org/2000/svg"><g fill="none" fill-rule="evenodd"><path d="m0 0h24v24h-24z"/><g fill="#335eea"><path d="m12.7037037 14 2.962963-4h-2.2222223v-4l-4.4444444 6h2.2222222v2h-5.2222222c-.55228475 0-1-.4477153-1-1v-10c0-.55228475.44771525-1 1-1h12c.5522847 0 1 .44771525 1 1v10c0 .5522847-.4477153 1-1 1z" opacity=".3"/><path d="m9.80428954 10.9142091-.80428954 1.0857909h2.2222222v4l4.4444445-6h-.2051282l4.7457162-3.42746174c.2238629-.16167876.5364062-.11126855.6980849.11259433.0615383.08520692.0946604.18763969.0946604.29274528v10.02212213c0 1.1045695-.8954305 2-2 2h-14c-1.1045695 0-2-.8954305-2-2v-10.02212213c0-.27614238.22385763-.5.5-.5.10510559 0 .20753836.03312206.29274528.09466039z"/></g></g></svg>