<svg height="24" viewBox="0 0 24 24" width="24" xmlns="http://www.w3.org/2000/svg"><g fill="none" fill-rule="evenodd"><path d="m0 0h24v24h-24z"/><g fill="#335eea"><path d="m3.5 21h17c.8284271 0 1.5-.6715729 1.5-1.5v-11c0-.82842712-.6715729-1.5-1.5-1.5h-10.5l-2.56066017-2.56066017c-.28130457-.28130457-.66283544-.43933983-1.06066017-.43933983h-2.87867966c-.82842712 0-1.5.67157288-1.5 1.5v14c0 .8284271.67157288 1.5 1.5 1.5z" opacity=".3"/><rect height="3.142857" opacity=".3" rx=".75" transform="matrix(.70710678 -.70710678 .70710678 .70710678 -7.357944 10.490548)" width="3.142857" x="7.412812" y="12.555669"/><rect height="3.142857" opacity=".3" rx=".75" transform="matrix(.70710678 -.70710678 .70710678 .70710678 -5.516901 14.93522)" width="3.142857" x="13.698526" y="12.555669"/><rect height="3.142857" rx=".75" transform="matrix(.70710678 -.70710678 .70710678 .70710678 -8.659758 13.633406)" width="3.142857" x="10.555669" y="15.698526"/><rect height="3.142857" rx=".75" transform="matrix(.70710678 -.70710678 .70710678 .70710678 -4.215086 11.792363)" width="3.142857" x="10.555669" y="9.412812"/></g></g></svg>