<svg height="24" viewBox="0 0 24 24" width="24" xmlns="http://www.w3.org/2000/svg"><g fill="none" fill-rule="evenodd"><path d="m0 0h24v24h-24z"/><g fill="#335eea"><path d="m3.5 21h17c.8284271 0 1.5-.6715729 1.5-1.5v-11c0-.82842712-.6715729-1.5-1.5-1.5h-10.5l-2.56066017-2.56066017c-.28130457-.28130457-.66283544-.43933983-1.06066017-.43933983h-2.87867966c-.82842712 0-1.5.67157288-1.5 1.5v14c0 .8284271.67157288 1.5 1.5 1.5z" opacity=".3"/><path d="m10.5857864 14-1.41421352-1.4142136c-.3905243-.3905243-.3905243-1.0236892 0-1.4142135.39052429-.3905243 1.02368922-.3905243 1.41421352 0l1.4142136 1.4142135 1.4142136-1.4142135c.3905243-.3905243 1.0236892-.3905243 1.4142135 0s.3905243 1.0236892 0 1.4142135l-1.4142135 1.4142136 1.4142135 1.4142136c.3905243.3905243.3905243 1.0236892 0 1.4142135s-1.0236892.3905243-1.4142135 0l-1.4142136-1.4142135-1.4142136 1.4142135c-.3905243.3905243-1.02368923.3905243-1.41421352 0-.3905243-.3905243-.3905243-1.0236892 0-1.4142135z"/></g></g></svg>