<svg height="24" viewBox="0 0 24 24" width="24" xmlns="http://www.w3.org/2000/svg"><g fill="none" fill-rule="evenodd"><path d="m0 0h24v24h-24z"/><g fill="#335eea"><path d="m5.85714286 2h7.87926854c.3546848 0 .6978952.12568431.9686994.35473959l4.7635886 4.02920201c.3369538.28500673.5313006.70393663.5313006 1.14526041v12.55413129c0 1.7905418-.0204479 1.9166667-1.8571429 1.9166667h-12.28571424c-1.83669499 0-1.85714286-.1261249-1.85714286-1.9166667v-16.16666663c0-1.79054178.02044787-1.91666667 1.85714286-1.91666667z" opacity=".3"/><path d="m10.5857864 13-1.41421352-1.4142136c-.3905243-.3905243-.3905243-1.0236892 0-1.4142135.39052429-.39052432 1.02368922-.39052432 1.41421352 0l1.4142136 1.4142135 1.4142136-1.4142135c.3905243-.39052432 1.0236892-.39052432 1.4142135 0 .3905243.3905243.3905243 1.0236892 0 1.4142135l-1.4142135 1.4142136 1.4142135 1.4142136c.3905243.3905243.3905243 1.0236892 0 1.4142135s-1.0236892.3905243-1.4142135 0l-1.4142136-1.4142135-1.4142136 1.4142135c-.3905243.3905243-1.02368923.3905243-1.41421352 0-.3905243-.3905243-.3905243-1.0236892 0-1.4142135z"/></g></g></svg>