<svg height="24" viewBox="0 0 24 24" width="24" xmlns="http://www.w3.org/2000/svg"><g fill="none" fill-rule="evenodd"><path d="m0 0h24v24h-24z"/><g fill="#335eea"><path d="m3.5 21h17c.8284271 0 1.5-.6715729 1.5-1.5v-11c0-.82842712-.6715729-1.5-1.5-1.5h-10.5l-2.56066017-2.56066017c-.28130457-.28130457-.66283544-.43933983-1.06066017-.43933983h-2.87867966c-.82842712 0-1.5.67157288-1.5 1.5v14c0 .8284271.67157288 1.5 1.5 1.5z" opacity=".3"/><path d="m10.9270649 10.8549025v1.9564735h-2.00767134c-.27614237 0-.5.2238576-.5.5v1.0232987c0 .2761424.22385763.5.5.5h2.00767134v1.9564735c0 .2761424.2238576.5.5.5.1183116 0 .2327902-.0419538.3230849-.1184032l3.5056611-2.9681228c.2107501-.1784349.2369468-.4939316.0585119-.7046817-.0178538-.0210872-.0374247-.0406582-.0585119-.0585119l-3.5056611-2.9681229c-.2107501-.1784349-.5262469-.1522382-.7046818.0585119-.0764494.0902947-.1184031.2047733-.1184031.3230849z"/></g></g></svg>