<svg height="24" viewBox="0 0 24 24" width="24" xmlns="http://www.w3.org/2000/svg"><g fill="none" fill-rule="evenodd"><path d="m0 0h24v24h-24z"/><g fill="#335eea"><path d="m3.5 21h17c.8284271 0 1.5-.6715729 1.5-1.5v-11c0-.82842712-.6715729-1.5-1.5-1.5h-10.5l-2.56066017-2.56066017c-.28130457-.28130457-.66283544-.43933983-1.06066017-.43933983h-2.87867966c-.82842712 0-1.5.67157288-1.5 1.5v14c0 .8284271.67157288 1.5 1.5 1.5z" opacity=".3"/><path d="m10.875 16.75c-.2395833 0-.4791667-.0958333-.6708333-.2875l-1.9166667-1.9166667c-.38333333-.3833333-.38333333-.9583333 0-1.3416666.38333333-.3833334 1.00625-.3833334 1.34166667 0l1.24583333 1.2458333 3.1625-3.1625c.3833333-.3833333.9583333-.3833333 1.3416667 0 .3833333.3833333.3833333.9583333 0 1.3416667l-3.8333334 3.8333333c-.1916666.1916667-.43125.2875-.6708333.2875z"/></g></g></svg>