<svg height="24" viewBox="0 0 24 24" width="24" xmlns="http://www.w3.org/2000/svg"><g fill="none" fill-rule="evenodd"><path d="m0 0h24v24h-24z"/><g fill="#335eea"><path d="m3.5 21h17c.8284271 0 1.5-.6715729 1.5-1.5v-11c0-.82842712-.6715729-1.5-1.5-1.5h-10.5l-2.56066017-2.56066017c-.28130457-.28130457-.66283544-.43933983-1.06066017-.43933983h-2.87867966c-.82842712 0-1.5.67157288-1.5 1.5v14c0 .8284271.67157288 1.5 1.5 1.5z" opacity=".3"/><path d="m11.9999651 17.2276651-2.19809119 1.2076197c-.26308152.1445356-.58847374.0388357-.72678387-.2360874-.05507582-.1094758-.07408112-.2348716-.05407366-.3567747l.41979805-2.5577796-1.77829309-1.8114295c-.21283742-.2168034-.21719245-.5728622-.00972725-.7952796.08261373-.0885678.19086255-.1462059.30798828-.1639914l2.45754063-.373175 1.0990456-2.32714472c.1315407-.27852746.4542414-.39288401.7207721-.25542248.1061339.0547379.1920406.14451138.2444208.25542248l1.0990456 2.32714472 2.4575406.373175c.2941341.044664.4979291.3300466.4551889.6374199-.0170193.1223976-.0721748.2355188-.1569278.3218511l-1.7782931 1.8114295.419798 2.5577796c.0502441.3061313-.1465043.596864-.4394499.6493696-.1166524.0209081-.2366472.0010473-.3414076-.0565075z" opacity=".3"/></g></g></svg>