<svg height="24" viewBox="0 0 24 24" width="24" xmlns="http://www.w3.org/2000/svg"><g fill="none" fill-rule="evenodd"><path d="m0 0h24v24h-24z"/><g fill="#335eea"><path d="m3.5 21h17c.8284271 0 1.5-.6715729 1.5-1.5v-11c0-.82842712-.6715729-1.5-1.5-1.5h-10.5l-2.56066017-2.56066017c-.28130457-.28130457-.66283544-.43933983-1.06066017-.43933983h-2.87867966c-.82842712 0-1.5.67157288-1.5 1.5v14c0 .8284271.67157288 1.5 1.5 1.5z" opacity=".3"/><path d="m10.7576713 10.293016v2.123084h-2.0076713c-.27614237 0-.5.2238576-.5.5v1.16782c0 .2761424.22385763.5.5.5h2.0076713v2.1230839c0 .2761424.2238576.5.5.5.1241988 0 .2439521-.0462239.335941-.1296708l3.5352732-3.206994c.2045271-.1855351.2199232-.501743.0343881-.7062701-.0108981-.0120137-.0223744-.02349-.0343881-.0343881l-3.5352732-3.206994c-.2045271-.18553509-.520735-.17013901-.7062701.03438811-.0834469.09198889-.1296709.21174219-.1296709.33594099z"/></g></g></svg>