<svg height="24" viewBox="0 0 24 24" width="24" xmlns="http://www.w3.org/2000/svg"><g fill="none" fill-rule="evenodd"><path d="m0 0h24v24h-24z"/><g fill="#335eea"><path d="m5.85714286 2h7.87926854c.3546848 0 .6978952.12568431.9686994.35473959l4.7635886 4.02920201c.3369538.28500673.5313006.70393663.5313006 1.14526041v12.55413129c0 1.7905418-.0204479 1.9166667-1.8571429 1.9166667h-12.28571424c-1.83669499 0-1.85714286-.1261249-1.85714286-1.9166667v-16.16666663c0-1.79054178.02044787-1.91666667 1.85714286-1.91666667z" opacity=".3"/><path d="m10.9270649 9.85490253v1.95647347h-2.00767134c-.27614237 0-.5.2238576-.5.5v1.0232987c0 .2761424.22385763.5.5.5h2.00767134v1.9564735c0 .2761424.2238576.5.5.5.1183116 0 .2327902-.0419538.3230849-.1184032l3.5056611-2.9681228c.2107501-.1784349.2369468-.4939316.0585119-.7046817-.0178538-.0210872-.0374247-.0406582-.0585119-.0585119l-3.5056611-2.9681229c-.2107501-.17843487-.5262469-.1522382-.7046818.05851191-.0764494.09029468-.1184031.20477329-.1184031.32308492z"/></g></g></svg>