<svg height="24" viewBox="0 0 24 24" width="24" xmlns="http://www.w3.org/2000/svg"><g fill="none" fill-rule="evenodd"><path d="m0 0h24v24h-24z"/><g fill="#335eea"><rect height="9" opacity=".3" rx="1" transform="matrix(0 -1 1 0 -3.5 20.5)" width="2" x="7.5" y="7.5"/><path d="m9.70710318 15.7071045c-.3905243.3905243-1.02368927.3905243-1.41421357 0-.39052429-.3905243-.39052429-1.0236893 0-1.4142136l5.99999999-5.99999997c.378579-.37857893.9881654-.39182456 1.3828314-.03004736l6 5.50000003c.407119.3731924.4346219 1.0057598.0614295 1.4128787-.3731924.407119-1.0057597.434622-1.4128787.0614296l-5.2941997-4.8530164z" transform="matrix(0 -1 -1 0 26.999996 26.999996)"/></g></g></svg>