<svg height="24" viewBox="0 0 24 24" width="24" xmlns="http://www.w3.org/2000/svg"><g fill="none" fill-rule="evenodd"><path d="m0 0h24v24h-24z"/><g fill="#335eea"><path d="m8 7c-.55228475 0-1-.44771525-1-1s.44771525-1 1-1h8c2.209139 0 4 1.790861 4 4s-1.790861 4-4 4h-8c-1.1045695 0-2 .8954305-2 2s.8954305 2 2 2h9c.5522847 0 1 .4477153 1 1s-.4477153 1-1 1h-9c-2.209139 0-4-1.790861-4-4s1.790861-4 4-4h8c1.1045695 0 2-.8954305 2-2s-.8954305-2-2-2z" opacity=".3"/><path d="m9.79289322 3.79289322c.39052428-.39052429 1.02368928-.39052429 1.41421358 0s.3905243 1.02368927 0 1.41421356l-3.00000002 3c-.39052429.39052429-1.02368927.39052429-1.41421356 0l-3-3c-.39052429-.39052429-.39052429-1.02368927 0-1.41421356s1.02368927-.39052429 1.41421356 0l2.29289322 2.29289322z" transform="matrix(0 1 -1 0 13.5 -1.5)"/><path d="m18.7928932 15.7928932c.3905243-.3905243 1.0236893-.3905243 1.4142136 0s.3905243 1.0236893 0 1.4142136l-3 3c-.3905243.3905243-1.0236893.3905243-1.4142136 0l-3-3c-.3905243-.3905243-.3905243-1.0236893 0-1.4142136s1.0236893-.3905243 1.4142136 0l2.2928932 2.2928932z" transform="matrix(0 1 1 0 -1.5 1.5)"/></g></g></svg>