<svg height="991" viewBox="0 0 2761 991" width="2761" xmlns="http://www.w3.org/2000/svg"><g fill="none" transform="translate(220 188)"><path d="m1710.07147 44.2832523c0-24.2788007 20.22474-43.98368479 45.15891-43.98368479h520.68219c24.94223 0 45.1589 19.70488409 45.1589 43.98368479v526.0406827c0 24.286854-20.21667 43.975633-45.1589 43.975633h-520.68219c-24.93417 0-45.15891-19.688779-45.15891-43.96758v-526.0567883z" fill="#069"/><path d="m.07147448 514.299568h254.82335052v-83.622436h-162.5889026v-319.000823h-92.23444792zm383.83875252 0v-277.318479h-92.226389v277.318479zm-46.105136-315.174908c32.155129 0 52.17351-21.296255 52.17351-47.924628-.596361-27.208302-20.018381-47.900464-51.561031-47.900464-31.550709 0-52.181569 20.700217-52.181569 47.900464 0 26.628373 20.018381 47.924628 50.96467 47.924628zm88.922228 315.174908h92.226389v-154.873068c0-8.288141.596361-16.576283 3.038216-22.480275 6.656676-16.560174 21.83164-33.716385 47.313975-33.716385 33.380086 0 46.733732 25.436298 46.733732 62.69669v148.364983h92.210271v-159.005056c0-85.18502-45.500715-124.821506-106.184454-124.821506-49.747772 0-71.59553 27.796284-83.732278 46.732553h.620538v-40.216415h-92.226389c1.216898 26.024281 0 277.318479 0 277.318479zm411.634-402.623259h-92.226389v402.623259h92.226389v-89.913047l23.048538-29.004468 72.208008 118.917515h113.453605l-121.335238-172.150098 106.168338-117.113292h-111.019813s-75.842586 104.773708-82.523438 117.209947z" fill="#000"/><path d="m1294.43689 399.153532c1.21804-7.117804 3.04105-20.773683 3.04105-36.217064 0-71.661154-36.44422-144.417356-132.39467-144.417356-102.63753 0-150.0118 81.025416-150.0118 154.514332 0 90.888889 57.69933 147.646134 158.50578 147.646134 40.09026 0 77.12334-5.893929 107.5016-18.31788l-12.14808-60.855618c-24.9092 8.245058-50.41532 12.37564-81.98741 12.37564-43.11519 0-80.76132-17.673735-83.80237-55.324022l191.2959.579731zm-191.90088-62.337152c2.428-23.656233 18.23018-58.560851 57.69933-58.560851 41.89715 0 51.62529 37.2638 51.62529 58.560851h-109.31655zm422.79499-224.508761v139.328609h-1.21803c-13.36611-19.501496-41.30024-32.51323-78.32525-32.51323-71.06544 0-133.6127 56.765297-133.01578 153.741358 0 89.890464 56.48936 148.435212 126.92561 148.435212 38.26725 0 74.69534-16.570636 92.92552-48.504135h1.81495l3.65411 41.998268h81.97934c-1.20996-19.5176-2.43606-53.222498-2.43606-86.339613v-316.15452h-92.31248zm0 274.164305c0 7.085597-.60498 14.19535-1.83108 20.089278-5.44486 25.443736-27.31301 43.165781-54.03716 43.165781-38.25112 0-63.16032-30.74183-63.16032-79.229861 0-45.524962 21.27123-82.192928 63.77337-82.192928 28.5391 0 48.57617 19.509548 54.04522 43.745511 1.20997 5.338354 1.20997 11.256438 1.20997 16.570636v37.843531z" fill="#000"/><path d="m1895.68635 514.291513v-277.313044h-92.17796v277.313044h92.18601zm-46.07287-315.168731c32.13824 0 52.14611-21.295837 52.14611-47.90758-.6041-27.215823-20.00787-47.915634-51.53395-47.915634-31.55025 0-52.15417 20.699811-52.15417 47.915634 0 26.611743 19.99982 47.90758 50.93791 47.90758h.59605zm97.09132 315.168731h92.1699v-154.845869c0-8.279925.6041-16.575958 3.03662-22.487889 6.66123-16.567904 21.82823-33.715725 47.29718-33.715725 33.34644 0 46.69308 25.427746 46.69308 62.711571v148.337912h92.16989v-159.00194c0-85.175296-45.46876-124.811006-106.11257-124.811006-49.72165 0-71.55793 27.787685-83.68831 46.715529h.61216v-40.207572h-92.1699c1.20015 26.015717-.00805 277.313044-.00805 277.313044z" fill="#fff"/></g></svg>