<svg height="24" viewBox="0 0 24 24" width="24" xmlns="http://www.w3.org/2000/svg"><g fill="none" fill-rule="evenodd"><path d="m0 0h24v24h-24z"/><g fill="#335eea"><path d="m5.74714567 11.0425758c-1.65304205-1.0685402-2.74714567-2.92778721-2.74714567-5.0425758 0-3.3137085 2.6862915-6 6-6 2.7957591 0 5.1449096 1.91215918 5.8109738 4.5h2.4390262c2.0710678 0 3.75 1.67893219 3.75 3.75 0 2.0710678-1.6789322 3.75-3.75 3.75h-9c-.96182105 0-1.83906822-.3621038-2.50285433-.9574242z"/><path d="m4 21v-2h13.5c.8284271 0 1.5-.6715729 1.5-1.5v-.5c0-.5522847-.4477153-1-1-1s-1 .4477153-1 1v1h-2v-1c0-1.6568542 1.3431458-3 3-3s3 1.3431458 3 3v.5c0 1.9329966-1.5670034 3.5-3.5 3.5z" opacity=".3" transform="matrix(1 0 0 -1 0 35)"/><path d="m4 24v-2h6.5c.8284271 0 1.5-.6715729 1.5-1.5v-.5c0-.5522847-.4477153-1-1-1s-1 .4477153-1 1v1h-2v-1c0-1.6568542 1.34314575-3 3-3 1.6568542 0 3 1.3431458 3 3v.5c0 1.9329966-1.5670034 3.5-3.5 3.5z" opacity=".3" transform="matrix(1 0 0 -1 0 41)"/></g></g></svg>