<svg height="24" viewBox="0 0 24 24" width="24" xmlns="http://www.w3.org/2000/svg"><g fill="none" fill-rule="evenodd"><path d="m0 0h24v24h-24z"/><g fill="#335eea"><path d="m11.604 6h8.396v2h-6v3.728h5.488v1.908h-5.488v5.364h-2.396z"/><path d="m3.72 8.92c0-.39600198.07499925-.76799826.225-1.116s.35699868-.65399868.621-.918.56999826-.47099925.918-.621.71999802-.225 1.116-.225.76799826.07499925 1.116.225.65399868.35699868.918.621.47099925.56999826.621.918.225.71999802.225 1.116-.07499925.76799826-.225 1.116c-.15000075.3480017-.35699868.6539987-.621.918s-.56999826.4709992-.918.621c-.34800174.1500007-.71999802.225-1.116.225s-.76799826-.0749993-1.116-.225c-.34800174-.1500008-.65399868-.3569987-.918-.621s-.47099925-.5699983-.621-.918c-.15000075-.34800174-.225-.71999802-.225-1.116zm1.404 0c0 .40800204.14399856.75599856.432 1.044.28800144.2880014.63599796.432 1.044.432s.75599856-.1439986 1.044-.432c.28800144-.28800144.432-.63599796.432-1.044s-.14399856-.75599856-.432-1.044-.63599796-.432-1.044-.432-.75599856.14399856-1.044.432-.432.63599796-.432 1.044z" opacity=".3"/></g></g></svg>