<svg height="24" viewBox="0 0 24 24" width="24" xmlns="http://www.w3.org/2000/svg"><g fill="none" fill-rule="evenodd"><path d="m0 0h24v24h-24z"/><g fill="#335eea"><path d="m8 16c0-2.209139 1.790861-4 4-4s4 1.790861 4 4zm-4 2h16c.5522847 0 1 .4477153 1 1s-.4477153 1-1 1h-16c-.55228475 0-1-.4477153-1-1s.44771525-1 1-1z"/><path d="m19.5 13h1.5c.8284271 0 1.5.6715729 1.5 1.5s-.6715729 1.5-1.5 1.5h-1.5c-.8284271 0-1.5-.6715729-1.5-1.5s.6715729-1.5 1.5-1.5zm-3.4393398-4.12867966 1.0606601-1.06066017c.5857865-.58578644 1.5355339-.58578644 2.1213204 0 .5857864.58578644.5857864 1.53553391 0 2.12132035l-1.0606602 1.06066018c-.5857864.5857864-1.5355339.5857864-2.1213203 0-.5857865-.5857865-.5857865-1.53553392 0-2.12132036zm-13.0606602 4.12867966h1.5c.82842712 0 1.5.6715729 1.5 1.5s-.67157288 1.5-1.5 1.5h-1.5c-.82842712 0-1.5-.6715729-1.5-1.5s.67157288-1.5 1.5-1.5zm9-8.5c.8284271 0 1.5.67157288 1.5 1.5v1.5c0 .82842712-.6715729 1.5-1.5 1.5s-1.5-.67157288-1.5-1.5v-1.5c0-.82842712.6715729-1.5 1.5-1.5zm-7.18933983 3.31066017c.58578644-.58578644 1.53553391-.58578644 2.12132035 0l1.06066017 1.06066017c.58578643.58578644.58578643 1.53553386 0 2.12132036-.58578644.5857864-1.53553391.5857864-2.12132035 0l-1.06066017-1.06066018c-.58578644-.58578644-.58578644-1.53553391 0-2.12132035z" opacity=".3"/></g></g></svg>