<svg fill="none" viewBox="0 0 189 334" xmlns="http://www.w3.org/2000/svg" xmlns:xlink="http://www.w3.org/1999/xlink"><filter id="a" color-interpolation-filters="sRGB" filterUnits="userSpaceOnUse" height="343.226" width="187" x="0" y="-8"><feFlood flood-opacity="0" result="BackgroundImageFix"/><feColorMatrix in="SourceAlpha" type="matrix" values="0 0 0 0 0 0 0 0 0 0 0 0 0 0 0 0 0 0 127 0"/><feOffset dy="-4"/><feGaussianBlur stdDeviation="11"/><feColorMatrix type="matrix" values="0 0 0 0 0 0 0 0 0 0 0 0 0 0 0 0 0 0 0.03 0"/><feBlend in2="BackgroundImageFix" mode="normal" result="effect1_dropShadow"/><feBlend in="SourceGraphic" in2="effect1_dropShadow" mode="normal" result="shape"/></filter><filter id="b" color-interpolation-filters="sRGB" filterUnits="userSpaceOnUse" height="16.5494" width="131.936" x="27.0391" y="293.26"><feFlood flood-opacity="0" result="BackgroundImageFix"/><feBlend in="SourceGraphic" in2="BackgroundImageFix" mode="normal" result="shape"/><feGaussianBlur result="effect1_foregroundBlur" stdDeviation="3.3977"/></filter><filter id="c" color-interpolation-filters="sRGB" filterUnits="userSpaceOnUse" height="14.7746" width="131.936" x="16.1908" y="297.113"><feFlood flood-opacity="0" result="BackgroundImageFix"/><feBlend in="SourceGraphic" in2="BackgroundImageFix" mode="normal" result="shape"/><feGaussianBlur result="effect1_foregroundBlur" stdDeviation="3.3977"/></filter><filter id="d" color-interpolation-filters="sRGB" filterUnits="userSpaceOnUse" height="14.7746" width="131.936" x="36.9012" y="297.113"><feFlood flood-opacity="0" result="BackgroundImageFix"/><feBlend in="SourceGraphic" in2="BackgroundImageFix" mode="normal" result="shape"/><feGaussianBlur result="effect1_foregroundBlur" stdDeviation="3.3977"/></filter><filter id="e" color-interpolation-filters="sRGB" filterUnits="userSpaceOnUse" height="67.5421" width="149.978" x="17.5248" y="265.994"><feFlood flood-opacity="0" result="BackgroundImageFix"/><feBlend in="SourceGraphic" in2="BackgroundImageFix" mode="normal" result="shape"/><feGaussianBlur result="effect1_foregroundBlur" stdDeviation="8.15485"/></filter><filter id="f" color-interpolation-filters="sRGB" filterUnits="userSpaceOnUse" height="289" width="143" x="22" y="15"><feFlood flood-opacity="0" result="BackgroundImageFix"/><feBlend in="SourceGraphic" in2="BackgroundImageFix" mode="normal" result="shape"/><feColorMatrix in="SourceAlpha" result="hardAlpha" type="matrix" values="0 0 0 0 0 0 0 0 0 0 0 0 0 0 0 0 0 0 127 0"/><feOffset dy="-3"/><feGaussianBlur stdDeviation="6"/><feComposite in2="hardAlpha" k2="-1" k3="1" operator="arithmetic"/><feColorMatrix type="matrix" values="0 0 0 0 0.464366 0 0 0 0 0.519284 0 0 0 0 0.587931 0 0 0 0.28626 0"/><feBlend in2="shape" mode="normal" result="effect1_innerShadow"/></filter><filter id="g" color-interpolation-filters="sRGB" filterUnits="userSpaceOnUse" height="2.30027" width="17.1703" x="85.1172" y="27.8621"><feFlood flood-opacity="0" result="BackgroundImageFix"/><feBlend in="SourceGraphic" in2="BackgroundImageFix" mode="normal" result="shape"/><feColorMatrix in="SourceAlpha" result="hardAlpha" type="matrix" values="0 0 0 0 0 0 0 0 0 0 0 0 0 0 0 0 0 0 127 0"/><feOffset/><feGaussianBlur stdDeviation=".5"/><feComposite in2="hardAlpha" k2="-1" k3="1" operator="arithmetic"/><feColorMatrix type="matrix" values="0 0 0 0 0.464366 0 0 0 0 0.519284 0 0 0 0 0.587931 0 0 0 0.28626 0"/><feBlend in2="shape" mode="normal" result="effect1_innerShadow"/></filter><linearGradient id="h" gradientUnits="userSpaceOnUse" x1="115.655" x2="0" y1=".033621" y2=".033621"><stop offset="0" stop-opacity=".01"/><stop offset=".142119"/><stop offset=".490956"/><stop offset=".852713"/><stop offset="1" stop-opacity=".01"/></linearGradient><linearGradient id="i"><stop offset="0" stop-color="#fff" stop-opacity=".01"/><stop offset=".852713"/><stop offset="1" stop-opacity=".01"/></linearGradient><linearGradient id="j" gradientUnits="userSpaceOnUse" x1="138.641" x2="22.9862" xlink:href="#i" y1="303.922" y2="303.922"/><linearGradient id="k" gradientUnits="userSpaceOnUse" x1="115.655" x2="0" xlink:href="#i" y1=".013453" y2=".013453"/><linearGradient id="l" gradientUnits="userSpaceOnUse" x1="-2.13698" x2="90.2272" y1="43.2503" y2="300.721"><stop offset="0" stop-color="#f4f7fa"/><stop offset="1" stop-color="#eceef1"/></linearGradient><mask id="m" height="334" maskUnits="userSpaceOnUse" width="189" x="0" y="0"><path clip-rule="evenodd" d="m189 0h-189v334h189zm-130.8261 29.3429v-3.3429h-13.9751c-7.2895 0-13.1988 5.8715-13.1988 13.1143v243.7717c0 7.243 5.9093 13.114 13.1988 13.114h98.6022c7.29 0 13.199-5.871 13.199-13.114v-243.7717c0-7.2428-5.909-13.1143-13.199-13.1143h-14.751v3.3429c0 3.5504-2.897 6.4285-6.47 6.4285h-56.9361c-3.5733 0-6.47-2.8781-6.47-6.4285z" fill="#fff" fill-rule="evenodd"/></mask><g mask="url(#m)"><g filter="url(#a)"><g filter="url(#b)" opacity=".8"><path d="m0 0h118.345v2.95862h-118.345z" fill="url(#h)" transform="matrix(1 0 0 -1 33.8345 303.014)"/></g><g filter="url(#c)"><path d="m22.9862 303.908h118.345v1.18382h-118.345z" fill="url(#j)"/></g><g filter="url(#d)"><path d="m0 0h118.345v1.18382h-118.345z" fill="url(#k)" transform="matrix(-1 0 0 1 162.041 303.908)"/></g><g filter="url(#e)" opacity=".05"><rect fill="#000" height="34.9227" rx="17.4613" width="117.359" x="33.8345" y="282.303"/></g><g filter="url(#f)"><path clip-rule="evenodd" d="m164.231 116.912v166.036c0 11.627-9.425 21.052-21.052 21.052h-99.3583c-11.6266 0-21.0519-9.425-21.0519-21.052v-159.391h-.7688v-20.447h.7688v-5.623h-.7688v-20.4468h.7688v-9.7122h-.7688v-10.479h.7688v-17.7971c0-11.6266 9.4253-21.0519 21.0519-21.0519h99.3583c11.627 0 21.052 9.4253 21.052 21.0519v45.1447h.769v32.7154z" fill="url(#l)" fill-rule="evenodd"/></g><g filter="url(#g)"><rect fill="#000" fill-opacity=".01" height="2.30027" rx="1.15013" width="17.1703" x="85.1172" y="27.8621"/></g></g></g></svg>