<svg fill="none" viewBox="0 0 272 189" xmlns="http://www.w3.org/2000/svg" xmlns:xlink="http://www.w3.org/1999/xlink"><linearGradient id="a"><stop offset="0" stop-color="#808080" stop-opacity=".25"/><stop offset=".54" stop-color="#808080" stop-opacity=".12"/><stop offset="1" stop-color="#808080" stop-opacity=".1"/></linearGradient><linearGradient id="b" gradientTransform="matrix(0 -118.286 118.557 0 -18.6135 118.292)" gradientUnits="userSpaceOnUse" x2="1" xlink:href="#a"/><linearGradient id="c" gradientTransform="matrix(0 -.0137137 .0575421 0 69.5946 30.3639)" gradientUnits="userSpaceOnUse" x2="1" xlink:href="#a"/><linearGradient id="d" gradientTransform="matrix(0 -31869.5 24388.4 0 6246.79 57727.8)" gradientUnits="userSpaceOnUse" x2="1" xlink:href="#a"/><linearGradient id="e" gradientTransform="matrix(0 -47331.1 24711.4 0 39414.5 70008.1)" gradientUnits="userSpaceOnUse" x2="1" xlink:href="#a"/><path d="m13.3134 26.5657c7.3527 0 13.3133-5.9469 13.3133-13.2828 0-7.33596-5.9606-13.2829-13.3133-13.2829-7.35281 0-13.3134 5.94694-13.3134 13.2829 0 7.3359 5.96059 13.2828 13.3134 13.2828z" fill="#2c7be5" transform="translate(13.9336 5.57715)"/><path d="m16.2736 45.8999c5.5899 12.5972-1.5407 27.1029-9.93423 38.0258-2.80929 3.6628-5.910682 7.5028-6.300146 12.0971-.469647 5.6202 3.344806 10.7862 7.869456 14.1632 8.25322 6.154 19.52472 8.057 29.34722 4.951 8.488-2.683 15.6244-8.743 24.1869-11.186 14.3185-4.091 29.4961 2.692 41.7582 11.143 8.68 5.975 17.976 13.255 28.44 11.975 7.362-.9 13.611-6.058 17.852-12.129 2.048-2.931 3.829-6.217 6.81-8.194 1.773-1.177 3.855-1.8 5.936-2.246 19.013-4.054 39.19 5.84 57.95.751 12.672-3.428 22.775-13.4282 29.058-24.9339s9.216-24.4972 11.658-37.3686c1.736-9.1429 3.176-19.02-.813-27.4286-4.221-8.90284-13.992-14.29999-23.812-15.311417-9.819-1.011429-19.667 1.779997-28.714 5.717147-11.303 4.93147-22.383 11.83427-34.719 11.85717-8.403.0171-16.415-3.2-24.448-5.6543-13.431-4.10001-27.397-6.13716-41.315-8.01716-13.3243-1.8-26.7809-3.474285-40.1859-2.41143-9.4846.75143-17.8609 4.36858-27.0648 6.04286-5.9995 1.09143-12.0276.28572-17.9154 2.11429-7.2509 2.26284-14.70796 7.50574-15.10888 15.76284-.37801 7.86 6.50058 13.5972 9.46458 20.28z" fill="#2c7be5" opacity=".1" transform="translate(9.34766)"/><path d="m81.158 20.0547c-1.2228-3.18-4.3758-10.65427-6.4519-9.1714-2.6232 1.8743 2.6231 10.1543 2.6231 10.1543.1489 1.52-2.8007 4.6828-4.3814 6.26 0-.1257 0-.1972 0-.1972-.0151.06-.0382.1177-.0688.1715l-.1317-.0715c-.0352.1261-.0989.2424-.1862.34 0-.2142-.0143-.34-.0143-.34-.3035 1.2829-5.6014 2.9086-5.6014 2.9086s-.1432 0-.3894 0c-1.472 0-5.3036-.3314-7.0791-3.1657-.9183-1.5354-2.0932-2.9028-3.4737-4.0429-.4728-.3695-1.0471-.5868-1.6466-.6228-4.9055-.3143-8.8775-2.7915-9.6707-3.32l-.1461-.1-.0315.0914c-.1861-.2657-.3665-.5486-.5355-.84l-.0859-.1571c1.1874-.5947 2.1865-1.5059 2.8866-2.6326.7001-1.1266 1.0738-2.4247 1.0796-3.7503 0-.0486 0-.1 0-.1486.4316-.7442.6587-1.58876.6587-2.44854v-.85714l1.1197-.99429c.5126-.45429 1.0424-.93428 1.303-1.56.1046-.25321.1516-.52646.1374-.8.0251-.23433-.0101-.47119-.1023-.68817-.0922-.21697-.2383-.40691-.4246-.55183-.8591-.59143-2.291 0-2.9124-.82285-.2864-.37143-.2348-.87715-.3751-1.31429-.2864-.888573-1.3173-1.3685768-2.271-1.3828625-.9536-.0142857-1.8671.3314305-2.7835.5914305-1.9253.545332-3.9345.733212-5.9278.554292-.5392-.09575-1.0927-.07627-1.6238.05714-.3244.13378-.6126.34186-.8415.60741-.2288.26555-.3918.58111-.4758.92116-.0708.25551-.1131.51806-.126.78286-.7989.89905-1.2409 2.05846-1.2428 3.26v2.19714c.0017 1.17294.4232 2.30674 1.1884 3.19714.0903 1.0338.4054 2.0356.9232 2.9356s1.2259 1.6766 2.0751 2.2758v.1743l.0372.0229c-.0463.6811-.1517 1.357-.315 2.02v-.1457s-4.0091 2.1285-8.3047 2.18h-.4725c-.8474-.0285-1.6714.2798-2.291.8571-1.2715 1.1943-3.4994 3.0829-4.8683 3.0829-.2863 0-7.5143 1.4085-8.7114 1.6428l-2.23651-2.1857-.06873.1286-.13173-.1286c-.24457.0188-.48759.0542-.72738.1057-1.14548-1.3543-3.43645-4.5028-3.96623-8.7286 0 0 4.94562-5.62 3.12717-10.8571-1.55213-4.46286-5.82764 5.1029-7.04185 7.9857-.212407.5031-.2387974 1.0651-.074459 1.5857l4.017779 12.92c-.38258 1.0012-.49225 2.0857-.31787 3.1429h-.04582l2.92671 3.7457s2.20218.9372 5.64722.92c2.5249.0042 5.0272-.475 7.3712-1.4114h.6787l-.1289.0486h3.4851l2.2165 6.6885c-.0744.6086-1.1454 9.1029-2.0046 11.0029-.2549.6348-.3701 1.3169-.3379 2 .0451 1.3125.2598 2.6137.6386 3.8714l1.9416-.0714-.0744.1514c-1.6438 3.3629-4.3901 9.3543-6.0138 14.9543l-2.8265 5.7143 2.1192 25.6284h.0859l.1632.026c.2291.034.5727.086 1.0252.143l-.1661.285-4.6707 7.715s-3.3305 6.803 4.0378 5.52c0 0 2.7234-.789 3.8345-5.429l4.8454-4.534s.2262-3.012-1.1455-4.214c-.0859-1.392-.3035-5.4547.0315-6.4318.4038-1.1829-1.7182-14.7857-1.7182-14.7857s7.669-15.8715 12.3139-16.2657c.3405-.0239.6824.0208 1.0052.1314 3.8173 1.24 8.4422 10.4486 9.8024 13.3143l.0631.1314v.0257l.0515.1114v.0315l.0458.0971v.0257l.0401.0886v.02l.0344.0714v.0286l.0258.0543v.0228l.0171.04v.0229.0257l.0144.0343.6042 17.8429.0601.0314h.0287l-.0516.3686-.2634 1.8432s3.3304 7 3.1271 7.885c-.2033.886 2.2194 4.437 5.6501 3.452 3.4307-.986 1.3889-6.543 1.3889-6.543l-3.3047-6.7944-.146-.3028c.3291-.2016.6396-.432.9278-.6886 0 0-1.008-7.2943 0-8.8714 1.008-1.5772 1.3116-8.7743 1.3116-8.7743s-.7074-4.9286-1.9187-7.0972l-5.0745-18.0714c1.5206 1.4114 2.7033 1.9628 3.6913 1.9257h.1632c.4343.0082.8631-.0983 1.2429-.3086.2039-.1148.3958-.2498.5727-.4028.0338-.0291.0654-.0606.0945-.0943 1.4118-1.1829-1.6151-5.8172-3.3305-8.5714-1.6523-2.6572.6243-9.8772.7962-10.4143.1528-.112.3169-.2077.4897-.2858.3551-.1518.7362-.2342 1.1225-.2428 1.6438.0571 3.6656 1 6.1684 1.4743 1.7394.2952 3.5022.4319 5.2664.4086h.1031c.7016 0 1.3373-.0143 1.8528-.0343.4703-.0185.9303-.1425 1.3459-.3629.3562-.2072.6788-.4674.9565-.7714l4.393-4.9515-.1146.0543c.2129-.5615.2129-1.1813 0-1.7428l4.6421-8c.2343-.3942.3764-.8361.4155-1.2928.0392-.4566-.0255-.9162-.1893-1.3444z" fill="url(#b)" transform="translate(91.2148 37.0625)"/><path d="m13.0008 4.74053-4.67644 4.47142c-1.07102 4.57145-3.70277 5.34575-3.70277 5.34575-7.11057 1.2628-3.897492-5.4286-3.897492-5.4286l4.510332-7.6143.55556-.939991s3.21593-.971424 5.35801-.388567c.2704.073961.5203.208853.7302.394287 1.3431 1.162861 1.1226 4.160001 1.1226 4.160001z" fill="#444176" transform="translate(107.219 139.797)"/><path d="m8.46797 14.6686c-3.3133.9714-5.65008-2.5257-5.44103-3.4029.20905-.8771-3.02694-7.7657-3.02694-7.7657l.252007-1.81714.234826-1.68286 5.441037.388567.5126 1.074293 3.19017 6.7s2.15066 5.53434-1.16267 6.50574z" fill="#444176" transform="translate(140.586 133.854)"/><path d="m6.69248 1.35481c-.5126.87714-4.66784.43428-6.69247441.16l.55555941-.939997s3.215925-.971425 5.357975-.388568c.27045.073962.52027.208853.73024.394288.02864.474287.0487.774277.0487.774277z" fill="#000" opacity=".1" transform="translate(112.457 139.782)"/><path d="m6.19992 1.46285c-2.78638 1.85143-5.753186.45144-6.19992419.22001l.23482619-1.68286558 5.441038.38858458z" fill="#000" opacity=".1" transform="translate(140.832 133.849)"/><path d="m38.4653 37.6143c-.9737 1.5543 0 8.7486 0 8.7486-3.216 2.9171-7.0132.7771-7.0132.7771l-.5728-17.5914s-6.3316-14.4829-10.8133-14.0943-11.88439 16.0371-11.88439 16.0371 2.04469 13.4115 1.65521 14.5715c-.38946 1.16 0 6.8028 0 6.8028-.68156 1.1658-7.79214 0-7.79214 0l-2.04468385-25.2714 2.71479385-5.64c1.56072-5.52 4.21251-11.4286 5.799-14.74287.78752-1.64857 1.31445-2.65429 1.31445-2.65429l5.18326-1.07714 16.8243-3.47999895 6.0453 21.95429895c1.1684 2.1371 1.8499 6.9971 1.8499 6.9971s-.2921 7.1086-1.2657 8.6629z" fill="#565387" transform="translate(109.32 87.9714)"/><g fill="#000" opacity=".1"><path d="m11.9731 31.6934-.5727-17.5914s-6.33164-14.48289-10.813333-14.09431859c-.200372.01947739-.397571.06361999-.58707329.13142659 4.37001629 1.448572 9.84254629 13.962892 9.84254629 13.962892l.57276 17.5914c1.1949.6073 2.5417.8526 3.8746.7057-.808-.0969-1.5923-.3358-2.3168-.7057z" opacity=".1" transform="translate(130.355 103.418)"/><path d="m3.60254 52.8857-2.04469-25.2714 2.72625-5.6486c1.56072-5.52 4.21251-11.4286 5.799-14.74284.7875-1.64857 1.3144-2.65429 1.3144-2.65429l5.1833-1.07714 15.3581-3.185715-.083-.3057164-16.8329 3.4914314-5.18331 1.07714s-.52693 1.00572-1.31444 2.65429c-1.59222 3.31424-4.23829 9.23424-5.799 14.74284l-2.72624755 5.6372 2.04467755 25.2714s3.8832.6371 6.18561.4971c-1.5498-.0839-3.09437-.246-4.62775-.4857z" opacity=".1" transform="translate(109.309 87.96)"/></g><path d="m4.8487-.00000244s-5.552725.28572144-4.773798 6.12286244l1.557858.19429 2.33678-2.52572 1.1684-2.13714v-.48572z" fill="#ced2df" transform="translate(96.2188 62.5571)"/><path d="m4.8487-.00000244s-5.552725.28572144-4.773798 6.12286244l1.557858.19429 2.33678-2.52572 1.1684-2.13714v-.48572z" fill="#000" opacity=".1" transform="translate(96.2188 62.5571)"/><path d="m.283513.0000007s4.581917 2.4285693 3.410667 5.2485693l-1.46049.57143-1.947328-1.06857-.28637039-2.52571.19474739-1.748581z" fill="#ced2df" transform="translate(162.555 64.6943)"/><path d="m.283513.0000007s4.581917 2.4285693 3.410667 5.2485693l-1.46049.57143-1.947328-1.06857-.28637039-2.52571.19474739-1.748581z" fill="#000" opacity=".1" transform="translate(162.555 64.6943)"/><path d="m9.93705-.00000209h-3.8975c-3.33555 0-6.0395521 2.69781209-6.0395521 6.02572209s2.7040021 6.02568 6.0395521 6.02568h3.8975c3.33555 0 6.03955-2.69777 6.03955-6.02568s-2.704-6.02572209-6.03955-6.02572209z" fill="#88455e" transform="translate(123.484 39.6172)"/><path d="m8.43334 21.1907-3.41067 5.4286-.28637-.9657-4.633472-15.0629c-.1584605-.5134-.1331529-1.0659.071592-1.56282 1.17126-2.84 5.30071-12.28572 6.79843-7.87143 1.75259 5.14286-3.0212 10.69145-3.0212 10.69145.5441 4.5028 3.07848 7.7657 4.07505 8.8971.25201.2943.40664.4457.40664.4457z" fill="#ec8c9c" transform="translate(92.5938 42.1921)"/><path d="m-.00000769 17.2842s5.35798769-5.0543 5.15466769-7.0943c0 0-5.0658832-8.16289-2.53151-10.00003 2.0046-1.46286 5.04871 5.90857 6.22856 9.04286.15597.4175.21859.86397.18347 1.30817s-.16714.8753-.3868 1.2633l-6.40324 11.3114z" fill="#ec8c9c" transform="translate(162.109 48.4302)"/><path d="m2.31667.0114293s.97367 6.2200007-1.849937 8.5542907c-2.823613 2.33428 8.087097 2.31998 8.087097 2.31998l3.89747-3.59712s-4.48168-4.18001-3.11855-7.28858174z" fill="#ec8c9c" transform="translate(125.109 51.6113)"/><path d="m8.04272.388568s4.18958 3.111432 8.37638-.38856695l6.8184 14.09429895-.3894 17.2029s-14.12668 7.2885-19.9715 2.82c-5.84482-4.4686-.97367-6.8029-.97367-6.8029l-1.363121-13.2172 1.460501-8.55424s2.62888-4.08286 2.82647-4.08286c.1976 0 3.21594-1.071432 3.21594-1.071432z" fill="#000" opacity=".1" transform="translate(119.188 58.3286)"/><path d="m8.03985.388571s4.18965 3.117149 8.37925-.38856786l6.8184 14.09429686-.3894 17.2029s-14.12668 7.2885-19.9715 2.82c-5.84482-4.4686-.97366-6.8029-.97366-6.8029l-1.363128-13.2171 1.460498-8.55434s2.62888-4.08286 2.82648-4.08286c.19759 0 3.21306-1.071429 3.21306-1.071429z" fill="#ebf1f6" transform="translate(119.191 58.1343)"/><path d="m30.7848 0s-3.9719 2.25715-8.2847 2.14572c-.4045-.01264-.8076.05512-1.1856.19933-.3781.14421-.7236.36199-1.0166.64067-1.2285 1.17714-3.3791 3.04-4.7108 3.04-.2863 0-8.57389 1.65143-8.57389 1.65143l-2.19074-2.18572s-3.26462 6.36577-4.8224714 6.07427l2.8264714 3.6943s5.358 2.3314 12.37123-.4857h4.0922l2.1421 6.6086s-1.0711 8.9428-1.9474 10.8857c-.8763 1.9428.2864 5.7343.2864 5.7343l7.6948-.2857s.3894-3.7915.9736-4.2858c.5842-.4942-2.0446-17.2028-2.0446-17.2028s-1.7526-9.4286 4.6764-12.8286z" fill="#000" opacity=".1" transform="translate(96.4453 57.0686)"/><path d="m6.49488.0000014c-.28337 1.1530286-.48527 2.3244786-.60424 3.5057086l-5.8906407.22286c.7875187-1.64857 1.3144507-2.65428 1.3144507-2.65428z" fill="#000" opacity=".1" transform="translate(117.836 91.4629)"/><path d="m3.69704.448573-3.410672 5.428577-.28637045-.96572c1.25144245-1.24 2.71765245-3.83143 3.30185245-4.91143035.24055.29714335.39519.44857335.39519.44857335z" fill="#000" opacity=".1" transform="translate(97.332 62.9343)"/><path d="m30.9881 0s-4.1695 2.25715-8.4794 2.14572c-.4045-.01264-.8076.05512-1.1856.19933-.3781.14421-.7237.36199-1.0166.64067-1.2285 1.17714-3.3791 3.04-4.7108 3.04-.2863 0-8.5739 1.65143-8.5739 1.65143l-2.19932-2.18858s-3.26462 6.36573-4.82247895 6.07433l2.82647895 3.6942s5.35798 2.3315 12.37122-.4857h4.0922l2.1421 6.6058s-1.0711 8.9428-1.9474 10.8857c-.8763 1.9428.2864 5.7343.2864 5.7343l7.6948-.2858s.3894-3.7914.9736-4.2857-2.0446-17.2028-2.0446-17.2028-1.7526-9.42861 4.6764-12.82861z" fill="#ced2df" transform="translate(96.2422 57.0686)"/><path d="m1.34308.0000007s3.97481 3.0228593 9.28122 3.3714293c.5806.03634 1.1358.25091 1.5894.61429 1.3383 1.13273 2.4725 2.48559 3.3534 4 2.142 3.49998 7.4027 3.11138 7.4027 3.11138s5.1146-1.60281 5.4066-2.8571c0 0 .1461 6.8572 3.362 5.2l-4.2297 4.8629c-.2666.3072-.5934.5566-.9603.733s-.7662.276-1.1731.2927c-1.5894.0628-4.35.0828-6.681-.3686-3.5081-.68-6.0396-2.3314-7.8895-.8743 0 0-2.43419 7.58-.779 10.3029 1.6553 2.7228 4.582 7.2886 3.216 8.4571-1.366 1.1686-3.0212 1.0686-5.74749-1.7485-2.72625-2.8172-3.02121-7.58-3.02121-7.58l.68157-12.2458s-2.62888-9.23426-5.1546693-11.07997z" fill="#000" opacity=".1" transform="translate(134.266 56.48)"/><path d="m31.747 13.2229-4.2411 4.8828c-.2819.3239-.6306.5832-1.0224.76-.3482.1568-.7236.2451-1.1054.26-1.5893.0657-4.3499.0857-6.681-.3685-3.2818-.6372-5.7102-2.1229-7.5258-1.1201-.1287.0708-.2513.152-.3665.2429 0 0-2.43419 7.58-.779 10.3029 1.6553 2.7228 4.582 7.2885 3.216 8.4571-.2287.2006-.4852.3671-.7618.4943-1.2256.5514-2.74627.0743-4.98569-2.2429-2.72625-2.82-3.0212-7.58-3.0212-7.58l.68156-12.2457s-2.62888-9.23427-5.1546672-11.07998l1.1139872-3.98572314c.76747.52000014 4.5991 2.96286314 9.33571 3.27429314.5806.03635 1.1357.25091 1.5893.61428 1.3381 1.13289 2.4723 2.48572 3.3534 4.00001 2.1421 3.50002 7.4027 3.11142 7.4027 3.11142 1.2611-.4014 2.4927-.8902 3.6856-1.46286.7474-.36571 1.406-.76571 1.7182-1.14285.0876-.0985.1513-.21582.1861-.34285 0 0 .1489 6.82286 3.362 5.17146z" fill="#000" opacity=".1" transform="translate(134.645 56.5742)"/><path d="m31.7556 13.4114-4.2383 4.8886c-.233.2683-.5124.4928-.8247.6629-.4002.2168-.8451.339-1.3001.3571-1.5894.0657-4.35.0857-6.6811-.3686-3.1643-.6142-5.5384-2.02-7.3282-1.2171-.2045.0888-.3969.2031-.5727.34 0 0-2.43416 7.58-.7789 10.3029 1.6552 2.7228 4.5819 7.2885 3.2159 8.4571-.1767.1517-.3686.2848-.5727.3971-1.2601.6943-2.81794.2858-5.1805-2.1457-2.72624-2.82-3.0212-7.58-3.0212-7.58l.68156-12.2457s-2.62888-9.23429-5.1546635-11.08l1.1683935-4.17999651.14032.09714181c.76747.5200007 4.5991 2.9628547 9.33569 3.2742847.5806.03635 1.1357.25091 1.5893.61428 1.3382 1.1329 2.4723 2.48572 3.3534 4.00001 2.1421 3.49998 7.4027 3.11138 7.4027 3.11138 1.2612-.4014 2.4927-.8902 3.6856-1.46281.8849-.45142 1.6065-.94572 1.7182-1.39714v.24572c.0859 1.18.5155 6.38853 3.362 4.92853z" fill="#ced2df" transform="translate(134.441 56.4829)"/><path d="m7.15925.00000349h-7.15925699c.15745299 1.13568651.20254399 2.28407651.13460299 3.42857651 1.092894.76728 2.374544 1.22319 3.707454 1.31883 1.33291.09563 2.66676-.17262 3.85845-.77598-.68729-1.26857-1.1054-2.70857-.54125-3.97142651z" fill="#000" opacity=".1" transform="translate(127.367 51.7686)"/><path d="m7.11058 14.1886c3.92702 0 7.11062-3.1762 7.11062-7.09431 0-3.91807-3.1836-7.09429-7.11062-7.09429-3.92706 0-7.11058 3.17622-7.11058 7.09429 0 3.91811 3.18352 7.09431 7.11058 7.09431z" fill="#ec8c9c" transform="translate(124.602 42.1943)"/><path d="m5.5691 9.946c.79325-.09428 1.5865-.37428 2.36829-.21714.7102.14286 1.31444.63144 2.02464.78004 1.36887.2857 2.64037-.72004 3.67417-1.65719l2.2337-2.02856c.4954-.44857 1.0051-.92 1.26-1.53715.2548-.61714.1661-1.42857-.378-1.81715-.8162-.57142-2.2223.00001-2.8122-.81142-.2663-.36572-.2262-.85715-.3637-1.29429-.2863-.874286-1.2715-1.3514303-2.1936-1.36285892-.9221-.01142858-1.8041.32571492-2.68612.57142892-1.85811.53776-3.80087.72288-5.72741.54572-.51995-.09498-1.05436-.07646-1.56645.05429-.31522.13425-.594467.34041-.815296.60193-.22083.26151-.377084.57106-.456193.90378-.441011 1.55428.312138 4.06 1.068159 5.45143.75601 1.39142 2.86084 2.00284 4.37001 1.81714z" fill="#000" opacity=".1" transform="translate(124.668 38.0796)"/><path d="m5.5691 9.94601c.79325-.09429 1.5865-.37429 2.36829-.21715.7102.14286 1.31444.63144 2.02464.78004 1.36887.2857 2.64037-.72004 3.67417-1.65718l2.2337-2.02858c.4954-.44857 1.0051-.92 1.26-1.53714.2548-.61715.1661-1.42857-.378-1.81714-.8162-.57143-2.2223 0-2.8122-.81143-.2663-.36572-.2262-.85714-.3637-1.29429-.2863-.874284-1.2715-1.3514282-2.1936-1.36285683-.9221-.01142857-1.8041.32571483-2.68612.57142883-1.85811.537758-3.80087.722868-5.72741.545718-.51995-.09498-1.05436-.07646-1.56645.05428-.31522.13426-.594467.34042-.815296.60193-.22083.26151-.377084.57107-.456193.90379-.441011 1.55429.312138 4.06 1.068159 5.45143.75601 1.39143 2.86084 1.98854 4.37001 1.81715z" fill="#88455e" transform="translate(124.668 37.8853)"/><g fill="#000"><path d="m-.0000035 0s1.5578635.194282 2.3367935 1.16571c.77893.97143 2.14204 1.26286 2.14204 1.26286" opacity=".1" transform="translate(117.832 78.4971)"/><path d="m.0554611-.00000105s1.2714889 2.83143105.4868329 3.11714105c-.784655.28572-.4868329 2.33144-.4868329 2.33144" opacity=".1" transform="translate(103.746 65.6655)"/><g opacity=".1"><path d="m.0887738 5.43292s8.2789662-1.65143 8.5653362-1.65143c1.33449 0 3.48229-1.86286 4.71079-3.040002.3736-.357107.8333-.611989 1.3345-.73999892h-.106c-.4045-.01263458-.8076.05512362-1.1856.19933192-.3781.144209-.7236.361989-1.0166.640669-1.2285 1.17714-3.37913 3.04001-4.71075 3.04001-.23196 0-5.52981 1.04857-7.68045035 1.47428z" opacity=".1" transform="translate(104.152 59.2615)"/><path d="m6.34596.362855v-.36285395c-1.99161 1.01317895-4.13476 1.69729895-6.34596 2.02571895 2.19391-.1948 4.33924-.75695 6.34596-1.662865z" opacity=".1" transform="translate(120.895 57.1143)"/><path d="m4.8282 23.2286s-1.16839-3.7914-.28637-5.7343 1.94733-10.88573 1.94733-10.88573l-2.13633-6.60857314h-4.103693l-.2491405.09714184h3.3648535l2.13346 6.6114313s-1.07102 8.94283-1.94731 10.88573c-.8763 1.9429.28637 5.7343.28637 5.7343l7.69473-.2857v-.06z" opacity=".1" transform="translate(112.176 71.7886)"/></g><g opacity=".1"><path d="m8.77439 8.78c-.17667.15174-.3686.28483-.57274.39715-1.26003.69429-2.81789.28571-5.18044-2.14572-2.164963-2.23714-2.794971-5.71428-2.9639296-7.03142651l-.0572776 1.00571651s.2863672 4.76285 3.0212072 7.58c2.36255 2.43998 3.92041 2.83998 5.18044 2.14568.20414-.1123.39607-.2454.57274-.3971.40951-.35144.43241-1.01144.21763-1.83429-.05323.1068-.1272.20197-.21763.27999z" opacity=".1" transform="translate(139.012 82.9827)"/><path d="m20.8213.139998-2.7578 3.180002c-.2331.26829-.5124.49279-.8247.66286-.4003.21685-.8451.33904-1.3002.35714-1.5893.06572-4.3499.08572-6.68098-.36857-3.1644-.61429-5.53841-2.02-7.32823-1.21715-.2045.08883-.39693.20307-.57274.34 0 0-1.572163 4.89715-1.3316121 8.23142.1861411-3.11713 1.3316121-6.67713 1.3316121-6.67713.17581-.13694.36824-.25117.57274-.34 1.79268-.80286 4.16383.60286 7.32823 1.21715 2.33108.45143 5.08878.43143 6.68098.36857.4551-.0181.8999-.1403 1.3002-.35714.3116-.16751.5909-.38907.8247-.65429l4.2411-4.88285895c-.2195.13635095-.4677.21996795-.7251.24426295s-.517-.011399-.7582-.104266z" opacity=".1" transform="translate(144 69.8999)"/></g></g><path d="m-.00000281.00000421c.03411991.03303939.07797811.05422189.12508081.06042899.047103.0062071.094951-.0028921.136475-.0259633-.088413.0015446-.1765653-.0100704-.26155581-.03446569z" fill="url(#c)" transform="translate(40.2812 105.037)"/><path d="m69.465 14.3614c-.5155-.1486-1.2514-.3915-2.1363-.7.9195-1.1804 1.5924-2.5328 1.9788-3.97719l-.0745.02857c.0258-.08857.0516-.17428.0745-.26571-1.6982.68853-3.5768-.47714-4.7738-1.97429-1.197-1.49714-2.0046-3.35428-3.3162-4.73143-.5465-.54784-1.1344-1.05313-1.7583-1.51143-.3866-.285712-.8018-.608567-1.2743-.622853-.7646-.022857-1.3631.725713-2.0991.945713-.4843.10874-.9885.09004-1.4634-.05429-1.8986-.43428-3.7228-1.237141-5.6615-1.4485697-1.0373-.1278145-2.0901-.0093624-3.0728.3457117-.9736.368572-1.4175 1.102858-2.205 1.691438-.8591.63142-2.5373.61714-3.5367.72856-1.2128.13821-2.434.18882-3.6541.15143-.7011-.06066-1.4071-.03474-2.1019.07715-1.4519.31714-2.6175 1.46857-3.7057 2.57143-.297.24949-.5108.58337-.6128.95714-.014.10526-.014.21189 0 .31714-.011.28806.0388.5752.146.84286.335.99174.8084 1.93145 1.4061 2.79142.4439.6343.9622 1.2314 1.2142 1.9829.1195.3694.1822.7547.1862 1.1428-.0124.4122-.0555.8228-.1289 1.2286-.1921 1.1218-.5081 2.219-.9421 3.2714-.2695.5403-.4549 1.1183-.5499 1.7143-.0082.1218-.0082.244 0 .3657-.0716 1.8857 1.8357 3.2429 2.2051 5.1172.0303.1555.0485.3131.0544.4714-.0401 1.1686-.7074 2.3114-1.6925 2.7657.0859.0343.1747.0629.2635.0914-.0847.0531-.1727.1008-.2635.1429.1804.0686.3637.1286.5499.1771-1.1196.973-2.0606 2.1332-2.7807 3.4286-3.3133 6.1543-25.75328 18.2086-25.75328 18.2086l.33219.1886-.26919.1743c-1.94159 1.2885-6.49775 5.0457-2.37974 9.7971 0 0 3.21594-5.0629 5.46967-7.22.10023-.0971.20046-.1857.28637-.2686.04952.0761.08271.1616.0975.2511.01478.0895.01084.181-.01159.2689l14.75377-8.2714s5.2435-3.6629 6.7068-4.4886c1.03-.6402 2.1509-1.1218 3.3248-1.4285l-.1718.0714c.5516-.1514 1.1203-.2321 1.6924-.24 2.6117.04 5.4411 1.9486 6.3718 9.5057 1.2485 10.12.6701 11.9457.2691 12.1943-.0494-.0037-.0983-.0123-.146-.0257.0124.0108.0258.0204.0401.0286-.0543-.0039-.1081-.0134-.1604-.0286.0289.0264.064.045.1021.054s.0779.0081.1156-.0026c.0271.0082.0556.0107.0837.0072.0281-.0034.0552-.0127.0795-.0272.0658.0038.1318.0038.1976 0 0 .0933-.0067.1886-.0201.2857-.02 0-.1174.0543 0 .06-.0315.5715-.0286 1.1915 0 1.84-1.2972.0715-2.5945.1486-3.7228.2172l.1003-.5343.0458-.24c.9965-.08 1.9416-.3714 2.0533-1.1772.2434-1.7714-2.1936-2.7171-4.267-2.8343-2.0733-.1171-14.5075.7086-14.5075.7086s-1.8643 2.4086 4.0493 3.1429c.1756.0914.358.1866.547.2857 2.3167 1.3171 5.4582 3.7429 6.9645 4.9371l.209.1658-.6758.5485c3.657.8257 7.1936 14.7686 9.1438 21.1429s6.2171 6.1429 9.7538 5.1971c3.3133-.8857 3.7228-10.4857 3.7772-11.6914v-.1229l5.8935 7.2629.4467.5514c.1719.0896.3418.1734.5098.2515 4.4616 2.1171 9.3901-1.9429 7.9897-6.5715-1.4175-4.6657-3.6168-11.5657-5.0831-14.4828-1.2285-2.4429-2.815-6.5-3.7772-9.04.125-.0501.2465-.1083.3637-.1743 0 0-.0229-.1143-.0601-.3229l.0601-.0314s-1.4318-7.3486-1.4948-12.5714c0-.0915 0-.1867 0-.2858 0-.0571 0-.1142 0-.1685 1.0653-.2429 1.7411-.3372 1.7411-.3372l.02-.2285-.1231.0257.5928-6.7686s2.1764-4.62.5097-6.5429c-.5067-.5623-.845-1.2553-.9765-2-.2864-1.7685 0-4.72 3.8803-7.1714 5.9737-3.78 8.3048-6.8571 8.3048-6.8571s.1031-2.2058-3.5539-3.28zm-11.8643 4.6971v-3.1286c1.1082-.0543 2.2394.0743 3.3534 0 .5468-.0381 1.0887-.129 1.618-.2714l.2692.1857c-1.6298 1.2508-3.3862 2.328-5.2406 3.2143zm-16.9388 49.04c.4381.3029.8791.6172 1.3115.9343.2692 1.5429.5069 2.6314.5241 2.7086-.4942-1.2699-1.1089-2.4897-1.8356-3.6429z" fill="url(#d)" transform="translate(0 43.3472)"/><path d="m13.6427.00000209-.2577 1.39713791-.1976 1.06858-.3609 1.95428-3.49942 2.44287s-.315-.26859-.83619-.6943c-1.43186-1.17715-4.44734-3.56571-6.66098-4.85714-.56886-.362403-1.184469-.645956-1.82990843-.842861z" fill="#ffbdc6" transform="translate(36.4883 108.874)"/><path d="m13.6455.00000209-.2577 1.39713791c-.7713.04281-1.5451.00354-2.3081-.11714l-8.16445.11714c-.3866-.02286-.74743-.05428-1.08534-.08857-.56886-.362403-1.184472-.645948-1.82991122-.842852z" fill="#000" opacity=".1" transform="translate(36.4844 108.874)"/><path d="m13.9122 3.85976s4.0837.69714 4.3156-1.04858c.232-1.74571-2.0991-2.665705-4.0779-2.7971333-1.9788-.1314287-13.883224.7028553-13.883224.7028553s-2.099096 2.791428 5.481134 3.257138z" fill="#7679b4" transform="translate(33.6523 106.066)"/><path d="m13.6427.00000209-.2577 1.39713791-.1976 1.06858-.3609 1.95428-3.49942 2.44287s-.315-.26859-.83619-.6943c-1.43186-1.17715-4.44734-3.56571-6.66098-4.85714-.56886-.362403-1.184469-.645956-1.82990843-.842861z" fill="#000" opacity=".1" transform="translate(36.4883 108.874)"/><path d="m13.6455.00000209-.2577 1.39713791c-.7713.04281-1.5451.00354-2.3081-.11714l-8.16445.11714c-.3866-.02286-.74743-.05428-1.08534-.08857-.56886-.362403-1.184472-.645948-1.82991122-.842852z" fill="#000" opacity=".1" transform="translate(36.4844 108.874)"/><path d="m13.9122 3.85976s4.0837.69714 4.3156-1.04858c.232-1.74571-2.0991-2.665705-4.0779-2.7971333-1.9788-.1314287-13.883224.7028553-13.883224.7028553s-2.099096 2.791428 5.481134 3.257138z" fill="#000" opacity=".1" transform="translate(33.6523 106.066)"/><path d="m21.3432 0h-21.3432v25.2514h21.3432z" fill="#a66477" transform="translate(35.1406 52.5513)"/><path d="m21.3432 0h-21.3432v25.2514h21.3432z" fill="#000" opacity=".1" transform="translate(35.1406 52.5513)"/><path d="m8.12914 2.09714c-.35224.08858-.79897.42572-1.30012.91714-2.15637 2.12572-5.23199 7.11142-5.23199 7.11142-3.94046-4.67998.42096-8.37998 2.29096-9.651412.45247-.308572.75602-.47428695.75602-.47428695z" fill="#ffbdc6" transform="translate(1.99609 93.6855)"/><path d="m11.3145-.00000105s1.051 7.33143105 4.665 9.07714105c3.614 1.74576-4.665 5.00286-4.665 5.00286l-11.3145007-4.18857s6.4147007-2.09428 5.1317607-8.26286z" fill="#ffbdc6" transform="translate(38.582 60.5227)"/><path d="m13.6427.00000349-.2577 1.39713651-.1976 1.06857-.3609 1.9543-3.49942 2.44285s-.31501-.26857-.8362-.69428c-1.43185-1.17715-4.44733-3.56572-6.66097-4.85715-.56886-.362402-1.184471-.645955-1.82990983-.842859z" fill="#ffbdc6" transform="translate(24.1367 104.626)"/><path d="m13.6455.00000349-.2577 1.39713651c-.7714.04281-1.5451.00354-2.3081-.11714l-8.16445.11714c-.3866-.02285-.74742-.05428-1.08534-.08857-.56886-.362402-1.184469-.645955-1.82990825-.842859z" fill="#000" opacity=".1" transform="translate(24.1328 104.626)"/><path d="m13.9151 3.85103s4.0836.69715 4.3156-1.04857c.232-1.74571-2.0991-2.677145-4.0837-2.7914312-1.9845-.1142858-13.880326.6971442-13.880326.6971442s-2.099094 2.791427 5.481126 3.257147z" fill="#7679b4" transform="translate(21.2852 101.823)"/><path d="m4.69647.0828561-.36082 1.9542839-3.499449 2.44286s-.315007-.26857-.83620065-.69429l4.62774965-3.78571349z" fill="#000" opacity=".1" transform="translate(32.6133 107.011)"/><path d="m28.239 31.9c-.1604-.0781-.3227-.1609-.4868-.2485l-.4267-.5429-5.6358-7.1429v.1257c-.0372 1.1858-.4439 10.6429-3.6111 11.5143-3.3821.9315-7.4657 1.1629-9.32998-5.12-1.86427-6.2828-5.24917-20.0143-8.74862017-20.82855l5.18903017-4.24858s3.43645 4.00001 4.83967 7.85143c-.05155-.2457-2.42557-11.30572-.46679-13.26000209h17.02759s2.6231 7.46858209 4.433 11.17140209c1.4032 2.8743 3.508 9.6686 4.8683 14.2658 1.3459 4.5485-3.3563 8.5485-7.6518 6.4628z" fill="#7679b4" transform="translate(32.1602 101.834)"/><path d="m19.0033 16.2857c-2.6261 1.5515-14.17251.92-17.93542.6686l-1.0223322-.0743c-.1116845 0 .0171815-.0629.0171815-.0629l.1059557-1.0571 2.797835-7.09714 14.98858-8.66286c-.3035.911429-.4066 2.30857-.3808 3.91143.0744 5.13715 1.429 12.37427 1.429 12.37427z" fill="#000" opacity=".1" transform="translate(40.9219 87.6399)"/><path d="m19.1267 16.28c-2.626 1.5514-14.17249.92-17.9354.6686l-1.022337-.0743h-.1689665l.1861475-.0486.922116-.2428 1.98168-7.91433 14.98866-8.6685707c-.3036.9114287-.4067 2.3085707-.3809 3.9114307.0744 5.12857 1.429 12.36857 1.429 12.36857z" fill="#f2f1f2" transform="translate(40.7969 87.3)"/><path d="m17.5259 3.92571c-3.047.7-9.75381 2.76-12.33114 7.71429-1.71822 3.3086-3.15008 4.7286-4.17242 5.3229l-1.02234175-.0743.01718155-.0629.9221132-.2428 1.981687-7.91433 14.98862-8.66856965c-.3093.93714365-.4095 2.32285965-.3837 3.92570965z" fill="#000" opacity=".1" transform="translate(40.9727 87.2742)"/><path d="m.75602.00000384 3.49944 2.09428616c-.35223.08857-.79897.42571-1.30012.91714-.28637-.85715-2.124864-2.03429-2.9553379-2.537148.4524649-.308571.7560179-.47427816.7560179-.47427816z" fill="#000" opacity=".1" transform="translate(5.86719 93.6885)"/><path d="m.247184.0315938c-.039171.0218241-.084306.0305361-.128791.0248501-.0444856-.0056861-.0859757-.0254669-.11838879-.05644074.08037939.02268124.16367579.03332444.24717979.03159064z" fill="#000" opacity=".1" transform="translate(40.1094 104.277)"/><path d="m42.4573 17.7886s-3.1501.3485-5.3666-1.9772c0 0-9.33 2.6772-12.48 8.7286-3.1501 6.0514-24.61069825 17.92-24.61069825 17.92s3.72281825 2.0943 3.38203825 3.1429l14.11236-8.1457s5.0143-3.6086 6.4147-4.4229c1.4003-.8143 9.0979-5.8171 10.7303 7.7971 1.6323 13.6143 0 12.0001 0 12.0001s2.3339.8142 5.7274-5.7143c3.3935-6.5286 13.8803-8.0286 13.8803-8.0286l.5728-6.8572s2.0819-4.5485.4868-6.4457c-.4864-.5582-.8094-1.2393-.9336-1.9685-.2663-1.7429 0-4.6486 3.7229-7.0629 5.7274-3.7143 7.9324-6.7486 7.9324-6.7486s.1174-2.21141-3.382-3.25713c-3.4995-1.04571-17.7292-6.74856965-17.7292-6.74856965l-.4668 1.97714965 11.1971 7.91428s-5.5985 4.53717-10.023 4.42287c-.0172-.02.799 3.3571-3.1672 3.4743z" fill="#565388" transform="translate(5.80469 51.3457)"/><path d="m6.96739 2.85715c-.27577-.93766-.49099-1.892003-.64433-2.85714721l-6.182736 1.63999721c.270657 1.17711.222217 2.4049-.14032785 3.55715 1.26357385.33633 2.59849385.29345 3.83777385-.12327 1.23927-.41672 2.32788-1.18878 3.12962-2.21959z" fill="#000" opacity=".1" transform="translate(43.457 60.8572)"/><path d="m6.64952 13.2686c3.67238 0 6.64948-2.9703 6.64948-6.63431 0-3.66402-2.9771-6.63429-6.64948-6.63429-3.67243 0-6.64952 2.97027-6.64952 6.63429 0 3.66401 2.97709 6.63431 6.64952 6.63431z" fill="#ffbdc6" transform="translate(38.6406 52.6655)"/><g fill="#000"><path d="m18.0967.0584879c1.8443.2085711 3.5997 1.0000021 5.4153 1.4285721.4537.14195.937.16069 1.4004.05429.7044-.21715 1.2772-.954293 2.0045-.931435.4496 0 .8592.319998 1.22.614285.5977.45247 1.1597.95013 1.681 1.48858 1.2514 1.35714 2.0303 3.18571 3.173 4.66 1.1426 1.47428 2.9438 2.62286 4.5676 1.94571-1.1026 4.28571-4.7223 7.56291-8.6341 7.82861-1.5607.1057-3.1501-.2172-4.6707.24-.3768.1532-.7745.2495-1.1798.2857-.8592 0-1.5694-.7972-2.1135-1.5714-1.2714-1.8229-2.2909-3.8915-3.7228-5.5515-.4725-.5485-1.0309-1.07141-1.6981-1.17141-.6673-.1-1.283.21714-1.8786.52571-.9823.5086-1.9874 1.0343-2.7492 1.9029-.7617.8685-1.24284 2.1685-.92784 3.3457.16894.6343.55844 1.2057.57274 1.8714 0 1.0572-.92211 1.8314-1.10825 2.8572-.04101.433-.05631.868-.04582 1.3028-.08305 1.4114-1.00515 2.5714-1.97309 3.4543-.37514.3457-.79324.7143-.90207 1.2486-.07445.3628.00001.7485-.04868 1.1171-.14032.9172-1.05671 1.38-1.86713 1.5-.94652.1384-1.9129.0241-2.80071-.3314 1.14549-.5343 1.82991-2.0572 1.56645-3.4286-.36083-1.8886-2.26232-3.2428-2.10196-5.1686.08968-.5897.26729-1.1627.52692-1.7.41498-1.0389.71645-2.1194.89921-3.2228.18735-.8493.1687-1.7309-.05441-2.5715-.24342-.74-.73884-1.3285-1.16267-1.9542-.57397-.8507-1.02693-1.77666-1.345937-2.75147-.1155977-.2881-.1598037-.59978-.12886593-.90857.09234593-.36426.29181193-.69262.57274093-.94285 1.042392-1.08858 2.159232-2.22286 3.545262-2.53715.66225-.11006 1.33581-.13598 2.00459-.07714 1.16761.03707 2.33637-.0126 3.49659-.14858.95643-.11143 2.57733-.09714 3.38493-.71999.7531-.57143 1.1798-1.300009 2.1105-1.665723.9499-.3469468 1.9706-.4558462 2.9725-.3171391z" opacity=".1" transform="translate(30.7266 44.1528)"/><path d="m.00000315.00000279s3.84881685 7.56285721 2.68328685 9.89142721z" opacity=".1" transform="translate(52.5195 112.714)"/><path d="m5.68244 8.70845-5.6357629-7.14286v.12572s-.3264661-2.308572.7474229-1.531429c2.3511 1.697139 6.11401 4.479999 6.19419 4.959999.08019.48-.76174 2.40571-1.30585 3.58857z" opacity=".1" transform="translate(53.8164 124.234)"/><g opacity=".1"><path d="m1.06243.0942858s.47538 1.9657142-1.06242755 2.9485742c2.36828755-.40571 2.47137755-2.242856 2.39978755-3.04285616-.44205.07139626-.88964.10294816-1.33736.09428196z" opacity=".1" transform="translate(50.4609 65.5457)"/><path d="m1.2858 25.9914s21.4606-11.8685 24.6107-17.91996c2.2594-4.34286 7.7033-6.94572 10.5957-8.07143686-2.1106.70571486-9.2126 3.41142686-11.8815 8.53713686-3.1501 6.05146-24.61070157 17.92006-24.61070157 17.92006z" opacity=".1" transform="translate(5.92188 67.3486)"/><path d="m5.33794 13.3914c3.65122-1.1428 7.14206-3.96283 7.14206-3.96283l-11.19706-7.91428.25487-1.08572-1.071024-.42857174-.4667853 1.97715174 11.1970993 7.91428c-1.79683 1.40917-3.7656 2.58527-5.85916 3.49997z" opacity=".1" transform="translate(50.3594 51.3257)"/><path d="m-.00000385 1.33143c1.43071385-.487291 2.89896385-.857093 4.39006385-1.105713l.02005-.22571665c-1.50236.32925465-2.97684.77440365-4.41011385 1.33142965z" opacity=".1" transform="translate(55.7695 90.2029)"/><path d="m9.46454 21.3802h-.1031c-.03902.0217-.08399.0304-.12832.0248-.04432-.0057-.08566-.0254-.11795-.0562.08013.0223.16309.0329.24627.0314.38374-.2228.95936-1.96-.24627-12.01711-1.28867-10.73715-6.34597-9.894287-9.11517017-8.66 2.82934017-.7771436 6.72397017-.105715 7.83223017 9.12572 1.20562 10.05719.63002 11.79719.24628 12.01719.49739-.0185.97879-.1802 1.38603-.4658z" opacity=".1" transform="translate(32.7344 82.3455)"/><path d="m.247186.0315956c-.083491.0014846-.1667597-.0091627-.24718881-.03159946.03241311.03097386.07390321.05075466.11838881.05644076.044485.005686.089629-.0030173.1288-.0248413z" opacity=".1" transform="translate(40.5664 104.163)"/></g></g><path d="m18.0967.0584854c1.8443.2085716 3.5997 1.0000046 5.4153 1.4285746.4537.14195.937.16068 1.4004.05428.7044-.21714 1.2772-.954276 2.0045-.931419.4496 0 .8592.319998 1.22.614289.5977.45246 1.1597.95012 1.681 1.48856 1.2514 1.35715 2.0303 3.18572 3.173 4.66001 1.1426 1.47428 2.9438 2.62285 4.5676 1.94571-1.1026 4.28571-4.7223 7.56281-8.6341 7.82861-1.5607.1057-3.1501-.2172-4.6707.24-.3768.1532-.7745.2495-1.1798.2857-.8592 0-1.5694-.7972-2.1135-1.5715-1.2714-1.8228-2.2909-3.8914-3.7228-5.5514-.4725-.5486-1.0309-1.07141-1.6981-1.17141-.6673-.1-1.283.21715-1.8786.52572-.9823.50859-1.9874 1.03429-2.7492 1.90289-.7617.8685-1.24284 2.1685-.92784 3.3457.16894.6343.55844 1.2057.57274 1.8714 0 1.0572-.92211 1.8314-1.10825 2.8572-.04101.433-.05631.868-.04582 1.3028-.08305 1.4114-1.00515 2.5714-1.97309 3.4543-.37514.3457-.79324.7143-.90207 1.2486-.07445.3628.00001.7485-.04868 1.1171-.14032.9172-1.05671 1.38-1.86713 1.5-.94652.1384-1.9129.0241-2.80071-.3314 1.14549-.5343 1.82991-2.0572 1.56645-3.4286-.36083-1.8886-2.26232-3.2428-2.10196-5.1686.08968-.5897.26729-1.1627.52692-1.7.41498-1.0389.71645-2.1194.89921-3.2228.18735-.8493.1687-1.7309-.05441-2.5714-.24342-.74-.73884-1.3286-1.16267-1.9543-.57397-.85069-1.02693-1.77665-1.345937-2.75146-.1155977-.28811-.1598037-.59978-.12886593-.90857.09234593-.36427.29181193-.69264.57274093-.94287 1.042392-1.08857 2.159232-2.22286 3.545262-2.53714.66225-.11007 1.33581-.13598 2.00459-.07714 1.16761.03706 2.33637-.01259 3.49659-.14857.95643-.11143 2.57733-.09715 3.38493-.72001.7531-.57142 1.1798-1.299993 2.1105-1.665707.9499-.3469466 1.9706-.4558546 2.9725-.3171476z" fill="#a66477" transform="translate(30.7266 43.9272)"/><path d="m60.6948 7.45425c0-.03714 0-.07143 0-.10571 0-.03429 0-.07429-.0172-.10858h-.0458c0-.07714 0-.15428 0-.23714-.1146-2.64857-3.7858-8.28571-5.2578-6.639999-1.2886 1.445719.6558 5.102859 1.6467 6.748569l.0887.14858-.0487-.03143s-4.0979 12.19426-4.5819 12.66856-3.8574 10.0629-8.3047 11.1429c-.8792.2086-1.6094.3971-2.2222.5714l.0486-.1628c.2864-.9343.6386-1.8172.7818-2.8572s0-2.3-.5269-2.8057c-.2577-.2514-.5727-.2857-.7847-.6857-.1375-.3508-.2112-.7234-.2176-1.1l-.378-4.6229.2635-.08c1.5922-.5086 3.1357-1.7143 3.3161-3.3371-.0553.021-.1117.0391-.1689.0543.021-.0944.0372-.1898.0486-.2858-1.3373.5258-2.5773-.8571-3.866-1.4771-2.122-1.0371-4.5475-.06-6.7382.1771-2.4829.2715-4.8397-.7571-7.3769-.5714-1.3804.1057-2.9153 1.04-2.8408 2.3972.0429.7457.5727 1.3771.7903 2.0914.5499 1.7286-.6729 3.4628-1.744 4.9371-.7044.9686-1.3803 2.1486-1.5005 3.2857-2.4657-2.5714-5.1318-5.5428-5.4411-6.66l-7.13345-12.19425s-.16897.18-.44102.44572c-.04296-.13143-.0945-.28572-.15177-.44-.91066-2.54572-3.488-8.714295-6.75549-7.582866-3.26748 1.131426 1.35454 7.454286 3.36486 9.974296l.28637.3486c-.1686.0413-.34554.0334-.50973-.0229l7.95533 13.6143s1.4462 2.6057 2.7721 3.3143c0 0 9.8826 12.4314 10.0029 14.9171.1203 2.4858 4.4445 9.1172 4.4445 9.1172s1.4462 10.7743-1.0854 12.6686h.0315.0201.0315.0286.0573.0372.0372.0487.0401.0573.0286c-.1202.1171-.2434.2457-.3694.3857-1.8757 2.0743-4.2726 6.52-.9965 14.08 4.8196 11.1428 5.5441 15.5086 5.5441 15.5086s-9.1639.4743-10.968.8285c-1.5979.3143-7.8093.5343-9.2297.5715-.5069-.5886-2.0046-1.8915-4.02639 0-2.53152 2.3685-4.33851 10.2861-4.33851 10.2861s-.96506 6.394 2.29097 4.734c0 0 3.85743-5.329 4.93993-5.566.5383-.117 1.1082-.908 1.5435-1.671l.0229.014c.0258 0 .1317-.057.3035-.126.8019-.317 3.0098-1.08 4.7509-.7.9537.209 5.043.257 9.33.246-.968 2.314-2.7033 8.286-2.7033 8.286s-.7246 5.568 1.6809 5.34c1.7183-.169 4.3529-4.549 5.7275-7.049.9965-.728 3.8516-3.34 5.9622-3.143l14.2211-5.445s3.3735-1.8947 1.5665-8.169c-1.4319-4.9886-5.5069-15.2-7.1163-19.18l-.0487-.1029c-.3895-.9628-.6243-1.5342-.6243-1.5342-.6612-1.817-1.095-3.7085-1.2915-5.6315-.0143-.1514-.0258-.3057-.0373-.4571.1992-.0834.3869-.1919.5585-.3229 0 0-1.3259-13.3771 0-14.8l.0229-.0257v-.0171l.0229-.0286.0515-.0657.063-.08c.0716-.0943.1575-.2115.2549-.3543.7589-1.1086 2.1736-3.64 1.7669-6.6286-.0172-.1295-.0382-.26-.063-.3914-.1558-.8105-.4339-1.5927-.8247-2.32-.0573-.3028-.0927-.6093-.106-.9172 0-.1743 0-.3657 0-.5714v-.0343c0-.0552 0-.1104 0-.1657v-.04c0-.1343.0229-.2857.043-.4114v-.0514c0-.0515.0085-.1039.0257-.1572v-.0657c0-.0514.0229-.1029.0344-.1543v-.0543c.0172-.0686.0344-.1371.0573-.2057v-.0343c.0171-.0571.0362-.1133.0572-.1686l.0258-.0657.0573-.1371.0286-.0686c.0229-.0514.0487-.1028.0745-.1543l.02-.0428c.0344-.0629.0707-.1248.1088-.1857l.0316-.0486.0944-.1343.0459-.06.1002-.12.0458-.0514c.0516-.0543.1031-.1086.1604-.16 1.5664-1.4286 8.5567-11.9572 8.5567-11.9572s1.6867-2.3685 1.6867-3.9057c.0946-.0343 3.0757-9.9486 2.775-12.96285zm-18.7659 88.50005c-.1718-1.6229-.3436-3.6343-.5011-5.7143l2.7262 4.24s-.2577 1.2914-2.2251 1.4743z" fill="url(#e)" transform="translate(178 21.6399)"/><path d="m8.41112 1.21465s-1.63231-2.57143-4.08364-.231431c-2.45133 2.340001-4.198184 10.122881-4.198184 10.122881s-.93357 6.2857 2.216504 4.6543c0 0 3.72282-5.2372 4.78239-5.4686s2.2165-3.14288 2.2165-3.14288z" fill="#493545" transform="translate(183.094 115.482)"/><path d="m6.04608.542988s-2.21652-1.048571-2.91527-.231428c-.69874.81714-3.0326484 8.96-3.0326484 8.96s-.6987406 5.35424 1.6323184 5.12004c2.33105-.2343 6.41468-8.61718 6.41468-8.61718z" fill="#493545" transform="translate(202.953 122.437)"/><path d="m6.04608.542988s-2.21652-1.048571-2.91527-.231428c-.69874.81714-3.0326484 8.96-3.0326484 8.96s-.6987406 5.35424 1.6323184 5.12004c2.33105-.2343 6.41468-8.61718 6.41468-8.61718z" fill="#000" opacity=".05" transform="translate(202.953 122.437)"/><path d="m8.88223 14.1771 5.01437 7.7972s-.3494 1.7457-3.3821 1.3971l-10.380901 6.5172s-.902054 7.9343 1.981691 7.2143c.46679-.1172 3.72282-3.4914 6.06533-3.2572l13.76578-5.3543s3.2647-1.8628 1.5149-8.0285c-1.7497-6.1658-7.5344-20.46290209-7.5344-20.46290209l-9.14377 5.10286209z" fill="#3e3d77" transform="translate(207.812 92.9771)"/><path d="m8.88223 14.1771 5.01437 7.7972s-.3494 1.7457-3.3821 1.3971l-10.380901 6.5172s-.902054 7.9343 1.981691 7.2143c.46679-.1172 3.72282-3.4914 6.06533-3.2572l13.76578-5.3543s3.2647-1.8628 1.5149-8.0285c-1.7497-6.1658-7.5344-20.46290209-7.5344-20.46290209l-9.14377 5.10286209z" fill="#000" opacity=".05" transform="translate(207.812 92.9771)"/><path d="m29.9212 34.0914c.6987 4.4229-3.2647 4.7715-3.2647 4.7715s-17.84658.3485-19.94567-.1172c-2.0991-.4657-4.89979.8143-4.89979.8143-3.61686-2.2114-.69875-7.68-.69875-7.68s7.46568-.2314 9.21541-.5714c1.7497-.34 10.6129-.8229 10.6129-.8229s-.6988-4.3057-5.3666-15.2428c-3.1701-7.42861-.8591-11.80004.9651-13.83718.4655-.540566 1.0043-1.013701 1.6008-1.40572349l14.3471.69714349c-.0154.7219.0114 1.44408.0802 2.16286.2453 2.46771.8884 4.8797 1.9044 7.1429-.8162 0-6.0653 4.8885-6.0653 4.8885s.8133 14.78 1.5149 19.2z" fill="#3e3d77" transform="translate(189.926 84.5828)"/><path d="m2.15916 32.3372s7.46568-.2315 9.21544-.5715c1.7497-.34 10.6128-.8143 10.6128-.8143s-.6987-4.3057-5.3665-15.2428c-3.1702-7.4286-.8591-11.80003.965-13.83717.4655-.54056 1.0043-1.013695 1.6008-1.405718l13.2933.645718c0-.137143 0-.285718 0-.41429l-14.3471-.69714384c-.5965.39202284-1.1353.86515784-1.6008 1.40571384-1.8156 2.04001-4.1352 6.40858-.9651 13.83719 4.6793 10.9285 5.3723 15.2343 5.3723 15.2343s-8.8775.4657-10.6129.8142c-1.73537.3486-9.21536.5715-9.21536.5715s-2.91525 5.4714.69874 7.6914c0 0 .10882-.0514.28637-.1257-2.402644-2.4657.06301-7.0914.06301-7.0914z" fill="#000" opacity=".1" transform="translate(189.926 84.5913)"/><path d="m7.23086.00000209h-7.23085441v18.26859791h7.23085441z" fill="#493545" transform="translate(206.199 41.8713)"/><path d="m7.23086.00000209h-7.23085441v18.26859791h7.23085441z" fill="#000" opacity=".1" transform="translate(206.199 41.8713)"/><path d="m3.28298 3.08857c.24915.06857.52979.07714.69875.42.10491.27401.16206.56391.16897.85714l.45531 5.64569c.00643.3697.07816.7353.21192 1.08.19186.3829.50974.4286.75888.6743.50115.4972.64719 1.7429.50973 2.7572-.13745 1.0143-.48395 1.8828-.756 2.8-.38946 1.3143-.64721 2.7914-1.19418 3.9-.54696 1.1085-1.54067 1.7143-2.18214.7828-.64147-.9314-.55555-2.8114-.67583-4.3514-.20046-2.5714-1.2056207-4.7886-1.27434957-7.3772-.05727403-2.09424.50687557-4.04853.85911157-6.03424.252008-1.36286.266328-3.01715.632888-4.2428614.30641 1.4571414.89061 2.8428614 1.78694 3.0885714z" fill="#493545" transform="translate(214.281 36.1028)"/><path d="m3.28298 3.08857c.24915.06857.52979.07714.69875.42.10491.27401.16206.56391.16897.85714l.45531 5.64569c.00643.3697.07816.7353.21192 1.08.19186.3829.50974.4286.75888.6743.50115.4972.64719 1.7429.50973 2.7572-.13745 1.0143-.48395 1.8828-.756 2.8-.38946 1.3143-.64721 2.7914-1.19418 3.9-.54696 1.1085-1.54067 1.7143-2.18214.7828-.64147-.9314-.55555-2.8114-.67583-4.3514-.20046-2.5714-1.2056207-4.7886-1.27434957-7.3772-.05727403-2.09424.50687557-4.04853.85911157-6.03424.252008-1.36286.266328-3.01715.632888-4.2428614.30641 1.4571414.89061 2.8428614 1.78694 3.0885714z" fill="#000" opacity=".1" transform="translate(214.281 36.1028)"/><path d="m7.97879 8.6261-2.79783 2.3286s-.33219-.3886-.82761-1.01717c-1.94446-2.47714-6.4147-8.69143-3.25603-9.80286 3.15866-1.111429 5.6558 4.94857 6.53782 7.45143.22337.63429.34365 1.04.34365 1.04z" fill="#c77485" transform="translate(178.977 22.5396)"/><path d="m5.30963 7.7417c-1.16553 1.74572-2.79785 0-2.79785 0s-.20905-.31143-.50401-.81429c-.95934-1.62-2.840799-5.21143-1.595088-6.634285 1.431848-1.625715 4.979988 3.922855 5.088808 6.525715.0337.32004-.03335.6426-.19186.92286z" fill="#c77485" transform="translate(232.148 22.6096)"/><path d="m.00000489 1.97143s2.33392511 7.44857 1.63231511 9.65717c-.701608 2.2085 5.0172 4.78 5.0172 4.78h6.53208s2.3339-4.7715 1.7497-6.1686c-.5842-1.39714-5.5985-2.44286-5.5985-2.44286s-2.91523.00001-2.79782-7.79713791z" fill="#c77485" transform="translate(208.766 47.2314)"/><path d="m3.62544 1.04-2.797823 2.32857s-.332193-.38857-.8276142-1.01714c1.0166172-.18 2.5945072-1.660002 3.2846572-2.35143087.22051.63428587.34078 1.04000087.34078 1.04000087z" fill="#000" opacity=".1" transform="translate(183.328 30.1257)"/><path d="m3.30186.931431c-1.16553 1.745719-2.797845 0-2.797845 0s-.209054-.311431-.504015-.814288l.0372295-.11714422c.7560175.54000022 3.1071205.08000002 3.4564905 0 .03554.32286922-.03158.64871422-.19186.93143222z" fill="#000" opacity=".1" transform="translate(234.156 29.4199)"/><path d="m16.0367 2.86286c-3.6082 1.64285-15.332229-1.28286-16.0367-1.45714.465489-.540563 1.00429-1.013698 1.60082-1.40572035l14.34718.69714435c-.0127.723016.0169 1.446146.0887 2.165716z" fill="#000" opacity=".1" transform="translate(206.449 84.5771)"/><path d="m27.1708 25.94s-2.7978.9314-6.764-2.6771c0 0-8.8775-8.7286-9.4503-10.8229l-6.87286-12.000001s-2.91525 3.142861-4.08364 2.677151l7.69764 13.38285s1.40035 2.5714 2.68326 3.2572c0 0 9.5648 12.22 9.6793 14.6628.1146 2.4429 4.3099 8.9857 4.3099 8.9857s1.4004 10.5886-1.051 12.4515c0 0 13.6456 3.4914 16.5608 1.1628 0 0-1.2829-13.1428 0-14.5457 0 0 3.9663-4.6543 1.283-9.7743 0 0-.5728-2.7914.9335-4.1886 1.5064-1.3971 8.2819-11.7542 8.2819-11.7542s1.6323-2.3286 1.6323-3.84c0 0 3.0327-10.24006 2.5773-12.91719948 0 0-2.6833.57142848-3.4994 0 0 0-3.9663 11.99999948-4.433 12.45139948-.4668.4515-3.7228 9.8915-8.047 10.94-4.3242 1.0486-5.0144 1.5115-5.0144 1.5115s8.3964 5.2371 4.3156 7.5628-10.7389-6.5257-10.7389-6.5257z" fill="#ffaac4" transform="translate(183.113 29.6628)"/><path d="m6.70107 3.30571c-.13855-1.09618-.19504-2.20114-.16897-3.30570616l-6.5321028 1.97713616c.1718788.43416.3088128.88129.4095078 1.33714.747425.32858 1.755465 1.10573 2.623165 1.10573 1.31256.04281 2.60243-.349 3.6684-1.1143z" fill="#000" opacity=".1" transform="translate(208.883 47.6885)"/><path d="m6.06533 12.1029c3.34978 0 6.06527-2.70936 6.06527-6.05147s-2.71549-6.05143-6.06527-6.05143c-3.34979 0-6.06532581 2.70932-6.06532581 6.05143s2.71553581 6.05147 6.06532581 6.05147z" fill="#c77485" transform="translate(205.73 39.6599)"/><path d="m5.13665.0817979c-1.33448.1028571-2.8236 1.0228621-2.74914 2.3571421.04009.73429.5441 1.35429.7646 2.05715.52979 1.7-.65005 3.40571-1.68671 4.85714-1.036659 1.45147-2.004598 3.37427-1.116849 4.91147.253041.37.526463.7258.819019 1.0657 1.09679 1.4771 1.08249 3.4714 1.56932 5.2457.62172 2.2699 2.09134 4.216 4.10678 5.4382 2.01545 1.2222 4.42363 1.6278 6.72943 1.1332-.868-1.1055-1.3009-2.4895-1.217-3.8914.0658-1.0171.3951-2.08 0-3.02-.5098-1.2086-2.0046-1.6857-2.77497-2.7429-.77034-1.0571-.71878-2.5228-.3465-3.7828s1.01657-2.4286 1.32587-3.71431c.0763-.37512.1719-.74609.2864-1.11143.5384-1.52572 2.1478-2.41143 3.7228-2.79143s3.2303-.40286 4.7681-.90286 3.0326-1.67143 3.2102-3.28c-1.2944.51715-2.4943-.83143-3.7429-1.451427-2.0561-1.017143-4.4015-.06-6.5206.174286-2.41414.268571-4.70511-.7285741-7.14785-.5514311z" fill="#000" opacity=".1" transform="translate(199.445 36.3066)"/><path d="m5.13666.0817986c-1.33448.1028574-2.8236 1.0228614-2.74915 2.3571414.0401.73429.5441 1.35429.76461 2.05715.52978 1.7-.65007 3.40571-1.68673 4.85714-1.036658 1.45147-2.00458 3.37427-1.116832 4.91147.253042.37.526464.7258.819012 1.0657 1.0968 1.4771 1.08248 3.4714 1.56931 5.2457.62172 2.2699 2.09134 4.216 4.10678 5.4382 2.01545 1.2222 4.42364 1.6278 6.72944 1.1332-.868-1.1055-1.3009-2.4895-1.217-3.8914.0658-1.0171.3952-2.08 0-3.02-.5098-1.2086-2.0046-1.6857-2.77496-2.7429-.77034-1.0571-.7188-2.5228-.34652-3.7828s1.01658-2.4286 1.32588-3.71431c.0764-.37512.1719-.74609.2864-1.11143.5384-1.52572 2.1478-2.41143 3.7228-2.79143s3.2303-.40286 4.7681-.90286 3.0326-1.67142 3.2102-3.28c-1.2944.51715-2.4943-.83143-3.7429-1.451426-2.0561-1.017144-4.4015-.06-6.5206.174286-2.4084.265714-4.69078-.74286-7.14784-.5514314z" fill="#493545" transform="translate(199.324 36.0752)"/><g fill="#000"><path d="m.00000699-.00000349s2.42841301 2.16286349 2.90665301 3.11714349z" opacity=".1" transform="translate(217.805 59.1543)"/><path d="m9.2154.00000279s-3.03266.00000034-4.43301.34857221c-1.40035.348571-4.7823879 0-4.7823879 0" opacity=".1" transform="translate(213.844 72.0713)"/><g opacity=".1"><path d="m4.31559 7.56286c-.26143.14927-.54448.25722-.83906.32.76065.16824 1.55668.0545 2.23942-.32 4.08364-2.32857-4.3156-7.56286244-4.3156-7.56286244h-1.40034161s8.39923161 5.23714244 4.31558161 7.56286244z" opacity=".1" transform="translate(216.695 54.5571)"/><path d="m1.48054.211427c0-.074286-.01718-.1457118-.02863-.21142613-.47968.09917883-.964344.17261913-1.45190441.22000113.49219741.054012.98899441.051132 1.48053441-.008575z" opacity=".1" transform="translate(236.234 29.6543)"/><path d="m24.7252 52.7143c2.4485-1.8629 1.051-12.4514 1.051-12.4514s-4.1982-6.5172-4.3156-8.96c-.1174-2.4429-9.6793-14.6629-9.6793-14.6629-1.283-.6971-2.68331-3.2571-2.68331-3.2571s-7.93247-12.917185-9.0979928-13.38289913l7.6976328 13.38289913s1.40035 2.5714 2.68327 3.2571c0 0 9.5648 12.22 9.6793 14.6629.1146 2.4428 4.3128 8.9685 4.3128 8.9685s1.4003 10.5886-1.051 12.4515c0 0 8.3878 2.1457 13.4165 1.9514-5.0402-.1771-12.0133-1.96-12.0133-1.96z" opacity=".1" transform="translate(183.105 32.7971)"/><path d="m.312142.0885722-.068726-.0885708c-.079817.023555-.1611344.0416924-.24340761.0542864.10882061.0142857.21190461.0257129.31213361.0342844z" opacity=".1" transform="translate(210.035 55.6057)"/></g><g opacity=".1"><path d="m13.6387 0-.0716.0142866c-.1232 3.5742834-2.6089 11.9714134-2.6089 11.9714134 0 1.5115-1.63226 3.84-1.63226 3.84s-6.76409 10.3572-8.28185 11.7543c-1.517762 1.3972-.933569 4.1886-.933569 4.1886l.014333.0286c-.0458196-.94.068724-2.3972 1.033796-3.2886 1.5149-1.3972 8.28182-11.7543 8.28182-11.7543s1.63233-2.3286 1.63233-3.84c0 .0171 3.0327-10.22287 2.5659-12.9143z" opacity=".1" transform="translate(224.051 29.6399)"/><path d="m-.0000014 6.56286c.1746864.98858.0572839-.05715.1174214.93143 0 0 2.86369-3.35143 2.0819-7.49428686.23482 3.70285686-2.1993214 6.56285686-2.1993214 6.56285686z" opacity=".1" transform="translate(222.879 64.6343)"/></g></g><path d="m122.472 23.4743c67.639 0 122.472-5.2549 122.472-11.7372 0-6.4822-54.833-11.73710419-122.472-11.73710419-67.6394 0-122.472 5.25490419-122.472 11.73710419 0 6.4823 54.8326 11.7372 122.472 11.7372z" fill="#2c7be5" opacity=".1" transform="translate(12.0664 165.526)"/><path d="m1.64153 45.0972s-4.16955-14.1286.78179-24.5258c2.10582-4.3483 2.7409-9.2609 1.80986-13.99998-.45987-2.24645-1.12512-4.44612-1.98741-6.57142767" stroke="#535461" stroke-miterlimit="10" stroke-width="2" transform="translate(85.4219 120.257)"/><g fill="#2c7be5"><path d="m6.30874 3.37481c0 1.73143-3.15007 6.75139-3.15007 6.75139s-3.15007862-5.01996-3.15007862-6.75139c-.03197678-.43109.02552282-.86413.16890462-1.27204.143383-.40791.369567-.78193.664408-1.09867.294836-.316737.651996-.56939 1.049146-.742159.39715-.1727696.82576-.26193706 1.25902-.26193706.43327 0 .86188.08916746 1.25903.26193706.39715.172769.7543.425422 1.04915.742159.29484.31674.52102.69076.6644 1.09867.14339.40791.20088.84095.16891 1.27204z" transform="translate(84.4492 110.317)"/><path d="m6.31446 5.03207c-.94216 1.45429-6.3144607 3.96286-6.3144607 3.96286s.0973674-5.91714 1.0395307-7.37143c.20897-.37754.4936-.708129.83616-.97119.34255-.26306.73571-.452955 1.155-.5578788.4193-.1049242.85574-.1226263 1.28219-.052002.42644.0706248.83375.2280548 1.19658.4625068.36282.234453.6734.540914.9124.900284.239.35938.40131.76398.47683 1.18864.07551.42465.06261.86026-.0379 1.27973-.1005.41947-.28648.81381-.54633 1.15848z" transform="translate(89.6289 118.248)"/><path d="m7.44563 6.04836c-1.54926.78-7.4456279.24001-7.4456279.24001s3.0784879-5.06 4.6277479-5.840004c.37139-.222475.78478-.3661326 1.21434-.4219968s.86604-.02273154 1.28219.0973248c.41614.120057.803.324458 1.13638.600429.33339.275967.60614.617577.80121 1.003467.19507.3859.30827.80779.33252 1.23931.02425.43153-.04097.86341-.19158 1.26865-.1506.40523-.38337.77512-.68374 1.08655-.30038.31142-.66191.55768-1.06199.7234z" transform="translate(88.2695 133.623)"/><path d="m7.31104 5.49985c-1.39462 1.02858-7.31103615 1.49428-7.31103615 1.49428s2.17640615-5.50571 3.57389615-6.537143c.67252-.4077175 1.47363-.5495186 2.24569-.3975137.77205.1520047 1.45911.5868127 1.92597 1.2188567.46686.63204.6797 1.41554.59663 2.19629-.08306.78075-.45602 1.5022-1.04547 2.02237z" transform="translate(85.4375 146.531)"/><path d="m1.12213 5.54781c1.24571 1.20572 7.04471 2.45715 7.04471 2.45715s-1.43185-5.74572-2.6661-6.95429c-.288-.322098-.63941-.581548-1.03233-.762192-.39292-.180643-.81892-.27860662-1.25144-.28777203-.43253-.00916542-.86232.07066123-1.26257.23449703-.40025.163836-.76238.408168-1.063827.717774-.301445.309603-.535738.677853-.688275 1.081773-.1525362.40391-.2200463.83485-.19832124 1.26594.02172514.43109.13222024.8531.32459624 1.23971s.462506.72953.793557 1.00741z" transform="translate(81.9023 122.032)"/><path d="m1.52857 5.82592c1.54926.78 7.44563.24001 7.44563.24001s-3.06703-5.06001-4.61629-5.825722c-.73456-.304262-1.5573-.3200255-2.30303-.044137-.74574.275889-1.359265.823009-1.71742 1.531529-.3581545.70852-.4344169 1.52598-.213484 2.28828.220932.7623.722708 1.41301 1.404594 1.82148z" transform="translate(78.2109 136.257)"/><path d="m1.49994 5.83158c1.39462 1.02857 7.31104 1.4943 7.31104 1.4943s-2.17642-5.50572-3.57391-6.537149c-.32755-.289056-.71184-.506914-1.1284-.639683-.41655-.1327694-.85626-.1775418-1.29111-.1314874-.43485.0460543-.85534.1819354-1.23467.3989954-.37934.217061-.709223.510542-.968654.861764-.259432.35122-.442732.75249-.5382209 1.17826-.095489.42577-.1010746.86671-.0164125 1.29475.0846624.42804.2577234.8338.5081654 1.19146.250443.35765.572772.65938.946492.88595z" transform="translate(76.9805 150.783)"/><path d="m6.30874 3.37481c0 1.73143-3.15007 6.75139-3.15007 6.75139s-3.15007862-5.01996-3.15007862-6.75139c-.03197678-.43109.02552282-.86413.16890462-1.27204.143383-.40791.369567-.78193.664408-1.09867.294836-.316737.651996-.56939 1.049146-.742159.39715-.1727696.82576-.26193706 1.25902-.26193706.43327 0 .86188.08916746 1.25903.26193706.39715.172769.7543.425422 1.04915.742159.29484.31674.52102.69076.6644 1.09867.14339.40791.20088.84095.16891 1.27204z" opacity=".1" transform="translate(84.4492 110.317)"/><path d="m6.31446 5.03207c-.94216 1.45429-6.3144607 3.96286-6.3144607 3.96286s.0973674-5.91714 1.0395307-7.37143c.20897-.37754.4936-.708129.83616-.97119.34255-.26306.73571-.452955 1.155-.5578788.4193-.1049242.85574-.1226263 1.28219-.052002.42644.0706248.83375.2280548 1.19658.4625068.36282.234453.6734.540914.9124.900284.239.35938.40131.76398.47683 1.18864.07551.42465.06261.86026-.0379 1.27973-.1005.41947-.28648.81381-.54633 1.15848z" opacity=".1" transform="translate(89.6289 118.248)"/><path d="m7.44563 6.04836c-1.54926.78-7.4456279.24001-7.4456279.24001s3.0784879-5.06 4.6277479-5.840004c.37139-.222475.78478-.3661326 1.21434-.4219968s.86604-.02273154 1.28219.0973248c.41614.120057.803.324458 1.13638.600429.33339.275967.60614.617577.80121 1.003467.19507.3859.30827.80779.33252 1.23931.02425.43153-.04097.86341-.19158 1.26865-.1506.40523-.38337.77512-.68374 1.08655-.30038.31142-.66191.55768-1.06199.7234z" opacity=".1" transform="translate(88.2695 133.623)"/><path d="m7.31104 5.49985c-1.39462 1.02858-7.31103615 1.49428-7.31103615 1.49428s2.17640615-5.50571 3.57389615-6.537143c.67252-.4077175 1.47363-.5495186 2.24569-.3975137.77205.1520047 1.45911.5868127 1.92597 1.2188567.46686.63204.6797 1.41554.59663 2.19629-.08306.78075-.45602 1.5022-1.04547 2.02237z" opacity=".1" transform="translate(85.4375 146.531)"/><path d="m1.12213 5.54781c1.24571 1.20572 7.04471 2.45715 7.04471 2.45715s-1.43185-5.74572-2.6661-6.95429c-.288-.322098-.63941-.581548-1.03233-.762192-.39292-.180643-.81892-.27860662-1.25144-.28777203-.43253-.00916542-.86232.07066123-1.26257.23449703-.40025.163836-.76238.408168-1.063827.717774-.301445.309603-.535738.677853-.688275 1.081773-.1525362.40391-.2200463.83485-.19832124 1.26594.02172514.43109.13222024.8531.32459624 1.23971s.462506.72953.793557 1.00741z" opacity=".1" transform="translate(81.9023 122.032)"/><path d="m1.52857 5.82592c1.54926.78 7.44563.24001 7.44563.24001s-3.06703-5.06001-4.61629-5.825722c-.73456-.304262-1.5573-.3200255-2.30303-.044137-.74574.275889-1.359265.823009-1.71742 1.531529-.3581545.70852-.4344169 1.52598-.213484 2.28828.220932.7623.722708 1.41301 1.404594 1.82148z" opacity=".1" transform="translate(78.2109 136.257)"/><path d="m1.49994 5.83158c1.39462 1.02857 7.31104 1.4943 7.31104 1.4943s-2.17642-5.50572-3.57391-6.537149c-.32755-.289056-.71184-.506914-1.1284-.639683-.41655-.1327694-.85626-.1775418-1.29111-.1314874-.43485.0460543-.85534.1819354-1.23467.3989954-.37934.217061-.709223.510542-.968654.861764-.259432.35122-.442732.75249-.5382209 1.17826-.095489.42577-.1010746.86671-.0164125 1.29475.0846624.42804.2577234.8338.5081654 1.19146.250443.35765.572772.65938.946492.88595z" opacity=".1" transform="translate(76.9805 150.783)"/></g><path d="m1.64153 45.0972s-4.16956-14.1286.78179-24.5258c2.10582-4.3483 2.7409-9.2609 1.80986-13.99997-.45988-2.24645-1.12513-4.44613-1.98741-6.5714314" stroke="#535461" stroke-miterlimit="10" stroke-width="2" transform="translate(169.801 120.46)"/><g fill="#2c7be5"><path d="m6.30015 2.9109c0 1.73143-3.15008 6.75144-3.15008 6.75144s-3.1500714-5.02001-3.1500714-6.75144c.0586898-.79122.4151454-1.53102.9978214-2.07093.58268-.539908 1.34846-.83996592 2.14367-.83996592s1.56098.30005792 2.14365.83996592c.58268.53991.93914 1.27971.99783 2.07093z" transform="translate(168.828 110.98)"/><path d="m6.31447 5.03208c-.94216 1.45428-6.31446371 3.96285-6.31446371 3.96285s.09736731-5.91714 1.03952371-7.37142c.20898-.37755.49359-.708136.83615-.971196.34255-.263061.73571-.452973 1.155-.5578968.41929-.1049242.85576-.1226262 1.2822-.0520019.42645.0706247.83375.2280717 1.19658.4625247.36282.234453.6734.5409.9124.90027s.4013.76399.47682 1.18865c.07551.42466.06261.86027-.0379 1.27973-.10051.41947-.28646.81382-.54631 1.15849z" transform="translate(174.008 118.448)"/><path d="m7.44563 6.05414c-1.54926.78-7.44563.24001-7.44563.24001s3.07847-5.06 4.62774-5.840003c.37182-.224533.7862-.3698798 1.21705-.4268796.43086-.0569998.86886-.02442511 1.28649.0956686.41762.120093.80581.32511 1.14016.602155.33435.277049.60762.620129.80262 1.007659.19501.38753.30752.81113.33047 1.24416.02295.43302-.04415.86608-.1971 1.27197-.15296.40589-.38843.77581-.69163 1.0865-.30321.31068-.66757.5554-1.07017.71876z" transform="translate(172.66 133.817)"/><path d="m7.31104 5.49986c-1.39462 1.02857-7.3110407 1.49428-7.3110407 1.49428s2.1764107-5.50572 3.5739007-6.53715c.67251-.4077171 1.47364-.5495181 2.24569-.3975132.77205.1520052 1.45911.5868122 1.92597 1.2188532.46686.63204.67971 1.41554.59664 2.19629s-.45604 1.50221-1.04549 2.02238z" transform="translate(169.812 146.731)"/><path d="m1.12212 5.54781c1.24571 1.20572 7.04472 2.45716 7.04472 2.45716s-1.43185-5.74573-2.6661-6.9543c-.288-.322095-.63941-.581545-1.03233-.762188-.39291-.180644-.81892-.27860713-1.25145-.28777255-.43253-.00916541-.86231.07066125-1.26256.23449755-.40025.163836-.76239.408167-1.063835.717773-.301445.30961-.535738.67784-.688274 1.08175-.1525369.40392-.2200383.83487-.19831319 1.26596.02172509.43109.13222019.85308.32459619 1.23969.192376.38662.462497.72956.793546 1.00743z" transform="translate(166.285 122.232)"/><path d="m1.54002 5.84021c1.54926.78 7.44563.24001 7.44563.24001s-3.07847-5.06-4.62774-5.840005c-.73456-.3042621-1.55729-.320043-2.30302-.044154s-1.359265.823009-1.717419 1.531529c-.3581551.70852-.4344349 1.526-.213502 2.2883.220932.7623.722717 1.41299 1.404601 1.82146z" transform="translate(162.574 136.443)"/><path d="m1.04877 5.49985c1.39463 1.02857 7.31103 1.4943 7.31103 1.4943s-2.17641-5.50572-3.5739-6.537149c-.67251-.4077169-1.47364-.5495354-2.24569-.3975305-.77205.1520045-1.45911.5868125-1.925973 1.2188595-.466861.63204-.6797021 1.41554-.5966346 2.19629.0830676.78075.4560366 1.5022 1.0454876 2.02237z" transform="translate(161.809 151.314)"/><path d="m6.30015 2.9109c0 1.73143-3.15008 6.75144-3.15008 6.75144s-3.1500714-5.02001-3.1500714-6.75144c.0586898-.79122.4151454-1.53102.9978214-2.07093.58268-.539908 1.34846-.83996592 2.14367-.83996592s1.56098.30005792 2.14365.83996592c.58268.53991.93914 1.27971.99783 2.07093z" opacity=".1" transform="translate(168.828 110.98)"/><path d="m6.31447 5.03208c-.94216 1.45428-6.31446371 3.96285-6.31446371 3.96285s.09736731-5.91714 1.03952371-7.37142c.20898-.37755.49359-.708136.83615-.971196.34255-.263061.73571-.452973 1.155-.5578968.41929-.1049242.85576-.1226262 1.2822-.0520019.42645.0706247.83375.2280717 1.19658.4625247.36282.234453.6734.5409.9124.90027s.4013.76399.47682 1.18865c.07551.42466.06261.86027-.0379 1.27973-.10051.41947-.28646.81382-.54631 1.15849z" opacity=".1" transform="translate(174.008 118.448)"/><path d="m7.44563 6.05414c-1.54926.78-7.44563.24001-7.44563.24001s3.07847-5.06 4.62774-5.840003c.37182-.224533.7862-.3698798 1.21705-.4268796.43086-.0569998.86886-.02442511 1.28649.0956686.41762.120093.80581.32511 1.14016.602155.33435.277049.60762.620129.80262 1.007659.19501.38753.30752.81113.33047 1.24416.02295.43302-.04415.86608-.1971 1.27197-.15296.40589-.38843.77581-.69163 1.0865-.30321.31068-.66757.5554-1.07017.71876z" opacity=".1" transform="translate(172.66 133.817)"/><path d="m7.31104 5.49986c-1.39462 1.02857-7.3110407 1.49428-7.3110407 1.49428s2.1764107-5.50572 3.5739007-6.53715c.67251-.4077171 1.47364-.5495181 2.24569-.3975132.77205.1520052 1.45911.5868122 1.92597 1.2188532.46686.63204.67971 1.41554.59664 2.19629s-.45604 1.50221-1.04549 2.02238z" opacity=".1" transform="translate(169.812 146.731)"/><path d="m1.12212 5.54781c1.24571 1.20572 7.04472 2.45716 7.04472 2.45716s-1.43185-5.74573-2.6661-6.9543c-.288-.322095-.63941-.581545-1.03233-.762188-.39291-.180644-.81892-.27860713-1.25145-.28777255-.43253-.00916541-.86231.07066125-1.26256.23449755-.40025.163836-.76239.408167-1.063835.717773-.301445.30961-.535738.67784-.688274 1.08175-.1525369.40392-.2200383.83487-.19831319 1.26596.02172509.43109.13222019.85308.32459619 1.23969.192376.38662.462497.72956.793546 1.00743z" opacity=".1" transform="translate(166.285 122.232)"/><path d="m1.54002 5.84021c1.54926.78 7.44563.24001 7.44563.24001s-3.07847-5.06-4.62774-5.840005c-.73456-.3042621-1.55729-.320043-2.30302-.044154s-1.359265.823009-1.717419 1.531529c-.3581551.70852-.4344349 1.526-.213502 2.2883.220932.7623.722717 1.41299 1.404601 1.82146z" opacity=".1" transform="translate(162.574 136.443)"/><path d="m1.04877 5.49985c1.39463 1.02857 7.31103 1.4943 7.31103 1.4943s-2.17641-5.50572-3.5739-6.537149c-.67251-.4077169-1.47364-.5495354-2.24569-.3975305-.77205.1520045-1.45911.5868125-1.925973 1.2188595-.466861.63204-.6797021 1.41554-.5966346 2.19629.0830676.78075.4560366 1.5022 1.0454876 2.02237z" opacity=".1" transform="translate(161.809 151.314)"/></g><path d="m18.4193 2.51286h-1.7985c.1704.00811.3406-.01837.5004-.07781.1597-.05945.3058-.15063.4292-.26803.1234-.11741.2217-.25858.2888-.41498.0671-.15639.1017-.32476.1017-.4949 0-.17013-.0346-.338495-.1017-.494892s-.1654-.297574-.2888-.414976-.2695-.208587-.4292-.2680338c-.1598-.0594468-.33-.08591752-.5004-.07780895h-14.58193c-.32342.01539605-.62848.15441575-.85191.38822075-.223429.233806-.348072.544451-.348072.86749 0 .32305.124643.63369.348072.8675.22343.2338.52849.37282.85191.38822h1.79841c-.32341.0154-.62848.15442-.85191.38822-.22342.23381-.34807.54445-.34807.8675 0 .32304.12465.63368.34807.86748.22343.23381.5285.37283.85191.38823h-2.5172c-.17034-.00811-.340536.01836-.500313.07781-.159778.05945-.305804.15063-.429224.26803s-.221669.25858-.2888.41497c-.0671303.1564-.10174299.32477-.10174299.4949 0 .17014.03461269.3385.10174299.4949.067131.1564.16538.29757.2888.41497s.269446.20859.429224.26804c.159777.05944.329973.08592.500313.07781h14.57052c.1703.00811.3406-.01837.5003-.07781.1598-.05945.3058-.15064.4293-.26804.1234-.1174.2216-.25857.2888-.41497.0671-.1564.1017-.32476.1017-.4949 0-.17013-.0346-.3385-.1017-.4949-.0672-.15639-.1654-.29757-.2888-.41497-.1235-.1174-.2695-.20858-.4293-.26803-.1597-.05945-.33-.08592-.5003-.07781h2.5287c.3234-.0154.6284-.15442.8519-.38823.2234-.2338.348-.54444.348-.86748 0-.32305-.1246-.63369-.348-.8675-.2235-.2338-.5285-.37282-.8519-.38822z" fill="#dee3f3" opacity=".5" transform="translate(173.426 1.85571)"/><path d="m14.0158 1.91286h-1.3688c.1302.0071.2604-.01235.3829-.05717.1224-.04482.2343-.11406.329-.20351.0947-.08944.1701-.19721.2217-.31671.0515-.1195.0781-.24823.0781-.378326s-.0266-.258825-.0781-.378327c-.0516-.119502-.127-.227267-.2217-.316711-.0947-.089445-.2066-.158694-.329-.2035136-.1225-.0448194-.2527-.06426902-.3829-.05716377h-11.0883c-.24499.01336987-.47554.11989137-.644235.29765537-.168693.177764-.262704.413259-.262704.65806 0 .244796.094011.480296.262704.658056.168695.17777.399245.28429.644235.29766h1.36885c-.1302-.00711-.26048.01234-.38289.05716-.12242.04482-.23439.11407-.32907.20352-.09469.08944-.17011.1972-.22165.3167s-.07812.24824-.07812.37833c0 .1301.02658.25883.07812.37833s.12696.22727.22165.31671c.09468.08945.20665.15869.32907.20351.12241.04482.25269.06427.38289.05717h-1.91582c-.130196-.00711-.26048.01234-.382892.05716s-.234383.11407-.329071.20351c-.094687.08945-.170106.19721-.2216467.31671-.0515409.1195-.07812091.24824-.07812091.37833 0 .1301.02658001.25883.07812091.37833.0515407.1195.1269597.22727.2216467.31671.094688.08945.206659.15869.329071.20351s.252696.06427.382892.05717h11.08827c.1302.0071.2605-.01235.3829-.05717s.2344-.11406.3291-.20351c.0946-.08944.1701-.19721.2216-.31671s.0781-.24823.0781-.37833c0-.13009-.0266-.25883-.0781-.37833s-.127-.22726-.2216-.31671c-.0947-.08944-.2067-.15869-.3291-.20351s-.2527-.06427-.3829-.05716h1.9158c.245-.01337.4756-.11989.6443-.29766.1686-.17776.2627-.41326.2627-.65806s-.0941-.4803-.2627-.65806c-.1687-.17776-.3993-.28428-.6443-.29765z" fill="#dee3f3" opacity=".5" transform="translate(93.5742 9.78125)"/><path d="m.795379 0s5.011481 9.81429.927841 15.1829c-4.08364 5.3685.37228 20 .37228 20" stroke="#2c7be5" stroke-miterlimit="10" transform="translate(13.7227 147.069)"/><path d="m2.78352 3.42858c0 1.89142-1.39176 3.42857-1.39176 3.42857s-1.39176035-1.53429-1.39176035-3.42857c0-1.89429 1.39176035-3.42857721 1.39176035-3.42857721s1.39176 1.53714721 1.39176 3.42857721z" fill="#2c7be5" transform="translate(13.2305 140.572)"/><path d="m2.52996 0s-5.01148 9.81429-.92784 15.1829c4.08364 5.3685-.37228 20-.37228 20" stroke="#2c7be5" stroke-miterlimit="10" transform="translate(14.5859 147.069)"/><path d="m-.00000052 3.42858c0 1.89142 1.39176052 3.42857 1.39176052 3.42857s1.39176-1.53429 1.39176-3.42857c0-1.89429-1.39176-3.42857721-1.39176-3.42857721s-1.39176052 1.53714721-1.39176052 3.42857721z" fill="#2c7be5" transform="translate(15.6328 140.572)"/><path d="m-.00000052 3.42858c0 1.89142 1.39176052 3.42857 1.39176052 3.42857s1.39176-1.53429 1.39176-3.42857c0-1.89429-1.39176-3.42857721-1.39176-3.42857721s-1.39176052 1.53714721-1.39176052 3.42857721z" fill="#000" opacity=".1" transform="translate(15.6328 140.572)"/><path d="m.795379 0s5.011481 9.81429.927841 15.1829c-4.08364 5.3685.37228 20 .37228 20" stroke="#2c7be5" stroke-miterlimit="10" transform="translate(18.3672 147.069)"/><g fill="#2c7be5"><path d="m2.78352 3.42858c0 1.89142-1.39176 3.42857-1.39176 3.42857s-1.39176087-1.53429-1.39176087-3.42857c0-1.89429 1.39176087-3.42857721 1.39176087-3.42857721s1.39176 1.53714721 1.39176 3.42857721z" transform="translate(17.8594 140.572)"/><path d="m3.3849 3.42858c-1.31444 1.36286-3.3849014 1.5057-3.3849014 1.5057s.0630008-2.06857 1.3774414-3.42857c1.31444-1.359999 3.3849-1.50570163 3.3849-1.50570163s-.07159 2.06286163-1.37744 3.42857163z" transform="translate(16.4766 148.434)"/><path d="m3.3849 3.42857c-1.31444 1.36286-3.38489948 1.50572-3.38489948 1.50572s.06300078-2.06857 1.37743948-3.42858c1.31444-1.359996 3.3849-1.50571558 3.3849-1.50571558s-.063 2.06285558-1.37744 3.42857558z" transform="translate(16.6094 155.206)"/><path d="m3.30203 1.67715c1.24285 1.42857 1.19989 3.49714 1.19989 3.49714s-2.059-.24857-3.30185-1.67714c-1.2428449-1.42858-1.19989008-3.49714581-1.19989008-3.49714581s2.05900008.24856981 3.30185008 1.67714581z" transform="translate(9.5625 160.68)"/><path d="m3.63118.779187c1.58076 1.045713 2.09336 3.051433 2.09336 3.051433s-2.05041.31142-3.63117-.73429c-1.580766-1.04572-2.0933679-3.051431-2.0933679-3.051431s2.0589979-.317141 3.6311779.734288z" transform="translate(10.3789 147.146)"/></g><path d="m3.63118.779187c1.58076 1.045713 2.09336 3.051433 2.09336 3.051433s-2.05041.31142-3.63117-.73429c-1.580766-1.04572-2.0933679-3.051431-2.0933679-3.051431s2.0589979-.317141 3.6311779.734288z" fill="#000" opacity=".1" transform="translate(10.3789 147.146)"/><path d="m2.52996 0s-5.01148 9.81429-.92784 15.1829c4.08364 5.3685-.37228 20-.37228 20" stroke="#2c7be5" stroke-miterlimit="10" transform="translate(19.2266 147.069)"/><path d="m-.0000014 3.42858c0 1.89142 1.3917614 3.42857 1.3917614 3.42857s1.39176-1.53429 1.39176-3.42857c0-1.89429-1.39176-3.42857721-1.39176-3.42857721s-1.3917614 1.53714721-1.3917614 3.42857721z" fill="#2c7be5" transform="translate(20.2734 140.572)"/><path d="m-.0000014 3.42858c0 1.89142 1.3917614 3.42857 1.3917614 3.42857s1.39176-1.53429 1.39176-3.42857c0-1.89429-1.39176-3.42857721-1.39176-3.42857721s-1.3917614 1.53714721-1.3917614 3.42857721z" fill="#000" opacity=".1" transform="translate(20.2734 140.572)"/><path d="m1.43185 1.46571c-1.331619 1.34857-1.43184878 3.42857-1.43184878 3.42857s2.07045878-.11714 3.40207878-1.46571c1.33162-1.34858 1.43185-3.42857767 1.43185-3.42857767s-2.07045.11714467-3.40208 1.46571767z" fill="#2c7be5" transform="translate(19.2422 150.543)"/><path d="m1.43185 1.46571c-1.331619 1.34857-1.43184878 3.42857-1.43184878 3.42857s2.07045878-.11714 3.40207878-1.46571c1.33162-1.34858 1.43185-3.42857767 1.43185-3.42857767s-2.07045.11714467-3.40208 1.46571767z" fill="#000" opacity=".1" transform="translate(19.2422 150.543)"/><path d="m1.43185 1.46571c-1.331619 1.34857-1.4318486 3.42857-1.4318486 3.42857s2.0704586-.11714 3.4020786-1.46572c1.33162-1.34857 1.43185-3.42856837 1.43185-3.42856837s-2.07905.11714437-3.40208 1.46571837z" fill="#2c7be5" transform="translate(21.8516 159.917)"/><path d="m0 4.85715s3.01548-4.74286 7.2509-4.85714581z" stroke="#2c7be5" stroke-miterlimit="10" transform="translate(19.4492 154.466)"/><path d="m7.2509 4.85714s-3.01548-4.742858-7.25090087-4.85714419z" stroke="#2c7be5" stroke-miterlimit="10" transform="translate(9.84375 151.6)"/><path d="m-.00000175 4.85714s3.01548175-4.742855 7.25090175-4.8571407z" stroke="#2c7be5" stroke-miterlimit="10" transform="translate(16.7031 158.371)"/><path d="m.781791 1.55999c.431769 0 .781789-.34921.781789-.77999 0-.430783-.35002-.77999512-.781789-.77999512-.431771 0-.781791.34921212-.781791.77999512 0 .43078.35002.77999.781791.77999z" fill="#2c7be5" transform="translate(25.7734 153.66)"/><path d="m.781791 1.56c.431769 0 .781789-.34921.781789-.779997 0-.430782-.35002-.77999463-.781789-.77999463-.431771 0-.781791.34921263-.781791.77999463 0 .430787.35002.779997.781791.779997z" fill="#2c7be5" transform="translate(9.13672 150.86)"/><path d="m7.2509 4.85715s-3.01548-4.742864-7.25089948-4.85715z" stroke="#2c7be5" stroke-miterlimit="10" transform="translate(11.668 159.926)"/><path d="m.781792 1.56001c.431768 0 .781788-.34923.781788-.780014 0-.430783-.35002-.779996-.781788-.779996-.431772 0-.781792.349213-.781792.779996 0 .430784.35002.780014.781792.780014z" fill="#2c7be5" transform="translate(10.9609 159.191)"/><path d="m.781791 1.56c.431769 0 .781789-.34921.781789-.779993s-.35002-.78001258-.781789-.78001258c-.431771 0-.781791.34922958-.781791.78001258s.35002.779993.781791.779993z" fill="#2c7be5" transform="translate(23.2266 157.631)"/><path d="m28.5398 7.12451s-7.2681-1.45144-9.2097-3.38573c-1.9415-1.93429-10.65866-5.31713-11.62945-2.89999-.9708 2.41714-13.08426 10.63711-4.84539 12.08861 8.23884 1.4514 19.38444 1.9343 21.80714.9657s3.8774-6.76859 3.8774-6.76859z" fill="#a8a8a8" transform="translate(7.05469 169.416)"/><path d="m2.85194 4.95429c8.23886 1.45143 19.38436 1.93429 21.80706.96571 1.8443-.73714 3.1272-4.28572 3.6341-5.92000837l.2434.05144397s-1.4548 5.8028644-3.8775 6.7685744c-2.4227.96572-13.5682.48286-21.80706-.96572-2.376878-.42-3.058439-1.40286-2.8007058-2.64571.2004588.8 1.0309358 1.43428 2.8007058 1.74571z" fill="#000" opacity=".2" transform="translate(7.05859 176.489)"/><path d="m6.60197.00000837s2.39979 3.14286163-1.10825 7.85714163c-3.50804 4.71425-6.400382 8.71715-5.229127 11.66575 0 0 5.292117-8.78 9.599127-8.9029 4.30698-.1228 1.47768-5.34285-3.26175-10.61999163z" fill="#2c7be5" transform="translate(249.656 149.292)"/><path d="m6.46624.00000837c.20912.30279263.37401.63371063.4897.98284063 4.20396 4.925721 6.44046 9.522851 2.40265 9.640051-3.7629.1085-8.27612 6.82-9.35859699 8.5171.03571939.1309.07874549.2596.12886999.3857 0 0 5.292117-8.78 9.599127-8.9028 4.30701-.1229 1.47771-5.34575-3.26175-10.62289163z" fill="#000" opacity=".1" transform="translate(249.793 149.292)"/><path d="m.572744.700473c0 1.102857-.12314 1.999997-.286371 1.999997s-.2863702-.89428-.2863702-1.999997c0-1.105715.1546242-.571429.3064012-.571429.151776 0 .26634-.528572.26634.571429z" fill="#ffd037" transform="translate(260.148 152.58)"/><path d="m1.89206.754455c-.970799.528575-1.815582.857155-1.88717458.711445-.07159262-.14572.65290258-.671431 1.62369458-1.197146.9708-.525714.58708-.142857.66154 0 .07445.142858.56987-.042871-.39806.485701z" fill="#ffd037" transform="translate(260.359 153.843)"/><path d="m5.38591.00000837s-2.39979 3.14286163 1.10825 7.85714163c3.50804 4.71425 6.40034 8.71715 5.22914 11.66575 0 0-5.29212-8.78-9.59914-8.9029-4.30701-.1228-1.477679-5.34285 3.26175-10.61999163z" fill="#2c7be5" transform="translate(238.199 149.292)"/><path d="m5.38591.00000837c-.20912.30279263-.37399.63371063-.48968.98284063-4.203919 4.925721-6.44048 9.522851-2.40265 9.640051 3.7629.1085 8.27612 6.82 9.35862 8.5171-.0358.1309-.0788.2596-.1289.3857 0 0-5.29212-8.78-9.59914-8.9028-4.30701-.1229-1.477679-5.34575 3.26175-10.62289163z" fill="#000" opacity=".1" transform="translate(238.199 149.292)"/><path d="m.00000769.700473c0 1.102857.12313931 1.999997.28637031 1.999997s.28637-.89428.28637-1.999997c0-1.105715-.154642-.571429-.306418-.571429s-.26632231-.528572-.26632231.571429z" fill="#ffd037" transform="translate(239.121 152.58)"/><path d="m.591871.754455c.970799.528575 1.815599.857155 1.887189.711445.07159-.14572-.65294-.671431-1.623734-1.197146-.970795-.525714-.587058-.142857-.661514 0-.074457.142858-.572737-.042871.398059.485701z" fill="#ffd037" transform="translate(237 153.843)"/><path d="m.0000028 3.61585s6.7096572-.20571 8.7314272-1.64286c2.02177-1.437142 10.30937-3.14286 10.82197-.85714.5126 2.28571 10.0831 11.46005 2.5086 11.52005s-17.60036-1.1772-19.61927-2.4029c-2.018908-1.22571-2.4427272-6.61715-2.4427272-6.61715z" fill="#a8a8a8" transform="translate(239.887 164.787)"/><path d="m22.1966 8.23428c-7.5745.06-17.60035-1.17713-19.61926-2.40285-1.53781-.93429-2.150654-4.28571-2.353977-5.83142302h-.2233602s.4238192 5.40000302 2.4427272 6.62571302c2.01891 1.22572 12.04477 2.46571 19.61927 2.40285 2.1879-.01714 2.941-.79428 2.9009-1.94285-.3035.7-1.1254 1.13428-2.7663 1.14856z" fill="#000" opacity=".2" transform="translate(239.887 168.397)"/><path d="m18.2877 2.51286h-1.7984c.1703.00811.3405-.01836.5003-.07781s.3058-.15064.4292-.26804.2217-.25857.2888-.41497c.0672-.1564.1018-.32476.1018-.4949 0-.17013-.0346-.338499-.1018-.494896-.0671-.156397-.1654-.297572-.2888-.414974s-.2694-.208584-.4292-.2680313c-.1598-.0594468-.33-.08591968-.5003-.07781111h-14.57053c-.32342.01539611-.62848.15441741-.85191.38822341-.223427.233805-.348069.54445-.348069.867489 0 .32305.124642.63369.348069.8675.22343.2338.52849.37282.85191.38822h1.7984c-.32341.0154-.62848.15441-.8519.38822-.22343.2338-.34807.54445-.34807.86749s.12464.63369.34807.86749c.22342.23381.52849.37283.8519.38823h-2.51719c-.323418.01539-.628484.15442-.851912.38822-.223427.23381-.34806958.54445-.34806958.86749 0 .32305.12464258.63369.34806958.8675.223428.2338.528494.37282.851912.38822h14.57052c.1703.00811.3405-.01836.5003-.07781s.3058-.15064.4292-.26804c.1235-.1174.2217-.25857.2888-.41497.0672-.1564.1018-.32476.1018-.4949 0-.17013-.0346-.3385-.1018-.4949-.0671-.15639-.1653-.29757-.2888-.41497-.1234-.1174-.2694-.20858-.4292-.26803s-.33-.08592-.5003-.07781h2.5172c.3234-.0154.6285-.15442.8519-.38823.2234-.2338.3481-.54445.3481-.86749s-.1247-.63369-.3481-.86749c-.2234-.23381-.5285-.37282-.8519-.38822z" fill="#dee3f3" opacity=".5" transform="translate(32.6445 18.8071)"/></svg>