<svg fill="none" viewBox="0 0 182 129" xmlns="http://www.w3.org/2000/svg" xmlns:xlink="http://www.w3.org/1999/xlink"><linearGradient id="a"><stop offset="0" stop-color="#808080" stop-opacity=".25"/><stop offset=".54" stop-color="#808080" stop-opacity=".12"/><stop offset="1" stop-color="#808080" stop-opacity=".1"/></linearGradient><linearGradient id="b" gradientTransform="matrix(0 -88.8944 88.9115 0 13.0752 88.8944)" gradientUnits="userSpaceOnUse" x2="1" xlink:href="#a"/><linearGradient id="c" gradientTransform="matrix(0 -2761.61 3187.09 0 18166.4 9923.95)" gradientUnits="userSpaceOnUse" x2="1" xlink:href="#a"/><linearGradient id="d" gradientTransform="matrix(0 -39629.6 19176.9 0 27676.5 56881.2)" gradientUnits="userSpaceOnUse" x2="1" xlink:href="#a"/><path d="m16.9185 5.58217c-.742 1.505.3269 3.12929-.0474 4.68333-.4641 1.9609-3.1266 3.4871-5.995 4.461-2.86834.9739-6.07177 1.5655-8.86823 2.6146-1.209461.4526-2.469586 1.2876-1.840341 2.0557.217376.2663.625977.4526 1.023141.6274 8.14259 3.5558 18.20893 5.4873 28.27513 5.4252 10.6367-.067 21.0544-2.2877 31.683-2.0328 13.7093.3268 26.9676 4.7487 40.5222 3.4741 5.754-.5409 11.1-2.0835 16.701-3.046 8.241-1.4167 16.908-1.5589 25.442-2.0246 6.408-.3497 13.729-1.2566 16.793-4.6653 2.213-2.4642 1.285-5.7193-1.834-7.80605-3.118-2.08673-8.1-2.97894-12.704-2.57369-2.474.21734-4.934.78109-7.407.55722-1.437-.13072-2.767-.51964-4.073-.90202-10.133-2.97404-20.641-5.941538-31.895-6.3729374-18.3138-.7075596-35.2724 5.3189574-53.1054 7.9253274-2.7785.40525-5.7923.71737-8.4155.03759-2.7654-.71737-4.5764-2.41192-7.3434-3.12601-1.3075-.33989-2.7785-.43794-4.0713-.80724-3.5516-1.0164-1.9073-2.41355-6.8285-1.47068-2.5824.49186-5.1827 1.28602-6.0114 2.96586z" fill="#2c7be5" opacity=".1" transform="translate(5.6875 89.7276)"/><path d="m.00000319 42.9896s12.17299681-19.1319 13.64399681-27.3024c1.471-8.1704 4.2494-15.6872002 4.2494-15.6872002" stroke="#535461" stroke-miterlimit="10" stroke-width="2" transform="translate(117.074 2.12431)"/><g fill="#2c7be5"><path d="m7.68169-.0000002-7.68169.6536352s4.08601 7.026575 7.68169-.6536352z" transform="translate(130.066 18.4652)"/><path d="m.266679-.0000002 6.083241 4.8712102s-7.88108 3.13582-6.083241-4.8712102z" transform="translate(124.078 14.2166)"/><path d="m6.91679-.0000002-6.9167912.9265272s6.0995912 4.956193 6.9167912-.9265272z" transform="translate(131.812 11.7654)"/><path d="m.116227-.0000002 4.566523 3.2044502s-5.547165 2.35145-4.566523-3.2044502z" transform="translate(127.172 9.3143)"/><path d="m-.0000004 1.22144s5.6697404-1.501723 6.4869504-1.1749053c.8172.3268173.32688 3.9218053-1.96129 4.0852153-2.28816.16341-4.5256604-2.91031-4.5256604-2.91031z" transform="translate(133.551 5.18255)"/><path d="m1.37903-.0000002s3.59569 3.4315802 3.75913 4.2486302c.16344.81704-2.94193 2.77795-4.576334 0-1.634406-2.77795.817204-4.2486302.817204-4.2486302z" transform="translate(128.359 2.12431)"/></g><path d="m1.6344 3.26818c.90266 0 1.6344-.73161 1.6344-1.63409 0-.902484-.73174-1.63409-1.6344-1.63409-.902655 0-1.634402.731606-1.634402 1.63409 0 .90248.731747 1.63409 1.634402 1.63409z" fill="#ffd037" transform="translate(134.805 .817039)"/><path d="m1.6344 3.26818c.90266 0 1.6344-.73161 1.6344-1.63409 0-.902484-.73174-1.63409-1.6344-1.63409-.902655 0-1.634402.731606-1.634402 1.63409 0 .90248.731747 1.63409 1.634402 1.63409z" fill="#ffd037" transform="translate(131.863)"/><path d="m2.86838 44.6253s-5.20067-13.6479-1.11303-24.307c1.71612-4.4742 2.02012-9.3699.70933-13.97967-.62634-2.18366-1.45134-4.30539-2.4646789-6.33863" stroke="#535461" stroke-miterlimit="10" stroke-width="2" transform="translate(23.7812 56.4528)"/><g fill="#2c7be5"><path d="m6.20866 2.8682c.13238 1.71253-2.58073 6.91709-2.58073 6.91709s-3.486179-4.72251-3.61856573-6.43504c-.06393697-.82213.20140173-1.63599.73764173-2.26252.536234-.626544 1.299454-1.0144395 2.121744-1.07836405.8223-.06392455 1.63631.20135805 2.26297.73749405.62666.53614 1.01463 1.29921 1.07857 2.12134z" transform="translate(20.1094 46.8456)"/><path d="m6.00423 4.59115c-.81721 1.50989-5.9263498 4.40386-5.9263498 4.40386s-.3579352-5.8582.4609008-7.3681c.393158-.72484 1.058209-1.263838 1.848849-1.498426.79065-.234588 1.64211-.1455503 2.36709.247532.72498.393082 1.26409 1.058004 1.49872 1.848494s.14558 1.6418-.24758 2.36664z" transform="translate(26.1758 54.2066)"/><path d="m7.33847 5.76035c-1.47096.88895-7.3384693.81705-7.3384693.81705s2.6493693-5.23889 4.1170593-6.127831c.34932-.211479.73687-.3520968 1.14054-.4138275.40367-.0617306.81555-.04336411 1.21213.0540524.39657.0974161.77006.2719761 1.09916.5137091.32909.241733.60735.545907.81887.895157.21152.34924.35217.73672.41391 1.14032.06174.40359.04337.81539-.05406 1.21188-.09744.3965-.27203.76992-.51381 1.09895-.24178.32904-.54601.60723-.89533.81871z" transform="translate(25.875 69.2573)"/><path d="m7.09658 5.45814c-1.29772 1.12425-7.0965792 2.03771-7.0965792 2.03771s1.7259292-5.61146 3.0220092-6.735717c.30854-.267488.66675-.471596 1.05418-.600674.38743-.129079.7965-.1806025 1.20384-.15162034.40735.02898214.805.13790334 1.17024.32053434.36525.18263.69094.435402.95848.743877.26754.30847.47169.66661.60079 1.05397.12911.38736.18064.79634.15165 1.20361s-.13793.80484-.32059 1.17001c-.18267.36518-.43549.69081-.74402.9583z" transform="translate(24.1367 82.0097)"/><path d="m1.12345 5.49933c1.3206 1.0981 7.13744 1.889 7.13744 1.889s-1.84197-5.57387-3.1642-6.670346c-.63417-.526998-1.45175-.7805381-2.27289-.7048447s-1.57858.4744197-2.105678 1.1084607c-.5271.63405-.7806891 1.45148-.7049811 2.27246s.4745111 1.57827 1.1086791 2.10527z" transform="translate(18.6445 58.5389)"/><path d="m1.92864 5.97835c1.58864.65364 7.37606-.32681 7.37606-.32681s-3.43225-4.766637-5.01435-5.418638c-.76291-.3131223-1.61898-.3104179-2.37989.007525-.76091.317943-1.364332.925083-1.677515 1.687843-.3131822.76276-.3104722 1.61867.007532 2.37943.318004.76077.925253 1.36407 1.688163 1.67719z" transform="translate(15.707 72.649)"/><path d="m1.45942 5.73718c1.45625.91019 7.32703.91836 7.32703.91836s-2.57255-5.2781-4.02717-6.181755c-.69897-.4375045-1.54315-.579479-2.34681-.3946888-.80367.1847898-1.501006.6812118-1.938594 1.3800438-.437589.69884-.579588 1.54285-.3947625 2.34636.1848255.80352.6813355 1.50071 1.3803065 1.93822z" transform="translate(16.0508 87.3535)"/><path d="m6.20866 2.8682c.13238 1.71253-2.58073 6.91709-2.58073 6.91709s-3.486179-4.72251-3.61856573-6.43504c-.06393697-.82213.20140173-1.63599.73764173-2.26252.536234-.626544 1.299454-1.0144395 2.121744-1.07836405.8223-.06392455 1.63631.20135805 2.26297.73749405.62666.53614 1.01463 1.29921 1.07857 2.12134z" transform="translate(20.1094 46.8456)"/><path d="m6.00423 4.59115c-.81721 1.50989-5.9263498 4.40386-5.9263498 4.40386s-.3579352-5.8582.4609008-7.3681c.393158-.72484 1.058209-1.263838 1.848849-1.498426.79065-.234588 1.64211-.1455503 2.36709.247532.72498.393082 1.26409 1.058004 1.49872 1.848494s.14558 1.6418-.24758 2.36664z" transform="translate(26.1758 54.2066)"/><path d="m7.33847 5.76035c-1.47096.88895-7.3384693.81705-7.3384693.81705s2.6493693-5.23889 4.1170593-6.127831c.34932-.211479.73687-.3520968 1.14054-.4138275.40367-.0617306.81555-.04336411 1.21213.0540524.39657.0974161.77006.2719761 1.09916.5137091.32909.241733.60735.545907.81887.895157.21152.34924.35217.73672.41391 1.14032.06174.40359.04337.81539-.05406 1.21188-.09744.3965-.27203.76992-.51381 1.09895-.24178.32904-.54601.60723-.89533.81871z" transform="translate(25.875 69.2573)"/><path d="m7.09658 5.45814c-1.29772 1.12425-7.0965792 2.03771-7.0965792 2.03771s1.7259292-5.61146 3.0220092-6.735717c.30854-.267488.66675-.471596 1.05418-.600674.38743-.129079.7965-.1806025 1.20384-.15162034.40735.02898214.805.13790334 1.17024.32053434.36525.18263.69094.435402.95848.743877.26754.30847.47169.66661.60079 1.05397.12911.38736.18064.79634.15165 1.20361s-.13793.80484-.32059 1.17001c-.18267.36518-.43549.69081-.74402.9583z" transform="translate(24.1367 82.0097)"/><path d="m1.12345 5.49933c1.3206 1.0981 7.13744 1.889 7.13744 1.889s-1.84197-5.57387-3.1642-6.670346c-.63417-.526998-1.45175-.7805381-2.27289-.7048447s-1.57858.4744197-2.105678 1.1084607c-.5271.63405-.7806891 1.45148-.7049811 2.27246s.4745111 1.57827 1.1086791 2.10527z" transform="translate(18.6445 58.5389)"/><path d="m1.92864 5.97835c1.58864.65364 7.37606-.32681 7.37606-.32681s-3.43225-4.766637-5.01435-5.418638c-.76291-.3131223-1.61898-.3104179-2.37989.007525-.76091.317943-1.364332.925083-1.677515 1.687843-.3131822.76276-.3104722 1.61867.007532 2.37943.318004.76077.925253 1.36407 1.688163 1.67719z" transform="translate(15.707 72.649)"/><path d="m1.45942 5.73718c1.45625.91019 7.32703.91836 7.32703.91836s-2.57255-5.2781-4.02717-6.181755c-.69897-.4375045-1.54315-.579479-2.34681-.3946888-.80367.1847898-1.501006.6812118-1.938594 1.3800438-.437589.69884-.579588 1.54285-.3947625 2.34636.1848255.80352.6813355 1.50071 1.3803065 1.93822z" transform="translate(16.0508 87.3535)"/></g><path d="m15.1094 3.03878s-3.9454-.47552-5.0666-1.42982c-1.12122-.954311-5.91819-2.405379-6.3366-1.070329-.4184 1.335049-6.54905 6.238939-2.08713 6.675249 4.46192.4363 10.44543.22877 11.69253-.38892 1.247-.61768 1.7978-3.78618 1.7978-3.78618z" fill="#a8a8a8" transform="translate(21.7969 95.5817)"/><path d="m1.58801 3.70938c4.46355.43467 10.43889.23041 11.69419-.38728.9561-.47061 1.4938-2.418448 1.6965-3.32209801l.1324.01633691s-.5361 3.1668611-1.7979 3.7861811c-1.2617.61932-7.23059.81705-11.69414.38729-1.28791-.12583-1.6932441-.62423-1.6082552-1.30728.1487312.43304.6178062.73371 1.5772052.82685z" fill="#000" opacity=".2" transform="translate(21.7969 98.6041)"/><path d="m171.122 74.8803c-6.407 8.7783-4.282 21.3085-.588 31.2907 1.238 3.342 2.646 6.877 2.003 10.512-.784 4.445-4.471 7.775-8.304 9.589-6.987 3.306-15.241 2.778-21.491-1.387-5.393-3.595-9.19-9.569-14.688-12.993-9.202-5.727-21.148-3.168-31.3889 1.205-7.2453 3.093-15.1819 7.077-22.2426 4.22-4.9685-2.009-8.3142-7.126-10.0744-12.595-.8499-2.641-1.4448-5.5069-3.1381-7.574-1.0068-1.2289-2.3372-2.0851-3.7052-2.8009-12.4852-6.5363-28.5448-2.4511-40.6492-9.744-8.17202-4.9252-13.25828-14.4829-15.37157-24.5309-2.11328-10.0481-1.59027-20.6549-.748552-31.0804.598192-7.4089 1.544512-15.3261 5.999892-21.14836 4.71203-6.15724 12.60943-8.6051 19.67163-7.639355 7.0623.965745 13.3924 4.892455 18.933 9.565945 6.9282 5.84347 13.3024 13.17567 21.919 15.38817 5.8691 1.5099 12.1043.4412 18.2056-.031 10.1987-.7876 20.3614.1193 30.4624 1.1438 9.669.9805 19.405 2.0753 28.562 5.2896 6.481 2.2746 11.618 6.5739 17.719 9.512 3.976 1.9152 8.352 2.3596 12.095 4.8336 4.618 3.0476 8.793 8.4466 7.438 14.9258-1.28 6.1589-7.219 9.3895-10.619 14.0483z" fill="#2c7be5" opacity=".1" transform="translate(0 .573738)"/><path d="m110.886.00000128h-106.7101c-1.10637-.00086731-2.16779.43760772-2.95088 1.21900872-.783082.7814-1.22372026 1.84176-1.22502 2.94791v62.17708c.00129974 1.1061.441938 2.1665 1.22502 2.9479.78309.7814 1.84451 1.2198 2.95088 1.219h42.9717v15.3228h-4.0435c-.2641 0-.5175.1048-.7044.2914s-.2921.4397-.2926.7038v2.0655h31.361v-2.0688c-.0005-.2641-.1057-.5172-.2926-.7038-.187-.1865-.4403-.2913-.7044-.2913h-5.1631v-15.3245h43.578c1.106.0008 2.166-.4369 2.949-1.2173.783-.7803 1.224-1.8394 1.227-2.9447v-62.17708c-.001-1.10615-.442-2.16651-1.225-2.94791-.783-.781401-1.845-1.21987603-2.951-1.21900872z" fill="url(#b)" transform="translate(29.875 13.3129)"/><path d="m19.8204 0h-19.8204v19.1221h19.8204z" fill="#474059" transform="translate(77.2852 80.9167)"/><path d="m19.8204 0h-19.8204v1.69619h19.8204z" fill="#000" opacity=".1" transform="translate(77.2852 98.3427)"/><path d="m.980642 0h28.871758c.2601 0 .5095.103302.6934.287172.1839.183871.2872.433248.2872.693281v2.039337h-30.8330004v-2.039337c0-.260033.1033164-.50941.2872224-.693281.183906-.18387.433337-.287172.69342-.287172z" fill="#474059" transform="translate(72.332 98.5355)"/><path d="m109.02 0h-104.91438c-2.26747 0-4.10562 1.83779-4.10562 4.10483v61.25537c0 2.2671 1.83815 4.1049 4.10562 4.1049h104.91438c2.267 0 4.105-1.8378 4.105-4.1049v-61.25537c0-2.26704-1.838-4.10483-4.105-4.10483z" fill="#474059" transform="translate(30.9375 13.9665)"/><path d="m108.124 0h-108.124v56.7486h108.124z" fill="#fff" transform="translate(33.3125 22.0798)"/><path d="m.952856 1.88247c.526244 0 .952864-.42141.952864-.941235 0-.51983-.42662-.941235-.952864-.941235-.526248 0-.95285959.421405-.95285959.941235 0 .519825.42661159.941235.95285959.941235z" fill="#fff" transform="translate(86.4258 18.207)"/><path d="m19.7583-.00000239h-19.75829761v.37257639h19.75829761z" fill="#000" opacity=".1" transform="translate(77.3281 83.479)"/><path d="m8.16731 0c-3.15588 2.61349-5.54 6.03722-6.89623 9.90341-1.3562348 3.86619-1.633338 8.02879-.801552 12.04059.831792 4.0118 2.741032 7.7212 5.522652 10.7298s6.33052 5.2027 10.26542 6.3466l6.3023-21.6582z" fill="#d6d6e3" transform="translate(85.7695 35.3322)"/><path d="m14.3926.00002463c-5.25699-.00778064-10.35015 1.82819537-14.3925996 5.18822537l14.3925996 17.36215 11.918-19.14657c-3.5744-2.23046-7.7046-3.4100387-11.918-3.40380537z" fill="#d6d6e3" transform="translate(94.4258 30.144)"/><path d="m6.30226 0-6.3022596 21.6566c3.3291996.9664 6.8363396 1.1531 10.2492996.5455 3.4131-.6077 6.6402-1.9933 9.431-4.0494 2.7909-2.056 5.0705-4.7273 6.6619-7.8065 1.5914-3.07926 2.452-6.48366 2.5148-9.949118z" fill="#8499f0" transform="translate(102.516 52.6944)"/><path d="m8.17201 0h-8.172012v4.90226h8.172012z" fill="#8499f0" transform="translate(42.9531 41.746)"/><path d="m8.17201 0h-8.172012v4.90226h8.172012z" fill="#fc6681" transform="translate(42.9531 50.2433)"/><path d="m8.17201 0h-8.172012v4.90226h8.172012z" fill="#2c7be5" transform="translate(42.9531 58.7405)"/><g fill="#d6d6e3"><path d="m15.3634 0h-15.363402v1.96091h15.363402z" transform="translate(55.5352 43.2167)"/><path d="m15.3634 0h-15.363402v1.96091h15.363402z" transform="translate(55.5352 51.714)"/><path d="m15.3634 0h-15.363402v1.96091h15.363402z" transform="translate(55.5352 60.2112)"/><path d="m108.197 0h-108.197v1.96091h108.197z" transform="translate(33.3086 21.9736)"/></g><path d="m.490321.980453c.270797 0 .490321-.219482.490321-.490226 0-.270745-.219524-.490227-.490321-.490227-.270796 0-.490321.219482-.490321.490227 0 .270744.219525.490226.490321.490226z" fill="#fc6681" transform="translate(34.125 22.4638)"/><path d="m.490321.980453c.270797 0 .490321-.219482.490321-.490226 0-.270745-.219524-.490227-.490321-.490227-.270796 0-.490321.219482-.490321.490227 0 .270744.219525.490226.490321.490226z" fill="#ffc74c" transform="translate(35.4336 22.4638)"/><path d="m.490321.980453c.270797 0 .490321-.219482.490321-.490226 0-.270745-.219524-.490227-.490321-.490227-.270796 0-.490321.219482-.490321.490227 0 .270744.219525.490226.490321.490226z" fill="#85d459" transform="translate(36.7422 22.4638)"/><path d="m2.14478-.00000199s.7796 1.01967199-.35957 2.55898199c-1.139183 1.53932-2.078959 2.83842-1.6997778 3.79926 0 0 1.7193878-2.85966 3.1200678-2.89888 1.40069-.03922.48052-1.7403-1.06072-3.45936199z" fill="#2c7be5" transform="translate(146.867 88.4074)"/><path d="m2.09694-.00000199c.07003.10044399.12509.21053399.16344.32681799 1.36636 1.604674 2.09367 3.104774.78125 3.139084-1.22254.03432-2.690237 2.22073-3.04163399 2.77795.01126539.04267.02490669.08468.04086009.12583 0 0 1.7193939-2.85966 3.1200839-2.89888 1.40068-.03922.47724-1.75174-1.064-3.47080199z" fill="#000" opacity=".1" transform="translate(146.914 88.4074)"/><path d="m.179782.230885c0 .359499-.040858.653635-.0898898.653635-.0490321 0-.0898902-.290868-.0898902-.653635 0-.362768.0506641-.1895498.0996962-.1895498.0490318 0 .0800838-.1699492.0800838.1895498z" fill="#ffd037" transform="translate(150.285 89.4756)"/><path d="m.614434.246424c-.31544.171579-.5900199.276158-.61290152.232038-.02288168-.044121.21247952-.218961.52791952-.3905397.315439-.1715792.191224-.0473886.214106 0 .022882.0473887.186316-.0130775-.129124.1585017z" fill="#ffd037" transform="translate(150.348 89.8882)"/><path d="m1.75113-.00000199s-.779607 1.01967199.35957 2.55898199c1.13918 1.53932 2.07897 2.83842 1.69979 3.79926 0 0-1.7194-2.85966-3.120085-2.89888-1.400684-.03922-.478882-1.7403 1.060725-3.45936199z" fill="#2c7be5" transform="translate(143.145 88.4074)"/><path d="m1.7535-.00000199c-.07003.10044399-.12509.21053399-.16344.32681799-1.366361 1.604674-2.093665 3.104774-.781239 3.139084 1.222529.03432 2.690229 2.22073 3.041619 2.77795-.01126.04267-.0249.08468-.04086.12583 0 0-1.71939-2.85966-3.120078-2.89888-1.400683-.03922-.475609-1.75174 1.063998-3.47080199z" fill="#000" opacity=".1" transform="translate(143.141 88.4074)"/><path d="m-.00000239.230885c0 .359499.04085809.653635.08989019.653635.0490322 0 .0899002-.290868.0899002-.653635 0-.362768-.050674-.1895498-.0997062-.1895498-.0490321 0-.08008419-.1699492-.08008419.1895498z" fill="#ffd037" transform="translate(143.445 89.4756)"/><path d="m.191748.246424c.315439.171579.590019.276158.612901.232038.022882-.044121-.212469-.218961-.527909-.3905397-.31544-.1715792-.191225-.0473886-.2141066 0-.0228817.0473887-.1863254-.0130775.1291146.1585017z" fill="#ffd037" transform="translate(142.754 89.8882)"/><path d="m8.42082 2.10565s-2.14434-.42813-2.71638-1.00006-3.14622-1.571991-3.43225-.857895c-.28602.714096-3.86046 3.145615-1.430098 3.573745 2.430358.42813 5.720408.57193 6.434648.28597.71423-.28597 1.14408-2.00176 1.14408-2.00176z" fill="#a8a8a8" transform="translate(143.871 92.892)"/><path d="m.841834 1.46414c2.430356.42813 5.720416.57193 6.434646.28597.54426-.21734.92344-1.263155 1.07217-1.75011359l.07191.01471119s-.42821 1.7157924-1.14408 2.0017524c-.71587.28597-4.00429.14217-6.434646-.28596-.701159-.12419-.9021897-.41506-.8270072-.782725.0604729.238575.3056332.424855.8270072.516365z" fill="#000" opacity=".2" transform="translate(143.871 94.983)"/><path d="m24.5161 20.8117c.0019-4.1657-1.0588-8.263-3.0818-11.90471-2.0231-3.64166-4.9418-6.70728-8.48-8.906991l-12.9543 20.811701 24.5161.4314c0-.1421 0-.2859 0-.4314z" fill="url(#c)" transform="translate(112.414 46.346)"/><path d="m22.5548 19.1466c.0018-3.8324-.9741-7.6019-2.8353-10.95222-1.8612-3.35029-4.5463-6.17063-7.8014-8.19438239l-11.9181 19.14660239 22.5548.4036c0-.1389 0-.2712 0-.4036z" fill="#2c7be5" transform="translate(113.395 47.1974)"/><path d="m38.9396 16.3911c0-.0631-.006-.1236-.018-.1813-.0119-.0578-.0229-.1242-.0327-.1994-.0239-.1307-.0506-.2571-.08-.3791-.0153-.061-.0311-.1209-.0474-.1798-.1794-.6752-.5021-1.3039-.9464-1.8432l-.0768-.0882c-.0512-.0567-.1013-.1112-.1503-.1635-.0491-.0522-.0976-.0991-.1455-.1405-.0474-.0441-.0948-.085-.1389-.1225-.0899-.0752-.1733-.1373-.2485-.1896-.0751-.0523-.1062-.0719-.1503-.098-.1073-.0653-.228-.1055-.353-.1177l-.778-.0784-1.0526-.1046-3.8016-1.5001-.1504.0539c-.1109-.3111-.2048-.628-.2811-.9494.1156-.0507.2183-.12666.3007-.22223.0899-.07152.1606-.16414.206-.26962.0948-.22387-.0883-.70429-.0507-.98045.0605-.43957.286-.86443.4674-1.26315.3907-.85626.6751-1.78442.6293-2.72402-.0458-.93961-.4674-1.89391-1.2487-2.41845-.4037-.27126-.8793-.4167-1.2977-.66508-.3269-.19282-.6145-.44447-.9267-.661803-.7616-.516902-1.6459-.8242186-2.564-.891054-.9181-.0668353-1.8376.109166-2.6661.510311-.7894.395449-1.4628.980456-2.2081 1.460876s-1.6229.83829-2.4941.69939c-.0122.03555-.021.07222-.0261.10948l-.0736-.0098c-.1503.41669.2174.82685.5574 1.11118.6439.53925 1.3729 1.07686 2.2129 1.09647.3269 0 .6669-.06209.9627.07354.0645.03051.1248.06893.1798.11438-.1891.75829-.1679 1.55378.0613 2.30092.2292.74715.6578 1.41769 1.2397 1.93954l-1.9401-.7092s-.0817.04249-.2059.12256l-2.6951-1.82201s-5.4017-2.00339-6.9021 1.10138c-1.5004 3.10474 6.5033 1.49519 6.5033 1.49519l1.7128.95595c-.0566.3588.0096.7261.188 1.0425l4.6695 2.9332c-.9431.2958-2.4941.768-2.7687.768-.4004 0-1.5004.4004-2.2015 2.0002-.7012 1.5997-3.2018 9.4025-5.4017 10.7016-2.2 1.2991-8.00862 10.0023-8.00862 10.0023l.02615.0686c-.10351.0272-.20485.0577-.304.0915-1.45136.4804-2.42872 1.4919-3.01547 2.3122-.09949.1383-.16126.3-.17921.4693-.01796.1694.00851.3405.0768.4965s.17603.2915.31264.3933c.1366.1017.29735.1661.4664.1868 2.28817.2941 3.54176-.7778 4.14322-1.5884.03923-.0522.07518-.1045.1095-.1536.17886.0781.38022.0874.56551.0262l2.80468-2.2975s-2.18524 2.1896-.9071 4.1881l-.0981.1389c-2.17259 3.152-3.76343 6.6674-4.69728 10.3797 0 0-1.20129.9004-1.30752 4.5003-.10624 3.5999-1.30753 9.4026-1.30753 9.4026s-.80085 6.9007-.30072 9.0022c0 0 .0572.0833.16344.2108-.03759.0457-.07845.0931-.12422.1438-.43638.4787-1.22416 1.1438-2.141061.9445-1.400684-.3007-1.400687 2.2011.599821 2.4004 1.28791.1291 3.82123.7141 5.46054 1.1145.18053.0444.3691.0446.54974.0007.18065-.044.34805-.1308.48803-.2531s.24842-.2765.31615-.4496c.06772-.1731.09274-.36.07292-.5448-.09806-.8955-.27622-1.9806-.59983-2.7518-.01962-.0474-.04086-.0948-.06211-.1406.05884-.0555.11768-.1127.17652-.1748 0 0 0-4.4006.69953-5.6017 0 0 1.90078-9.1018 1.79788-11.4026-.0785-1.7975 4.9309-8.8094 7.1112-11.7655l-.0179-.1127c.5769-.7648.9316-1.2223.9316-1.2223l1.7014 10.9026s.8008 2.4005 1.7978 3.7012c0 0 4.3018 8.3012 4.8019 10.9027.3792 1.9723 1.1604 3.1374 1.5167 3.5868-.0408.0425-.085.085-.1307.1274-.4544.4249-1.1278.8498-1.8861.688-1.4007-.3007-1.4007 2.2011.5998 2.4005 1.2879.1291 3.8213.7141 5.4606 1.1144.1805.0444.3691.0446.5497.0007s.348-.1307.488-.253c.14-.1224.2484-.2766.3162-.4497.0677-.1731.0927-.36.0729-.5448-.1128-1.0409-.3367-2.3351-.7682-3.1048-.037-.0642-.0752-.1247-.1144-.1813.1528-.0625.2888-.1599.3972-.2844 0 0-2.6004-6.301-2.6004-8.007 0 0-1.0999-6.502-4.8018-8.9025 0 0 .3497-8.1312 1.4039-12.656.0262-.109.0528-.2179.0801-.3268.9829-.1563 1.9571-.3624 2.919-.6177l.0997-3.0002.5002 2.4005 5.6027-3.5002s-.049-.6308-.1438-1.5982c-.0474-.4902-.1063-1.0507-.1766-1.6668-.0555-.4902-.1193-1.0147-.1895-1.5491-.0175-.134-.0355-.268-.054-.402-.0735-.5392-.1536-1.085-.2402-1.6177-.0327-.2004-.0665-.3987-.1014-.5948-.0457-.2615-.0931-.518-.1422-.7664-.025-.1242-.0501-.2467-.0751-.3677-.0251-.1209-.0507-.2396-.0769-.3562-.0261-.1166-.0528-.2304-.08-.3415l-.0409-.1634c-.0272-.109-.055-.2146-.0834-.317-.117-.4267-.185-.8653-.2026-1.3073-.0066-.1765-.0066-.3524 0-.5278.0065-.1754.0229-.3508.049-.5262.012-.0871.0262-.1743.0425-.2615.0646-.3481.1598-.6898.2844-1.0213.0621-.1666.1318-.33.2092-.4902.1814-.3775.3759-.7876.5753-1.219.1002-.2179.2016-.4385.304-.6618s.2049-.4521.3073-.6863c.9806-2.2044 1.9351-4.6621 2.1917-6.2766.0278-.1634.0458-.3268.0572-.4804.0127-.1429.016-.2864.0098-.4298z" fill="url(#d)" transform="translate(129.863 26.2798)"/><path d="m10.1839 2.84776-3.29984-2.232161s-5.2399-1.939659-6.701057 1.067061c-1.461153 3.00672 6.307167 1.45597 6.307167 1.45597l3.29986 1.84325z" fill="#f7bbc3" transform="translate(141.902 33.6692)"/><path d="m6.83452 5.07153c-1.5919-.38728-4.04677-.95595-5.29709-1.08014-1.940038-.19446-1.940038-2.61454-.581849-2.32858.737119.16341 1.389249-.25491 1.830529-.6667.13749-.128641.26634-.266206.38572-.411793.16004-.194947.38116-.330236.62762-.384007.72731-.1634083 2.24241-.398716 3.17401.102949.21494.133677.38862.324293.50176.550687.41841.741874.63579 1.996844.7453 3.006714.01948.17957-.00466.36119-.07037.52944s-.17105.31817-.30709.43702-.29877.20312-.47434.24567c-.17558.04255-.35883.04212-.5342-.00126z" fill="#b77983" transform="translate(155.012 99.4676)"/><path d="m6.83453 5.07153c-1.59191-.38728-4.04678-.95595-5.29709-1.08014-1.94004-.19446-1.94004-2.61454-.581851-2.32858.889111.19119 1.654011-.451 2.077321-.915084.05067-.057193.09807-.111118.13893-.163408.16004-.194947.38115-.330236.6276-.384007.72731-.1634089 2.2424-.398717 3.17401.102948.27295.147068.49032.470616.66521.887311.3138.74841.49032 1.79749.58184 2.67009.01949.17957-.00464.36119-.07036.52944-.06571.16825-.17106.31817-.30709.43702-.13604.11885-.29875.20312-.47432.24567-.17558.04255-.35883.04212-.5342-.00126z" fill="#b77983" transform="translate(130.465 100.438)"/><path d="m4.60412 1.19384c-2.31759 2.3874-4.303393-.04413-4.60412319-.446117.05066649-.057193.09807019-.111118.13893019-.163409.16004-.194947.381152-.330235.627605-.384006.727308-.1634091 2.242408-.398717 3.174018.102948.27131.150336.49032.473887.66357.890584z" fill="#000" opacity=".1" transform="translate(133.492 100.435)"/><path d="m4.68747.85558c-1.00353.68632-4.383475.51637-4.383475.51637-.110322-.11774-.2119208-.24335-.3039962-.375841.1374822-.128642.2663322-.266207.3857172-.411793.16004-.194947.381161-.330236.627614-.384007.72731-.1634089 2.24241-.398717 3.17402.102948.21456.134355.38767.32554.50012.552323z" fill="#000" opacity=".1" transform="translate(157.797 99.466)"/><path d="m29.3701 32.5968c-.6799.8726-4.56.6798-4.56.6798s-1.1637-1.1635-1.6491-3.6865c-.4854-2.5231-4.6499-10.5759-4.6499-10.5759-.9708-1.2615-1.7471-3.5949-1.7471-3.5949l-1.6492-10.57423s-7.9644 10.48103-7.86797 12.71483-1.74718 11.0595-1.74718 11.0595c-.67991 1.1635-.67992 5.4333-.67992 5.4333-2.52352 2.6146-4.658048-.4902-4.658048-.4902-.49032-2.0377.290929-8.7309.290929-8.7309s1.163689-5.6262 1.261759-9.1198c.09806-3.4937 1.26993-4.3614 1.26993-4.3614.90654-3.59912 2.44976-7.00703 4.55672-10.06274.58675-.839921.98064-1.2876614.98064-1.2876614l15.70984 1.8432514c-.3016.66687-.5285 1.36506-.6766 2.08183-1.0215 4.38916-1.3615 12.27692-1.3615 12.27692 3.5957 2.3286 4.6581 8.6345 4.6581 8.6345-.0049 1.6488 2.5186 7.7603 2.5186 7.7603z" fill="#605d82" transform="translate(133.289 67.2721)"/><g fill="#000" opacity=".05"><path d="m12.0063 1.29256-.201-1.29255761s-7.94974 10.47609761-7.85985 12.70989761-1.74718 11.0595-1.74718 11.0595c-.67991 1.1635-.67991 5.4334-.67991 5.4334-.406.4605-.931497.7999-1.51836439.9804.76490039.201 1.69324439.054 2.68369439-.9804 0 0 0-4.2683.67991-5.4334 0 0 1.84361-8.824 1.74718-11.0595-.07682-1.7435 4.78226-8.54625 6.89552-11.41734z" opacity=".05" transform="translate(135.527 72.1221)"/><path d="m18.4426 24.8365s-1.0673-6.3059-4.658-8.6345c0 0 .3399-7.88613 1.3614-12.27692.1481-.71677.375-1.41495.6767-2.08183l-15.71973-1.84324801-.1029684.12418701 14.6589984 1.719061c-.3017.66688-.5286 1.36506-.6767 2.08183-1.0215 4.38916-1.3614 12.27692-1.3614 12.27692 3.5956 2.3286 4.658 8.6345 4.658 8.6345 0 1.6488 2.5235 7.7619 2.5235 7.7619-.4004.5148-1.9139.6536-3.0874.6896.9317.0245 3.6905.0327 4.2495-.6896-.0049 0-2.5219-6.1115-2.5219-7.7619z" opacity=".05" transform="translate(141.797 67.2705)"/></g><path d="m5.3092 1.6488c-.11695.28707-.27138.5574-.45927.80396-.58348.786-1.79785 1.82528-4.019 1.54095-.163389-.02133-.318471-.08458-.450159-.1836s-.235493-.23045-.3013132-.38148c-.0658206-.15102-.0914115-.31652-.07428836-.48037.01712316-.16385.07637496-.32048.17199956-.45464.570407-.79417 1.518361-1.776256 2.925581-2.241971.40137-.133271.81732-.2177635 1.23889-.25165099z" fill="#f7bbc3" transform="translate(133.582 64.2638)"/><path d="m9.34265 2.84494-7.7814-2.84493801s-2.232591 1.16346801-1.358185 2.81389801l7.568925 4.75356z" fill="#d9d9ea" transform="translate(150.043 35.9369)"/><path d="m9.34265 2.84494-7.7814-2.84493801s-2.232591 1.16346801-1.358185 2.81389801l7.568925 4.75356z" fill="#000" opacity=".1" transform="translate(150.043 35.9369)"/><path d="m4.17582.191877s-.09643 4.559103 1.94004 6.111483c2.03646 1.55239-5.919809 2.42499-5.919809 2.42499s1.261759-4.65715 0-7.08214c-1.261761-2.424982 3.979769-1.454333 3.979769-1.454333z" fill="#f7bbc3" transform="translate(155.473 33.9001)"/><path d="m16.6938 1.83998c-.3016.66687-.5286 1.36507-.6767 2.08183-9.38469 1.4331-15.91577-2.47074-15.91577-2.47074-.0359571-.05556-.0702787-.11275-.10133239-.16341.58675039-.839922.98064239-1.2876582.98064239-1.2876582z" fill="#000" opacity=".1" transform="translate(140.828 67.2754)"/><path d="m2.20808 1.6488c-.11695.28707-.27138.5574-.45927.80397-.89892-.14871-1.616425-1.866133-1.7488116-2.201121.4013666-.133271.8173186-.2177635 1.2388816-.25165099z" fill="#000" opacity=".1" transform="translate(136.684 64.2638)"/><path d="m23.4831.000001-3.4927 1.261519-1.4563 1.93966s-3.0073.97065-3.3963.97065c-.3889 0-1.4562.38727-2.1345 1.93966-.6783 1.55238-3.10536 9.11981-5.23989 10.38131-2.13453 1.2616-7.76341239 9.7016-7.76341239 9.7016s.97083539 2.6146 2.13453239 2.2322l2.71801-2.2322s-2.13452 2.1341-.87276 4.0754c0 0 7.95622 4.7536 18.92152 1.8433l.0964-2.9103.4903 2.3286 5.423-3.3973s-.4904-6.2618-1.3631-9.4499c-.3633-1.3397-.2304-2.7655.3742-4.015 1.4089-2.9414 3.5827-7.84362 3.3179-9.62641-.3122-2.10634-1.5037-3.02143-1.9613-3.29922-.1041-.06248-.2208-.101-.3416-.11275l-1.7668-.17648z" fill="#d9d9ea" transform="translate(136.949 38.1674)"/><path d="m12.1305.0000016s-1.9416 9.0266984-4.07616 10.4777984c-2.13453 1.451-7.859846 6.1115-8.0543404 6.8876" fill="#000" opacity=".05" transform="translate(142.332 47.9164)"/><path d="m12.1289 0s-1.94 9.02016-4.07456 10.4745c-2.13453 1.4543-7.859851 6.1115-8.05434479 6.8877" fill="#d9d9ea" transform="translate(141.461 47.6288)"/><g fill="#000"><path d="m.00000359 1.74603s6.70105641-2.232166 8.63618641-1.6487968z" opacity=".1" transform="translate(155.434 39.5735)"/><g opacity=".05"><path d="m4.56325 13.1136c1.40886-2.9414 3.58262-7.84367 3.31785-9.62646-.31217-2.10634-1.50365-3.021425-1.96128-3.29922-.10408-.062485-.22078-.1010021-.34161-.1127526l-.75509-.0751666c.07886.0189437.15436.049801.22391.0915085.45437.2777947 1.64584 1.1912507 1.96128 3.2992207.26478 1.78769-1.90897 6.68997-3.31782 9.62637-.60466 1.2495-.73758 2.6753-.37429 4.015.87604 3.1865 1.36309 9.4499 1.36309 9.4499l-4.67929718 2.9234.11932818.5687 5.424579-3.3973s-.49032-6.2618-1.36309-9.4499c-.36035-1.3402-.22455-2.7653.38244-4.0133z" opacity=".05" transform="translate(160.312 39.7247)"/><path d="m3.14132 1.35793.84009.08497-3.654525-1.4428988-.32688061.1176518z" opacity=".05" transform="translate(160.102 38.1674)"/></g><path d="m-.0000012 1.35793s3.0073112-1.648797 3.9781412-1.2615178c.97084.3872788 4.55999-.0964106 4.55999-.0964106" opacity=".05" transform="translate(153.59 55.6783)"/><path d="m3.83977 1.01165c-.11114-.9804491.33996-.81704.33996-.81704s-5.24317-.977182-3.984677 1.4478c.319515.66859.502853 1.39403.539351 2.13412h.04903c1.454616 0 2.304506-1.62755 3.056336-2.76488z" opacity=".05" transform="translate(155.484 34.2928)"/></g><path d="m4.17263 8.34365c2.30448 0 4.17264-1.86779 4.17264-4.17182 0-2.30404-1.86816-4.17183-4.17264-4.17183s-4.17262521 1.86779-4.17262521 4.17183c0 2.30403 1.86814521 4.17182 4.17262521 4.17182z" fill="#f7bbc3" transform="translate(152.086 29.3384)"/><path d="m12.4337 7.15606c.3792-.83012.6537-1.7305.6096-2.64232s-.4544-1.83671-1.2111-2.34655c-.3922-.26309-.8531-.40525-1.2585-.64546-.3171-.18792-.59654-.4314-.8989-.642199-.73952-.50255-1.59849-.8013007-2.4903-.8661372-.89182-.0648365-1.78498.1065312-2.58943.4968312-.76654.384011-1.41866.955945-2.14107 1.416755-.7224.46081-1.573926.81704-2.4205467.67815-.1454623.40362.2108377.80233.5409867 1.07849.62434.52291 1.33204 1.04582 2.14597 1.0638.31544 0 .65377-.06047.93325.0719.19307.10614.35699.25824.47724.44283.39161.5205.7233 1.08345.98882 1.67821.1095.24348.21901.5082.44292.65363.37428.24022.86133.04086 1.30752.02288.69136-.02614 1.30752.40853 1.82399.87261.51648.46408.99862.99679 1.64425 1.2419.4903.18302 1.4464.17648 1.6916-.39871.0931-.21734-.085-.68305-.0491-.94777.0572-.4363.2697-.84156.4528-1.22884z" fill="#000" opacity=".1" transform="translate(148.375 27.5879)"/><path d="m12.4337 7.15606c.3791-.83012.6537-1.7305.6096-2.64232s-.4544-1.83671-1.2111-2.34655c-.3922-.26309-.8531-.40525-1.2585-.64546-.3171-.18792-.59653-.4314-.8989-.642201-.73952-.50255-1.59848-.8013006-2.4903-.8661371s-1.78497.1065331-2.58943.4968341c-.76653.38401-1.41866.955944-2.14106 1.416754-.72241.46081-1.573931.81704-2.4205524.67815-.1454616.40362.2108374.80233.5409874 1.07849.624345.52291 1.332035 1.04582 2.145975 1.0638.31544 0 .65375-.06047.93323.07189.19308.10615.35699.25825.47725.44284.39377.51967.72767 1.08208.99535 1.67658.10951.24348.21902.5082.44293.65363.37428.24021.86133.04085 1.30752.02288.69136-.02615 1.30752.40852 1.82399.8726s.99862.9968 1.64421 1.24191c.4903.18302 1.4465.17648 1.6916-.39872.0932-.21733-.085-.68305-.049-.94777.0506-.42976.2696-.84155.4462-1.2272z" fill="#a1616a" transform="translate(148.477 27.4915)"/></svg>