<svg fill="none" height="208" viewBox="0 0 1218 208" width="1218" xmlns="http://www.w3.org/2000/svg" xmlns:xlink="http://www.w3.org/1999/xlink"><linearGradient id="a"><stop offset="0" stop-color="#808080" stop-opacity=".25"/><stop offset=".54" stop-color="#808080" stop-opacity=".12"/><stop offset="1" stop-color="#808080" stop-opacity=".1"/></linearGradient><linearGradient id="b" gradientTransform="matrix(0 -55.5243 55.7738 0 12.4475 55.5243)" gradientUnits="userSpaceOnUse" x2="1" xlink:href="#a"/><linearGradient id="c" gradientTransform="matrix(0 -200.648 -199.402 0 151.866 200.621)" gradientUnits="userSpaceOnUse" x2="1" xlink:href="#a"/><path d="m140.685 66.3132c77.698 0 140.685-14.8447 140.685-33.1566s-62.987-33.15660202-140.685-33.15660202c-77.6981 0-140.685 14.84470202-140.685 33.15660202s62.9869 33.1566 140.685 33.1566z" fill="#2c7be5" opacity=".1" transform="translate(0 156.687)"/><path d="m13.7788-.00000235s13.1039 13.04530235 5.7075 32.41090235c-7.3963 19.3657 12.6811 51.5483 12.6811 51.5483s-.2156-.0303-.6136-.1019c-26.91265-4.7355-40.28742-35.3771-25.32061-58.1437 5.56381-8.4639 10.11881-18.39163 7.54561-25.71360235z" fill="#2c7be5" transform="translate(20.6406 99.4507)"/><path d="m3.0337-.00000235s7.3963 15.98950235 0 29.03470235c-7.39634 13.0453-1.26865 49.6579 18.3886 54.9189" stroke="#535461" stroke-miterlimit="10" stroke-width="2" transform="translate(31.3828 99.4507)"/><path d="m0 .163169s14.953-2.371869 16.3073 10.970531c1.3544 13.3425 28.7451 15.1888 28.7451 15.1888s-.1796.1211-.5141.3412c-22.598 14.7733-44.217682 9.4049-40.95898-10.2194 1.21061-7.29721 1.11387-14.63018-3.57932-16.281131z" fill="#2c7be5" transform="translate(11.082 152.061)"/><path d="m0 .163169s14.953-2.371869 16.3073 10.970531c1.3544 13.3425 28.7451 15.1888 28.7451 15.1888s-.1796.1211-.5141.3412c-22.598 14.7733-44.217682 9.4049-40.95898-10.2194 1.21061-7.29721 1.11387-14.63018-3.57932-16.281131z" fill="#f5f5f5" opacity=".2" transform="translate(11.082 152.061)"/><path d="m0 0s11.6086 2.53697 10.6523 13.0425c-.95635 10.5056 17.236 23.1133 34.414 13.1168" stroke="#535461" stroke-miterlimit="10" stroke-width="2" transform="translate(11.082 152.224)"/><path d="m306.243 99.2915c-1.921 9.3715-11.783 14.0715-17.308 21.0635-10.412 13.177-6.357 32.425.249 47.839 2.211 5.162 4.721 10.624 3.784 16.157-1.142 6.769-7.209 11.717-13.58 14.342-11.608 4.779-25.511 3.64-36.183-2.969-9.22-5.71-15.826-14.999-25.204-20.45-15.696-9.122-35.674-5.677-52.72.608-12.056 4.444-25.24 10.228-37.222 5.58-8.43-3.269-14.259-11.226-17.435-19.66-1.531-4.072-2.645-8.48-5.572-11.708-1.741-1.926-4.013-3.283-6.3377-4.43-21.2493-10.489-48.0928-4.87-68.7202-16.51-13.9358-7.855-22.86061-22.673-26.8103-38.1256-3.949685-15.4529-3.49087-31.6432-2.487555-47.5694.713095-11.309 1.992805-23.3885 9.250955-32.111 7.6783-9.22606 20.843-12.66279 32.7667-10.904522 11.9237 1.758262 22.7058 8.009862 32.2055 15.375822 11.885 9.2096 22.88 20.6727 37.4546 24.4039 9.925 2.5397 20.365 1.1501 30.602.6686 17.115-.8035 34.235.9851 51.252 2.9442 8.292.9548 16.612 1.9564 24.832 3.4092 1.842.3247 3.685.6741 5.527 1.0484.922.1834 1.843.3797 2.764.5888.719.1568 1.435.3219 2.151.4898 1.129.2641 2.255.5393 3.377.8255 3.223.8254 6.415 1.7747 9.575 2.8479 10.984 3.7339 19.79 10.511 30.163 15.2465 6.76 3.0873 14.132 3.9403 20.533 7.8695 7.886 4.8483 15.113 13.2737 13.093 23.1299z" fill="#2c7be5" opacity=".1" transform="translate(8.41406)"/><path d="m5.92591.0893432s11.35989-.8970162 14.62959 2.9937268c3.2698 3.89074 14.9419 12.81133 10.1244 14.79803-4.8176 1.9866-30.67990405-5.9462-30.67990405-5.9462z" fill="#ffb9b9" transform="translate(161.609 177.11)"/><path d="m55.0796 11.1294c-.0968-1.29977-.6234-2.53101-1.4975-3.50128s-2.0465-1.62489-3.3339-1.86156c-1.7303-.27516-3.6623.21187-5.1493-.71541-.6716-.421-1.1525-1.07863-1.6943-1.65096-2.1227-2.25905-5.3095-3.3018993-8.4162-3.39270159-3.1067-.09080231-6.1692.65762959-9.1542 1.51337159-5.9591 1.70874-12.2554 4.21543-15.4256 9.52044-4.82038 8.076-.3732 18.9612-4.18467 27.5544-1.65837 3.7532-4.82034 6.8185-5.848526 10.7918-1.381974 5.3078 1.343276 10.6926 3.441116 15.761 1.88191 4.5458 3.31128 9.2645 4.26754 14.0881.84301 4.2595 1.31288 8.6868.36208 12.9325-.41736 1.8573-1.10557 3.7477-.7352 5.6132.55279 2.8227 3.29466 4.6037 5.78776 6.0537l.6495.38c3.5931 2.091 7.2885 4.226 11.4041 4.743 2.5566.319 5.2515-.033 7.4626-1.334 2.2112-1.302 3.8944-3.624 4.0824-6.18.21-2.8922-1.4069-5.5998-1.7551-8.4807-.0799-.434-.0466-.8812.0967-1.2987.2294-.5504.7629-.9053 1.2548-1.2465 7.0868-4.9198 10.8873-14.1266 9.3201-22.585-1.0669-5.7618-4.3836-11.4906-2.7778-17.1286.8873-3.1148 3.173-5.638 4.4555-8.6125 1.355-3.1768 1.5236-6.7315.4754-10.0213-.7324-2.2728-2.0591-4.5428-1.6031-6.8789.8043-4.1494 6.3571-5.4729 8.455-9.1491 1.5561-2.735.6357-6.60377-1.9901-8.34278" fill="#b96b6b" transform="translate(65.75 30.6348)"/><path d="m55.0796 11.1294c-.0968-1.29977-.6234-2.53101-1.4975-3.50128s-2.0465-1.62489-3.3339-1.86156c-1.7303-.27516-3.6623.21187-5.1493-.71541-.6716-.421-1.1525-1.07863-1.6943-1.65096-2.1227-2.25905-5.3095-3.3018993-8.4162-3.39270159-3.1067-.09080231-6.1692.65762959-9.1542 1.51337159-5.9591 1.70874-12.2554 4.21543-15.4256 9.52044-4.82038 8.076-.3732 18.9612-4.18467 27.5544-1.65837 3.7532-4.82034 6.8185-5.848526 10.7918-1.381974 5.3078 1.343276 10.6926 3.441116 15.761 1.88191 4.5458 3.31128 9.2645 4.26754 14.0881.84301 4.2595 1.31288 8.6868.36208 12.9325-.41736 1.8573-1.10557 3.7477-.7352 5.6132.55279 2.8227 3.29466 4.6037 5.78776 6.0537l.6495.38c3.5931 2.091 7.2885 4.226 11.4041 4.743 2.5566.319 5.2515-.033 7.4626-1.334 2.2112-1.302 3.8944-3.624 4.0824-6.18.21-2.8922-1.4069-5.5998-1.7551-8.4807-.0799-.434-.0466-.8812.0967-1.2987.2294-.5504.7629-.9053 1.2548-1.2465 7.0868-4.9198 10.8873-14.1266 9.3201-22.585-1.0669-5.7618-4.3836-11.4906-2.7778-17.1286.8873-3.1148 3.173-5.638 4.4555-8.6125 1.355-3.1768 1.5236-6.7315.4754-10.0213-.7324-2.2728-2.0591-4.5428-1.6031-6.8789.8043-4.1494 6.3571-5.4729 8.455-9.1491 1.5561-2.735.6357-6.60377-1.9901-8.34278" fill="#000" opacity=".1" transform="translate(65.75 30.6348)"/><path d="m59.425 31.6432h-59.425v-31.64320202l33.1674 12.65730202 26.2576-12.65730202z" fill="#777b9b" transform="translate(72.8281 154.348)"/><path d="m59.425 31.6432h-59.425v-31.64320202l33.1674 12.65730202 26.2576-12.65730202z" fill="#000" opacity=".1" transform="translate(72.8281 154.348)"/><path d="m11.9967 3.17992s-10.77938 2.56447-11.884958 7.26418c-1.105581 4.6997 6.357088 4.2732 6.357088 4.2732s10.50307-2.138 11.88497-10.68439c1.382-8.54643-6.3571-.85299-6.3571-.85299z" fill="#ffb9b9" transform="translate(113.074 185.852)"/><path d="m11.9967 3.17992s-10.77938 2.56447-11.884958 7.26418c-1.105581 4.6997 6.357088 4.2732 6.357088 4.2732s10.50307-2.138 11.88497-10.68439c1.382-8.54643-6.3571-.85299-6.3571-.85299z" fill="#000" opacity=".1" transform="translate(113.074 185.852)"/><path d="m10.3013 12.8256s-10.163075.6576-10.30127256 8.8656c-.01934764 1.1006 10.58597256 1.4198 23.17577256-5.3189 12.5898-6.7386 13.4466-7.44849 13.4466-7.44849s-4.8646-7.80351-8.2919-8.8656225c-3.4273-1.0621075-18.0292 12.7674125-18.0292 12.7674125z" fill="#cbcdda" transform="translate(85.8203 190.531)"/><path d="m3.12111 6.63971s-11.60861 9.63059 9.95019 23.11329c21.5589 13.4828 42.2885 11.0064 42.2885 11.0064s22.4875-2.6498 25.8927-13.1581-16.7716-19.31064-16.7716-19.31064-22.1117 0-32.0619-6.32865-29.29789 4.6777-29.29789 4.6777z" fill="#777b9b" transform="translate(33.5039 165.315)"/><path d="m13.2015 2.88726s9.9502 5.77833 23.4936 0c10.4201-4.44657 33.278-2.702061 43.2642-1.65096 4.6821.48704 8.6926 3.69812 9.9723 8.20797 1.0448 3.67883.2764 8.19973-5.9757 12.43713-13.8197 9.3554-23.4936 12.107-27.0867 15.9592-3.5931 3.8523-13.8198 5.7784-13.8198 5.7784s-12.9906-1.9261-12.9906-4.6777 11.885-16.2344 11.885-16.2344-17.4129 15.9592-35.37856-5.5032c-17.96574-21.46232 6.63626-14.31644 6.63626-14.31644z" fill="#777b9b" transform="translate(86.1641 152.559)"/><path d="m35.1022 56.0712-35.10219899-23.9388s16.83799899-11.3668 18.28349899-21.5256c.3284-1.98053-.0794-4.01228-1.147-5.71509-6.9099-11.00635 24.3228 0 24.3228 0 .2018 2.86602.5942 5.71559 1.1747 8.52989 1.3571 6.7001 4.2205 15.6235 10.1575 20.0866 10.2266 7.7044-17.6893 22.563-17.6893 22.563z" fill="#ffb9b9" transform="translate(59.2852 60.5771)"/><path d="m26.4955 13.4106c-3.8191 2.2114-8.2545 3.1332-12.6434 2.6279-4.38886-.5054-8.49572-2.4109-11.70698-5.4317.32835-1.98053-.07943-4.01228-1.147041-5.71509-6.909879-11.00635 24.322821 0 24.322821 0 .2022 2.86233.5947 5.70819 1.1746 8.51889z" fill="#000" opacity=".1" transform="translate(75.4258 60.5771)"/><path d="m20.4533 40.7235c11.296 0 20.4532-9.1163 20.4532-20.3618 0-11.24544-9.1572-20.36170202-20.4532-20.36170202-11.29607 0-20.4533 9.11626202-20.4533 20.36170202 0 11.2455 9.15723 20.3618 20.4533 20.3618z" fill="#ffb9b9" transform="translate(71.1719 35.4795)"/><path d="m70.7572 2.75158s-4.1459 24.21392-11.0558 22.83812c-6.9099-1.3757-28.4687-25.58970235-28.4687-25.58970235s-22.38805 7.42928235-18.7949 25.58970235c3.5931 18.1605 7.1863 33.5694-.2764 39.3477-7.46268 5.7784-12.16139899 32.7439-12.16139899 32.7439s23.76999899-9.9057 36.20779899-6.0535 25.152 1.9261 28.1923-1.6509c3.0404-3.5771 7.4627-11.2815 7.4627-11.2815s-6.3571-9.3554-3.3168-14.0331c3.0404-4.6777 6.9099-4.9529 9.1211-18.1605 2.2111-13.2076 19.624-17.8853 16.3073-25.3146s-9.6738-18.43562-23.2172-18.43562z" fill="#000" opacity=".1" transform="translate(33.582 80.0522)"/><path d="m70.7572 2.75158s-4.1459 24.21392-11.0558 22.83812c-6.9099-1.3757-28.4687-25.58970235-28.4687-25.58970235s-22.38805 7.42928235-18.7949 25.58970235c3.5931 18.1605 7.1863 33.5694-.2764 39.3477-7.46268 5.7784-12.16139899 32.7439-12.16139899 32.7439s23.76999899-9.9057 36.20779899-6.0535 25.152 1.9261 28.1923-1.6509c3.0404-3.5771 7.4627-11.2815 7.4627-11.2815s-6.3571-9.3554-3.3168-14.0331c3.0404-4.6777 6.9099-4.9529 9.1211-18.1605 2.2111-13.2076 19.624-17.8853 16.3073-25.3146s-9.6738-18.43562-23.2172-18.43562z" fill="#cbcdda" transform="translate(33.582 78.9517)"/><path d="m3.86953 1.07484s11.05577-2.75158 14.92537.55032c3.8695 3.3019 16.8601 10.18084 12.4378 12.93244-4.4224 2.7516-31.23269899-.8255-31.23269899-.8255z" fill="#ffb9b9" transform="translate(117.055 179.961)"/><g fill="#000" opacity=".05"><path d="m27.7446 25.5897c.646.1214 1.3143.0246 1.8988-.2751-7.6783-2.9497-27.6036-25.31460235-27.6036-25.31460235s-.78497.26140435-2.03980034.80346635c3.80873034 4.212676 21.58920034 23.561836 27.74460034 24.786236z" opacity=".05" transform="translate(62.7734 78.9517)"/><path d="m42.4516.367621c7.6229-2.919431-14.0962 12.106979-16.3074 25.314579-2.2111 13.2076-6.0807 13.4828-9.121 18.1605-3.0404 4.6777 3.3167 14.0331 3.3167 14.0331s-4.4223 7.7044-7.4626 11.2815c-1.7413 2.0499-6.6584 3.5523-12.87729798 3.7421 7.50136798.2367 13.64839798-1.4005 15.64119798-3.7421 3.0404-3.5771 7.4627-11.2815 7.4627-11.2815s-6.3571-9.3554-3.3168-14.0331c3.0404-4.6777 6.9099-4.9529 9.1211-18.1605s11.7468-24.62668 13.5434-25.314579z" opacity=".05" transform="translate(82.3438 99.7715)"/><path d="m.212822 5.79177c-.1409612.73467-.21282099 1.15016-.21282099 1.15016s15.45599899-6.441446 27.96569899-6.9147193c-9.6545-.3989797-22.131 3.6898593-27.752878 5.7645593z" opacity=".05" transform="translate(33.582 169.694)"/></g><path d="m12.4751-.00000235s2.4876.27515835 4.9751 13.20760235c2.4876 12.9325 12.1614 25.3146 12.1614 25.3146 3.8236 5.0926 6.8092 10.7583 8.8447 16.7847 3.3167 9.9057 18.1038 22.9757 23.3554 23.526 0 0-10.0885 10.0433-8.9829 12.7949s-1.1056 0-1.1056 0-13.8197-5.228-16.8601-13.7579c-3.0403-8.5299-16.3073-22.2879-16.3073-22.2879s-17.689303-34.1196-18.5184894-39.6228c-.8291856-5.5032 12.4377894-15.95920235 12.4377894-15.95920235z" fill="#cbcdda" transform="translate(113.148 98.7632)"/><path d="m.00000101.00000605s21.28239899 2.47642395 25.98119899 9.08023395c4.6987 6.60376 26.4648-3.83571 26.4648-3.83571" fill="#000" opacity=".1" transform="translate(49.4766 145.127)"/><path d="m23.0618 6.08212s9.121 33.29418 12.4377 37.42158c3.3168 4.1274 29.0216 37.9719 41.1829 35.7706 0 0-3.5931 15.4089-6.0807 15.9592 0 0-25.1519-24.7643-33.7202-24.4891 0 0-15.7545-12.9325-17.4129-19.2611-1.6584-6.3287-14.92533-26.9656-14.92533-26.9656s-6.63349-14.58336-3.869535-20.91201 17.412865-3.5770625 22.388065 2.47643z" fill="#000" opacity=".1" transform="translate(47.2812 101.486)"/><path d="m23.0618 6.08212s9.121 33.29418 12.4377 37.42158c3.3168 4.1274 29.0216 37.9719 41.1829 35.7706 0 0-3.5931 15.4089-6.0807 15.9592 0 0-25.1519-24.7643-33.7202-24.4891 0 0-15.7545-12.9325-17.4129-19.2611-1.6584-6.3287-14.92533-26.9656-14.92533-26.9656s-6.63349-14.58336-3.869535-20.91201 17.412865-3.5770625 22.388065 2.47643z" fill="#cbcdda" transform="translate(47.5547 100.936)"/><path d="m55.0796 11.1294c-.0968-1.29977-.6234-2.53101-1.4975-3.50128s-2.0465-1.62489-3.3339-1.86156c-1.7303-.27516-3.6623.21187-5.1493-.71541-.6716-.421-1.1525-1.07863-1.6943-1.65096-2.1227-2.25905-5.3095-3.3018993-8.4162-3.39270159-3.1067-.09080231-6.1692.65762959-9.1542 1.51337159-5.9591 1.70874-12.2554 4.21543-15.4256 9.52044-4.82038 8.076-.3732 18.9612-4.18467 27.5544-1.65837 3.7532-4.82034 6.8185-5.848526 10.7918-1.381974 5.3078 1.343276 10.6926 3.441116 15.761 1.88192 4.5458 3.31128 9.2645 4.26755 14.0881.843 4.2595 1.31288 8.6868.36208 12.9325-.41736 1.8573-1.10559 3.7477-.73522 5.6132.55279 2.8227 3.29467 4.6037 5.78777 6.0537l.6495.38c3.5931 2.091 7.2885 4.226 11.4041 4.743 2.5566.319 5.2515-.033 7.4626-1.334 2.2112-1.302 3.8944-3.624 4.0824-6.18.21-2.8922-1.4069-5.5998-1.7551-8.4807-.0799-.434-.0466-.8812.0967-1.2987.2294-.5504.7629-.9053 1.2548-1.2465 7.0868-4.9198 10.8873-14.1266 9.3201-22.585-1.0669-5.7618-4.3836-11.4906-2.7778-17.1286.8873-3.1148 3.173-5.638 4.4555-8.6125 1.355-3.1768 1.5236-6.7315.4754-10.0213-.7324-2.2728-2.0591-4.5428-1.6031-6.8789.8043-4.1494 6.3571-5.4729 8.455-9.1491 1.5561-2.735.6357-6.60377-1.9901-8.34278" fill="#000" opacity=".1" transform="translate(51.3789 25.4062)"/><path d="m55.0796 11.1294c-.0968-1.29977-.6234-2.53101-1.4975-3.50128s-2.0465-1.62489-3.3339-1.86156c-1.7303-.27516-3.6623.21187-5.1493-.71541-.6716-.421-1.1525-1.07863-1.6943-1.65096-2.1227-2.25905-5.3095-3.3018993-8.4162-3.39270159-3.1067-.09080231-6.1692.65762959-9.1542 1.51337159-5.9591 1.70874-12.2554 4.21543-15.4256 9.52044-4.82038 8.076-.3732 18.9612-4.18467 27.5544-1.65837 3.7532-4.82034 6.8185-5.848526 10.7918-1.381974 5.3078 1.343276 10.6926 3.441116 15.761 1.88192 4.5458 3.31128 9.2645 4.26755 14.0881.843 4.2595 1.31288 8.6868.36208 12.9325-.41736 1.8573-1.10559 3.7477-.73522 5.6132.55279 2.8227 3.29467 4.6037 5.78777 6.0537l.6495.38c3.5931 2.091 7.2885 4.226 11.4041 4.743 2.5566.319 5.2515-.033 7.4626-1.334 2.2112-1.302 3.8944-3.624 4.0824-6.18.21-2.8922-1.4069-5.5998-1.7551-8.4807-.0799-.434-.0466-.8812.0967-1.2987.2294-.5504.7629-.9053 1.2548-1.2465 7.0868-4.9198 10.8873-14.1266 9.3201-22.585-1.0669-5.7618-4.3836-11.4906-2.7778-17.1286.8873-3.1148 3.173-5.638 4.4555-8.6125 1.355-3.1768 1.5236-6.7315.4754-10.0213-.7324-2.2728-2.0591-4.5428-1.6031-6.8789.8043-4.1494 6.3571-5.4729 8.455-9.1491 1.5561-2.735.6357-6.60377-1.9901-8.34278" fill="#b96b6b" transform="translate(50.8242 25.1313)"/><g fill="#2c7be5"><path d="m10.2831 5.09596c.5065-.41113.8757-.96576 1.0586-1.59043.1382-.63286-.1327-1.38954-.7408-1.62067-.6799-.25865-1.40682.20912-1.95685.68514-.55002.47603-1.18297 1.01534-1.90436.91353.37078-.33459.64815-.75911.80509-1.23217s.1881-.97852.09043-1.467133c-.03118-.202524-.11718-.39277-.24875-.550318-.37866-.401731-1.06136-.22837926-1.51465.088053-1.43726 1.007078-1.83803 2.949688-1.84632 4.699698-.14373-.63011-.02211-1.28774-.02764-1.92611s-.18242-1.37579-.72968-1.71148c-.33936-.18153-.72047-.27164-1.10558-.2614-.64677-.02477-1.365398.04127-1.80763.51179-.552791.58333-.4062987 1.56565.071865 2.20127.478164.63561 1.202315 1.04561 1.871195 1.49137.53608.31728.99334.75086 1.33775 1.26847.04051.07179.07384.14737.09951.22564h4.04365c.90918-.45981 1.75157-1.04018 2.50417-1.72525z" transform="translate(114.426 206.012)"/><path d="m87.8937-.00000202h-87.8937v6.05349202h87.8937z" opacity=".1" transform="translate(161.691 62.5825)"/><path d="m87.8937-.00000202h-87.8937v6.05349202h87.8937z" opacity=".1" transform="translate(161.691 88.7227)"/><path d="m87.8937-.00000202h-87.8937v6.05349202h87.8937z" opacity=".1" transform="translate(161.691 115.963)"/><path d="m5.52791-.00000202h-5.52791v15.68400202h5.52791z" opacity=".1" transform="translate(169.434 46.8984)"/><path d="m5.52791-.00000202h-5.52791v1.10063202h5.52791z" opacity=".1" transform="translate(169.434 49.375)"/><path d="m5.52791-.00000202h-5.52791v1.10063202h5.52791z" opacity=".1" transform="translate(169.434 57.9048)"/><path d="m5.52791-.00000202h-5.52791v15.68400202h5.52791z" opacity=".1" transform="translate(177.719 46.8984)"/><path d="m5.52791-.00000202h-5.52791v1.10063202h5.52791z" opacity=".1" transform="translate(177.719 49.375)"/><path d="m5.52791-.00000202h-5.52791v1.10063202h5.52791z" opacity=".1" transform="translate(177.719 57.9048)"/><path d="m5.52791-.00000202h-5.52791v15.68400202h5.52791z" opacity=".1" transform="translate(186.012 46.8984)"/><path d="m5.52791-.00000202h-5.52791v1.10063202h5.52791z" opacity=".1" transform="translate(186.012 49.375)"/><path d="m5.52791-.00000202h-5.52791v1.10063202h5.52791z" opacity=".1" transform="translate(186.012 57.9048)"/><path d="m5.52791-.00000202h-5.52791v15.68400202h5.52791z" opacity=".1" transform="translate(194.305 46.8984)"/><path d="m5.52791-.00000202h-5.52791v1.10063202h5.52791z" opacity=".1" transform="translate(194.305 49.375)"/><path d="m5.52791-.00000202h-5.52791v1.10063202h5.52791z" opacity=".1" transform="translate(194.305 57.9048)"/><path d="m5.52791-.00000202h-5.52791v15.68400202h5.52791z" opacity=".1" transform="translate(202.598 46.8984)"/><path d="m5.52791-.00000202h-5.52791v1.10063202h5.52791z" opacity=".1" transform="translate(202.598 49.375)"/><path d="m5.52791-.00000202h-5.52791v1.10063202h5.52791z" opacity=".1" transform="translate(202.598 57.9048)"/><path d="m5.52791-.00000202h-5.52791v15.68400202h5.52791z" opacity=".1" transform="translate(210.891 46.8984)"/><path d="m5.52791-.00000202h-5.52791v1.10063202h5.52791z" opacity=".1" transform="translate(210.891 49.375)"/><path d="m5.52791-.00000202h-5.52791v1.10063202h5.52791z" opacity=".1" transform="translate(210.891 57.9048)"/><path d="m5.52791-.00000202h-5.52791v15.68400202h5.52791z" opacity=".1" transform="translate(219.18 46.8984)"/><path d="m5.52791-.00000202h-5.52791v1.10063202h5.52791z" opacity=".1" transform="translate(219.18 49.375)"/><path d="m5.52791-.00000202h-5.52791v1.10063202h5.52791z" opacity=".1" transform="translate(219.18 57.9048)"/><path d="m5.52294-.00000235h-5.52294742v15.69820235h5.52294742z" opacity=".1" transform="matrix(.894722 -.446623 .449835 .893112 216.496 102.333)"/><path d="m5.52295.00000202h-5.52294798v1.10162798h5.52294798z" opacity=".1" transform="matrix(.894723 -.446621 .449836 .893111 217.613 104.545)"/><path d="m5.52295 0h-5.52294393v1.10163h5.52294393z" opacity=".1" transform="matrix(.894722 -.446624 .449833 .893112 221.449 112.171)"/><path d="m5.52791-.00000202h-5.52791v15.68400202h5.52791z" opacity=".1" transform="translate(169.434 73.314)"/><path d="m5.52791-.00000202h-5.52791v1.10063202h5.52791z" opacity=".1" transform="translate(169.434 75.79)"/><path d="m5.52791-.00000202h-5.52791v1.10063202h5.52791z" opacity=".1" transform="translate(169.434 84.3203)"/><path d="m5.52791-.00000202h-5.52791v15.68400202h5.52791z" opacity=".1" transform="translate(177.719 73.314)"/><path d="m5.52791-.00000202h-5.52791v1.10063202h5.52791z" opacity=".1" transform="translate(177.719 75.79)"/><path d="m5.52791-.00000202h-5.52791v1.10063202h5.52791z" opacity=".1" transform="translate(177.719 84.3203)"/><path d="m5.52791-.00000202h-5.52791v15.68400202h5.52791z" opacity=".1" transform="translate(186.012 73.314)"/><path d="m5.52791-.00000202h-5.52791v1.10063202h5.52791z" opacity=".1" transform="translate(186.012 75.79)"/><path d="m5.52791-.00000202h-5.52791v1.10063202h5.52791z" opacity=".1" transform="translate(186.012 84.3203)"/><path d="m5.52791-.00000202h-5.52791v15.68400202h5.52791z" opacity=".1" transform="translate(220.562 73.314)"/><path d="m5.52791-.00000202h-5.52791v1.10063202h5.52791z" opacity=".1" transform="translate(220.562 75.79)"/><path d="m5.52791-.00000202h-5.52791v1.10063202h5.52791z" opacity=".1" transform="translate(220.562 84.3203)"/><path d="m5.52791-.00000202h-5.52791v15.68400202h5.52791z" opacity=".1" transform="translate(228.855 73.314)"/><path d="m5.52791-.00000202h-5.52791v1.10063202h5.52791z" opacity=".1" transform="translate(228.855 75.79)"/><path d="m5.52791-.00000202h-5.52791v1.10063202h5.52791z" opacity=".1" transform="translate(228.855 84.3203)"/><path d="m5.52791-.00000202h-5.52791v15.68400202h5.52791z" opacity=".1" transform="translate(237.148 73.314)"/><path d="m5.52791-.00000202h-5.52791v1.10063202h5.52791z" opacity=".1" transform="translate(237.148 75.79)"/><path d="m5.52791-.00000202h-5.52791v1.10063202h5.52791z" opacity=".1" transform="translate(237.148 84.3203)"/><path d="m5.52791-.00000202h-5.52791v15.68400202h5.52791z" opacity=".1" transform="translate(169.434 100.279)"/><path d="m5.52791-.00000202h-5.52791v1.10063202h5.52791z" opacity=".1" transform="translate(169.434 102.755)"/><path d="m5.52791-.00000202h-5.52791v1.10063202h5.52791z" opacity=".1" transform="translate(169.434 111.286)"/><path d="m5.52791-.00000202h-5.52791v15.68400202h5.52791z" opacity=".1" transform="translate(177.719 100.279)"/><path d="m5.52791-.00000202h-5.52791v1.10063202h5.52791z" opacity=".1" transform="translate(177.719 102.755)"/><path d="m5.52791-.00000202h-5.52791v1.10063202h5.52791z" opacity=".1" transform="translate(177.719 111.286)"/><path d="m5.52791-.00000202h-5.52791v15.68400202h5.52791z" opacity=".1" transform="translate(186.012 100.279)"/><path d="m5.52791-.00000202h-5.52791v1.10063202h5.52791z" opacity=".1" transform="translate(186.012 102.755)"/><path d="m5.52791-.00000202h-5.52791v1.10063202h5.52791z" opacity=".1" transform="translate(186.012 111.286)"/><path d="m5.52791-.00000202h-5.52791v15.68400202h5.52791z" opacity=".1" transform="translate(194.305 100.279)"/><path d="m5.52791-.00000202h-5.52791v1.10063202h5.52791z" opacity=".1" transform="translate(194.305 102.755)"/><path d="m5.52791-.00000202h-5.52791v1.10063202h5.52791z" opacity=".1" transform="translate(194.305 111.286)"/><path d="m5.52791-.00000202h-5.52791v15.68400202h5.52791z" opacity=".1" transform="translate(202.598 100.279)"/><path d="m5.52791-.00000202h-5.52791v1.10063202h5.52791z" opacity=".1" transform="translate(202.598 102.755)"/><path d="m5.52791-.00000202h-5.52791v1.10063202h5.52791z" opacity=".1" transform="translate(202.598 111.286)"/><path d="m5.52791-.00000202h-5.52791v15.68400202h5.52791z" opacity=".1" transform="translate(210.891 100.279)"/><path d="m5.52791-.00000202h-5.52791v1.10063202h5.52791z" opacity=".1" transform="translate(210.891 102.755)"/><path d="m5.52791-.00000202h-5.52791v1.10063202h5.52791z" opacity=".1" transform="translate(210.891 111.286)"/><path d="m5.5279 1.04835v14.28625h-5.52790742v-15.33460118c1.85000742.32468718 3.69263742.67413818 5.52790742 1.04835118z" opacity=".1" transform="translate(227.473 47.2451)"/><path d="m5.52791-.00000202h-5.52791v1.10063202h5.52791z" opacity=".1" transform="translate(227.473 49.375)"/><path d="m5.52791-.00000202h-5.52791v1.10063202h5.52791z" opacity=".1" transform="translate(227.473 57.9048)"/><path d="m5.5279 1.32076v12.38214h-5.52790742v-13.70290202c.71862742.15684002 1.43449742.32193902 2.15036742.48978602 1.13137.264152 2.25722.541146 3.37754.830976z" opacity=".1" transform="translate(235.766 48.8823)"/><path d="m5.5279.825475v.275155h-5.52790742v-1.10063118h2.15036742c1.13137.26048318 2.25722.53564218 3.37754.82547618z" opacity=".1" transform="translate(235.766 49.3779)"/><path d="m5.52791-.00000202h-5.52791v1.10063202h5.52791z" opacity=".1" transform="translate(235.766 57.9048)"/><path d="m10.3178 20.5433c5.6984 0 10.3179-4.5987 10.3179-10.2716 0-5.67292-4.6195-10.2717-10.3179-10.2717-5.69835 0-10.3178 4.59878-10.3178 10.2717 0 5.6729 4.61945 10.2716 10.3178 10.2716z" opacity=".1" transform="translate(30.2266 34.2383)"/><path d="m8.7562 17.434c4.8359 0 8.7562-3.9027 8.7562-8.71698s-3.9203-8.71701798-8.7562-8.71701798c-4.83592 0-8.7562 3.90273798-8.7562 8.71701798s3.92028 8.71698 8.7562 8.71698z" opacity=".1" transform="translate(31.7891 35.793)"/><path d="m.624653 1.24372c.344986 0 .624657-.278419.624657-.621862 0-.343442-.279671-.621858-.624657-.621858-.344987 0-.624653.278416-.624653.621858 0 .343443.279666.621862.624653.621862z" opacity=".1" transform="translate(39.9219 43.8882)"/></g><path d="m3.44389 0-3.44388798 5.99846" opacity=".1" stroke="#2c7be5" stroke-miterlimit="10" transform="translate(40.8555 37.9751)"/><path d="m3.34438 1.75276-3.34437848-1.75275849" opacity=".1" stroke="#2c7be5" stroke-miterlimit="10" transform="translate(41.1094 44.7827)"/><path d="m30.6605-.00000537h-28.86393c-.992216 0-1.7965673.80075237-1.7965673 1.78853537v.98782c0 .98778.8043513 1.78853 1.7965673 1.78853h28.86393c.9922 0 1.7966-.80075 1.7966-1.78853v-.98782c0-.987783-.8044-1.78853537-1.7966-1.78853537z" fill="#535461" transform="translate(129.426 196.874)"/><path d="m72.8661-.00000269h-65.06622c-4.30775 0-7.7998854 3.47650269-7.7998854 7.76498269v39.99702c0 4.2885 3.4921354 7.765 7.7998854 7.765h65.06622c4.3077 0 7.7999-3.4765 7.7999-7.765v-39.99702c0-4.28848-3.4922-7.76498269-7.7999-7.76498269z" fill="url(#b)" opacity=".49" transform="translate(149.184 145.972)"/><path d="m68.9966.00000605h-61.57814c-4.0971 0-7.41846 3.30648395-7.41846 7.38524395v39.73015c0 4.0788 3.32136 7.3853 7.41846 7.3853h61.57814c4.0971 0 7.4184-3.3065 7.4184-7.3853v-39.73015c0-4.07876-3.3213-7.38524395-7.4184-7.38524395z" fill="#3e3f49" transform="translate(150.621 146.996)"/><path d="m68.9966.00000605h-61.57815c-4.0971 0-7.4184446 3.30648395-7.4184446 7.38524395v39.73015c0 4.0788 3.3213446 7.3853 7.4184446 7.3853h61.57815c4.0971 0 7.4184-3.3065 7.4184-7.3853v-39.73015c0-4.07876-3.3213-7.38524395-7.4184-7.38524395z" fill="#535461" transform="translate(151.676 146.996)"/><path d="m2.46821 4.91433c1.36315 0 2.4682-1.10011 2.4682-2.45716 0-1.35706-1.10505-2.45716664-2.4682-2.45716664-1.36316 0-2.4682127 1.10010664-2.4682127 2.45716664 0 1.35705 1.1050527 2.45716 2.4682127 2.45716z" fill="#e0e0e0" transform="translate(190.988 171.413)"/><path d="m7.32566.497786s-4.38915-1.480357-6.500814 2.369114c-.557119 1.0437-.8405986 2.21052-.82417124 3.39232.01642734 1.18181.33222924 2.34037.91814424 3.36833 1.381981 2.49565 4.245441 5.73705 9.673881 5.44815 4.5936-.2449 6.1221-3.7339 6.5367-6.98079.159-1.21735.0013-2.45493-.4578-3.59424-.4592-1.13932-1.2044-2.14221-2.1645-2.91264-.96-.770437-2.1026-1.282597-3.3184-1.487464-1.21583-.204866-2.46411-.09556827-3.62534.31743z" fill="#2c7be5" transform="translate(54.1875 197.71)"/><path d="m1.84198 10.0949c-.58592-1.02796-.901717-2.18653-.918145-3.36833-.016427-1.18181.267055-2.34862.824175-3.39233 2.11166-3.852216 6.50081-2.369107 6.50081-2.369107l.22389-.07979c1.67359-.602798 3.51289-.561588 5.15749.115567-.9075-.53796-1.9236-.868817-2.9751-.9687363-1.0515-.0999191-2.11215.033578-3.10555.3908883l-.22388.079807s-4.38916-1.480357-6.500823 2.369111c-.557119 1.04371-.8405984 2.21052-.82417106 3.39232.01642736 1.18181.33222906 2.34037.91814506 3.36833.914869 1.65097 2.465449 3.60737 4.975119 4.67767-1.71267-1.0095-3.11421-2.4676-4.05196-4.2154z" fill="#fff" opacity=".1" transform="translate(54.1914 197.59)"/><path d="m.00000118-.00000672s1.62796882 1.27398672 5.57765882 0z" fill="#000" opacity=".2" transform="translate(59.25 200.061)"/><path d="m-.00000152.00000605s2.78883152 7.52008395 2.55665152 9.48746395l2.21117-.23114s-3.72028-6.60379-2.78883-9.25632395z" fill="#2c7be5" transform="translate(58.8984 190.804)"/><path d="m-.00000152.00000605s2.78883152 7.52008395 2.55665152 9.48746395l2.21117-.23114s-3.72028-6.60379-2.78883-9.25632395z" fill="#000" opacity=".2" transform="translate(58.8984 190.804)"/><path d="m8.62354 1.11878s-4.38916-2.23428-6.3571-.387963c-1.96793 1.846313-2.26644 6.565283-2.26644 6.565283s7.16141.97956 8.62354-6.17732z" fill="#2c7be5" transform="translate(61.6602 190.315)"/><path d="m8.62354 1.11878s-4.38916-2.23428-6.3571-.387963c-1.96793 1.846313-2.26644 6.565283-2.26644 6.565283s7.16141.97956 8.62354-6.17732z" fill="#fff" opacity=".1" transform="translate(61.6602 190.315)"/><path d="m-.00000152 6.17731s1.15257152-5.478407 8.62077152-6.17731z" stroke="#2c7be5" stroke-miterlimit="10" transform="translate(61.6641 191.434)"/><g fill="#2c7be5" opacity=".1"><path d="m2.80214.186628s-1.67495-.566824-2.487556.905272c-.212499.39851-.32059913.84394-.31431859 1.29508.00628055.45114.12674059.89342.35025159 1.28591.530679.95205 1.622453 2.20127 3.689883 2.0802 1.75511-.09355 2.33831-1.42532 2.48756-2.66629.05723-.46419-.00533-.93524-.18177-1.36868-.17644-.43343-.46096-.814947-.82666-1.108509-.36569-.293563-.8005-.489483-1.26339-.56927-.46289-.0797869-.93858-.04080532-1.38213.11327z" opacity=".1" transform="translate(199.902 83.1069)"/><path d="m.704305 3.85486c-.223511-.39249-.343988-.83477-.350268-1.28591-.006281-.45113.101836-.89656.314335-1.29508.807078-1.469342 2.487558-.905261 2.487558-.905261l.08568-.030271c.63945-.230364 1.34227-.214662 1.9707.044026-.34694-.205665-.7354-.3320892-1.13738-.3701559-.40197-.0380668-.80743.0131765-1.1871.1500319l-.08568.030264s-1.67495-.566825-2.487555.905276c-.212499.39851-.32061621.84394-.31433566 1.29508.00628054.45114.12674066.89341.35025166 1.28591.415347.78831 1.082439 1.41658 1.896089 1.78577-.65239-.38592-1.18587-.94271-1.542295-1.60968z" opacity=".1" transform="translate(199.914 83.0596)"/><path d="m-.00000472-.00000067s.62189572.48703067 2.13101472 0z" opacity=".2" transform="translate(201.836 84.0005)"/><path d="m-.00000202-.00000235s1.06413202 2.87266235.97568302 3.62384235l.842999-.08805s-1.420678-2.51771-1.064128-3.53579235z" opacity=".1" transform="translate(201.703 80.4648)"/><path d="m-.00000202-.00000235s1.06413202 2.87266235.97568302 3.62384235l.842999-.08805s-1.420678-2.51771-1.064128-3.53579235z" opacity=".2" transform="translate(201.703 80.4648)"/><path d="m3.29186.427286s-1.67771-.852994-2.426739-.148588c-.749031.704406-.8651183 2.506702-.8651183 2.506702s2.7335373.36871 3.2918573-2.358114z" opacity=".1" transform="translate(202.762 80.2798)"/><path d="m3.29186.427286s-1.67771-.852994-2.426739-.148588c-.749031.704406-.8651183 2.506702-.8651183 2.506702s2.7335373.36871 3.2918573-2.358114z" opacity=".1" transform="translate(202.762 80.2798)"/><path d="m0 2.36086s.439461-2.091208 3.29186-2.36086369z" opacity=".1" transform="translate(202.758 80.7041)"/></g><g fill="#2c7be5" opacity=".1"><path d="m2.80214.186628s-1.67495-.566824-2.487556.905272c-.212499.39851-.32059913.84394-.31431859 1.29508.00628055.45114.12674059.89342.35025159 1.28591.530679.95205 1.622453 2.20127 3.689883 2.0802 1.75511-.09355 2.33831-1.42532 2.48756-2.66629.05723-.46419-.00533-.93524-.18177-1.36868-.17644-.43343-.46096-.814947-.82666-1.108509-.36569-.293563-.8005-.489483-1.26339-.56927-.46289-.0797869-.93858-.04080532-1.38213.11327z" opacity=".1" transform="translate(235.285 110.348)"/><path d="m.704305 3.85486c-.223511-.39249-.343988-.83477-.350268-1.28591-.006281-.45113.101836-.89656.314335-1.29508.807078-1.469342 2.487558-.905261 2.487558-.905261l.08568-.030271c.63945-.230364 1.34227-.214662 1.9707.044026-.34694-.205665-.7354-.3320892-1.13738-.3701559-.40197-.0380668-.80743.0131765-1.1871.1500319l-.08568.030264s-1.67495-.566825-2.487555.905276c-.212499.39851-.32061621.84394-.31433566 1.29508.00628054.45114.12674066.89341.35025166 1.28591.415347.78831 1.082439 1.41658 1.896089 1.78577-.65239-.38592-1.18587-.94271-1.542295-1.60968z" opacity=".1" transform="translate(235.297 110.3)"/><path d="m-.00000472-.00000067s.62189572.48703067 2.13101472 0z" opacity=".2" transform="translate(237.219 111.241)"/><path d="m-.00000202-.00000235s1.06413202 2.87266235.97568302 3.62384235l.842999-.08805s-1.420678-2.51771-1.064128-3.53579235z" opacity=".1" transform="translate(237.086 107.706)"/><path d="m-.00000202-.00000235s1.06413202 2.87266235.97568302 3.62384235l.842999-.08805s-1.420678-2.51771-1.064128-3.53579235z" opacity=".2" transform="translate(237.086 107.706)"/><path d="m3.29186.427286s-1.67771-.852994-2.426739-.148588c-.749031.704406-.8651183 2.506702-.8651183 2.506702s2.7335373.36871 3.2918573-2.358114z" opacity=".1" transform="translate(238.145 107.521)"/><path d="m3.29186.427286s-1.67771-.852994-2.426739-.148588c-.749031.704406-.8651183 2.506702-.8651183 2.506702s2.7335373.36871 3.2918573-2.358114z" opacity=".1" transform="translate(238.145 107.521)"/><path d="m0 2.36086s.439461-2.091208 3.29186-2.36086369z" opacity=".1" transform="translate(238.141 107.945)"/></g><path d="m234.529 98.7482c-8.449 10.8108-5.167 26.6038.202 39.2498 1.798 4.235 3.832 8.715 3.072 13.255-.926 5.552-5.841 9.618-11.024 11.756-9.426 3.922-20.711 2.987-29.37-2.434-7.485-4.687-12.846-12.307-20.459-16.779-12.745-7.482-28.958-4.657-42.792.497-9.787 3.647-20.488 8.392-30.214 4.579-6.8429-2.672-11.5746-9.21-14.1528-16.13-1.2454-3.342-2.1482-6.947-4.514-9.618-1.4126-1.574-3.2553-2.694-5.1459-3.634-17.2592-8.606-39.0323-4.008-55.7817-13.541-11.3247-6.4206-18.57889-18.5801-21.7652-31.2581-3.186314-12.6779-2.84113-25.981-2.02862-39.0276.57885-9.2793 1.61705-19.1839 7.50908-26.34709 6.23194-7.57468 16.92994-10.39348 26.59774-8.95335s18.4328 6.57274 26.1411 12.61644c9.6359 7.5533 18.5709 16.9609 30.4027 20.0228 8.0561 2.0841 16.5316.9432 24.8426.5504 13.892-.6599 27.787.8016 41.603 2.4047 13.226 1.539 26.552 3.2329 39.146 7.5613 8.917 3.0646 16.065 8.6247 24.484 12.5096 5.489 2.5329 11.474 3.2329 16.667 6.4579 6.402 3.973 12.268 10.8851 10.621 18.9701-1.55 7.7002-9.556 11.5557-14.041 17.2921z" fill="#2c7be5" opacity=".1" transform="matrix(-1 0 0 1 1204.61 19.3828)"/><path d="m.00000016 18.6139s48.59129984-12.8249 111.52099984 19.7716c62.93 32.5965 131.701-25.6497 130.373-34.46679-1.327-8.81709 45.671 0 45.671 0v78.81949h-287.56499984z" fill="#2c7be5" opacity=".1" transform="matrix(-1 0 0 1 1218 126.1)"/><path d="m13.2073 26.5795c7.2941 0 13.2072-5.95 13.2072-13.2897 0-7.33977-5.9131-13.2898-13.2072-13.2898-7.29421 0-13.2073 5.95003-13.2073 13.2898 0 7.3397 5.91309 13.2897 13.2073 13.2897z" fill="#ffdf9c" transform="matrix(-1 0 0 1 1197.39 1)"/><path d="m30.6176 55.3423 2.3685 6.7839-1.8215 11.4034s-2.7535 9.0843-2.4774 13.5089c.2762 4.4245 0 10.4763 0 10.4763s-6.6063 12.1302-1.1019 17.1002c1.2798 1.151 2.3499.921 3.2394-.113.8959.495 1.8178.941 2.7615 1.336l-4.6202 18.057-4.4051 8.817s-9.3651 8.015-12.9364 24.826c0 0-3.57131 11.204-5.84156 14.549-.10305.157-.21567.308-.33722.451-.35592-.571-.68122-1.16-.97448-1.766l-4.144858 11.027s8.257858 4.686 14.038318 6.615c5.7806 1.929 12.3868-.267 14.3146-2.757 1.9277-2.49-3.8528-5.237-7.9844-6.893-2.0021-.802-3.096-2.707-3.6961-4.457-.0531-.534-.0956-1.146-.1142-1.801-.0876-3.129.3903-7.353 2.9845-10.559 4.6786-5.79 11.8372-20.124 11.8372-20.124s7.1692-7.719 8.8101-10.752l9.9121-16.651c5.4991 6.271 11.0087 21.06 11.0087 21.06l2.2012 13.509s7.1692 19.298 9.3598 21.227c.0611.054.1222.115.1832.179l.0558.062c.0443.048.0885.099.1328.152l.0531.067c.0584.072.1141.15.1726.23l.0398.061c.0442.064.0885.131.1328.201l.061.098.1169.198.0531.094c.0531.094.1053.191.1566.291l.0558.107.1088.219.0611.128.1115.241.0452.101c.0495.111.0973.223.1434.337l.0531.131.0982.243.0531.136.1222.318.0292.08.1274.35.0452.131.0955.267.0399.118.1274.387.016.054.1088.344.0345.115.1036.34.0239.08.1142.387.0212.078.0876.307.0319.112.0797.291.0239.083.0876.332.0425.16.0398.16.0504.198.0133.053c.0638.254.1222.495.1753.714l.0663.267.0293.131v.035c-.4038-.269-.788-.567-1.1498-.89.1602 1.834.1602 3.68 0 5.514-.2655 2.758 2.4774 6.616 2.4774 6.616s24.7767-6.065 26.1517-10.201-4.4051-3.583-6.0567-3.033c-1.6516.551-9.9094-1.103-11.0114-3.032-.2082-.357-.4568-.687-.7408-.986-.237-.261-.5544-.435-.9012-.492-.3467-.058-.7026.003-1.0106.174l-.061-.07-.0717-.088-.0478-.061-.0877-.115c-.061-.083-.1221-.171-.1832-.267l-.0664-.102c-.1097-.178-.2212-.368-.3345-.569l-.0212-.04c-1.7552-3.225-3.6457-9.808-4.0812-11.374v-.035l-.0345-.128v-.048-.035l-.0186-.064v-.016-.016l-6.3301-20.677c1.9277-7.444 0-11.027 0-11.027l-3.5793-16.817-2.0207-7.614c.0637-.065.093-.105.093-.105-1.6463-4.633-2.9368-14.4597-3.7413-22.0531-.0513-.4934-.1009-.9752-.1487-1.4455l6.0938 2.8242s8.2579 12.6804 13.4887 6.6155c5.2309-6.0651-10.4617-11.302-10.4617-11.302l-9.8882-6.6021-.0212-.2912-1.102-8.2827s-3.0269-9.9233-1.6515-16.5414c1.1709-5.635-2.6553-7.6709-3.8077-8.1518-.1821-.0701-.3694-.1255-.5602-.1657-1.5109-.358-3.1863-1.905-4.6228-3.5616-1.2446-1.4236-2.7021-2.6432-4.3201-3.615.9262-.6173 1.5732-1.5774 1.8002-2.6718.2284-1.2718-.2044-2.5356-.5921-3.7834.5612-1.3776 1.2123-2.7165 1.949-4.0077h.0451c.1151-.196.2266-.3821.3346-.5584 2.9035-.3406 5.5822-1.7403 7.5292-3.9343 1.9469-2.194 3.0271-5.0301 3.036-7.9715.0025-2.0238-.5084-4.0148-1.4842-5.7845 1.2347-.4302 2.4162-.9753 1.9702-2.2497-.3027-.86303-1.1073-1.42412-1.7339-2.08674-1.6596-1.7554-2.1641-4.38984-3.898-6.07043-.5011-.47886-1.0816-.86587-1.7152-1.14355-1.7631-1.0046143-4.0175-1.132864-6.0541-.758805-2.5198.464901-4.8697 1.581735-7.3311 2.300455-2.1641.63056-4.429.95653-6.5028 1.84625-3.5394 1.51494-6.2637 4.59557-7.8967 8.08502-1.4445 3.0833-2.1242 6.5006-3.6935 9.5171-1.5692 3.0165-4.4794 5.7338-7.8781 5.6109-.8789-.0294-1.7897-.2432-2.6128.0641-.6455.2832-1.1796.7737-1.5188 1.3947-1.8587 3.0593-.66648 7.1793-2.15078 10.4389-1.10458 2.426-3.4837 3.9597-5.43267 5.7739-1.94896 1.8141-3.624425 4.5074-2.70305 7.0109.472637 1.2825 1.55598 2.2176 2.81989 2.7814.64308.3585 1.33714.6153 2.05782.7615 1.85869.3767 3.75985.1496 5.64239.016 5.0902-.3607 10.6583-.1683 14.6996-3.2891 1.6648-1.2851 2.9473-3.0592 4.2803-4.7318.0143 2.5468.3019 5.0846.8576 7.5693zm7.3312 17.3377c.4142.6866.8337 1.3706 1.2692 2.0439 4.0466 6.2521-1.4418 14.8047-1.4418 14.8047-1.252 1.0314-2.3282 2.2615-3.1863 3.6417.0717-2.6317.377-5.6376 1.2586-7.7777 1.3701-3.3318 1.9171-9.4637 2.1003-12.7207z" fill="url(#c)" transform="matrix(-1 0 0 1 1125.35 8.20801)"/><path d="m7.78468 0-2.15076 13.4688s-2.68977 8.8865-2.41894 13.1936c.27084 4.307 0 10.2331 0 10.2331s-6.45229 11.847-1.07538 16.6937c5.3769 4.8467 6.9913-15.3471 6.9913-15.3471s-.79658-8.6167 1.0754-13.1935c1.8719-4.5769 2.1507-14.5402 2.1507-14.5402z" fill="#ffcdd3" transform="matrix(-1 0 0 1 1099.33 68.894)"/><path d="m7.78468 0-2.15076 13.4688s-2.68977 8.8865-2.41894 13.1936c.27084 4.307 0 10.2331 0 10.2331s-6.45229 11.847-1.07538 16.6937c5.3769 4.8467 6.9913-15.3471 6.9913-15.3471s-.79658-8.6167 1.0754-13.1935c1.8719-4.5769 2.1507-14.5402 2.1507-14.5402z" fill="#000" opacity=".05" transform="matrix(-1 0 0 1 1099.33 68.894)"/><path d="m24.5187.00000228 3.7173 14.01919772 3.4944 16.4238s1.8826 3.5001 0 10.7702l6.1841 20.1938s3.4943 12.9237 5.6451 13.1936c2.1507.2699-2.1508 10.2332-2.1508 10.2332l-5.9159-3.5001s-1.6144-8.077-3.7652-9.9634c-2.1507-1.8863-9.142-20.7335-9.142-20.7335l-2.1508-13.1936s-6.7205-18.0402-12.63639-22.3499c-5.91592-4.3097-7.79850352-11.30996-7.79850352-11.30996z" fill="#ffcdd3" transform="matrix(-1 0 0 1 1084.55 115.194)"/><path d="m-.00000194 3.78066s1.88258194 7.00024 7.79850194 11.30994c5.9159 4.3097 12.6364 22.35 12.6364 22.35l2.1507 13.1936s6.9914 18.8471 9.1421 20.7335c1.5772 1.384 2.8677 6.1051 3.4519 8.5178.2097.8764.3239 1.4455.3239 1.4455l5.9159 3.5001s4.3015-9.9633 2.1508-10.2332c-.3346-.04-.6983-.3874-1.0807-.9431-2.0711-3.0219-4.5644-12.2504-4.5644-12.2504l-6.1841-20.1939c1.8826-7.27 0-10.7702 0-10.7702l-3.4943-16.4238-3.7174-14.01649804z" fill="#000" opacity=".05" transform="matrix(-1 0 0 1 1084.55 115.203)"/><path d="m.00000194 68.6611 2.15076806 5.1166 9.67843-1.0688c-.2978-1.3899-.4632-2.8053-.4939-4.2268-.085-3.0566.3824-7.1819 2.9208-10.3134 4.5644-5.6696 11.5477-19.6647 11.5477-19.6647s6.9913-7.54 8.6031-10.5004l13.4595-22.60914-.4195-2.02794 3.6297-3.36651739h-22.5777l-5.3769 21.00069739-4.3015 8.6167s-9.14208 7.8098-12.6364 24.2337c0 0-3.48636 10.9545-5.708812 14.2088-.138528.2156-.297714.4169-.47528606.6012z" fill="#ffcdd3" transform="matrix(-1 0 0 1 1118.97 120.33)"/><path d="m-.0000013 6.23074c.2097653.87636.3239503 1.44548.3239503 1.44548l5.915911 3.50008s4.30154-9.96328 2.15076-10.233138c-.33457-.040078-.69832-.387426-1.08068-.94316983-.27932.16745683-.49726.42141083-.62123.72386383-.12396.302454-.14729.637164-.06649.954064.08446.40197.22762.78914.42484 1.14889.79657 1.33592-2.68977 3.50013-2.68977 3.50013-1.17894 1.52028-3.09073.72138-4.3572913-.0962z" fill="#000" opacity=".1" transform="matrix(-1 0 0 1 1049.39 188.852)"/><path d="m7.93641 1.92783c-.36908-1.552342 1.56926-2.594372 2.65529-1.429447.2769.291405.5193.614197.7222.961877 1.0754 1.88365 9.1421 3.50011 10.7538 2.96307 1.6117-.53705 7.2595-1.06874 5.9159 2.96308-1.3435 4.03179-25.53826 9.96329-25.53826 9.96329s-2.692443-3.7726-2.4269166-6.4632c.1564566-1.79201.1564566-3.59438 0-5.38641 0 0 3.7651666 3.50012 5.6450866 1.06874 0 0 3.49433-2.15352 2.68978-3.50013-.19372-.35771-.33418-.74209-.41688-1.14087z" fill="#dce6f2" transform="matrix(-1 0 0 1 1050.43 189.145)"/><path d="m.00000194.915277 2.15076806 5.116593 9.67843-1.06874c-.2978-1.38995-.4632-2.80531-.4939-4.226862-.0962-.192647-.2372-.359013-.4112-.484892-.1739-.125878-.3755-.2075255-.5876-.2379772s-.4284-.00879679-.63038.0631106c-.20198.0719076-.38366.1919196-.52953.3498156-.49919.534369-1.00635 1.106155-1.37809 1.576395-1.07538 1.33592-4.5697.53437-4.5697.53437-.90544.30192-1.98083-1.00728-2.750854-2.214955-.139791.212869-.29986.411516-.47794406.593142z" fill="#000" opacity=".1" transform="matrix(-1 0 0 1 1118.97 188.076)"/><path d="m13.7463 1.9264c.1612-.17399.3656-.30153.5922-.36941.2266-.06789.4671-.07366.6966-.01673.2295.05692.4398.17448.6091.34053.1692.16606.2914.37458.3537.60402.4886 1.91571 1.5613 4.38717 3.9006 5.32499 4.0334 1.6031 9.6785 4.307 7.7985 6.7304-1.8799 2.4233-8.3375 4.5822-13.9852 2.6932-5.64777-1.889-13.71180097-6.4632-13.71180097-6.4632l4.03334097-10.77020196s2.15076 4.57687196 3.76516 4.03983196c0 0 3.4943.80155 4.5697-.53437.3744-.47292.8789-1.03934 1.3781-1.57906z" fill="#dce6f2" transform="matrix(-1 0 0 1 1123.81 187.105)"/><path d="m17.7451 6.73038s-6.4523 8.88652-4.8405 15.07992c1.6117 6.1933-12.90460389-4.0399-12.90460389-4.0399s7.52767389-6.7303 6.18411389-17.77040196z" fill="#ffcdd3" transform="matrix(-1 0 0 1 1091.27 30.9351)"/><path d="m.304773 74.9928c10.753827 6.4632 23.661027 3.77 23.661027 3.77l-.2655-1.8837.5602.0535c10.2786.9111 12.6152-2.207 12.6152-2.207-1.6091-4.5261-2.8677-14.1234-3.6537-21.5404-.1141-1.0687-.215-2.0867-.308-3.0432-.2124-2.1615-.3717-3.9837-.4726-5.2128-.0876-1.0821-.1354-1.7073-.1354-1.7073l-1.0807-8.0797s-2.958-9.6934-1.6144-16.1566c1.1444-5.504-2.5862-7.4812-3.7174-7.9594-.1777-.0689-.3606-.1234-.547-.163-1.4736-.35-3.1172-1.87032-4.5139-3.47343-2.0364-2.33622-4.6321-4.1103-7.541-5.15399-1.3515-.49162-2.5012-1.0153-2.5012-1.0153-1.88258-2.153509-6.99131-.801555-6.99131-.801555-6.1841 4.039835-2.957957 17.233375-2.957957 17.233375l2.570297 7.3556c1.43384 4.096 3.47308 7.9301 5.84158 11.5718 3.95369 6.1078-1.40995 14.46-1.40995 14.46-8.345482 6.7197-7.538287 23.9531-7.538287 23.9531z" fill="#ff8aa1" transform="matrix(-1 0 0 1 1095.07 46.9512)"/><path d="m.00000519 12.3306.96386081 14.46c10.278534.9111 12.615134-2.2069 12.615134-2.2069-1.6091-4.5262-2.8677-14.1234-3.65363-21.54047-.11417-1.06874-.21508-2.086707-.30802-3.04322772z" fill="#000" opacity=".05" transform="matrix(-1 0 0 1 1071.78 97.0928)"/><path d="m2.61272 11.1574s4.84055 9.1538 6.4523 13.1936c1.61178 4.0398 1.61438 2.6932 2.41898 4.0398.8045 1.3466 9.4102 7.2701 9.4102 7.2701l8.7146 4.0399c-.3691-3.4734-.6346-6.4819-.7833-8.2561l-8.1995-5.4772s-5.6451-3.5002-5.9159-8.077c-.2708-4.5769-3.7652-12.92374-3.7652-12.92374s-6.99127-7.53995-9.949227-4.039833c-2.957963 3.500113 1.617047 10.230473 1.617047 10.230473z" fill="#000" opacity=".1" transform="matrix(-1 0 0 1 1091.46 60.4355)"/><path d="m10.9442 4.95806s3.4943 8.34684 3.7652 12.92374c.2708 4.5769 5.9159 8.077 5.9159 8.077l17.7451 11.8469s15.3262 5.1166 10.2175 11.0401c-5.1088 5.9235-13.1781-6.4498-13.1781-6.4498l-14.519-6.7304s-8.603-5.9235-9.4102-7.2701-.7966 0-2.41895-4.0398c-1.62237-4.0399-6.4523-13.1936-6.4523-13.1936s-4.56969-6.73039-1.614388-10.233184c2.955308-3.502786 9.949238 4.029144 9.949238 4.029144z" fill="#ffcdd3" transform="matrix(-1 0 0 1 1091.46 59.0947)"/><path d="m15.3023 12.913s-5.37694-4.0398-6.45232-5.38641c-.47529-.59315-1.21079-.50765-1.88523-.22176-1.25567.53872-2.62185.76509-3.98289.65995-1.17628-.10153-2.318046-.03474-2.185283.63856.265523 1.33593-.79657797-7.00023-.79657797-7.00023l4.56970097-1.60310641 5.9159 3.23025641z" fill="#000" opacity=".1" transform="matrix(-1 0 0 1 1093.67 54.6455)"/><path d="m15.3023 12.913s-5.37694-4.0398-6.45232-5.38641c-.47529-.59315-1.21079-.50765-1.88523-.22176-1.25567.53872-2.62185.76509-3.98289.65995-1.17628-.10153-2.318046-.03474-2.185283.63856.265523 1.33593-.79657797-7.00023-.79657797-7.00023l4.56970097-1.60310641 5.9159 3.23025641z" fill="#ff8aa1" transform="matrix(-1 0 0 1 1093.67 54.1108)"/><path d="m6.07524.403449c-.97118.425338-2.02942.610651-3.0863.540468-1.05688-.070186-2.081728-.39384-2.98893481-.94391961" fill="#000" opacity=".1" transform="matrix(-1 0 0 1 1071.78 67.1553)"/><path d="m2.01534.450475c.2018-1.603105-1.78965 1.734025-2.01534713-.133592l11.56100713 6.730377s-.6612.9111-1.5029 2.34588c-.44073.0508-.88397.07666-1.32761.07749-3.47573 0-4.57766-6.60481-6.71515-9.020155z" fill="#000" opacity=".1" transform="matrix(-1 0 0 1 1085.36 31.1558)"/><path d="m11.6964 23.4267c6.4598 0 11.6965-5.2442 11.6965-11.7133 0-6.46914-5.2367-11.7134-11.6965-11.7134-6.45973 0-11.6964 5.24426-11.6964 11.7134 0 6.4691 5.23667 11.7133 11.6964 11.7133z" fill="#ffcdd3" transform="matrix(-1 0 0 1 1088.04 16.6626)"/><path d="m52.4907 17.8051c-.0876.7347-.0717 1.5122-.4195 2.1641-.4886.9138-1.5427 1.336-2.4243 1.8703-3.5739 2.2043-4.6334 7.1633-3.4943 11.2084.4036 1.4321 1.0382 2.883.7754 4.3471-.4541 2.5142-3.3138 3.8181-5.8549 4.0425-2.5411.2245-5.2043-.1897-7.5808.7401-3.9829 1.5604-5.7513 6.2495-9.1447 8.8706-3.9484 3.0485-9.3863 2.8588-14.35699 3.2062-1.83744.1309-3.71736.3527-5.50966-.0161-1.79231-.3687-3.587266-1.4588-4.227184-3.1901-.900133-2.4421.738163-5.0926 2.655264-6.8667 1.9171-1.7741 4.22717-3.2703 5.31052-5.6403 1.44977-3.1848.26553-7.2139 2.10035-10.1957.3309-.6063.8518-1.0854 1.4816-1.3627.7966-.3019 1.6941-.0935 2.5517-.0641 3.3217.1149 6.1522-2.5382 7.7003-5.4853 1.548-2.947 2.1985-6.2815 3.6085-9.2953 1.5931-3.40931 4.2484-6.41247 7.7002-7.89801 2.026-.86568 4.2484-1.1863 6.3514-1.8035 2.403-.70002 4.6998-1.792806 7.1692-2.24702s5.2521-.1549664 7.0524 1.58708c1.694 1.64051 2.1879 4.2135 3.8076 5.92882.6134.64926 1.3994 1.19699 1.6941 2.03862.6983 1.99321-2.6898 2.16151-3.8183 2.96041-.8445.5853-1.5588 1.341-2.0973 2.2191s-.8894 1.8594-1.0306 2.8815z" fill="#000" opacity=".1" transform="matrix(-1 0 0 1 1123.6 10.7734)"/><path d="m52.4828 17.797c-.0877.7348-.0717 1.5123-.4196 2.1642-.4885.9138-1.5427 1.336-2.4242 1.8703-3.574 2.2043-4.6335 7.1632-3.4943 11.2084.4036 1.4321 1.0382 2.8829.7753 4.3471-.4541 2.5142-3.3138 3.8181-5.8549 4.0425-2.541.2244-5.2043-.1897-7.5807.7401-3.9829 1.5604-5.7513 6.2495-9.1448 8.8705-3.9483 3.0486-9.3863 2.8589-14.35695 3.2063-1.83744.1309-3.71737.3526-5.50967-.0161s-3.581953-1.4615-4.219216-3.1821c-.900134-2.4421.738163-5.0926 2.655266-6.8667 1.91709-1.7741 4.22717-3.2703 5.31052-5.6403 1.44977-3.1848.26553-7.2139 2.10035-10.1957.3309-.6063.8518-1.0854 1.4816-1.3627.7966-.3019 1.6941-.0935 2.5517-.0641 3.3217.1149 6.1522-2.5382 7.7003-5.4853 1.548-2.947 2.1985-6.2815 3.6085-9.2953 1.5931-3.40931 4.2484-6.41246 7.7002-7.89801 2.026-.86568 4.2484-1.1863 6.3514-1.8035 2.403-.70002 4.6998-1.792806 7.1692-2.24702s5.2521-.1549667 7.0524 1.58708c1.694 1.64051 2.1879 4.2135 3.8076 5.92882.6134.64926 1.3994 1.19699 1.6941 2.03862.6983 1.99321-2.6898 2.16151-3.8183 2.96041-.8451.5836-1.5603 1.3377-2.1002 2.2144-.5398.8767-.8925 1.8569-1.0356 2.8781z" fill="#2c7be5" transform="matrix(-1 0 0 1 1124.13 10.5146)"/><path d="m3.33382 35.849s-8.76237-15.7639 2.1242-28.32156c10.88658-12.55768 23.63178-5.61088 23.63178-5.61088s15.9316 7.48117 12.2143 25.38254c0 0-2.1243 9.0843-8.4969 8.5499z" fill="#2c7be5" transform="matrix(-1 0 0 1 1211.64 173.122)"/><path d="m3.33382 35.849s-8.76237-15.7639 2.1242-28.32156c10.88658-12.55768 23.63178-5.61088 23.63178-5.61088s15.9316 7.48117 12.2143 25.38254c0 0-2.1243 9.0843-8.4969 8.5499z" fill="#fff" opacity=".2" transform="matrix(-1 0 0 1 1211.64 173.122)"/><path d="m-.00000097 29.4117 9.60408097-29.4116987" stroke="#535461" stroke-miterlimit="10" stroke-width=".26724" transform="matrix(-1 0 0 1 1194.54 179.581)"/><path d="m18.3213 8.54991s-4.9441-2.34054-9.90678-1.03668c0 0-2.57294-6.44449-8.41451984-7.51322478" stroke="#535461" stroke-miterlimit="10" stroke-width=".26724" transform="matrix(-1 0 0 1 1194.5 175.573)"/><path d="m26.2871 12.0481s-8.4066-6.11323-14.5588-4.25897c0 0-6.94883-8.298752-11.72829984-7.7643831" stroke="#535461" stroke-miterlimit="10" stroke-width=".26724" transform="matrix(-1 0 0 1 1200.07 182.228)"/><path d="m29.2079 13.6211s-7.1852-5.2315-16.0723-4.88149c0 0-6.76297-8.205247-13.13559984-8.73961587" stroke="#535461" stroke-miterlimit="10" stroke-width=".26724" transform="matrix(-1 0 0 1 1204.85 191.609)"/><path d="m20.0578 6.59619c-1.102-.52302-2.2518-.93731-3.4332-1.23706 0 0-5.5389-7.24604-16.62460041-4.886802" stroke="#535461" stroke-miterlimit="10" stroke-width=".26724" transform="matrix(-1 0 0 1 1210.77 202.396)"/><path d="m21.2076 83.3937s-14.60396-23.9612-10.706-45.5791c1.6383-9.0842.4752-18.4357-3.62182-26.6944-1.95091-3.91038-4.2538-7.63268-6.87978227-11.1202013" stroke="#535461" stroke-miterlimit="10" stroke-width=".534481" transform="matrix(-1 0 0 1 1145.55 125.369)"/><g fill="#2c7be5"><path d="m11.7111 4.54561c.8576 3.19018-2.38979 14.00319-2.38979 14.00319s-8.23131-7.6896-9.080991-10.87981c-.2227975-.76454-.2916456-1.56615-.2025079-2.35782.0891379-.79167.3344649-1.55747.7215989-2.25248.38713-.69501.90828-1.30525 1.53288-1.79492.62459-.489671 1.34007-.848925 2.10447-1.056694.76439-.20776782 1.56232-.2598661 2.34699-.1532426.78467.1066236 1.54028.3698296 2.22253.7741736.68225.404343 1.27742.941683 1.75052 1.580523.4732.63884.8148 1.36631 1.0049 2.13975z" transform="matrix(-1 0 0 1 1154.88 107.187)"/><path d="m11.545 7.71518c-1.0037 3.14742-9.5775 10.44162-9.5775 10.44162s-2.750851-10.95462-1.747162-14.09938c.502294-1.48574 1.564442-2.71352 2.957652-3.418861 1.39322-.7053453 3.00603-.831818 4.49102-.35218 1.485.479637 2.72339 1.527001 3.44829 2.916501.725 1.3895.8786 3.00995.4277 4.5123z" transform="matrix(-1 0 0 1 1140.48 119.107)"/><path d="m13.5047 10.5204c-2.4455 2.2069-13.50470162 4.1493-13.50470162 4.1493s3.11993162-10.85299 5.57605162-13.05994c.57833-.54318 1.25854-.964815 2.0008-1.240211.74227-.2753968 1.53167-.3990108 2.322-.36362848.79035.03538228 1.56575.22905348 2.28075.56969148s1.3553.821388 1.8834 1.414098c.5281.59272.9334 1.2855 1.1922 2.03778.2587.75227.3657 1.54894.3147 2.34334s-.259 1.57057-.6118 2.28309c-.3528.71251-.8433 1.34708-1.4428 1.86648z" transform="matrix(-1 0 0 1 1134.74 146.614)"/><path d="m12.6151 9.63733c-2.0392 2.58897-12.61510097 6.38567-12.61510097 6.38567s1.25328097-11.22171 3.29252097-13.81875c.98758-1.2195 2.41262-1.998713 3.96678-2.1690461 1.55417-.1703329 3.1125.2819121 4.3378 1.2588861 1.2254.97697 2.0191 2.40012 2.2097 3.96152.1905 1.5614-.2376 3.13549-1.1917 4.38172z" transform="matrix(-1 0 0 1 1133.17 171.742)"/><path d="m3.15054 11.261c2.87034 1.6031 14.07286 1.026 14.07286 1.026s-5.438-9.88587-8.30829-11.48898c-.68358-.395962-1.4386-.651149-2.22112-.7507233-.78251-.0995748-1.5769-.04154011-2.33691.1707253-.76002.212264-1.47049.574509-2.09006 1.065668-.61957.49117-1.13587 1.10143-1.518848 1.79526-.382976.69384-.624978 1.45742-.7119242 2.24625-.0869461.78884-.0170951 1.5872.2054812 2.34862.222577.76142.593435 1.47069 1.090991 2.08653.49756.61585 1.11187 1.12595 1.8072 1.50065z" transform="matrix(-1 0 0 1 1153.55 129.899)"/><path d="m4.58501 11.8132c3.21552.6679 13.74359-3.25967 13.74359-3.25967s-8.1198-7.793787-11.34324-8.4617487c-1.52588-.2720143-3.09701.0659577-4.379.9419787-1.28198.87602-2.173567 2.22092-2.484992 3.74843-.311426 1.52751-.018095 3.117.817558 4.43017.835654 1.31314 2.147634 2.24634 3.656694 2.60084z" transform="matrix(-1 0 0 1 1153.82 157.7)"/><path d="m3.65911 11.5091c3.05886 1.205 14.09409-.8764 14.09409-.8764s-6.7019-9.06292-9.76071-10.267926c-1.46001-.53783-3.07125-.479014-4.4887.163843-1.41744.642853-2.528381 1.818653-3.094897 3.275573s-.543568 3.07913.063926 4.51924c.607491 1.44011 1.751241 2.58357 3.186291 3.18567z" transform="matrix(-1 0 0 1 1148.01 185.407)"/></g><g fill="#fc6681"><path d="m11.7111 4.54561c.8576 3.19018-2.38979 14.00319-2.38979 14.00319s-8.23131-7.6896-9.080991-10.87981c-.2227975-.76454-.2916456-1.56615-.2025079-2.35782.0891379-.79167.3344649-1.55747.7215989-2.25248.38713-.69501.90828-1.30525 1.53288-1.79492.62459-.489671 1.34007-.848925 2.10447-1.056694.76439-.20776782 1.56232-.2598661 2.34699-.1532426.78467.1066236 1.54028.3698296 2.22253.7741736.68225.404343 1.27742.941683 1.75052 1.580523.4732.63884.8148 1.36631 1.0049 2.13975z" transform="matrix(-1 0 0 1 1154.88 107.187)"/><path d="m11.545 7.71518c-1.0037 3.14742-9.5775 10.44162-9.5775 10.44162s-2.750851-10.95462-1.747162-14.09938c.502294-1.48574 1.564442-2.71352 2.957652-3.418861 1.39322-.7053453 3.00603-.831818 4.49102-.35218 1.485.479637 2.72339 1.527001 3.44829 2.916501.725 1.3895.8786 3.00995.4277 4.5123z" transform="matrix(-1 0 0 1 1140.48 119.107)"/><path d="m13.5047 10.5204c-2.4455 2.2069-13.50470162 4.1493-13.50470162 4.1493s3.11993162-10.85299 5.57605162-13.05994c.57833-.54318 1.25854-.964815 2.0008-1.240211.74227-.2753968 1.53167-.3990108 2.322-.36362848.79035.03538228 1.56575.22905348 2.28075.56969148s1.3553.821388 1.8834 1.414098c.5281.59272.9334 1.2855 1.1922 2.03778.2587.75227.3657 1.54894.3147 2.34334s-.259 1.57057-.6118 2.28309c-.3528.71251-.8433 1.34708-1.4428 1.86648z" transform="matrix(-1 0 0 1 1134.74 146.614)"/><path d="m12.6151 9.63733c-2.0392 2.58897-12.61510097 6.38567-12.61510097 6.38567s1.25328097-11.22171 3.29252097-13.81875c.98758-1.2195 2.41262-1.998713 3.96678-2.1690461 1.55417-.1703329 3.1125.2819121 4.3378 1.2588861 1.2254.97697 2.0191 2.40012 2.2097 3.96152.1905 1.5614-.2376 3.13549-1.1917 4.38172z" transform="matrix(-1 0 0 1 1133.17 171.742)"/><path d="m3.15054 11.261c2.87034 1.6031 14.07286 1.026 14.07286 1.026s-5.438-9.88587-8.30829-11.48898c-.68358-.395962-1.4386-.651149-2.22112-.7507233-.78251-.0995748-1.5769-.04154011-2.33691.1707253-.76002.212264-1.47049.574509-2.09006 1.065668-.61957.49117-1.13587 1.10143-1.518848 1.79526-.382976.69384-.624978 1.45742-.7119242 2.24625-.0869461.78884-.0170951 1.5872.2054812 2.34862.222577.76142.593435 1.47069 1.090991 2.08653.49756.61585 1.11187 1.12595 1.8072 1.50065z" transform="matrix(-1 0 0 1 1153.55 129.899)"/><path d="m4.58501 11.8132c3.21552.6679 13.74359-3.25967 13.74359-3.25967s-8.1198-7.793787-11.34324-8.4617487c-1.52588-.2720143-3.09701.0659577-4.379.9419787-1.28198.87602-2.173567 2.22092-2.484992 3.74843-.311426 1.52751-.018095 3.117.817558 4.43017.835654 1.31314 2.147634 2.24634 3.656694 2.60084z" transform="matrix(-1 0 0 1 1153.82 157.7)"/><path d="m3.65911 11.5091c3.05886 1.205 14.09409-.8764 14.09409-.8764s-6.7019-9.06292-9.76071-10.267926c-1.46001-.53783-3.07125-.479014-4.4887.163843-1.41744.642853-2.528381 1.818653-3.094897 3.275573s-.543568 3.07913.063926 4.51924c.607491 1.44011 1.751241 2.58357 3.186291 3.18567z" transform="matrix(-1 0 0 1 1148.01 185.407)"/></g><path d="m-.00000073 70.2909s19.77640073-31.2819 22.16610073-44.6412c2.3898-13.3592 6.9037-25.64969478 6.9037-25.64969478" stroke="#535461" stroke-miterlimit="10" stroke-width=".534481" transform="matrix(-1 0 0 1 1200.73 138.702)"/><g fill="#2c7be5"><path d="m12.4797.00000522-12.47969984 1.06873478s6.63814984 11.48896 12.47969984-1.06873478z" transform="matrix(-1 0 0 1 1179.63 165.42)"/><path d="m.433249.00000522 9.882851 7.96477478s-12.80364 5.12722-9.882851-7.96477478z" transform="matrix(-1 0 0 1 1189.36 158.473)"/><path d="m11.2477.00000522-11.2477 1.51225478s9.92006 8.10639 11.2477-1.51225478z" transform="matrix(-1 0 0 1 1176.8 154.465)"/><path d="m.188823.00000522 7.418797 5.23948478s-9.01195 3.84479-7.418797-5.23948478z" transform="matrix(-1 0 0 1 1184.33 150.458)"/><path d="m-.00000049 1.99715s9.21110049-2.455426 10.53870049-1.9210571c1.3277.5343691.5311 6.4124271-3.18628 6.6796171-3.71737.26718-7.35242049-4.75856-7.35242049-4.75856z" transform="matrix(-1 0 0 1 1173.97 143.702)"/><path d="m2.24038.00000522s5.84157 5.61087478 6.1071 6.94679478c.26552 1.33593-4.77947 4.5421-7.434734 0-2.655256-4.54213 1.327634-6.94679478 1.327634-6.94679478z" transform="matrix(-1 0 0 1 1182.4 138.702)"/></g><path d="m2.65526 5.34369c1.46646 0 2.65526-1.19622 2.65526-2.67184s-1.1888-2.67185-2.65526-2.67185-2.65526 1.19623-2.65526 2.67185 1.1888 2.67184 2.65526 2.67184z" fill="#ffd037" transform="matrix(-1 0 0 1 1171.93 136.564)"/><path d="m2.65526 5.34369c1.46646 0 2.65526-1.19622 2.65526-2.67184s-1.1888-2.67185-2.65526-2.67185-2.65526 1.19623-2.65526 2.67185 1.1888 2.67184 2.65526 2.67184z" fill="#ffd037" transform="matrix(-1 0 0 1 1176.71 135.228)"/><path d="m.00000016 49.9567v-49.429154s23.89739984-6.145246 28.41129984 23.512254-28.41129984 25.9169-28.41129984 25.9169z" fill="#2c7be5" transform="matrix(-1 0 0 1 1218 148.193)"/><path d="m15.9316 11.4889s-5.0264-4.5421-10.09003-3.47336c0 0-3.18631-7.213981-5.84156984-8.01553478" stroke="#535461" stroke-miterlimit="10" stroke-width=".26724" transform="matrix(-1 0 0 1 1210.69 152.862)"/><path d="m21.3775 15.8975s-3.4518-5.1674-12.47972-5.3891c0 0-5.31052-9.840433-8.89778041-10.50839478" stroke="#535461" stroke-miterlimit="10" stroke-width=".26724" transform="matrix(-1 0 0 1 1218 157.271)"/><path d="m21.3749 14.7165s-7.4666-10.19574-16.61136-10.70873c0 0-2.77209-3.764631-4.76353984-4.00776935" stroke="#535461" stroke-miterlimit="10" stroke-width=".26724" transform="matrix(-1 0 0 1 1218 170.475)"/><path d="m13.5551 38.3036s-3.3323-11.4088-13.55510028-14.8368l14.47120028-23.46679478" stroke="#535461" stroke-miterlimit="10" stroke-width=".26724" transform="matrix(-1 0 0 1 1218 158.74)"/><path d="m45.9226 64.3915s8.7623-14.428-13.0108-35.8027c-21.7732-21.37481-20.4455-25.38258-18.5868-28.58879478 0 0-17.52477 2.13747478-13.807405 28.58879478 3.717365 26.4512 19.648905 35.8027 19.648905 35.8027z" fill="#2c7be5" transform="matrix(-1 0 0 1 1159.44 144.579)"/><path d="m23.3735 64.3915s-6.5054-18.9701-16.3299-30.459c-9.82447-11.489-7.965784-30.45909-2.92079-33.93249478" stroke="#535461" stroke-miterlimit="10" stroke-width=".534481" transform="matrix(-1 0 0 1 1149.23 144.579)"/><path d="m2.33941.00000065s14.73139 29.09909935 2.72694 45.02059935c-12.00443 15.9215 1.09133 59.2964 1.09133 59.2964" stroke="#fc6681" stroke-miterlimit="10" stroke-width=".534481" transform="matrix(-1 0 0 1 1028.74 105.683)"/><path d="m8.18352 10.153c0 5.6109-4.09177 10.153-4.09177 10.153s-4.09174806-4.5421-4.09174806-10.153c0-5.61086 4.09174806-10.15300033 4.09174806-10.15300033s4.09177 4.54481033 4.09177 10.15300033z" fill="#fc6681" transform="matrix(-1 0 0 1 1030.21 86.4697)"/><path d="m7.43671.00000065s-14.73138 29.09909935-2.72694 45.02059935c12.00443 15.9215-1.09131 59.2964-1.09131 59.2964" stroke="#ffd037" stroke-miterlimit="10" stroke-width=".534481" transform="matrix(-1 0 0 1 1026.2 105.683)"/><path d="m.00000778 10.153c0 5.6109 4.09175222 10.153 4.09175222 10.153s4.09175-4.5421 4.09175-10.153c0-5.61086-4.09175-10.15300033-4.09175-10.15300033s-4.09175222 4.54481033-4.09175222 10.15300033z" fill="#ffd037" transform="matrix(-1 0 0 1 1023.12 86.4697)"/><path d="m2.33558.00000065s14.73142 29.09909935 2.7296 45.02059935c-12.00178 15.9215 1.09132 59.2964 1.09132 59.2964" stroke="#fc6681" stroke-miterlimit="10" stroke-width=".534481" transform="matrix(-1 0 0 1 1015.09 105.683)"/><path d="m8.18352 10.153c0 5.6109-4.09177 10.153-4.09177 10.153s-4.09174935-4.5421-4.09174935-10.153c0-5.61086 4.09174935-10.15300033 4.09174935-10.15300033s4.09177 4.54481033 4.09177 10.15300033z" fill="#fc6681" transform="matrix(-1 0 0 1 1016.57 86.4697)"/><path d="m9.94661 10.153c-3.86606 4.0425-9.94661713 4.4647-9.94661713 4.4647s.18321313-6.14528 4.04927713-10.17442c3.86606-4.029143 9.94663-4.44328 9.94663-4.44328s-.1832 6.1212-4.04929 10.153z" fill="#fc6681" transform="matrix(-1 0 0 1 1020.63 109.773)"/><path d="m9.94661 10.1744c-3.86606 4.0425-9.94661389 4.4646-9.94661389 4.4646s.18321289-6.14521 4.04927389-10.17435c3.86606-4.029142 9.94663-4.46464282 9.94663-4.46464282s-.1859 6.12118282-4.04929 10.17439282z" fill="#fc6681" transform="matrix(-1 0 0 1 1020.25 129.836)"/><path d="m9.70818 4.96964c3.65362 4.23487 3.52622 10.36946 3.52622 10.36946s-6.05404-.7348-9.70768-4.9697c-3.653637-4.23485-3.52617596-10.36940718-3.52617596-10.36940718s6.05399596.73476718 9.70763596 4.96964718z" fill="#fc6681" transform="matrix(-1 0 0 1 1040.97 146.087)"/><path d="m10.6742 2.30508c4.6467 3.09935 6.1522 9.04422 6.1522 9.04422s-6.0275.9191-10.67416-2.17757c-4.64671-3.09667-6.15223676-9.044199-6.15223676-9.044199s6.02744676-.919116 10.67419676 2.177549z" fill="#fc6681" transform="matrix(-1 0 0 1 1038.54 105.94)"/><path d="m7.43673.00000065s-14.7314 29.09909935-2.72696 45.02059935c12.00443 15.9215-1.09131 59.2964-1.09131 59.2964" stroke="#ffd037" stroke-miterlimit="10" stroke-width=".534481" transform="matrix(-1 0 0 1 1012.55 105.683)"/><path d="m.00000648 10.153c0 5.6109 4.09175352 10.153 4.09175352 10.153s4.09175-4.5421 4.09175-10.153c0-5.61086-4.09175-10.15300033-4.09175-10.15300033s-4.09175352 4.54481033-4.09175352 10.15300033z" fill="#ffd037" transform="matrix(-1 0 0 1 1009.48 86.4697)"/><path d="m4.17142 4.34442c-3.913855 4.00777-4.1714213 10.12358-4.1714213 10.12358s6.0858713-.35 9.9997213-4.3444c3.91388-3.99439 4.17138-10.12360163 4.17138-10.12360163s-6.08583.34734263-9.99968 4.34442163z" fill="#ffd037" transform="matrix(-1 0 0 1 1012.48 116.026)"/><path d="m4.17142 4.34442c-3.913855 4.00777-4.1714213 10.12358-4.1714213 10.12358s6.0858713-.35 9.9997213-4.3444c3.91388-3.99439 4.17138-10.12360163 4.17138-10.12360163s-6.08583.34734263-9.99968 4.34442163z" fill="#2c7be5" transform="matrix(-1 0 0 1 974.242 33.7324)"/><path d="m4.17142 4.34442c-3.913859 4.00777-4.17141927 10.12358-4.17141927 10.12358s6.08585927-.35 9.99970927-4.3444c3.91389-3.99438 4.17139-10.12360163 4.17139-10.12360163s-6.08583.34734263-9.99968 4.34442163z" fill="#fc6681" transform="matrix(-1 0 0 1 1207.11 94.6509)"/><path d="m4.17142 4.34442c-3.913855 4.00777-4.1714213 10.12358-4.1714213 10.12358s6.0858713-.35 9.9997213-4.3444c3.91388-3.99438 4.17138-10.12360163 4.17138-10.12360163s-6.08583.34734263-9.99968 4.34442163z" fill="#2c7be5" transform="matrix(-1 0 0 1 989.113 107.743)"/><path d="m10.8866.964045c-5.15655-2.137475-10.88660049-.05344-10.88660049-.05344s2.62340049 5.538745 7.77992049 7.670875c5.15648 2.13212 10.88658.05343 10.88658.05343s-2.6234-5.53873-7.7799-7.670865z" fill="#2c7be5" transform="matrix(-1 0 0 1 1187.57 106.731)"/><path d="m9.0322 6.38304c-2.97921-4.73986-8.8553-6.38303837-8.8553-6.38303837s-1.043513 6.04371837 1.93835 10.78619837c2.98185 4.7426 8.85525 6.3831 8.85525 6.3831s1.0409-6.0411-1.9383-10.78626z" fill="#ffd037" transform="matrix(-1 0 0 1 1120.89 93.3018)"/><path d="m4.17141 4.34442c-3.913855 4.00777-4.17140481 10.12368-4.17140481 10.12368s6.08585481-.3501 9.99970481-4.3445c3.91389-3.99438 4.17139-10.12360196 4.17139-10.12360196s-6.08583.34734296-9.99969 4.34442196z" fill="#ffd037" transform="matrix(-1 0 0 1 1004.8 143.821)"/><path d="m0 14.3665s8.86858-14.064585 21.3138-14.36650326z" stroke="#ffd037" stroke-miterlimit="10" stroke-width=".534481" transform="matrix(-1 0 0 1 1011.91 127.688)"/><path d="m21.3138 14.3665s-8.8686-14.064578-21.31380519-14.36649706z" stroke="#fc6681" stroke-miterlimit="10" stroke-width=".534481" transform="matrix(-1 0 0 1 1040.12 119.187)"/><path d="m.0000013 14.3665s8.8685787-14.064575 21.3137987-14.36649348z" stroke="#ffd037" stroke-miterlimit="10" stroke-width=".534481" transform="matrix(-1 0 0 1 1019.98 139.271)"/><path d="m2.30211 4.63298c1.27142 0 2.30212-1.03713 2.30212-2.31649s-1.0307-2.31649359-2.30212-2.31649359-2.30211 1.03713359-2.30211 2.31649359 1.03069 2.31649 2.30211 2.31649z" fill="#ffd037" transform="matrix(-1 0 0 1 993.312 125.262)"/><path d="m2.30212 4.63298c1.27142 0 2.3021-1.03713 2.3021-2.31649s-1.03068-2.31649294-2.3021-2.31649294c-1.27143 0-2.30212778 1.03713294-2.30212778 2.31649294s1.03069778 2.31649 2.30212778 2.31649z" fill="#fc6681" transform="matrix(-1 0 0 1 1042.23 116.963)"/><path d="m21.3138 14.3665s-8.8686-14.064584-21.31380454-14.36650261z" stroke="#fc6681" stroke-miterlimit="10" stroke-width=".534481" transform="matrix(-1 0 0 1 1034.77 143.904)"/><path d="m2.30211 4.63299c1.27142 0 2.30211-1.03714 2.30211-2.31651 0-1.27936-1.03069-2.31648261-2.30211-2.31648261s-2.30210676 1.03712261-2.30210676 2.31648261c0 1.27937 1.03068676 2.31651 2.30210676 2.31651z" fill="#fc6681" transform="matrix(-1 0 0 1 1036.86 141.67)"/><path d="m2.30211 4.63298c1.27142 0 2.30211-1.03713 2.30211-2.31649s-1.03069-2.31649-2.30211-2.31649-2.30210741 1.03713-2.30210741 2.31649 1.03068741 2.31649 2.30210741 2.31649z" fill="#ffd037" transform="matrix(-1 0 0 1 1000.8 137.037)"/><path d="m30.3687 3.75937s-8.7624-9.88583-11.9487 2.40466c-3.1863 12.29047-5.045 13.89357-11.4176 10.68737-6.372629-3.2062-13.01078 12.0233 2.65526 22.9779 15.66604 10.9545 6.90364 21.7755 6.90364 21.7755h56.026s7.4348-21.7755-8.7623-29.2567-15.6661-13.092-15.135-20.5732c.5311-7.48116-18.3213-8.01553-18.3213-8.01553z" fill="#2c7be5" transform="matrix(-1 0 0 1 1113.48 147.767)"/><path d="m-.00000389.00000326s36.37710389 48.24549674 23.89730389 61.60479674z" stroke="#535461" stroke-miterlimit="10" stroke-width=".534481" transform="matrix(-1 0 0 1 1090.54 147.768)"/><path d="m.00000065 9.70681s8.60834935 7.37159 22.68119935 3.63109c14.0729-3.74063 10.6025-13.33789282 10.6025-13.33789282" stroke="#535461" stroke-miterlimit="10" stroke-width=".534481" transform="matrix(-1 0 0 1 1099.95 155.687)"/><path d="m70.8955 20.7576s-18.7276-9.1404-28.1458-5.7311c-24.5134 8.8758-42.74970065-15.02649478-42.74970065-15.02649478" stroke="#535461" stroke-miterlimit="10" stroke-width=".534481" transform="matrix(-1 0 0 1 1111.93 167.958)"/><path d="m43.8231 84.6975s11.4176-8.5499-2.9208-38.4746c0 0-19.1179-23.7794 0-46.22289478 0 0-41.68761 1.06873478-40.8910317 40.07769478.7965787 39.0089 20.8438317 44.6198 20.8438317 44.6198z" fill="#2c7be5" transform="matrix(-1 0 0 1 1139.27 124.273)"/><path d="m14.62 84.6975s-2.8757-20.5732-10.57596-33.1309c-1.51911-2.5375-2.61182-5.3098-3.234105-8.2052-2.572945-11.3901 1.096625-23.3012 9.410265-31.453l12.1478-11.90839478" stroke="#535461" stroke-miterlimit="10" stroke-width=".534481" transform="matrix(-1 0 0 1 1120.74 124.273)"/><path d="m43.8231 84.6975s11.4176-8.5499-2.9208-38.4746c0 0-19.1179-23.7794 0-46.22289478 0 0-41.68761 1.06873478-40.8910317 40.07769478.7965787 39.0089 20.8438317 44.6198 20.8438317 44.6198z" fill="#000" opacity=".1" transform="matrix(-1 0 0 1 1139.27 124.273)"/><path d="m30.8648-.00000294s-6.1071 49.96350294 0 80.68980294c6.1071 30.7262-30.8648013 43.9522-30.8648013 43.9522h54.2311013s7.4347-99.5267-23.3663-124.64200294z" fill="#2c7be5" transform="matrix(-1 0 0 1 985.461 84.3296)"/><path d="m-.00000389-.00000294s15.44040389 43.03540294 13.16210389 64.92590294c-2.2782 21.8904-5.46185 60.1161-5.46185 60.1161" stroke="#535461" stroke-miterlimit="10" stroke-width=".534481" transform="matrix(-1 0 0 1 954.594 84.3296)"/><path d="m14.5937 60.2207s-39.0695-8.7903 10.6423-60.2207c0 0 21.428 20.437 13.5684 45.8409-3.1597 10.2144-13.3294 16.52-23.6318 14.5001z" fill="#2c7be5" transform="matrix(-1 0 0 1 1007.71 148.515)"/><path d="m14.4708 60.2207c-.8577-.1923-38.2358-9.6587 10.6423-60.2207 0 0 21.4279 20.437 13.5684 45.8409-3.1598 10.2144-13.3295 16.52-23.6319 14.5001z" fill="#fff" opacity=".4" transform="matrix(-1 0 0 1 1007.59 148.515)"/><path d="m-.00000519 60.512s20.63670519-31.2847 10.12980519-60.512z" stroke="#535461" stroke-miterlimit="10" stroke-width=".26724" transform="matrix(-1 0 0 1 992.602 148.515)"/><path d="m14.5937 60.2207s-39.0695-8.7903 10.6423-60.2207c0 0 21.428 20.437 13.5684 45.8409-3.1597 10.2144-13.3294 16.52-23.6318 14.5001z" fill="#2c7be5" transform="matrix(-1 0 0 1 1169.42 148.515)"/><path d="m14.4708 60.2207c-.8577-.1923-38.2358-9.6587 10.6423-60.2207 0 0 21.4279 20.437 13.5684 45.8409-3.1598 10.2144-13.3294 16.52-23.6319 14.5001z" fill="#fff" opacity=".4" transform="matrix(-1 0 0 1 1169.29 148.515)"/><path d="m.00000292 60.512s20.63669708-31.2847 10.12979708-60.512z" stroke="#535461" stroke-miterlimit="10" stroke-width=".26724" transform="matrix(-1 0 0 1 1154.31 148.515)"/><path d="m27.9865-.00000294s-19.94372 20.06820294-8.6854 49.84600294c11.2583 29.7777-19.30110324 79.303-19.30110324 79.303s.32660224-.048.93465724-.155c40.960046-7.275 61.315246-54.4174 38.535746-89.4373-8.4649-13.0199-15.4164-28.2949-11.4839-39.55670294z" fill="#2c7be5" transform="matrix(-1 0 0 1 990.391 74.4434)"/><path d="m27.9865-.00000294s-19.94372 20.06820294-8.6854 49.84600294c11.2583 29.7777-19.30110324 79.303-19.30110324 79.303s.32660224-.048.93465724-.155c40.960046-7.275 61.315246-54.4174 38.535746-89.4373-8.4649-13.0199-15.4164-28.2949-11.4839-39.55670294z" fill="#000" opacity=".1" transform="matrix(-1 0 0 1 990.391 74.4434)"/><path d="m27.9865-.00000294s-11.2584 24.59970294 0 44.66790294c11.2583 20.0683 1.9303 76.3881-27.98650324 84.4811" stroke="#535461" stroke-miterlimit="10" stroke-width=".26724" transform="matrix(-1 0 0 1 990.391 74.4434)"/><path d="m68.5934.250774s-22.7583-3.647074-24.832 16.875326c-2.0738 20.5225-43.76139352 23.368-43.76139352 23.368s.26552652.187.78064752.5344c34.420146 22.7374 67.324146 14.4841 62.364146-15.7078-1.8428-11.2351-1.6914-22.50763 5.4486-25.069926z" fill="#2c7be5" transform="matrix(-1 0 0 1 995.473 155.361)"/><path d="m68.5934.250774s-22.7583-3.647074-24.832 16.875326c-2.0738 20.5225-43.76139352 23.368-43.76139352 23.368s.26552652.187.78064752.5344c34.420146 22.7374 67.324146 14.4841 62.364146-15.7078-1.8428-11.2351-1.6914-22.50763 5.4486-25.069926z" fill="#f5f5f5" opacity=".2" transform="matrix(-1 0 0 1 995.473 155.361)"/><path d="m68.596-.00000065s-17.6654 3.90090065-16.2156 20.06290065c1.4497 16.162-26.2314 35.5355-52.38039611 20.1804" stroke="#535461" stroke-miterlimit="10" stroke-width=".26724" transform="matrix(-1 0 0 1 995.48 155.612)"/><path d="m3.81231 105.615s-9.68375-33.0851 1.81619-57.4443c4.8273-10.2198 6.4311-21.6927 4.20064-32.7835-1.06722-5.26-2.61107-10.41063-4.61219-15.38720359" stroke="#535461" stroke-miterlimit="10" stroke-width=".534481" transform="matrix(-1 0 0 1 946.859 103.85)"/><g fill="#2c7be5"><path d="m14.5933 7.34758c0 4.05582-7.29665 15.81462-7.29665 15.81462s-7.2966487-11.7561-7.2966487-15.81462c0-1.9487.7693127-3.81759 2.1386987-5.19552 1.36938-1.377942 3.22667-2.15206 5.16327-2.15206s3.79393.774118 5.16323 2.15206c1.3694 1.37793 2.1387 3.24682 2.1387 5.19552z" transform="matrix(-1 0 0 1 949.082 81.1182)"/><path d="m14.665 11.4042c-2.1906 3.404-14.66499481 9.2847-14.66499481 9.2847s.22569081-13.86153 2.41628481-17.26546c.51523-.82145 1.18734-1.53185 1.97737-2.09005.79004-.558209 1.6823-.953119 2.62509-1.161858.94279-.2087392 1.91739-.2271629 2.86731-.054191.94994.172973 1.85624.533901 2.66654 1.061869.8103.52796 1.5085 1.21247 2.054 2.01387s.9276 1.70376 1.124 2.6548c.1965.95105.2035 1.93187.0206 2.88564-.1829.95378-.5521 1.86158-1.0862 2.67068z" transform="matrix(-1 0 0 1 937.098 99.521)"/><path d="m17.3176 13.8725c-3.5979 1.8249-17.31759222.5638-17.31759222.5638s7.14795222-11.84968 10.74579222-13.674547c1.7259-.8594269 3.7193-.997552 5.5459-.384274s3.3382 1.928231 4.2054 3.658251 1.0196 3.73483.424 5.57744c-.5956 1.84263-1.8908 3.37363-3.6035 4.25933z" transform="matrix(-1 0 0 1 940.277 135.444)"/><path d="m16.9724 13.2458c-3.2394 2.4047-16.97241167 3.5002-16.97241167 3.5002s5.04499167-12.89437 8.29503167-15.30704c.77044-.573328 1.64556-.988342 2.57538-1.221349.9299-.2330065 1.8962-.2794414 2.8439-.1366576.9476.1427836 1.8581.4719846 2.6793.9688166.8212.49684 1.5372 1.15158 2.1069 1.92684.5698.77525.9822 1.65584 1.2138 2.59148s.2777 1.908.1358 2.86158c-.1419.95359-.4691 1.86973-.9628 2.69613-.4938.8263-1.1444 1.5467-1.9149 2.12z" transform="matrix(-1 0 0 1 946.836 165.013)"/><path d="m2.1431 12.54c2.89158 2.8241 16.3564 5.7525 16.3564 5.7525s-3.2978-13.46081-6.1894-16.28495c-1.3938-1.326255-3.25051-2.0468765-5.16836-2.00589536-1.91784.04098116-3.7425.84026836-5.07906 2.22486536-1.336562 1.3846-2.077517 3.24314-2.06246262 5.17334.01505432 1.9302.78488462 3.77684 2.14288262 5.14014z" transform="matrix(-1 0 0 1 954.555 108.455)"/><path d="m3.92575 13.8564c3.59788 1.8249 17.31765.5638 17.31765.5638s-7.148-11.84965-10.7591-13.682532c-1.7239-.842413-3.7079-.968604-5.52344-.3513-1.81554.617302-3.31686 1.928552-4.179607 3.650432-.8627471 1.72189-1.017652 3.71618-.431269 5.55204.586384 1.83586 1.866986 3.36596 3.565156 4.25956z" transform="matrix(-1 0 0 1 963.98 141.098)"/><path d="m3.05019 13.3157c3.23942 2.4046 16.97241 3.5001 16.97241 3.5001s-5.045-12.89435-8.295-15.30703c-.769-.591408-1.6472-1.022966-2.58353-1.269546-.93633-.24658039-1.91206-.3032514-2.87037-.1667136-.95831.1365376-1.88004.4635646-2.71153.9620196-.83149.49846-1.55613 1.15838-2.13171 1.94136-.575579.78298-.9906 1.67337-1.220897 2.6193-.2302961.94594-.2712685 1.92854-.1205268 2.89057.1507418.96203.4901838 1.88424.9985638 2.71304.50837.8287 1.17552 1.5474 1.96259 2.1142z" transform="matrix(-1 0 0 1 966.027 175.673)"/></g><g fill="#fc6681"><path d="m14.5933 7.34758c0 4.05582-7.29665 15.81462-7.29665 15.81462s-7.2966487-11.7561-7.2966487-15.81462c0-1.9487.7693127-3.81759 2.1386987-5.19552 1.36938-1.377942 3.22667-2.15206 5.16327-2.15206s3.79393.774118 5.16323 2.15206c1.3694 1.37793 2.1387 3.24682 2.1387 5.19552z" transform="matrix(-1 0 0 1 949.082 81.1182)"/><path d="m14.665 11.4042c-2.1906 3.404-14.66499481 9.2847-14.66499481 9.2847s.22569081-13.86153 2.41628481-17.26546c.51523-.82145 1.18734-1.53185 1.97737-2.09005.79004-.558209 1.6823-.953119 2.62509-1.161858.94279-.2087392 1.91739-.2271629 2.86731-.054191.94994.172973 1.85624.533901 2.66654 1.061869.8103.52796 1.5085 1.21247 2.054 2.01387s.9276 1.70376 1.124 2.6548c.1965.95105.2035 1.93187.0206 2.88564-.1829.95378-.5521 1.86158-1.0862 2.67068z" transform="matrix(-1 0 0 1 937.098 99.521)"/><path d="m17.3176 13.8725c-3.5979 1.8249-17.31759222.5638-17.31759222.5638s7.14795222-11.84968 10.74579222-13.674547c1.7259-.8594269 3.7193-.997552 5.5459-.384274s3.3382 1.928231 4.2054 3.658251 1.0196 3.73483.424 5.57744c-.5956 1.84263-1.8908 3.37363-3.6035 4.25933z" transform="matrix(-1 0 0 1 940.277 135.444)"/><path d="m16.9724 13.2458c-3.2394 2.4047-16.97241167 3.5002-16.97241167 3.5002s5.04499167-12.89437 8.29503167-15.30704c.77044-.573328 1.64556-.988342 2.57538-1.221349.9299-.2330065 1.8962-.2794414 2.8439-.1366576.9476.1427836 1.8581.4719846 2.6793.9688166.8212.49684 1.5372 1.15158 2.1069 1.92684.5698.77525.9822 1.65584 1.2138 2.59148s.2777 1.908.1358 2.86158c-.1419.95359-.4691 1.86973-.9628 2.69613-.4938.8263-1.1444 1.5467-1.9149 2.12z" transform="matrix(-1 0 0 1 946.836 165.013)"/><path d="m2.1431 12.54c2.89158 2.8241 16.3564 5.7525 16.3564 5.7525s-3.2978-13.46081-6.1894-16.28495c-1.3938-1.326255-3.25051-2.0468765-5.16836-2.00589536-1.91784.04098116-3.7425.84026836-5.07906 2.22486536-1.336562 1.3846-2.077517 3.24314-2.06246262 5.17334.01505432 1.9302.78488462 3.77684 2.14288262 5.14014z" transform="matrix(-1 0 0 1 954.555 108.455)"/><path d="m3.92575 13.8564c3.59788 1.8249 17.31765.5638 17.31765.5638s-7.148-11.84965-10.7591-13.682532c-1.7239-.842413-3.7079-.968604-5.52344-.3513-1.81554.617302-3.31686 1.928552-4.179607 3.650432-.8627471 1.72189-1.017652 3.71618-.431269 5.55204.586384 1.83586 1.866986 3.36596 3.565156 4.25956z" transform="matrix(-1 0 0 1 963.98 141.098)"/><path d="m3.05019 13.3157c3.23942 2.4046 16.97241 3.5001 16.97241 3.5001s-5.045-12.89435-8.295-15.30703c-.769-.591408-1.6472-1.022966-2.58353-1.269546-.93633-.24658039-1.91206-.3032514-2.87037-.1667136-.95831.1365376-1.88004.4635646-2.71153.9620196-.83149.49846-1.55613 1.15838-2.13171 1.94136-.575579.78298-.9906 1.67337-1.220897 2.6193-.2302961.94594-.2712685 1.92854-.1205268 2.89057.1507418.96203.4901838 1.88424.9985638 2.71304.50837.8287 1.17552 1.5474 1.96259 2.1142z" transform="matrix(-1 0 0 1 966.027 175.673)"/></g><path d="m32.8414 16.4636c1.5188-1.4215 2.9447-3.0967 3.3828-5.138.4381-2.04129-.4275-4.48871-2.3632-5.23415-2.172-.83629-4.4927.67865-6.2505 2.20694-1.7577 1.5283-3.7757 3.27571-6.0779 2.93901 1.1843-1.0799 2.0704-2.45007 2.572-3.97697.5016-1.52691.6017-3.15851.2904-4.73589-.1014-.65131-.3767-1.26266-.7966-1.768763-1.2054-1.295845-3.3907-.7401042-4.8325.280543-4.591 3.24896-5.8708 9.52248-5.8947 15.16808-.462-2.036-.0717-4.1601-.085-6.24946-.0133-2.08938-.5762-4.40053-2.334-5.51469-1.04082-.66529-2.32331-.80156-3.55535-.84164-2.06314-.07748-4.35994.13093-5.76988 1.65121-1.749816 1.88633-1.295773 5.05248.22569 7.12848 1.52147 2.076 3.83951 3.3772 5.97168 4.8093 1.62502 1.0928 3.26866 2.3699 4.26696 4.096.129.2329.2349.4782.316.7321h12.9338c2.9036-1.4788 5.5949-3.3465 8.0003-5.5521z" fill="#2c7be5" transform="matrix(-1 0 0 1 976.059 187.359)"/><path d="m24.9176 10.1847c1.1524-.87903 2.2357-1.91838 2.5676-3.18217.1714-.66879.0806-1.37828-.2535-1.98159-.3341-.6033-.886-1.05421-1.5414-1.25936-1.649-.51834-3.4094.41948-4.7423 1.36799-1.333.9485-2.8651 2.02794-4.6122 1.82755 1.8109-1.31455 2.6712-3.45203 2.172-5.39446-.0849-.41857-.2953-.800889-.6028-1.095451-.9134-.801554-2.5729-.4568954-3.6669.17366-3.4837 2.011901-4.45552 5.894101-4.4741 9.391531-.3505-1.2611-.05576-2.57564-.06373-3.86881-.00796-1.29318-.44077-2.72796-1.7684-3.42264-.79658-.41146-1.7631-.49162-2.69775-.52101-1.5666-.04809-3.30846.08283-4.378527 1.02065-1.327631 1.16759-.9851 3.12872.172597 4.41387 1.15769 1.28516 2.92078 2.09207 4.53253 2.97914 1.23204.676 2.48001 1.4668 3.23941 2.5356.09627.1419.17643.2943.23898.4542h9.82449c2.1511-.8908 4.1845-2.0458 6.054-3.4387z" fill="#2c7be5" transform="matrix(-1 0 0 1 1181.04 195.479)"/><path d="m24.9176 10.1847c1.1524-.87903 2.2357-1.91838 2.5676-3.18217.1714-.66879.0806-1.37828-.2535-1.98159-.3341-.6033-.8861-1.05421-1.5415-1.25936-1.6489-.51834-3.4093.41948-4.7422 1.36799-1.333.9485-2.8651 2.02794-4.6122 1.82755 1.8109-1.31455 2.6712-3.45203 2.172-5.39446-.0849-.41857-.2953-.800889-.6028-1.095451-.9134-.801554-2.5729-.4568954-3.6669.17366-3.4837 2.011901-4.45552 5.894101-4.4741 9.391531-.3505-1.2611-.05576-2.57564-.06373-3.86881-.00796-1.29318-.44078-2.72796-1.76841-3.42264-.79658-.41146-1.76309-.49162-2.69774-.52101-1.5666-.04809-3.30845.08283-4.378523 1.02065-1.327631 1.16759-.985112 3.12872.172583 4.41387 1.15769 1.28516 2.92079 2.09207 4.53253 2.97914 1.23204.676 2.48002 1.4668 3.23942 2.5356.09627.1419.17644.2943.23898.4542h9.82449c2.1511-.8908 4.1845-2.0458 6.054-3.4387z" fill="#2c7be5" transform="matrix(-1 0 0 1 1016.68 195.479)"/><path d="m3.37767 14.9225c-2.05783 1.8409-4.112999 4.7131-3.119931 8.7209 1.962241 7.8873 11.850461 8.3361 14.664961 16.0791.8418 2.3192.7595 4.7078.3266 6.6984-.847 3.8929-2.8783 6.6796-4.405 9.9472-1.52681 3.2677-2.56236 7.5053-1.27722 12.1196 1.23732 4.4406 4.37852 8.1811 7.54892 10.4335s6.4549 3.3291 9.6997 4.7639c3.9713 1.7825 7.7479 3.9754 11.2689 6.5434 1.5586 1.1248 3.1252 2.3592 4.4794 4.0425 1.5427 1.9184 2.7137 4.3043 3.8554 6.642.5656 1.16.4143 3.474 1.6994 3.474 32.8217-.113 9.8245-.129 25.9366-.051 2.865.013 6.9648.032 12.8355.051 6.2479.021 5.122-11.3237 4.2989-18.7034-1.1683-10.4522-9.8988-19.0663-14.2481-29.246-3.1173-7.2941-3.8502-15.1654-6.4576-22.6439-3.7572-10.7755-11.2211-19.8972-19.0276-25.33441s-15.9316-7.569344-23.6637-8.282727c-3.2713-.30459-6.5665-.358034-9.312 1.036667-2.9208 1.48288-3.5952 5.21545-5.8416 7.51591-2.5915 2.68516-6.46554 3.69246-9.26153 6.19336z" fill="#2c7be5" transform="matrix(-1 0 0 1 1096.61 104.833)"/><path d="m3.37767 14.9225c-2.05783 1.8409-4.112999 4.7131-3.119931 8.7209 1.962241 7.8873 11.850461 8.3361 14.664961 16.0791.8418 2.3192.7595 4.7078.3266 6.6984-.847 3.8929-2.8783 6.6796-4.405 9.9472-1.52681 3.2677-2.56236 7.5053-1.27722 12.1196 1.23732 4.4406 4.37852 8.1811 7.54892 10.4335s6.4549 3.3291 9.6997 4.7639c3.9713 1.7825 7.7479 3.9754 11.2689 6.5434 1.5586 1.1248 3.1252 2.3592 4.4794 4.0425 1.5427 1.9184 2.7137 4.3043 3.8554 6.642.5656 1.16.4143 3.474 1.6994 3.474 32.8217-.113 9.8245-.129 25.9366-.051 2.865.013 6.9648.032 12.8355.051 6.2479.021 5.122-11.3237 4.2989-18.7034-1.1683-10.4522-9.8988-19.0663-14.2481-29.246-3.1173-7.2941-3.8502-15.1654-6.4576-22.6439-3.7572-10.7755-11.2211-19.8972-19.0276-25.33441s-15.9316-7.569344-23.6637-8.282727c-3.2713-.30459-6.5665-.358034-9.312 1.036667-2.9208 1.48288-3.5952 5.21545-5.8416 7.51591-2.5915 2.68516-6.46554 3.69246-9.26153 6.19336z" fill="#fff" opacity=".2" transform="matrix(-1 0 0 1 1096.61 104.833)"/><path d="m.00000065-.00000033s34.95919935 50.95740033 57.73599935 101.21800033z" stroke="#535461" stroke-miterlimit="10" stroke-width=".534481" transform="matrix(-1 0 0 1 1080.3 107.978)"/><path d="m-.00000194 0s31.20200194.376731 45.81650194 26.9856z" stroke="#535461" stroke-miterlimit="10" stroke-width=".534481" transform="matrix(-1 0 0 1 1096.17 128.944)"/><path d="m.00000454 7.09821s38.68719546-15.67839 46.65029546-.43284z" stroke="#535461" stroke-miterlimit="10" stroke-width=".534481" transform="matrix(-1 0 0 1 1086.24 168.467)"/><path d="m4.58097.00000294s-7.96578 16.35439706-2.88892 46.71459706z" stroke="#535461" stroke-miterlimit="10" stroke-width=".534481" transform="matrix(-1 0 0 1 1049.81 113.108)"/><path d="m27.0359 2.3245s-5.8416 10.5965-27.03590194-2.32450587z" stroke="#535461" stroke-miterlimit="10" stroke-width=".534481" transform="matrix(-1 0 0 1 1032.57 188.47)"/><path d="m16.1583.00000457s5.8708 7.72697543-2.7137 19.38959543c-8.58446 11.6626-15.66604 21.511-12.795703 28.7811 0 0 12.947103-21.6633 23.485803-21.9652 10.5387-.302 3.6138-13.1776-7.9764-26.20549543z" fill="#2c7be5" transform="matrix(-1 0 0 1 988.18 160.827)"/><path d="m15.8174.00000457c.5122.74645643.9163 1.56241543 1.2002 2.42336543 10.2811 12.15693 15.7589 23.51223 5.8761 23.77943-9.2058.2672-20.24905 16.8326-22.89369352 21.0141.08675972.3226.19136052.6402.31331852.9511 0 0 12.947075-21.6633 23.485775-21.9652s3.6085-13.1749-7.9817-26.20279543z" fill="#000" opacity=".1" transform="matrix(-1 0 0 1 987.844 160.827)"/><path d="m1.35419 1.74094c0 2.71994-.3027 4.92421-.677093 4.92421-.374392 0-.67710478-2.20427-.67710478-4.92421 0-2.719938.37970678-1.440128.75144378-1.440128.371734 0 .602754-1.27981.602754 1.440128z" fill="#ffd037" transform="matrix(-1 0 0 1 962.465 168.932)"/><path d="m4.63246 1.86398c-2.3738 1.30119-4.442241 2.08938-4.6201434 1.75807-.1779026-.33131 1.5931534-1.65387 3.9828934-2.955064 2.38973-1.301189 1.43649-.355346 1.61704-.024037.18056.331309 1.39136-.080154-.97979 1.221031z" fill="#ffd037" transform="matrix(-1 0 0 1 961.996 172.055)"/><path d="m13.1756.00000457s-5.87074 7.72697543 2.7111 19.38959543c8.5818 11.6626 15.666 21.511 12.7957 28.7811 0 0-12.9471-21.6633-23.48582-21.9652-10.53874-.302-3.61116-13.1776 7.97902-26.20549543z" fill="#2c7be5" transform="matrix(-1 0 0 1 1016.21 160.827)"/><path d="m13.1776.00000457c-.5122.74645643-.9163 1.56241543-1.2002 2.42336543-10.28118 12.15693-15.75899 23.51223-5.87611 23.77943 9.20581.2672 20.24901 16.8326 22.89361 21.0141-.0867.3226-.1913.6402-.3133.9511 0 0-12.947-21.6633-23.48576-21.9652-10.53873-.3019-3.6085-13.1749 7.98176-26.20279543z" fill="#000" opacity=".1" transform="matrix(-1 0 0 1 1016.21 160.827)"/><path d="m.00000194 1.74094c0 2.71994.30269706 4.92421.67708806 4.92421.37439 0 .67709-2.20427.67709-4.92421 0-2.719938-.379692-1.440128-.751429-1.440128-.371736 0-.60274906-1.27981-.60274906 1.440128z" fill="#ffd037" transform="matrix(-1 0 0 1 1013.95 168.932)"/><path d="m1.4487 1.86398c2.3738 1.30119 4.44224 2.08938 4.62015 1.75807.1779-.33131-1.59316-1.65387-3.9829-2.955064-2.389731-1.301189-1.436483-.355346-1.617041-.024037-.180557.331309-1.391356-.080154.979791 1.221031z" fill="#ffd037" transform="matrix(-1 0 0 1 1019.14 172.055)"/><path d="m9.74917 0s3.54473 4.66237-1.63564 11.7054c-5.18042 7.0429-9.45008 12.9851-7.724157 17.367 0 0 7.814437-13.0761 14.176427-13.2577 6.362-.1817 2.18-7.94344-4.81663-15.8147z" fill="#fc6681" transform="matrix(-1 0 0 1 1173.74 180.31)"/><path d="m9.52973 0c.31174.452328.55767.947171.73017 1.46952 6.2054 7.33688 9.5138 14.18478 3.5475 14.35578-5.55751.1603-12.21424 10.1531-13.80739984 12.6833.05216104.1949.11510184.3866.18852584.5744 0 0 7.814434-13.076 14.176474-13.2577 6.362-.1816 2.1613-7.95404-4.83527-15.8253z" fill="#000" opacity=".1" transform="matrix(-1 0 0 1 1173.52 180.31)"/><path d="m.81782 1.04991c0 1.64052-.183215 2.97109-.408913 2.97109-.225697 0-.40890408-1.33592-.40890408-2.97109 0-1.635168.22835008-.868348.45404708-.868348.225698 0 .36377-.772163.36377.868348z" fill="#ffd037" transform="matrix(-1 0 0 1 1158.22 185.21)"/><path d="m2.79528 1.11843c-1.43119.78553-2.681814 1.26111-2.7880241 1.06874-.1062105-.19237.9665151-.99927 2.3897341-1.78479 1.42322-.785523.86827-.213744.97448-.013356.10621.200389.86562-.056114-.57619.729406z" fill="#ffd037" transform="matrix(-1 0 0 1 1157.94 187.101)"/><path d="m7.95371 0s-3.54477 4.66237 1.63564 11.7054c5.18045 7.0429 9.45005 12.9851 7.72415 17.367 0 0-7.81443-13.0761-14.17643-13.2577-6.36201-.1817-2.179973-7.94344 4.81664-15.8147z" fill="#fc6681" transform="matrix(-1 0 0 1 1190.66 180.31)"/><path d="m7.96718 0c-.31173.452328-.55762.947171-.73019 1.46952-6.20535 7.33688-9.51381 14.18478-3.54743 14.35578 5.55746.1603 12.21424 10.1531 13.80734 12.6833-.0521.1949-.1151.3866-.1885.5744 0 0-7.81444-13.076-14.17645-13.2577-6.36201-.1816-2.161381-7.95404 4.83523-15.8253z" fill="#000" opacity=".1" transform="matrix(-1 0 0 1 1190.68 180.31)"/><path d="m.00000065 1.04991c0 1.64052.18321135 2.97109.40890835 2.97109s.408913-1.33592.408913-2.97109c0-1.635168-.228355-.868348-.454052-.868348s-.36376935-.772163-.36376935.868348z" fill="#ffd037" transform="matrix(-1 0 0 1 1189.3 185.21)"/><path d="m.869518 1.11843c1.431182.78553 2.681812 1.26111 2.788022 1.06874s-.96651-.99927-2.38973-1.78479c-1.423223-.785523-.868273-.213744-.974483-.013356-.106211.200389-.86296-.056114.576191.729406z" fill="#ffd037" transform="matrix(-1 0 0 1 1192.43 187.101)"/></svg>