<svg height="24" viewBox="0 0 24 24" width="24" xmlns="http://www.w3.org/2000/svg"><g fill="none" fill-rule="evenodd"><path d="m0 0h24v24h-24z"/><g fill="#335eea"><path d="m10.5 5h9c.8284271 0 1.5.67157288 1.5 1.5s-.6715729 1.5-1.5 1.5h-9c-.82842712 0-1.5-.67157288-1.5-1.5s.67157288-1.5 1.5-1.5zm0 5h9c.8284271 0 1.5.6715729 1.5 1.5s-.6715729 1.5-1.5 1.5h-9c-.82842712 0-1.5-.6715729-1.5-1.5s.67157288-1.5 1.5-1.5zm0 5h9c.8284271 0 1.5.6715729 1.5 1.5s-.6715729 1.5-1.5 1.5h-9c-.82842712 0-1.5-.6715729-1.5-1.5s.67157288-1.5 1.5-1.5z"/><path d="m5.5 8c-.82842712 0-1.5-.67157288-1.5-1.5s.67157288-1.5 1.5-1.5 1.5.67157288 1.5 1.5-.67157288 1.5-1.5 1.5zm0 5c-.82842712 0-1.5-.6715729-1.5-1.5s.67157288-1.5 1.5-1.5 1.5.6715729 1.5 1.5-.67157288 1.5-1.5 1.5zm0 5c-.82842712 0-1.5-.6715729-1.5-1.5s.67157288-1.5 1.5-1.5 1.5.6715729 1.5 1.5-.67157288 1.5-1.5 1.5z" opacity=".3"/></g></g></svg>