<svg height="24" viewBox="0 0 24 24" width="24" xmlns="http://www.w3.org/2000/svg"><g fill="none" fill-rule="evenodd"><path d="m0 0h24v24h-24z"/><g fill="#335eea"><path d="m8.40093151 17h-3.40093151c-1.65685425 0-3-1.8431458-3-3.5s1.34314575-3.5 3-3.5h1v-2h15v3.5c0 4.1421356-3.3578644 7.5-7.5 7.5-1.9690815 0-3.76092974-.7588255-5.09906849-2zm-1.53588492-2c-.47890517-.9059836-.77768194-1.9218789-.84864431-3h-1.01640228c-.55228475 0-1 .9477153-1 1.5s.44771525 1.5 1 1.5z"/><rect height="2" opacity=".3" rx="1" width="15" x="6" y="21"/><path d="m8.11576273 0 1.1574628 1.15267194c-.85545455.85901007-.85257222 2.24885825.00643785 3.10431279.07355924.07325477.15222252.14119895.23539753.20332093l.48493909.36219265-.97749629 1.30876803-.48493909-.36219266c-.14507131-.10835126-.28227341-.22685742-.41057318-.35462615-1.49825912-1.49205768-1.50328639-3.91618841-.01122871-5.41444753z" opacity=".3"/><path d="m13.1157627 1 1.1574628 1.15267194c-.8554545.85901007-.8525722 2.24885825.0064379 3.10431279.0735592.07325477.1522225.14119895.2353975.20332093l.4849391.36219265-.9774963 1.30876803-.4849391-.36219266c-.1450713-.10835126-.2822734-.22685742-.4105732-.35462615-1.4982591-1.49205768-1.5032863-3.91618841-.0112287-5.41444753z" opacity=".3"/><path d="m18.1157627 0 1.1574628 1.15267194c-.8554545.85901007-.8525722 2.24885825.0064379 3.10431279.0735592.07325477.1522225.14119895.2353975.20332093l.4849391.36219265-.9774963 1.30876803-.4849391-.36219266c-.1450713-.10835126-.2822734-.22685742-.4105732-.35462615-1.4982591-1.49205768-1.5032863-3.91618841-.0112287-5.41444753z" opacity=".3"/></g></g></svg>