<svg height="24" viewBox="0 0 24 24" width="24" xmlns="http://www.w3.org/2000/svg"><g fill="#335eea" fill-rule="evenodd"><path d="m6 10c0 .5522847-.44771525 1-1 1s-1-.4477153-1-1v-4c0-1.65685425 1.34314575-3 3-3s3 1.34314575 3 3c0 .55228475-.44771525 1-1 1s-1-.44771525-1-1-.44771525-1-1-1-1 .44771525-1 1z" opacity=".3"/><path d="m6 20h-2c0-2.7614237 2.23857625-4 5-4h6c2.7614237 0 5 1.2385763 5 4h-2c0-1.6568542-1.3431458-2-3-2h-6c-1.65685425 0-3 .3431458-3 2z" opacity=".3"/><path d="m2 9h21l-.5057953 4.5521576c-.2813515 2.5321634-2.4216726 4.4478424-4.9694187 4.4478424h-10.04957203c-2.54774609 0-4.68806719-1.915679-4.96941868-4.4478424zm17.25 2.5c0 1.4305987-.555521 2.5416408-1.7 3.4-.3313708.2485281-.3985281.7186292-.15 1.05s.7186292.3985281 1.05.15c1.5221877-1.1416408 2.3-2.6972654 2.3-4.6 0-.4142136-.3357864-.75-.75-.75s-.75.3357864-.75.75z"/></g></svg>