<svg height="24" viewBox="0 0 24 24" width="24" xmlns="http://www.w3.org/2000/svg"><g fill="none" fill-rule="evenodd"><path d="m0 0h24v24h-24z"/><g fill="#335eea"><path d="m13.6855025 18.7082217c2.2258834-.889251 4.9973825-1.4586582 8.3144975-1.7082217 0-.0674822 0-3.8987137 0-11.49369474h-.0000238c0-.27612922-.223847-.49997618-.4999762-.49997618-.0042183 0-.0084365.00005339-.0126535.00016014-2.8291155.07162251-5.658231.73612611-8.4873465 1.99351078v11.2438906h-.0000146c0 .2761504.2238642.5000146.5000146.5000146.0635398 0 .1264972-.0121106.1855025-.0356835z"/><path d="m2.68550249 18.7082217c2.22588339-.889251 4.99738256-1.4586582 8.31449751-1.7082217 0-.0674822 0-3.8987137 0-11.49369474h-.0000238c0-.27612922-.223847-.49997618-.4999762-.49997618-.0042183 0-.0084365.00005339-.0126535.00016014-2.82911547.07162251-5.65823098.73612611-8.4873465 1.99351078v11.2438906h-.00001458c0 .2761504.22386416.5000146.50001458.5000146.06353975 0 .12649724-.0121106.18550249-.0356835z" opacity=".3"/></g></g></svg>