<svg height="24" viewBox="0 0 24 24" width="24" xmlns="http://www.w3.org/2000/svg"><g fill="none" fill-rule="evenodd"><path d="m0 0h24v24h-24z"/><g fill="#335eea"><path d="m5.5 4h13c.8284271 0 1.5.67157288 1.5 1.5v4c0 .8284271-.6715729 1.5-1.5 1.5h-13c-.82842712 0-1.5-.6715729-1.5-1.5v-4c0-.82842712.67157288-1.5 1.5-1.5zm5.5 2c-.5522847 0-1 .44771525-1 1s.4477153 1 1 1h2c.5522847 0 1-.44771525 1-1s-.4477153-1-1-1z" opacity=".3"/><path d="m5.5 13h13c.8284271 0 1.5.6715729 1.5 1.5v4c0 .8284271-.6715729 1.5-1.5 1.5h-13c-.82842712 0-1.5-.6715729-1.5-1.5v-4c0-.8284271.67157288-1.5 1.5-1.5zm5.5 2c-.5522847 0-1 .4477153-1 1s.4477153 1 1 1h2c.5522847 0 1-.4477153 1-1s-.4477153-1-1-1z"/></g></g></svg>