<svg height="24" viewBox="0 0 24 24" width="24" xmlns="http://www.w3.org/2000/svg"><g fill="none" fill-rule="evenodd"><path d="m0 0h24v24h-24z"/><g fill="#335eea"><path d="m3.5 3h6c.8284271 0 1.5.67157288 1.5 1.5v14c0 .8284271-.6715729 1.5-1.5 1.5h-6c-.82842712 0-1.5-.6715729-1.5-1.5v-14c0-.82842712.67157288-1.5 1.5-1.5zm5.5 6c-.55228475 0-1 .44771525-1 1v2c0 .5522847.44771525 1 1 1s1-.4477153 1-1v-2c0-.55228475-.44771525-1-1-1z" opacity=".3"/><path d="m14.5 3h6c.8284271 0 1.5.67157288 1.5 1.5v14c0 .8284271-.6715729 1.5-1.5 1.5h-6c-.8284271 0-1.5-.6715729-1.5-1.5v-14c0-.82842712.6715729-1.5 1.5-1.5zm5.5 6c-.5522847 0-1 .44771525-1 1v2c0 .5522847.4477153 1 1 1s1-.4477153 1-1v-2c0-.55228475-.4477153-1-1-1z" transform="matrix(-1 0 0 1 35 0)"/></g></g></svg>