<svg height="24" viewBox="0 0 24 24" width="24" xmlns="http://www.w3.org/2000/svg"><g fill="none" fill-rule="evenodd"><path d="m0 0h24v24h-24z"/><g fill="#335eea"><path d="m13 18.9450712v1.0549288h1c1.1045695 0 2 .8954305 2 2h-8c0-1.1045695.8954305-2 2-2h1v-1.0551755c-1.97127123-.2186278-3.79172622-1.0784305-5.20627445-2.4265544l-1.05516449 1.1559165c-.37234298.407896-1.00485165.4367174-1.41274765.0643745-.40789601-.372343-.43671744-1.0048517-.06437447-1.4127477l1.78796791-1.9586914c.41209628-.4514451 1.12920252-.4308135 1.5146619.0435778 1.32216219 1.6272072 3.29913881 2.5893002 5.43593125 2.5893002 3.8659932 0 7-3.1340068 7-7 0-2.26531256-1.0824158-4.34801275-2.8785665-5.65876149-.4461254-.32556194-.5438614-.95113813-.2182995-1.39726352.325562-.4461254.9511382-.54386139 1.3972636-.21829945 2.3067386 1.68335254 3.6996024 4.36339244 3.6996024 7.27432446 0 4.6325537-3.5000495 8.4476269-8 8.9450712z"/><circle cx="12" cy="10" opacity=".3" r="6"/></g></g></svg>