<svg height="24" viewBox="0 0 24 24" width="24" xmlns="http://www.w3.org/2000/svg"><g fill="none" fill-rule="evenodd"><path d="m0 0h24v24h-24z"/><g fill="#335eea"><rect height="7.650484" opacity=".3" rx="1" transform="matrix(.83867057 .54463904 -.54463904 .83867057 8.340695 -4.6522)" width="2" x="11.023129" y="7.927515"/><path d="m7.5 3h9c2.4852814 0 4.5 2.01471863 4.5 4.5v8c0 2.4852814-2.0147186 4.5-4.5 4.5h-9c-2.48528137 0-4.5-2.0147186-4.5-4.5v-8c0-2.48528137 2.01471863-4.5 4.5-4.5zm-1.5 4.88235294 2.57142857 4.11764706h6.85714283l2.5714286-4.11764706c-1-1.92156863-3-2.88235294-6-2.88235294s-5 .96078431-6 2.88235294z"/></g></g></svg>