<svg height="24" viewBox="0 0 24 24" width="24" xmlns="http://www.w3.org/2000/svg"><g fill="none" fill-rule="evenodd"><path d="m0 0h24v24h-24z"/><path d="m6.98113892 21.5h.63696316c.22547553 0 .42305537-.1509107.48238191-.3684413l1.27681533-4.6817992c.06887627-.2525462.32087005-.4092302.57783059-.3592817 1.40452849.2730148 2.41948519.4095222 3.04487009.4095222.646503 0 2.0010968-.1458823 4.0637814-.4376468l.0000061.0000433c.2493941-.0352766.4860879.1204798.552361.3634814l1.2833675 4.7056808c.0593265.2175306.2569064.3684413.4823819.3684413h.6565047c.2606803 0 .4776196-.2002772.4984076-.4601274l.6176713-7.7208917c.1761683-2.2021035-1.4661767-4.13007373-3.6682802-4.30624201-.1061151-.00848921-.2125268-.01273889-.3189809-.01273889h-4.1672204c-.9743888-2.03207858-1.8077221-3.36541192-2.5-4-.3172665-.29082766-2.13915033-1.05783109-5.46565139-2.30101032l.00003142-.00008406c-.15524775-.05801915-.32813473.0208002-.38615389.17604795-.02126369.05689741-.02476073.11890807-.01002889.17783542l.29119458 1.1650665c.04353615.17414458-.00963283.35826273-.13930271.4823895-.65372408.62577879-1.08375379 1.05903046-1.29008912 1.29975501-.21492607.25074708-.52402507 1.00745907-.92729699 2.27013596l.00007489.00002392c-.04626205.14485022-.02408354.30288166.0602633.42940191l.60250157.90375237c.14804744.22207116.44441132.28871339.67327303.15139636l.8411842-.50471052c.40859127-.24515476.93855714-.11266329 1.1837119.29592798.07466689.12444481.11673586.26571386.12231352.41073298l.42548291 11.06255564c.01032565.268467.23096506.4807834.49963059.4807834z" fill="#335eea"/></g></svg>