<svg fill="none" height="19" viewBox="0 0 86 19" width="86" xmlns="http://www.w3.org/2000/svg"><g fill="#335eea"><path d="m1.13281 18h10.05469v-2.8125h-7.07812v-13.74609h-2.97657zm15.37499.2344c1.3945 0 2.6367-.4453 3.6445-1.9102l.1875 1.6758h2.3555v-7.1016c0-2.85934-1.875-4.85152-5.0625-4.85152-2.3086 0-3.7969 1.03124-4.9219 2.5664l2.1914 1.58202c.5039-.85546 1.4063-1.65233 2.7539-1.65233 1.5118 0 2.3086.98437 2.3086 2.47263h-3.0468c-2.625 0-4.6641.8438-4.6641 3.3867 0 2.4493 1.8516 3.8321 4.2539 3.8321zm.4102-2.4141c-1.1133 0-1.7344-.5508-1.7344-1.3242 0-.7383.5976-1.418 1.8984-1.418h2.8828c-.0468 1.4649-1.4179 2.7422-3.0468 2.7422zm8.8359 2.1797h2.8359v-6.4102c0-2.03902 1.0313-2.90621 2.6368-2.90621 1.4648 0 2.2382 1.11329 2.2382 2.64841v6.668h2.8243v-7.0312c0-2.44927-1.1719-4.92192-4.2422-4.92192-1.1485 0-2.5196.45703-3.4571 1.60546v-1.35937h-2.8359zm21.0117-16.55859v6.02343c-.8086-1.00781-2.1094-1.41796-3.3281-1.41796-3.2461 0-5.0273 2.85937-5.0273 6.09372 0 3.2696 1.7812 6.0938 5.0742 6.0938 1.3008 0 2.5898-.4453 3.3984-1.5469l.1289 1.3125h2.6602v-16.55859zm-2.5898 14.20309c-1.9688 0-2.8594-1.5351-2.8594-3.5039 0-1.9453.8906-3.50388 2.8594-3.50388 1.9687 0 2.8359 1.53518 2.8359 3.50388 0 1.9922-.8672 3.5039-2.8359 3.5039zm8.9531 2.3555h2.8594v-3.4336l1.8047-1.9922 3.4336 5.4258h3.375l-4.8633-7.1719 4.3828-4.53513h-3.7149l-4.4179 4.86323v-9.71479h-2.8594zm13.0078-13.92188h2.9766v-2.63671h-2.9766zm.0703 13.92188h2.836v-11.70703h-2.836zm10.3946.2344c.8086 0 1.6757-.1875 2.1093-.3516v-2.5898c-.3867.1875-1.0312.4218-1.6289.4218-.75 0-1.3242-.3281-1.3242-1.4531v-5.57811h2.9531v-2.39062h-2.9531v-4.94531l-2.789 2.03906v2.90625h-1.9336v2.39062h1.8867v6.08201c0 2.1328 1.3711 3.4688 3.6797 3.4688zm5.332-.2344h2.8711v-3.0938h-2.8711z"/><path d="m1.13281 18h-.299997v.3h.299997zm10.05469 0v.3h.3v-.3zm0-2.8125h.3v-.3h-.3zm-7.07812 0h-.30001v.3h.30001zm0-13.74609h.3v-.3h-.3zm-2.97657 0v-.3h-.299997v.3zm0 16.85859h10.05469v-.6h-10.05469zm10.35469-.3v-2.8125h-.6v2.8125zm-.3-3.1125h-7.07812v.6h7.07812zm-6.77812.3v-13.74609h-.60001v13.74609zm-.3-14.04609h-2.97657v.6h2.97657zm-3.276567.3v16.55859h.599997v-16.55859zm19.319487 14.88279.2982-.0333-.0894-.7993-.4559.6626zm.1875 1.6758-.2981.0334.0298.2666h.2683zm2.3555 0v.3h.3v-.3zm-9.9844-9.38672-.2419-.17733-.1786.24371.2449.17686zm2.1914 1.58202-.1756.2433.267.1927.1671-.2837zm5.0625.8203v.3h.3v-.3zm0 2.0625.2999.0096.0099-.3096h-.3098zm-3.457 5.4563c.7292 0 1.4357-.1165 2.0976-.4355.6635-.3199 1.2644-.8347 1.7941-1.6046l-.4943-.3401c-.4781.6949-1.0022 1.1351-1.5604 1.4042-.5598.2698-1.1716.376-1.837.376zm3.3464-2.1768.1875 1.6758.5963-.0668-.1875-1.6757zm.4856 1.9424h2.3555v-.6h-2.3555zm2.6555-.3v-7.1016h-.6v7.1016zm0-7.1016c0-1.49633-.4919-2.79086-1.4252-3.71158-.9334-.92078-2.28-1.43995-3.9373-1.43995v.60001c1.5303 0 2.7149.47692 3.5159 1.26708.801.79022 1.2466 1.92147 1.2466 3.28444zm-5.3625-5.15153c-2.4223 0-3.994 1.09273-5.1638 2.68908l.4839.35466c1.0802-1.47396 2.4851-2.44373 4.6799-2.44373zm-5.0975 3.10965 2.1914 1.58208.3512-.48653-2.1914-1.58203zm2.6255 1.49108c.4676-.79385 1.2847-1.50463 2.4954-1.50463v-.6c-1.4845 0-2.4721.88297-3.0123 1.80013zm2.4954-1.50463c.6877 0 1.1772.22149 1.4981.5787.3251.36197.5105.90063.5105 1.59393h.6c0-.795-.213-1.4926-.6642-1.99489-.4555-.50705-1.1203-.77774-1.9444-.77774zm2.3086 1.87263h-3.0468v.6h3.0468zm-3.0468 0c-1.3353 0-2.5684.2129-3.4766.7861-.9307.5874-1.4875 1.5333-1.4875 2.9006h.6c0-1.1755.4628-1.923 1.2078-2.3932.7676-.4845 1.8665-.6935 3.1563-.6935zm-4.9641 3.6867c0 1.3066.497 2.3501 1.3312 3.0626.8287.7078 1.9663 1.0695 3.2227 1.0695v-.6c-1.1459 0-2.1353-.3298-2.833-.9257-.6921-.5912-1.1209-1.4637-1.1209-2.6064zm4.9641 1.118c-.5104 0-.8713-.1264-1.0979-.3068-.2199-.175-.3365-.4182-.3365-.7174h-.6c0 .4742.1939.8932.5629 1.1869.3622.2883.8686.4373 1.4715.4373zm-1.4344-1.0242c0-.2843.113-.5533.3544-.7562.2444-.2054.6442-.3618 1.244-.3618v-.6c-.701 0-1.2504.1835-1.63.5025-.3826.3215-.5684.7615-.5684 1.2155zm1.5984-1.118h2.8828v-.6h-2.8828zm2.583-.3096c-.0412 1.2859-1.2624 2.4518-2.747 2.4518v.6c1.7732 0 3.2941-1.3888 3.3467-3.0326zm6.0889 4.9315h-.3v.3h.3zm2.8359 0v.3h.3v-.3zm4.875 0h-.3v.3h.3zm2.8243 0v.3h.3v-.3zm-7.6993-10.34766h-.3v.8419l.5324-.65218zm0-1.35937h.3v-.3h-.3zm-2.8359 0v-.3h-.3v.3zm0 12.00703h2.8359v-.6h-2.8359zm3.1359-.3v-6.4102h-.6v6.4102zm0-6.4102c0-.9722.2457-1.61172.6315-2.00863.3845-.39561.9545-.59758 1.7053-.59758v-.6c-.8548 0-1.6031.23164-2.1356.77938-.5311.54645-.8012 1.36013-.8012 2.42683zm2.3368-2.60621c.6485 0 1.1191.24237 1.4342.63604.322.40217.504.99127.504 1.71237h.6c0-.814-.2047-1.54914-.6356-2.08737-.4377-.54677-1.0863-.86104-1.9026-.86104zm1.9382 2.34841v6.668h.6v-6.668zm.3 6.968h2.8243v-.6h-2.8243zm3.1243-.3v-7.0312h-.6v7.0312zm0-7.0312c0-1.2664-.3021-2.56565-1.0277-3.55667-.7351-1.00394-1.8868-1.66526-3.5145-1.66526v.60001c1.4426 0 2.4119.57501 3.0304 1.4197.6279.85762.9118 2.01931.9118 3.20222zm-4.5422-5.22193c-1.2204 0-2.6844.48459-3.6895 1.71576l.4648.37943c.87-1.06571 2.1482-1.49518 3.2247-1.49518zm-3.1571 1.90547v-1.35937h-.6v1.35937zm-.3-1.65937h-2.8359v.6h2.8359zm-3.1359.3v11.70703h.6v-11.70703zm21.3117-4.85156v-.3h-.3v.3zm0 6.02343-.234.18774.534.66556v-.8533zm.1172 9.22266.2986-.0293-.0766-.7801-.4638.6319zm.1289 1.3125-.2985.0293.0265.2707h.272zm2.6602 0v.3h.3v-.3zm0-16.55859h.3v-.3h-.3zm-3.2063 0v6.02343h.6v-6.02343zm.534 5.83569c-.8838-1.10156-2.2863-1.53023-3.5621-1.53023v.60001c1.1617 0 2.3608.39164 3.0941 1.3057zm-3.5621-1.53023c-1.7221 0-3.0653.76301-3.9698 1.95239-.8986 1.18177-1.3575 2.77294-1.3575 4.44134h.6c0-1.566.4317-3.02163 1.2351-4.07814.7977-1.0489 1.9682-1.71558 3.4922-1.71558zm-5.3273 6.39373c0 1.6854.4586 3.2776 1.3644 4.4558.9118 1.1861 2.267 1.938 4.0098 1.938v-.6c-1.5502 0-2.7321-.6603-3.5342-1.7037-.8081-1.0512-1.24-2.506-1.24-4.0901zm5.3742 6.3938c1.3643 0 2.7586-.4682 3.6403-1.6694l-.4837-.355c-.7355 1.002-1.9194 1.4244-3.1566 1.4244zm3.0998-1.8176.129 1.3125.5971-.0586-.1289-1.3125zm.4275 1.5832h2.6602v-.6h-2.6602zm2.9602-.3v-16.55859h-.6v16.55859zm-.3-16.85859h-2.9063v.6h2.9063zm-5.4961 14.20309c-.896 0-1.5189-.3439-1.9273-.8927-.4176-.5612-.6321-1.3664-.6321-2.3112h-.6c0 1.024.2308 1.9707.7507 2.6694.5291.7109 1.3359 1.1345 2.4087 1.1345zm-2.5594-3.2039c0-.9324.2142-1.7382.6325-2.30285.4092-.55247 1.0325-.90103 1.9269-.90103v-.6c-1.0744 0-1.8808.43073-2.4091 1.14389-.5192.70099-.7503 1.64719-.7503 2.65999zm2.5594-3.20388c.8956 0 1.512.34361 1.9145.89132.4121.56086.6214 1.36626.6214 2.31256h.6c0-1.0224-.2243-1.9689-.7379-2.66786-.5233-.71205-1.3249-1.13602-2.398-1.13602zm2.5359 3.20388c0 .9587-.2095 1.7635-.621 2.3209-.4017.544-1.0177.883-1.9149.883v.6c1.0715 0 1.8735-.4168 2.3976-1.1267.5143-.6965.7383-1.6437.7383-2.6772zm6.4172 5.8594h-.3v.3h.3zm2.8594 0v.3h.3v-.3zm0-3.4336-.2224-.2014-.0776.0857v.1157zm1.8047-1.9922.2535-.1604-.211-.3334-.2649.2924zm3.4336 5.4258-.2535.1604.0883.1396h.1652zm3.375 0v.3h.5659l-.3176-.4684zm-4.8633-7.1719-.2157-.2085-.1694.1752.1368.2017zm4.3828-4.53513.2157.20848.4914-.50848h-.7071zm-3.7149 0v-.3h-.1327l-.0893.09828zm-4.4179 4.86323h-.3v.7764l.522-.5746zm0-9.71479h.3v-.3h-.3zm-2.8594 0v-.3h-.3v.3zm0 16.85859h2.8594v-.6h-2.8594zm3.1594-.3v-3.4336h-.6v3.4336zm-.0777-3.2322 1.8047-1.9922-.4447-.4028-1.8047 1.9922zm1.3289-2.0332 3.4336 5.4258.507-.3208-3.4336-5.4258zm3.6871 5.5654h3.375v-.6h-3.375zm3.6233-.4684-4.8633-7.1718-.4966.3367 4.8633 7.1719zm-4.8959-6.795 4.3828-4.53515-.4314-.41696-4.3828 4.53511zm4.1671-5.04363h-3.7149v.6h3.7149zm-3.9369.09828-4.418 4.86325.4441.4035 4.418-4.86331zm-3.8959 5.06495v-9.71479h-.6v9.71479zm-.3-10.01479h-2.8594v.6h2.8594zm-3.1594.3v16.55859h.6v-16.55859zm13.3078 2.63671h-.3v.30001h.3zm2.9766 0v.30001h.3v-.30001zm0-2.63671h.3v-.3h-.3zm-2.9766 0v-.3h-.3v.3zm.0703 16.55859h-.3v.3h.3zm2.836 0v.3h.3v-.3zm0-11.70703h.3v-.3h-.3zm-2.836 0v-.3h-.3v.3zm-.0703-1.91484h2.9766v-.60001h-2.9766zm3.2766-.30001v-2.63671h-.6v2.63671zm-.3-2.93671h-2.9766v.6h2.9766zm-3.2766.3v2.63671h.6v-2.63671zm.3703 16.85859h2.836v-.6h-2.836zm3.136-.3v-11.70703h-.6v11.70703zm-.3-12.00703h-2.836v.6h2.836zm-3.136.3v11.70703h.6v-11.70703zm12.8039 11.58983.1062.2806.1938-.0733v-.2073zm0-2.5898h.3v-.4789l-.4308.2089zm-2.9531-6.60941v-.3h-.3v.3zm2.9531 0v.3h.3v-.3zm0-2.39062h.3v-.3h-.3zm-2.9531 0h-.3v.3h.3zm0-4.94531h.3v-.590956l-.477.348776zm-2.789 2.03906-.1771-.24218-.123.08988v.1523zm0 2.90625v.3h.3v-.3zm-1.9336 0v-.3h-.3v.3zm0 2.39062h-.3v.3h.3zm1.8867 0h.3v-.3h-.3zm3.6797 9.85081c.8441 0 1.7473-.1939 2.2155-.371l-.2123-.5612c-.3991.151-1.2302.3322-2.0032.3322zm2.4093-.6516v-2.5898h-.6v2.5898zm-.4308-2.8598c-.3688.1788-.9657.3918-1.4981.3918v.6c.663 0 1.3552-.2557 1.7598-.4519zm-1.4981.3918c-.3377 0-.5794-.0746-.7381-.2234-.1551-.1456-.2861-.4147-.2861-.9297h-.6c0 .6101.1562 1.0675.4756 1.3672.316.2965.7363.3859 1.1486.3859zm-1.0242-1.1531v-5.57811h-.6v5.57811zm-.3-5.27811h2.9531v-.6h-2.9531zm3.2531-.3v-2.39062h-.6v2.39062zm-.3-2.69062h-2.9531v.6h2.9531zm-2.6531.3v-4.94531h-.6v4.94531zm-.477-5.18749-2.7891 2.03906.3541.48436 2.7891-2.03906zm-2.9121 2.28124v2.90625h.6001v-2.90625zm.3001 2.60625h-1.9336v.6h1.9336zm-2.2336.3v2.39062h.6v-2.39062zm.3 2.69062h1.8867v-.6h-1.8867zm1.5867-.3v6.08201h.6v-6.08201zm0 6.08201c0 1.1324.3656 2.0841 1.0673 2.7516.7.6658 1.7009 1.0172 2.9124 1.0172v-.6c-1.0972 0-1.9361-.3167-2.4988-.852-.561-.5336-.8809-1.3163-.8809-2.3168zm9.3117 3.2344h-.3v.3h.3zm2.8711 0v.3h.3v-.3zm0-3.0938h.3v-.2999h-.3zm-2.8711 0v-.2999h-.3v.2999zm0 3.3938h2.8711v-.6h-2.8711zm3.1711-.3v-3.0938h-.6v3.0938zm-.3-3.3937h-2.8711v.5999h2.8711zm-3.1711.2999v3.0938h.6v-3.0938z"/></g></svg>