<svg height="24" viewBox="0 0 24 24" width="24" xmlns="http://www.w3.org/2000/svg" xmlns:xlink="http://www.w3.org/1999/xlink"><defs><path id="a" d="m20 18h-12c-.55228475 0-1 .4477153-1 1s.44771525 1 1 1h12v1c0 .626904-.3581722 1-1 1h-12c-1.7463973 0-3-1.3058361-3-3v-14c0-1.69416385 1.2536027-3 3-3h12c.6418278 0 1 .37309604 1 1z"/><mask id="b" fill="#fff"><use fill="#fff" fill-rule="evenodd" xlink:href="#a"/></mask></defs><g fill="none" fill-rule="evenodd"><path d="m0 0h24v24h-24z"/><g fill="#335eea"><use opacity=".3" xlink:href="#a"/><path d="m9.35 11.5877565c-.77635225-.2089613-1.35-.9459497-1.35-1.82305062 0-1.03959482.80588745-1.88235294 1.8-1.88235294.05099799 0 .10150064.00221788.15142455.00656644.36887405-1.10008036 1.37063345-1.88891938 2.54857545-1.88891938s2.1797014.78883902 2.5485755 1.88891938c.0499239-.00434856.1004265-.00656644.1514245-.00656644.9941125 0 1.8.84275812 1.8 1.88235294 0 .87710092-.5736478 1.61408932-1.35 1.82305062v1.9416553c0 .2598987-.2014719.4705882-.45.4705882h-5.4c-.24852814 0-.45-.2106895-.45-.4705882z" mask="url(#b)" opacity=".3"/></g></g></svg>