<svg height="24" viewBox="0 0 24 24" width="24" xmlns="http://www.w3.org/2000/svg"><g fill="none" fill-rule="evenodd"><path d="m0 0h24v24h-24z"/><g fill="#335eea"><path d="m8.37867966 15.1213203c.97631073.9763108.97631073 2.5592232 0 3.5355339l-2.12132035 2.1213204c-.97631073.9763107-2.55922317.9763107-3.5355339 0s-.97631073-2.5592232 0-3.5355339l2.12132034-2.1213204c.97631073-.9763107 2.55922318-.9763107 3.53553391 0zm-4.56083861 4.6315496c.48815537.4881554 1.27961159.4881554 1.76776696 0 .48815536-.4881554.48815536-1.2796116 0-1.767767-.48815537-.4881553-1.27961159-.4881553-1.76776696 0-.48815536.4881554-.48815536 1.2796116 0 1.767767z" opacity=".3"/><path d="m14.3890873 1.33273811 7.7781746 7.77817459c.7810486.78104859.7810486 2.0473785 0 2.8284271l-9.1923882 9.1923882c-.7810485.7810486-2.0473785.7810486-2.8284271 0l-7.77817458-7.7781746c-.78104859-.7810486-.78104859-2.0473786 0-2.8284271l9.19238818-9.19238819c.7810486-.78104858 2.0473785-.78104858 2.8284271 0z"/></g></g></svg>