<svg height="24" viewBox="0 0 24 24" width="24" xmlns="http://www.w3.org/2000/svg"><g fill="none" fill-rule="evenodd"><path d="m0 0h24v24h-24z"/><g fill="#335eea"><path d="m5.84026576 8h12.31946844c1.0401773 0 1.9067095.79732479 1.9930916 1.83390904l.6666666 7.99999996c.0917295 1.1007541-.7262465 2.067453-1.8270005 2.1591825-.055244.0046037-.1106555.0069085-.166091.0069085h-13.6528018c-1.1045695 0-2-.8954305-2-2 0-.0554355.00230481-.110847.00690848-.166091l.66666667-7.99999996c.08638202-1.03658425.95291424-1.83390904 1.99309151-1.83390904zm4.65973424 2c-.2761424 0-.5.2238576-.5.5v1c0 .2761424.2238576.5.5.5h3c.2761424 0 .5-.2238576.5-.5v-1c0-.2761424-.2238576-.5-.5-.5z"/><path d="m10 8h-2v-1c0-1.65685425 1.34314575-3 3-3h2c1.6568542 0 3 1.34314575 3 3v1h-2v-1c0-.55228475-.4477153-1-1-1h-2c-.5522847 0-1 .44771525-1 1z" opacity=".3"/></g></g></svg>