<svg height="24" viewBox="0 0 24 24" width="24" xmlns="http://www.w3.org/2000/svg"><g fill="none" fill-rule="evenodd"><path d="m0 0h24v24h-24z"/><g fill="#335eea"><rect height="3" opacity=".3" rx="1.5" width="3" x="14" y="4.7"/><path d="m6.82775054 15c-.00635542-.1355657-.00956872-.271953-.00956872-.4090909 0-4.74462809 3.84628098-8.5909091 8.59090908-8.5909091 3.532095 0 6.566333 2.13157886 7.8865048 5.1785272-1.5303971.4813718-2.2955957 1.4218627-2.2955957 2.8214728h2.979996c.0132639.1952513.020004.3922931.020004.5909091 0 .1371379-.0032133.2735252-.0095687.4090909h.0095687v1.5c0 .2761424-.2238576.5-.5.5h-22.5c-.55228475 0-1-.4477153-1-1s.44771525-1 1-1z"/></g></g></svg>