<svg height="24" viewBox="0 0 24 24" width="24" xmlns="http://www.w3.org/2000/svg"><g fill="none" fill-rule="evenodd"><path d="m0 0h24v24h-24z"/><g fill="#335eea"><path d="m8.04050792 3c.27727409 1.50768629 1.94436527 2.66666667 3.95949208 2.66666667 2.0151268 0 3.682218-1.15898038 3.9594921-2.66666667h2.4224739c.5522848 0 1 .44771525 1 1 0 .1552451-.0361451.30835816-.1055728.4472136l-3 6c-.169392.338784-.5156551.5527864-.8944272.5527864h-6.76393201c-.37877206 0-.72503518-.2140024-.89442719-.5527864l-3-6c-.24698925-.4939785-.0467649-1.09465154.44721359-1.34164079.13885544-.06942772.2919685-.10557281.4472136-.10557281z" opacity=".3"/><path d="m9.35406592 12h5.29186818c.8178092 0 1.5532267.4979019 1.8569534 1.2572186l2.9485562 7.3713907c.2051134.5127835-.0443025 1.094754-.557086 1.2998674-.1181203.0472481-.2441712.0715233-.3713907.0715233h-13.04593404c-.55228475 0-1-.4477153-1-1 0-.1272194.0242752-.2532704.07152331-.3713907l2.94855627-7.3713907c.3037267-.7593167 1.03914421-1.2572186 1.85695338-1.2572186z"/></g></g></svg>