<svg height="24" viewBox="0 0 24 24" width="24" xmlns="http://www.w3.org/2000/svg"><g fill="none" fill-rule="evenodd"><path d="m0 0h24v24h-24z"/><path d="m18.2641169 18-8.35471278-7.0492889c-1.66462567-1.40452794-1.87547656-3.89256851-.47094865-5.55719419.68831333-.81577875 1.67790573-1.31771022 2.74274243-1.39114724 1.9888446-.1371617 3.7123133 1.36392389 3.8494749 3.3527685.0741597 1.07531492-.3361047 2.12750809-1.1185867 2.86880683l-1.3754893-1.45190539c.348935-.33056998.5318857-.79977824.4988154-1.27929726-.061165-.88689257-.8297175-1.55627703-1.7166101-1.49511202-.524806.03619351-1.0125277.28357099-1.3517637.68562846-.6922231.82041261-.588305 2.04664617.2321076 2.73886931l9.4002189 7.9314347c.3377872.285008.5326936.7044759.5326936 1.1464372 0 .8284271-.6715729 1.5-1.5 1.5h-15.6047369c-.47781531 0-.92704488-.2276419-1.20960749-.6129545-.4899017-.6680478-.34548578-1.6067513.322562-2.096653l6.26836023-4.5967975 1.18272736 1.61281-5.0367205 3.693595z" fill="#335eea"/></g></svg>