<svg height="24" viewBox="0 0 24 24" width="24" xmlns="http://www.w3.org/2000/svg"><g fill="none" fill-rule="evenodd"><path d="m0 0h24v24h-24z"/><g fill="#335eea"><path d="m18 12.4295928c-.7330814.2408363-1.5587435.566014-2.4866826.978088-2.5068216-1.1318155-4.6719195-1.974323-6.5133174-2.5422766v-1.3654042c0-1.93299662 1.5670034-3.5 3.5-3.5h2c1.9329966 0 3.5 1.56700338 3.5 3.5z"/><path d="m1.97502784 15.5343205c-.45241846-2.0898475-2.30967383-8.84755373 13.52497216-.4881638-.4524185 0-12.16771679 7.2801681-13.52497216.4881638zm19.92071486-.4759796c-.5959507 2.9822683-6.1970925 0-6.3957427 0 6.9527579-3.670484 6.5943929-.917621 6.3957427 0z" opacity=".3"/></g></g></svg>