<svg height="24" viewBox="0 0 24 24" width="24" xmlns="http://www.w3.org/2000/svg"><g fill="none" fill-rule="evenodd"><path d="m0 0h24v24h-24z"/><g fill="#335eea"><path d="m6.182345 4.09500888c.55021796-.66863191 1.38414364-1.09500888 2.317655-1.09500888h7c.9330994 0 1.766701.42600075 2.3169264 1.09412386.0215879.01048388.0429564.02181403.0640653.03400124l4.7090131 2.71875c.4782926.27614238.6421678.88773278.3660254 1.36602541l-1.65625 2.86870919c-.2761424.4782926-.8877328.6421677-1.3660254.3660254l-1.4337548-.8277788v8.3801437c0 .5522847-.4477153 1-1 1h-11c-.55228475 0-1-.4477153-1-1v-8.3795148l-1.4326656.8271499c-.47829263.2761423-1.08988303.1122672-1.36602541-.3660254l-1.65625-2.86870919c-.27614237-.47829263-.11226722-1.08988303.36602541-1.36602541l4.70901313-2.71875c.02051623-.01184505.04127772-.02288048.06224747-.03311622z" opacity=".3"/><path d="m9.85156673 3.2226499-.58919729.88379594c-.14719905.22079857-.09626834.51812999.11602515.6773501l1.62160541 1.21620406-.9646447 6.7525126c-.0222567.1557969.0301379.3129806.1414214.4242641l1.4696699 1.4696699c.1952622.1952622.5118446.1952622.7071068 0l1.4696699-1.4696699c.1112835-.1112835.1636781-.2684672.1414214-.4242641l-.9646447-6.7525126 1.6216054-1.21620406c.2122935-.15922011.2632242-.45655153.1160252-.6773501l-.5891973-.88379594c-.0927329-.13909933-.2488486-.2226499-.4160252-.2226499h-3.4648162c-.1671766 0-.32329228.08355057-.41602517.2226499z"/></g></g></svg>