<svg height="24" viewBox="0 0 24 24" width="24" xmlns="http://www.w3.org/2000/svg"><g fill="none" fill-rule="evenodd"><path d="m0 0h24v24h-24z"/><g fill="#335eea"><path d="m4.35382545 3.51940376c1.8493224 1.20007924 3.06471391 2.52694465 3.64617455 3.98059624.53027592 1.3256898 1.58778788 3.0731684 3.1725359 5.2424359l.0000051-.0000038c.769924 1.0539033 2.1329054 1.4890858 3.371108 1.0763516l1.9592856-.6530952c.3113056-.1037686.6537118-.0482037.9162278.1486833l4.5906763 3.4430072c.2209139.1656855.2656855.4790861.1.7-.0813901.1085203-.2033798.1793136-.3379826.196139l-8.3806889 1.0475941c-1.4611965.1826495-2.9045819-.4523131-3.75728673-1.6528757-1.5040269-2.1175891-2.54865373-3.4670013-3.13388047-4.0482364-.70921889-.7043816-1.64908541-1.5739647-2.81959957-2.6087495l.00000107-.0000012c-1.30954932-1.15769781-1.77773705-2.99857653-1.1804015-4.6412493l.66654581-1.83292117c.15098644-.41521271.60998153-.62941042 1.02519424-.47842398.05691059.02069476.11128735.04778458.1620854.08074891z"/><path d="m2.5 8.5c.66666667 3.3333333 1 5.5 1 6.5v4h1.5c0-2.6666667 0-4.4166667 0-5.25s.5-1.0833333 1.5-.75z" opacity=".3"/></g></g></svg>