<svg height="24" viewBox="0 0 24 24" width="24" xmlns="http://www.w3.org/2000/svg"><g fill="none" fill-rule="evenodd"><path d="m0 0h24v24h-24z"/><path d="m6.50558119 3.06113043c.15759257-.0399196.32264126-.06113043.49264401-.06113043h10c.1700027 0 .3350514.02121083.492644.06113043.8315628.05438116 1.5734389.62895642 1.8011079 1.47862891l3.3646476 12.55703576c.1429418.5334661-.1736406 1.081803-.7071068 1.2247449l-6.7614807 1.8117333c-.5334661.1429418-1.0818031-.1736407-1.2247449-.7071068l-1.9650671-7.3337303-1.9650671 7.3337303c-.14294181.5334661-.69127877.8500486-1.22474487.7071068l-6.76148079-1.8117333c-.5334661-.1429419-.85004859-.6912788-.70710678-1.2247449l3.36464759-12.55703576c.22766905-.84967249.96954513-1.42424775 1.80110794-1.47862891z" fill="#335eea"/></g></svg>