<svg height="24" viewBox="0 0 24 24" width="24" xmlns="http://www.w3.org/2000/svg"><g fill="none" fill-rule="evenodd"><path d="m0 0h24v24h-24z"/><g fill="#335eea"><rect height="14" opacity=".3" rx="1" width="7" x="2" y="3"/><path d="m16.6236387 13.0538007c2.2036996.8041332 3.5589647.7418501 4.3763613.9461993.5844894.1461224 1.1049236.4525789 1.5613025.9193695.2607454.266694.4417198.6009869.5224809.9651181.2391725 1.0783672-.4411293 2.1464441-1.5194976 2.3856121-1.2902529.2861668-2.8209407.4830141-4.5920636.5905419-2.9811671.1809916-8.10995687.1856862-15.3863694.0140837-.32579404-.0076833-.58589936-.2739951-.58589936-.5998798h.00004656c0-2.8623697 0-4.9297381 0-6.2021049 4.24980707-.410475 7.09783699-1.5656119 8.54408978-3.46541069.02072389-.02722292.04373824-.0526234.06879142-.07592373.24265368-.22567635.6223102-.2119135.8479786.0307476.4153788.44662727.8065604.85322726 1.1735448 1.21979998-.0242193.0322119-.0467571.06623638-.0674173.10202084l-1.5 2.5980762c-.27614238.4782926-.11226722 1.089883.3660254 1.3660254.4782926.2761424 1.089883.1122672 1.3660254-.3660254l1.3345201-2.3114567c.4969338.4152378.9246366.7159533 1.2831085.9021465.1214375.0630756.2410231.1237812.358784.1822155l-.7084634 1.2270947c-.2761424.4782926-.1122672 1.089883.3660254 1.3660254s1.089883.1122672 1.3660254-.3660254z"/></g></g></svg>