<svg height="24" viewBox="0 0 24 24" width="24" xmlns="http://www.w3.org/2000/svg"><g fill="none" fill-rule="evenodd"><path d="m0 0h24v24h-24z"/><g fill="#335eea"><path d="m10.8282576 15.0671975-3.49478645 2.0177159c-1.3290055.7673017-3.02839825.3119508-3.79569993-1.0170548-.76730169-1.3290055-.31195077-3.0283982 1.01705473-3.7956999l3.63137012-2.0965725v-4.92374236c0-.41421356.33578644-.75.75-.75h3.61985293c.4142136 0 .75.33578644.75.75v8.31535366c0 .8284271-.6715729 1.5-1.5 1.5z" opacity=".3" transform="matrix(.98480775 .17364818 -.17364818 .98480775 2.036638 -1.275188)"/><path d="m15.4588076 18.1510716-4.705127 2.7165064c-1.81705192 1.0490754-4.14050717.4265074-5.18958258-1.3905445-1.0490754-1.8170519-.42650744-4.1405071 1.39054446-5.1895825l4.77211432-2.7551815v-6.38119786c0-.55228475.4477152-1 1-1h5c.5522847 0 1 .44771525 1 1v10.99999996c0 1.1045695-.8954305 2-2 2z" transform="matrix(.98480775 .17364818 -.17364818 .98480775 2.397113 -1.870869)"/></g></g></svg>