<svg height="24" viewBox="0 0 24 24" width="24" xmlns="http://www.w3.org/2000/svg"><g fill="none" fill-rule="evenodd"><path d="m0 0h24v24h-24z"/><g fill="#335eea"><path d="m9.89442719 16.9422697-1.78885438-.8944272c1.07541637-2.1508327 3.69080799-3.02263 5.84164079-1.9472136.842638.421319 1.5258946 1.1045756 1.9472136 1.9472136l-1.7888544.8944272c-.2277916-.4555832-.5972032-.8249948-1.0527864-1.0527864-1.1628757-.5814379-2.5769213-.1100894-3.15835921 1.0527864zm12.01143951-8.82301009c.5334661.14294181.8500486.69127877.7071067 1.22474487l-1.6472031 6.14744592c-.1429418.5334661-.6912788.8500486-1.2247449.7071068-.5334661-.1429419-.8500486-.6912788-.7071068-1.2247449l1.6472032-6.14744591c.1429418-.5334661.6912788-.85004859 1.2247449-.70710678zm-19.81173336 0c.53346611-.14294181 1.08180306.17364068 1.22474487.70710678l1.55291427 5.79555491c.14294182.5334662-.17364067 1.0818031-.70710678 1.2247449-.5334661.1429418-1.08180306-.1736407-1.22474487-.7071068l-1.55291427-5.79555492c-.14294181-.5334661.17364068-1.08180306.70710678-1.22474487z" opacity=".3"/><path d="m6.5 20c-2.48528137 0-4.5-2.0147186-4.5-4.5s2.01471863-4.5 4.5-4.5 4.5 2.0147186 4.5 4.5-2.01471863 4.5-4.5 4.5zm11 0c-2.4852814 0-4.5-2.0147186-4.5-4.5s2.0147186-4.5 4.5-4.5 4.5 2.0147186 4.5 4.5-2.0147186 4.5-4.5 4.5z"/></g></g></svg>