<svg height="24" viewBox="0 0 24 24" width="24" xmlns="http://www.w3.org/2000/svg"><g fill="none" fill-rule="evenodd"><path d="m0 0h24v24h-24z"/><path d="m7.83498136 4c.39377979 1.21244017 2.10887038 2.125 4.16498464 2.125 2.0561142 0 3.7712048-.91255983 4.1649846-2.125h1.1074165c.0723307-.00796209.1457563-.00808161.2189388 0h.0086941c.3012164 0 .5713275.1331782.7546625.34386406l4.3353423 2.50301104c.4782926.27614238.6421678.88773278.3660254 1.36602541l-1.65625 2.86870919c-.2761424.4782926-.8877328.6421677-1.3660254.3660254l-1.4337548-.8277788v9.3801437c0 .5522847-.4477153 1-1 1h-11c-.55228475 0-1-.4477153-1-1v-9.3795148l-1.4326656.8271499c-.47829263.2761423-1.08988303.1122672-1.36602541-.3660254l-1.65625-2.86870919c-.27614237-.47829263-.11226722-1.08988303.36602541-1.36602541l4.33315713-2.50174944c.18335362-.21141566.45394123-.34512566.75575847-.34512566h.00978325c.07318253-.00808161.14660818-.00796209.21893886 0z" fill="#335eea"/></g></svg>