<svg height="24" viewBox="0 0 24 24" width="24" xmlns="http://www.w3.org/2000/svg"><g fill="none" fill-rule="evenodd"><path d="m0 0h24v24h-24z"/><g fill="#335eea"><path d="m14.1124454 7.00625159c-.0369118-.00413042-.0744309-.00625159-.1124454-.00625159h-4c-.03801451 0-.07553359.00212117-.11244535.00625159l-2.5399376-2.44825963c-.39701332-.3826833-.40932435-1.0145238-.0275194-1.4123819l1.09938594-1.14561006h7.16103281l1.0993859 1.14561006c.381805.3978581.369494 1.0296986-.0275194 1.4123819z"/><path d="m13.7640285 9 1.7213139 9.1494183c.0597251.3174611-.0375797.6442204-.2612461.877291l-2.5025832 2.6078053c-.0095033.0099028-.0192094.019609-.0291123.0291123-.3984807.3824024-1.0315115.3693684-1.4139139-.0291123l-2.50258318-2.6078053c-.22366644-.2330706-.32097123-.5598299-.26124612-.877291l1.7213139-9.1494183z" opacity=".3"/></g></g></svg>