<svg height="24" viewBox="0 0 24 24" width="24" xmlns="http://www.w3.org/2000/svg"><g fill="none" fill-rule="evenodd"><path d="m0 0h24v24h-24z"/><g fill="#335eea"><path d="m5.94290508 4h12.11418982c.5294763 0 .9671825.41271535.9982744.94127798l.8200752 13.94127802c.0648625 1.1026634-.7764413 2.0491302-1.8791047 2.1139927-.0391058.0023004-.0782707.0034513-.1174441.0034513h-11.75779142c-1.1045695 0-2-.8954305-2-2 0-.0391734.00115091-.0783383.00345125-.117444l.82007518-13.94127802c.03109192-.52856263.46879806-.94127798.99827437-.94127798z" opacity=".3"/><path d="m7 7h2c0 1.65685425 1.3431458 3 3 3s3-1.34314575 3-3h2c0 2.76142375-2.2385763 5-5 5-2.76142375 0-5-2.23857625-5-5z"/></g></g></svg>