<svg height="24" viewBox="0 0 24 24" width="24" xmlns="http://www.w3.org/2000/svg"><g fill="none" fill-rule="evenodd"><path d="m0 0h24v24h-24z"/><g fill="#335eea"><path d="m4 4h16c1.1045695 0 2 .8954305 2 2v12c0 1.1045695-.8954305 2-2 2h-16c-1.1045695 0-2-.8954305-2-2v-12c0-1.1045695.8954305-2 2-2z" opacity=".3"/><path d="m18.5 11h-13c-.82842712 0-1.5.6715729-1.5 1.5v.5h4.58578644c.26521649 0 .5195704.1053568.70710678.2928932l.99999998 1c.4527529.4527529 1.0668176.7071068 1.7071068.7071068s1.2543539-.2543539 1.7071068-.7071068l1-1c.1875364-.1875364.4418903-.2928932.7071068-.2928932h4.5857864v-.5c0-.8284271-.6715729-1.5-1.5-1.5z"/><path d="m5.5 6c-.82842712 0-1.5.67157288-1.5 1.5v.5h16v-.5c0-.82842712-.6715729-1.5-1.5-1.5z"/></g></g></svg>