<svg height="24" viewBox="0 0 24 24" width="24" xmlns="http://www.w3.org/2000/svg"><g fill="none" fill-rule="evenodd"><path d="m0 0h24v24h-24z"/><g fill="#335eea"><circle cx="12" cy="12" opacity=".3" r="10"/><path d="m12.0355339 10.6213203 2.8284271-2.82842708c.3905243-.39052429 1.0236893-.39052429 1.4142136 0s.3905243 1.02368927 0 1.41421356l-2.8284271 2.82842712 2.8284271 2.8284271c.3905243.3905243.3905243 1.0236893 0 1.4142136s-1.0236893.3905243-1.4142136 0l-2.8284271-2.8284271-2.82842712 2.8284271c-.39052429.3905243-1.02368927.3905243-1.41421356 0s-.39052429-1.0236893 0-1.4142136l2.82842708-2.8284271-2.82842708-2.82842712c-.39052429-.39052429-.39052429-1.02368927 0-1.41421356s1.02368927-.39052429 1.41421356 0z"/></g></g></svg>