<svg height="24" viewBox="0 0 24 24" width="24" xmlns="http://www.w3.org/2000/svg"><g fill="none" fill-rule="evenodd"><path d="m0 0h24v24h-24z"/><g fill="#335eea"><circle cx="12" cy="12" opacity=".3" r="10"/><path d="m12.4208204 17.1583592 3.0364745-6.072949c.1852419-.3704839.0350737-.8209887-.3354102-1.0062306-.1041416-.0520708-.2189764-.0791796-.3354102-.0791796h-2.7864745v-2.82294902c0-.41421356-.3357864-.75-.75-.75-.284079 0-.5437764.16050179-.6708204.41458981l-3.0364745 6.07294901c-.18524194.3704839-.03507368.8209887.33541019 1.0062306.10414158.0520708.21897638.0791796.3354102.0791796h2.78647451v2.822949c0 .4142136.3357864.75.75.75.284079 0 .5437764-.1605018.6708204-.4145898z"/></g></g></svg>