<svg height="24" viewBox="0 0 24 24" width="24" xmlns="http://www.w3.org/2000/svg"><g fill="none" fill-rule="evenodd"><path d="m0 0h24v24h-24z"/><g fill="#335eea"><path d="m4 6h17c.5522847 0 1 .44771525 1 1v11c0 .5522847-.4477153 1-1 1h-17c-.55228475 0-1-.4477153-1-1v-11c0-.55228475.44771525-1 1-1z" opacity=".3"/><path d="m7 13h1v6h-1z" opacity=".3"/><path d="m12 13h1v6h-1z" opacity=".3"/><path d="m17 13h1v6h-1z" opacity=".3"/><path d="m6 6h3v6c0 .5522847-.44771525 1-1 1h-1c-.55228475 0-1-.4477153-1-1z"/><path d="m11 6h3v6c0 .5522847-.4477153 1-1 1h-1c-.5522847 0-1-.4477153-1-1z"/><path d="m16 6h3v6c0 .5522847-.4477153 1-1 1h-1c-.5522847 0-1-.4477153-1-1z"/></g></g></svg>